<svg width="900" height="520" viewBox="0 0 900 520" xmlns="http://www.w3.org/2000/svg" role="img">
  <defs>
    <filter id="shadow" x="-30%" y="-30%" width="160%" height="180%">
      <feDropShadow dx="0" dy="4" stdDeviation="5" flood-color="#0f172a" flood-opacity="0.24"/>
    </filter>
    <linearGradient id="mapBg" x1="0" y1="0" x2="1" y2="1">
      <stop offset="0" stop-color="#f7fafc"/>
      <stop offset="1" stop-color="#eef7f4"/>
    </linearGradient>
    <pattern id="grid" width="40" height="40" patternUnits="userSpaceOnUse">
      <path d="M40 0H0V40" fill="none" stroke="#d7e2e0" stroke-width="1" opacity="0.55"/>
    </pattern>
    <style>
      .title { font: 900 30px Inter, Segoe UI, Arial, sans-serif; fill: #102a43; }
      .subtitle { font: 600 16px Inter, Segoe UI, Arial, sans-serif; fill: #486581; }
      .route { font: 900 36px Inter, Segoe UI, Arial, sans-serif; fill: #fff; letter-spacing: -1px; }
      .arrow { font: 900 34px Inter, Segoe UI, Arial, sans-serif; fill: #fff; }
      .mini { font: 800 14px Inter, Segoe UI, Arial, sans-serif; fill: #0b5cad; letter-spacing: .08em; }
      .note { font: 600 15px Inter, Segoe UI, Arial, sans-serif; fill: #52616b; }
      .blue { fill: #0b5cad; }
      .pale { fill: #dbeafe; }
      .line { stroke: #0b5cad; stroke-width: 14; stroke-linecap: round; opacity: .28; }
    </style>
  </defs>
  <rect width="900" height="520" fill="#f8fbff"/>
  <rect x="36" y="34" width="828" height="452" rx="30" fill="url(#mapBg)"/>
  <rect x="36" y="34" width="828" height="452" rx="30" fill="url(#grid)" opacity=".9"/>
  <path d="M66 330 C 190 245, 292 345, 424 262 S 648 178, 824 286" fill="none" stroke="#bfdbfe" stroke-width="10" stroke-linecap="round" opacity=".85"/>
  <path d="M72 390 C 194 312, 306 408, 436 348 S 646 260, 820 346" fill="none" stroke="#fecdd3" stroke-width="8" stroke-linecap="round" opacity=".70"/>
  <text x="70" y="92" class="title">Iteration 3: explicit arrow labels</text>
  <text x="70" y="122" class="subtitle">Matching blue 7A/7B tabs plus text labels for maximum clarity.</text>
    <g transform="translate(202 196)" filter="url(#shadow)">
    <line x1="24" y1="62" x2="456" y2="62" class="line"/>
    <rect x="0" y="26" width="212" height="84" rx="21" class="blue"/>
    <rect x="236" y="26" width="212" height="84" rx="21" class="blue"/>
    <rect x="18" y="0" width="176" height="32" rx="16" fill="#ffffff" stroke="#0b5cad" stroke-width="3"/>
    <rect x="254" y="0" width="176" height="32" rx="16" fill="#ffffff" stroke="#0b5cad" stroke-width="3"/>
    <text x="65" y="23" class="mini">← THIS WAY</text>
    <text x="291" y="23" class="mini">THIS WAY →</text>
    <text x="68" y="82" class="route">7A</text>
    <text x="304" y="82" class="route">7B</text>
    <path d="M94 122 l12 14 l12 -14" class="blue"/>
    <path d="M330 122 l12 14 l12 -14" class="blue"/>
  </g>
  <g transform="translate(258 360)">
    <text x="0" y="0" class="mini">Label-first direction cue</text>
    <text x="260" y="0" class="mini">Most explicit option</text>
  </g>
  <text x="70" y="458" class="note">Best if user testing shows arrows alone are not obvious enough.</text>
</svg>
