<svg xmlns="http://www.w3.org/2000/svg" width="512" height="512" viewBox="0 0 512 512">
  <title>Transit Arrival</title>
  <mask id="cut">
    <rect width="512" height="512" fill="#FFFFFF"/>
    <path d="M173 215A36 27 0 1 1 206 253A42 32 0 1 1 168 299" stroke="#000000" stroke-width="30" stroke-linecap="round" stroke-linejoin="round" fill="none"/>
    <path d="M286 326V286M286 300A12 12 0 0 1 310 300V326M310 300A12 12 0 0 1 334 300V326M354 326V290M374 326V286M374 302A14 14 0 0 1 402 302V326" stroke="#000000" stroke-width="16" stroke-linecap="round" stroke-linejoin="round" fill="none"/>
    <circle cx="354" cy="268" r="9" fill="#000000"/>
    <circle cx="384" cy="182" r="18" fill="#000000"/>
  </mask>
  <rect x="48" y="112" width="416" height="288" rx="72" fill="#111827" mask="url(#cut)"/>
</svg>
