<svg xmlns="http://www.w3.org/2000/svg" viewBox="930.4367925 568.2956185 187.5407219999999 187.5407219999999">
  <path fill="#0C150C" d="
M946.868896,631.006836 
	C946.065186,616.523621 949.480042,604.132690 960.331665,594.485229 
	C966.913391,588.633850 974.619324,584.867065 983.321899,584.784180 
	C1011.283630,584.517639 1039.284058,583.964417 1067.203735,585.116943 
	C1086.500732,585.913391 1101.692261,603.203247 1101.945068,622.503601 
	C1102.289673,648.812744 1102.349121,675.134033 1101.957520,701.441650 
	C1101.634399,723.156311 1084.547241,739.754333 1062.780640,739.941345 
	C1037.301392,740.160278 1011.817261,740.167542 986.337830,739.956055 
	C964.446533,739.774292 947.185913,722.435913 946.966492,700.454285 
	C946.737061,677.473267 946.886292,654.488403 946.868896,631.006836 
M1092.184448,607.287476 
	C1091.831909,606.835388 1091.479370,606.383240 1091.178467,605.890259 
	C1091.178467,605.890259 1091.172485,605.824646 1091.149780,605.242737 
	C1090.800415,604.802368 1090.450928,604.362000 1089.774048,603.334412 
	C1083.868896,595.448914 1075.992554,590.240845 1066.223389,590.057861 
	C1038.923218,589.546387 1011.597351,589.246155 984.305359,589.882629 
	C966.810547,590.290649 952.477234,605.237488 952.156494,622.731384 
	C951.677368,648.868835 951.791077,675.025024 952.155212,701.166260 
	C952.306213,712.007874 957.241394,720.990601 966.379272,728.137146 
	C972.563782,732.905945 979.782166,734.772888 987.363586,734.822266 
	C1012.117920,734.983582 1036.875488,735.027588 1061.628052,734.765503 
	C1066.122070,734.717957 1070.598755,733.014709 1074.997803,732.072449 
	C1074.997803,732.072449 1075.058716,732.132690 1075.643799,732.120361 
	C1076.155396,731.865784 1076.666992,731.611145 1077.728149,731.218933 
	C1078.181519,730.897400 1078.634766,730.575867 1079.714966,730.102295 
	C1080.520020,729.448608 1081.325073,728.794922 1082.089355,728.184326 
	C1082.089355,728.184326 1082.148804,728.180420 1082.761597,728.070068 
	C1083.522339,727.390137 1084.282959,726.710144 1085.004150,725.997009 
	C1085.004150,725.997009 1085.018433,726.046265 1085.509399,725.863098 
	C1085.712891,725.585388 1085.916260,725.307617 1086.630737,724.788513 
	C1087.090942,724.207092 1087.551270,723.625671 1088.560791,722.733765 
	C1089.085327,721.854919 1089.609863,720.976013 1090.101562,719.999817 
	C1090.101562,719.999817 1090.097046,720.102417 1090.658569,719.809692 
	C1091.139893,718.894104 1091.621216,717.978516 1092.048218,716.991943 
	C1092.048218,716.991943 1092.064819,717.079712 1092.627197,716.649597 
	C1094.079224,711.096191 1096.683960,705.563782 1096.785156,699.985840 
	C1097.240112,674.931152 1097.119141,649.862061 1096.853638,624.802002 
	C1096.808105,620.498962 1095.053223,616.214050 1094.079224,612.009155 
	C1094.079224,612.009155 1094.139038,611.943604 1094.131348,611.324158 
	C1093.796265,610.851868 1093.461182,610.379578 1093.075684,610.026611 
	C1093.075684,610.026611 1093.148926,609.918457 1093.170044,609.301208 
	C1092.828735,608.834717 1092.487549,608.368164 1092.134521,607.983704 
	C1092.134521,607.983704 1092.166626,607.899475 1092.184448,607.287476 
z" />
  <path fill="#97E084" d="
M966.014526,727.644165 
	C957.241394,720.990601 952.306213,712.007874 952.155212,701.166260 
	C951.791077,675.025024 951.677368,648.868835 952.156494,622.731384 
	C952.477234,605.237488 966.810547,590.290649 984.305359,589.882629 
	C1011.597351,589.246155 1038.923218,589.546387 1066.223389,590.057861 
	C1075.992554,590.240845 1083.868896,595.448914 1089.926514,604.020813 
	C1090.129517,604.964294 1090.180054,605.221436 1089.879150,605.364746 
	C1088.027222,604.511047 1086.526733,603.771301 1084.708130,602.859253 
	C1076.403442,598.603149 1067.969482,596.796143 1058.961670,596.969238 
	C1035.529541,597.419678 1012.085144,598.119324 988.660522,597.757629 
	C973.943054,597.530457 959.952209,609.793091 959.961182,626.296265 
	C959.975830,653.092896 959.707886,679.894287 960.194519,706.682129 
	C960.287781,711.817017 963.311096,716.898743 965.043335,722.354004 
	C965.538269,723.801086 965.972534,724.899109 966.277344,726.401489 
	C966.103394,727.085144 966.058960,727.364624 966.014526,727.644165 
z" />
  <path fill="#3EAF4B" d="
M1085.026245,603.031616 
	C1086.526733,603.771301 1088.027222,604.511047 1089.994385,605.486572 
	C1090.460938,605.722290 1090.806519,605.842896 1090.806519,605.842896 
	C1090.806519,605.842896 1091.172485,605.824646 1091.172485,605.824646 
	C1091.172485,605.824646 1091.178467,605.890259 1091.131592,606.223389 
	C1091.445312,607.004150 1091.805908,607.451843 1092.166626,607.899475 
	C1092.166626,607.899475 1092.134521,607.983704 1092.111450,608.258179 
	C1092.441895,608.994568 1092.795410,609.456543 1093.148926,609.918457 
	C1093.148926,609.918457 1093.075684,610.026611 1093.078735,610.283142 
	C1093.434204,611.007629 1093.786621,611.475647 1094.139038,611.943604 
	C1094.139038,611.943604 1094.079224,612.009155 1094.051514,612.404541 
	C1094.679321,625.521362 1095.619873,638.236084 1095.914429,650.965820 
	C1096.245483,665.262329 1096.026855,679.572510 1095.959351,693.876282 
	C1095.948608,696.168518 1095.601440,698.480652 1095.196289,700.745361 
	C1094.219849,706.202209 1093.116699,711.636353 1092.064819,717.079712 
	C1092.064819,717.079712 1092.048218,716.991943 1091.712891,717.054749 
	C1090.950806,718.112549 1090.523926,719.107483 1090.097046,720.102417 
	C1090.097046,720.102417 1090.101562,719.999817 1089.755371,720.061035 
	C1088.943237,721.096252 1088.477417,722.070251 1088.011475,723.044250 
	C1087.551270,723.625671 1087.090942,724.207092 1086.127197,724.999146 
	C1085.421753,725.488647 1085.220093,725.767456 1085.018433,726.046265 
	C1085.018433,726.046265 1085.004150,725.997009 1084.656250,726.005920 
	C1083.588379,726.736755 1082.868652,727.458618 1082.148926,728.180420 
	C1082.148804,728.180420 1082.089355,728.184326 1081.729004,728.119629 
	C1080.608398,728.788025 1079.848267,729.521179 1079.088135,730.254333 
	C1078.634766,730.575867 1078.181519,730.897400 1077.321777,731.040527 
	C1076.296509,731.285583 1075.677612,731.709106 1075.058716,732.132690 
	C1075.058716,732.132690 1074.997803,732.072449 1074.577026,732.045776 
	C1068.387451,732.344421 1062.619873,732.919434 1056.849487,732.950378 
	C1035.762573,733.063477 1014.673889,732.893555 993.587341,733.040344 
	C983.839172,733.108215 974.444885,732.299194 966.406799,725.997192 
	C965.972534,724.899109 965.538269,723.801086 965.445496,722.350098 
	C972.057373,723.329163 978.309387,725.698242 984.601440,725.810181 
	C1009.564880,726.254456 1034.541016,726.064941 1059.511963,725.965393 
	C1073.577148,725.909302 1083.771240,717.631714 1086.985840,703.868896 
	C1087.583008,701.312134 1088.053833,698.623230 1087.948975,696.020874 
	C1086.700928,665.032654 1091.086426,633.864868 1085.026245,603.031616 
z" />
  <path fill="#46A650" d="
M966.277344,726.401489 
	C974.444885,732.299194 983.839172,733.108215 993.587341,733.040344 
	C1014.673889,732.893555 1035.762573,733.063477 1056.849487,732.950378 
	C1062.619873,732.919434 1068.387451,732.344421 1074.619873,732.047424 
	C1070.598755,733.014709 1066.122070,734.717957 1061.628052,734.765503 
	C1036.875488,735.027588 1012.117920,734.983582 987.363586,734.822266 
	C979.782166,734.772888 972.563782,732.905945 966.196899,727.890625 
	C966.058960,727.364624 966.103394,727.085144 966.277344,726.401489 
z" />
  <path fill="#46A650" d="
M1092.345947,716.864624 
	C1093.116699,711.636353 1094.219849,706.202209 1095.196289,700.745361 
	C1095.601440,698.480652 1095.948608,696.168518 1095.959351,693.876282 
	C1096.026855,679.572510 1096.245483,665.262329 1095.914429,650.965820 
	C1095.619873,638.236084 1094.679321,625.521362 1094.055908,612.360352 
	C1095.053223,616.214050 1096.808105,620.498962 1096.853638,624.802002 
	C1097.119141,649.862061 1097.240112,674.931152 1096.785156,699.985840 
	C1096.683960,705.563782 1094.079224,711.096191 1092.345947,716.864624 
z" />
  <path fill="#46A650" d="
M1088.286133,722.889038 
	C1088.477417,722.070251 1088.943237,721.096252 1089.771729,720.109741 
	C1089.609863,720.976013 1089.085327,721.854919 1088.286133,722.889038 
z" />
  <path fill="#46A650" d="
M1090.377808,719.956055 
	C1090.523926,719.107483 1090.950806,718.112549 1091.740112,717.090210 
	C1091.621216,717.978516 1091.139893,718.894104 1090.377808,719.956055 
z" />
  <path fill="#46A650" d="
M1079.401611,730.178345 
	C1079.848267,729.521179 1080.608398,728.788025 1081.749268,728.098022 
	C1081.325073,728.794922 1080.520020,729.448608 1079.401611,730.178345 
z" />
  <path fill="#46A650" d="
M1082.455322,728.125244 
	C1082.868652,727.458618 1083.588379,726.736755 1084.676025,726.022522 
	C1084.282959,726.710144 1083.522339,727.390137 1082.455322,728.125244 
z" />
  <path fill="#46A650" d="
M1075.351318,732.126465 
	C1075.677612,731.709106 1076.296509,731.285583 1077.046997,731.109314 
	C1076.666992,731.611145 1076.155396,731.865784 1075.351318,732.126465 
z" />
  <path fill="#46A650" d="
M1091.161133,605.533691 
	C1091.172485,605.824646 1090.806519,605.842896 1090.806519,605.842896 
	C1090.806519,605.842896 1090.460938,605.722290 1090.345703,605.600464 
	C1090.180054,605.221436 1090.129517,604.964294 1090.090332,604.314453 
	C1090.450928,604.362000 1090.800415,604.802368 1091.161133,605.533691 
z" />
  <path fill="#46A650" d="
M1093.159424,609.609863 
	C1092.795410,609.456543 1092.441895,608.994568 1092.117432,608.217163 
	C1092.487549,608.368164 1092.828735,608.834717 1093.159424,609.609863 
z" />
  <path fill="#46A650" d="
M1094.135254,611.633911 
	C1093.786621,611.475647 1093.434204,611.007629 1093.103882,610.223511 
	C1093.461182,610.379578 1093.796265,610.851868 1094.135254,611.633911 
z" />
  <path fill="#46A650" d="
M1092.175537,607.593506 
	C1091.805908,607.451843 1091.445312,607.004150 1091.105713,606.243835 
	C1091.479370,606.383240 1091.831909,606.835388 1092.175537,607.593506 
z" />
  <path fill="#46A650" d="
M1085.263916,725.954712 
	C1085.220093,725.767456 1085.421753,725.488647 1085.871582,725.119873 
	C1085.916260,725.307617 1085.712891,725.585388 1085.263916,725.954712 
z" />
  <path fill="#60CC56" d="
M1084.708130,602.859314 
	C1091.086426,633.864868 1086.700928,665.032654 1087.948975,696.020874 
	C1088.053833,698.623230 1087.583008,701.312134 1086.985840,703.868896 
	C1083.771240,717.631714 1073.577148,725.909302 1059.511963,725.965393 
	C1034.541016,726.064941 1009.564880,726.254456 984.601440,725.810181 
	C978.309387,725.698242 972.057373,723.329163 965.384766,722.001099 
	C963.311096,716.898743 960.287781,711.817017 960.194519,706.682129 
	C959.707886,679.894287 959.975830,653.092896 959.961182,626.296265 
	C959.952209,609.793091 973.943054,597.530457 988.660522,597.757629 
	C1012.085144,598.119324 1035.529541,597.419678 1058.961670,596.969238 
	C1067.969482,596.796143 1076.403442,598.603149 1084.708130,602.859314 
M1070.952393,652.037720 
	C1070.952393,652.037720 1070.949829,652.124573 1070.749512,651.605164 
	C1070.440063,651.416931 1070.130493,651.228760 1069.418457,650.905823 
	C1069.158569,650.753418 1068.994995,650.530334 1068.917725,649.468384 
	C1065.918091,645.410217 1061.571289,644.989197 1057.063232,645.188354 
	C1053.099976,645.363342 1049.144775,645.716003 1045.185425,645.984436 
	C1042.242554,646.183899 1040.918701,644.851685 1040.977539,641.858215 
	C1041.072266,637.029724 1041.400757,632.152100 1040.856567,627.383484 
	C1040.484131,624.119080 1041.492188,619.705139 1036.579468,618.340942 
	C1036.579468,618.340942 1036.519775,618.350281 1036.793213,617.611633 
	C1035.135986,616.470886 1033.478882,615.330139 1031.904785,614.240479 
	C1031.904785,614.240479 1031.807739,614.250183 1031.837158,613.464783 
	C1026.934082,609.672974 1020.931702,610.000549 1017.035645,614.132385 
	C1017.035645,614.132385 1017.189819,614.218567 1016.426025,614.075806 
	C1015.700684,614.808533 1014.975342,615.541199 1014.163635,616.238098 
	C1014.163635,616.238098 1014.228455,616.170654 1013.674377,616.278198 
	C1013.506287,616.596252 1013.338257,616.914307 1013.225342,617.149597 
	C1013.225342,617.149597 1013.261719,617.242188 1012.511658,617.162537 
	C1012.039612,618.149780 1011.567566,619.136963 1011.060669,620.046997 
	C1011.060669,620.046997 1011.145264,620.042053 1010.572205,620.337097 
	C1010.423157,620.938904 1010.274109,621.540771 1010.102051,622.053284 
	C1010.102051,622.053284 1010.191956,622.073730 1009.427673,622.359619 
	C1008.953552,624.016846 1008.136169,625.660522 1008.070312,627.333740 
	C1007.881897,632.122192 1007.849426,636.928772 1008.047607,641.716125 
	C1008.178711,644.884644 1007.187012,646.187195 1003.853394,646.047852 
	C998.570923,645.827148 993.262878,645.817200 987.985901,646.098450 
	C986.330078,646.186707 984.739380,647.497620 983.074707,648.139404 
	C983.074707,648.139404 983.181519,648.189758 982.429077,648.068298 
	C981.652405,648.763794 980.875793,649.459290 980.055176,650.081665 
	C980.055176,650.081665 980.138855,650.064880 979.626282,650.233154 
	C979.430786,650.524231 979.235291,650.815308 979.029297,651.029419 
	C979.029297,651.029419 979.106262,651.040039 978.605469,651.230164 
	C978.419006,651.525146 978.232544,651.820129 978.039734,652.035645 
	C978.039734,652.035645 978.118774,652.045776 977.609985,652.245300 
	C977.448303,652.559570 977.286560,652.873840 977.119324,653.071777 
	C977.119324,653.071777 977.230591,653.106201 976.620483,653.341858 
	C976.457581,653.943909 976.294678,654.545898 976.104065,655.056519 
	C976.104065,655.056519 976.196472,655.080688 975.478333,655.319458 
	C972.359497,660.572632 972.622009,666.134277 976.040161,668.986267 
	C976.040161,668.986267 976.073303,668.895996 976.065308,669.541504 
	C976.443909,670.000427 976.822510,670.459351 977.089478,670.944885 
	C977.089478,670.944885 977.093811,670.830261 977.252625,671.364319 
	C977.554077,671.563538 977.855469,671.762756 978.649475,672.195435 
	C979.111084,672.746643 979.572632,673.297791 980.229675,674.367249 
	C980.540466,674.548340 980.851257,674.729431 981.051086,674.911621 
	C981.051086,674.911621 981.079346,674.804260 981.326355,675.393616 
	C981.911926,675.578552 982.497437,675.763428 983.011292,675.987488 
	C983.011292,675.987488 983.042542,675.911987 983.142700,676.674683 
	C988.286011,677.213562 993.477051,678.454224 998.560059,678.108032 
	C1004.483643,677.704529 1007.955994,679.810852 1007.995422,685.589783 
	C1008.022522,689.557678 1007.802979,693.541138 1008.104614,697.486267 
	C1008.220825,699.006470 1009.473877,700.439819 1010.117310,701.944641 
	C1010.117310,701.944641 1010.139771,701.850281 1010.085938,702.498474 
	C1010.437500,702.985596 1010.789062,703.472717 1011.056274,703.958435 
	C1011.056274,703.958435 1011.089722,703.880981 1011.066895,704.532959 
	C1011.454956,704.986267 1011.843018,705.439575 1012.117798,705.927002 
	C1012.117798,705.927002 1012.123962,705.808899 1012.250183,706.345032 
	C1012.545349,706.544250 1012.840576,706.743530 1013.049927,706.955872 
	C1013.049927,706.955872 1013.057495,706.869385 1013.232605,707.380188 
	C1013.526917,707.571655 1013.821167,707.763123 1014.036621,707.962585 
	C1014.036621,707.962585 1014.045166,707.883850 1014.237610,708.390625 
	C1014.541748,708.567810 1014.845947,708.745056 1015.067078,708.891602 
	C1015.067078,708.891602 1015.122925,708.822998 1015.130005,709.574829 
	C1017.104553,710.373901 1019.079163,711.172974 1020.999756,711.999329 
	C1020.999756,711.999329 1021.004639,711.939087 1021.530457,712.546082 
	C1032.139282,714.115784 1038.382202,710.271545 1040.339844,699.991516 
	C1041.318970,694.849854 1040.874634,689.429199 1040.986206,684.132874 
	C1041.055786,680.826782 1042.074585,678.927124 1045.930664,678.913513 
	C1051.707275,678.893066 1057.520264,678.633240 1063.244263,677.899963 
	C1067.273315,677.383728 1071.703979,676.560486 1072.003906,670.996460 
	C1072.003906,670.996460 1071.955933,670.992676 1072.436157,670.759521 
	C1072.578003,670.443787 1072.719849,670.127991 1072.888184,669.925781 
	C1072.888184,669.925781 1072.772461,669.910950 1073.433105,669.555298 
	C1073.572388,668.837891 1073.711792,668.120544 1073.661133,667.239624 
	C1073.661133,667.239624 1073.753296,667.006592 1074.576904,666.880737 
	C1077.235840,662.374817 1076.590576,657.983887 1072.928101,655.043884 
	C1072.928101,655.043884 1072.898071,655.128357 1072.927002,654.475098 
	C1072.540894,654.019592 1072.154785,653.564087 1071.883545,653.077637 
	C1071.883545,653.077637 1071.872803,653.196106 1071.748535,652.658997 
	C1071.454712,652.457214 1071.160767,652.255432 1070.952393,652.037720 
z" />
  <path fill="#0C150C" d="
M1068.927612,650.236633 
	C1068.994995,650.530334 1069.158569,650.753418 1069.739136,651.218689 
	C1070.356445,651.729248 1070.653198,651.926880 1070.949829,652.124573 
	C1070.949829,652.124573 1070.952393,652.037720 1070.980469,652.313293 
	C1071.296509,652.791260 1071.584595,652.993713 1071.872803,653.196167 
	C1071.872803,653.196106 1071.883545,653.077637 1071.864136,653.394897 
	C1072.195801,654.184204 1072.546997,654.656311 1072.898071,655.128357 
	C1072.898071,655.128357 1072.928101,655.043884 1072.929688,655.464233 
	C1073.205322,659.591919 1073.479248,663.299255 1073.753296,667.006592 
	C1073.753296,667.006592 1073.661133,667.239624 1073.481934,667.552734 
	C1073.125854,668.547607 1072.949097,669.229248 1072.772461,669.910950 
	C1072.772461,669.910950 1072.888184,669.925781 1072.620483,669.962891 
	C1072.220459,670.330872 1072.088257,670.661804 1071.955933,670.992676 
	C1071.955933,670.992676 1072.003906,670.996460 1071.708008,671.161865 
	C1067.962158,675.490662 1063.430908,677.039856 1058.149536,676.977539 
	C1051.907227,676.903870 1045.663452,676.960266 1039.137695,676.960266 
	C1039.137695,682.758118 1039.132935,687.730835 1039.138672,692.703552 
	C1039.154541,706.513489 1034.941162,710.984863 1021.004639,711.939087 
	C1021.004639,711.939087 1020.999756,711.999329 1020.851929,711.693359 
	C1018.843689,710.532593 1016.983337,709.677795 1015.122925,708.822998 
	C1015.122925,708.822998 1015.067078,708.891602 1015.016602,708.652161 
	C1014.659119,708.236389 1014.352112,708.060120 1014.045166,707.883850 
	C1014.045166,707.883850 1014.036621,707.962585 1013.984863,707.705200 
	C1013.641296,707.255066 1013.349365,707.062195 1013.057495,706.869385 
	C1013.057495,706.869385 1013.049927,706.955872 1013.016113,706.686646 
	C1012.696228,706.214539 1012.410095,706.011719 1012.123962,705.808899 
	C1012.123962,705.808899 1012.117798,705.927002 1012.133789,705.607788 
	C1011.796448,704.819336 1011.443054,704.350159 1011.089722,703.880981 
	C1011.089722,703.880981 1011.056274,703.958435 1011.062500,703.655090 
	C1010.759033,702.851257 1010.449402,702.350769 1010.139771,701.850281 
	C1010.139771,701.850281 1010.117310,701.944641 1010.131958,701.466553 
	C1010.146545,693.097473 1010.146545,685.206543 1010.146545,677.549927 
	C1000.452271,676.964111 991.747375,676.438049 983.042542,675.911987 
	C983.042542,675.911987 983.011292,675.987488 982.868164,675.726440 
	C982.176453,675.245056 981.627930,675.024658 981.079346,674.804260 
	C981.079346,674.804260 981.051086,674.911621 981.013062,674.652100 
	C980.661499,674.211426 980.347839,674.030212 980.034241,673.848999 
	C979.572632,673.297791 979.111084,672.746643 978.301147,671.824463 
	C977.666504,671.245728 977.380188,671.038025 977.093811,670.830261 
	C977.093811,670.830261 977.089478,670.944885 977.094788,670.634094 
	C976.757874,669.847534 976.415588,669.371765 976.073303,668.895996 
	C976.073303,668.895996 976.040161,668.986267 976.022949,668.555786 
	C976.069275,663.777100 976.132874,659.428894 976.196472,655.080688 
	C976.196472,655.080688 976.104065,655.056519 976.370605,654.932251 
	C976.834961,654.240723 977.032715,653.673462 977.230591,653.106201 
	C977.230591,653.106201 977.119324,653.071777 977.378845,653.038269 
	C977.798523,652.685120 977.958618,652.365417 978.118774,652.045776 
	C978.118774,652.045776 978.039734,652.035645 978.290283,651.975708 
	C978.729248,651.623840 978.917786,651.331909 979.106262,651.040039 
	C979.106262,651.040039 979.029297,651.029419 979.285156,650.974915 
	C979.740234,650.635254 979.939514,650.350037 980.138794,650.064819 
	C980.138855,650.064880 980.055176,650.081665 980.381836,650.045044 
	C981.532837,649.402161 982.357178,648.795959 983.181519,648.189758 
	C983.181519,648.189758 983.074707,648.139404 983.514526,648.152039 
	C992.483459,647.643799 1001.012695,647.122986 1010.191956,646.562439 
	C1010.191956,638.313843 1010.191956,630.193787 1010.191956,622.073730 
	C1010.191956,622.073730 1010.102051,622.053284 1010.362427,621.919556 
	C1010.796936,621.204590 1010.971069,620.623291 1011.145264,620.042053 
	C1011.145264,620.042053 1011.060669,620.046997 1011.344727,619.929688 
	C1012.173157,618.955627 1012.717407,618.098877 1013.261719,617.242188 
	C1013.261719,617.242188 1013.225342,617.149597 1013.462402,617.119019 
	C1013.875793,616.782532 1014.052124,616.476562 1014.228394,616.170654 
	C1014.228455,616.170654 1014.163635,616.238098 1014.503845,616.181641 
	C1015.625977,615.489624 1016.407898,614.854065 1017.189819,614.218567 
	C1017.189819,614.218567 1017.035645,614.132385 1017.499146,614.148560 
	C1022.577698,614.193237 1027.192749,614.221741 1031.807739,614.250244 
	C1031.807739,614.250183 1031.904785,614.240479 1032.032471,614.494690 
	C1033.613403,615.949341 1035.066528,617.149841 1036.519775,618.350281 
	C1036.519775,618.350281 1036.579468,618.340942 1036.627075,618.710327 
	C1037.888428,628.269043 1039.102295,637.458435 1040.383057,647.155212 
	C1043.963623,647.155212 1048.079346,647.204407 1052.193481,647.143372 
	C1057.985718,647.057556 1063.812866,646.694031 1068.927612,650.236633 
M998.528198,671.946594 
	C1003.668274,671.946594 1008.808411,671.946594 1014.649231,671.946594 
	C1014.649231,675.119995 1014.642151,677.911438 1014.650696,680.702881 
	C1014.667969,686.362061 1014.607666,692.023315 1014.743652,697.679749 
	C1014.848389,702.035950 1017.256470,704.785583 1021.376282,705.984497 
	C1028.589966,708.083557 1034.030273,704.150024 1034.167603,696.564453 
	C1034.314087,688.474182 1034.200562,680.379211 1034.200562,672.016113 
	C1041.773682,672.016113 1048.744629,672.004028 1055.715576,672.019104 
	C1064.778687,672.038635 1069.010620,669.018188 1069.152832,662.395874 
	C1069.302246,655.445312 1064.886719,651.986206 1055.923828,652.003418 
	C1048.830322,652.017090 1041.736938,652.006226 1034.189453,652.006226 
	C1034.189453,643.406067 1034.401245,635.439697 1034.062622,627.496887 
	C1033.958862,625.063660 1032.882568,622.233826 1031.305298,620.399475 
	C1028.609009,617.263794 1024.710205,616.554749 1020.797058,618.144897 
	C1016.939636,619.712463 1014.681702,622.644470 1014.669678,626.972900 
	C1014.646667,635.244019 1014.663025,643.515198 1014.663025,652.024292 
	C1005.880005,652.024292 997.733032,651.943237 989.588623,652.050964 
	C983.528992,652.131165 979.987793,655.780273 979.910522,661.695129 
	C979.828125,668.004639 983.240723,671.662537 989.552734,671.911438 
	C992.212463,672.016296 994.879333,671.940735 998.528198,671.946594 
z" />
  <path fill="#6EB867" d="
M1021.267578,712.242554 
	C1034.941162,710.984863 1039.154541,706.513489 1039.138672,692.703552 
	C1039.132935,687.730835 1039.137695,682.758118 1039.137695,676.960266 
	C1045.663452,676.960266 1051.907227,676.903870 1058.149536,676.977539 
	C1063.430908,677.039856 1067.962158,675.490662 1071.696289,671.140869 
	C1071.703979,676.560486 1067.273315,677.383728 1063.244263,677.899963 
	C1057.520264,678.633240 1051.707275,678.893066 1045.930664,678.913513 
	C1042.074585,678.927124 1041.055786,680.826782 1040.986206,684.132874 
	C1040.874634,689.429199 1041.318970,694.849854 1040.339844,699.991516 
	C1038.382202,710.271545 1032.139282,714.115784 1021.267578,712.242554 
z" />
  <path fill="#6EB867" d="
M1068.922607,649.852539 
	C1063.812866,646.694031 1057.985718,647.057556 1052.193481,647.143372 
	C1048.079346,647.204407 1043.963623,647.155212 1040.383057,647.155212 
	C1039.102295,637.458435 1037.888428,628.269043 1036.657104,618.706543 
	C1041.492188,619.705139 1040.484131,624.119080 1040.856567,627.383484 
	C1041.400757,632.152100 1041.072266,637.029724 1040.977539,641.858215 
	C1040.918701,644.851685 1042.242554,646.183899 1045.185425,645.984436 
	C1049.144775,645.716003 1053.099976,645.363342 1057.063232,645.188354 
	C1061.571289,644.989197 1065.918091,645.410217 1068.922607,649.852539 
z" />
  <path fill="#6EB867" d="
M983.092651,676.293335 
	C991.747375,676.438049 1000.452271,676.964111 1010.146545,677.549927 
	C1010.146545,685.206543 1010.146545,693.097473 1010.177734,701.450562 
	C1009.473877,700.439819 1008.220825,699.006470 1008.104614,697.486267 
	C1007.802979,693.541138 1008.022522,689.557678 1007.995422,685.589783 
	C1007.955994,679.810852 1004.483643,677.704529 998.560059,678.108032 
	C993.477051,678.454224 988.286011,677.213562 983.092651,676.293335 
z" />
  <path fill="#6EB867" d="
M1009.809814,622.216675 
	C1010.191956,630.193787 1010.191956,638.313843 1010.191956,646.562439 
	C1001.012695,647.122986 992.483459,647.643799 983.536621,648.206787 
	C984.739380,647.497620 986.330078,646.186707 987.985901,646.098450 
	C993.262878,645.817200 998.570923,645.827148 1003.853394,646.047852 
	C1007.187012,646.187195 1008.178711,644.884644 1008.047607,641.716125 
	C1007.849426,636.928772 1007.881897,632.122192 1008.070312,627.333740 
	C1008.136169,625.660522 1008.953552,624.016846 1009.809814,622.216675 
z" />
  <path fill="#6EB867" d="
M1031.822510,613.857544 
	C1027.192749,614.221741 1022.577698,614.193237 1017.556763,614.215515 
	C1020.931702,610.000549 1026.934082,609.672974 1031.822510,613.857544 
z" />
  <path fill="#6EB867" d="
M1074.165039,666.943665 
	C1073.479248,663.299255 1073.205322,659.591919 1072.885498,655.471863 
	C1076.590576,657.983887 1077.235840,662.374817 1074.165039,666.943665 
z" />
  <path fill="#6EB867" d="
M975.837402,655.200073 
	C976.132874,659.428894 976.069275,663.777100 976.063232,668.529663 
	C972.622009,666.134277 972.359497,660.572632 975.837402,655.200073 
z" />
  <path fill="#6EB867" d="
M1036.656494,617.980957 
	C1035.066528,617.149841 1033.613403,615.949341 1031.990967,614.469177 
	C1033.478882,615.330139 1035.135986,616.470886 1036.656494,617.980957 
z" />
  <path fill="#6EB867" d="
M1015.126465,709.198914 
	C1016.983337,709.677795 1018.843689,710.532593 1020.878906,711.679688 
	C1019.079163,711.172974 1017.104553,710.373901 1015.126465,709.198914 
z" />
  <path fill="#6EB867" d="
M1012.886658,617.202393 
	C1012.717407,618.098877 1012.173157,618.955627 1011.362183,619.968262 
	C1011.567566,619.136963 1012.039612,618.149780 1012.886658,617.202393 
z" />
  <path fill="#6EB867" d="
M1016.807922,614.147217 
	C1016.407898,614.854065 1015.625977,615.489624 1014.546997,616.199463 
	C1014.975342,615.541199 1015.700684,614.808533 1016.807922,614.147217 
z" />
  <path fill="#6EB867" d="
M982.805298,648.129028 
	C982.357178,648.795959 981.532837,649.402161 980.403870,650.081604 
	C980.875793,649.459290 981.652405,648.763794 982.805298,648.129028 
z" />
  <path fill="#6EB867" d="
M1072.912598,654.801758 
	C1072.546997,654.656311 1072.195801,654.184204 1071.806641,653.410400 
	C1072.154785,653.564087 1072.540894,654.019592 1072.912598,654.801758 
z" />
  <path fill="#6EB867" d="
M1073.102783,669.733154 
	C1072.949097,669.229248 1073.125854,668.547607 1073.576904,667.634521 
	C1073.711792,668.120544 1073.572388,668.837891 1073.102783,669.733154 
z" />
  <path fill="#6EB867" d="
M976.069336,669.218750 
	C976.415588,669.371765 976.757874,669.847534 977.150574,670.620789 
	C976.822510,670.459351 976.443909,670.000427 976.069336,669.218750 
z" />
  <path fill="#6EB867" d="
M981.202881,675.098938 
	C981.627930,675.024658 982.176453,675.245056 982.904053,675.706909 
	C982.497437,675.763428 981.911926,675.578552 981.202881,675.098938 
z" />
  <path fill="#6EB867" d="
M1010.112854,702.174377 
	C1010.449402,702.350769 1010.759033,702.851257 1011.104614,703.655762 
	C1010.789062,703.472717 1010.437500,702.985596 1010.112854,702.174377 
z" />
  <path fill="#6EB867" d="
M1011.078308,704.206970 
	C1011.443054,704.350159 1011.796448,704.819336 1012.190430,705.590698 
	C1011.843018,705.439575 1011.454956,704.986267 1011.078308,704.206970 
z" />
  <path fill="#6EB867" d="
M1010.858704,620.189575 
	C1010.971069,620.623291 1010.796936,621.204590 1010.373901,621.964233 
	C1010.274109,621.540771 1010.423157,620.938904 1010.858704,620.189575 
z" />
  <path fill="#6EB867" d="
M976.925537,653.223999 
	C977.032715,653.673462 976.834961,654.240723 976.384460,654.977966 
	C976.294678,654.545898 976.457581,653.943909 976.925537,653.223999 
z" />
  <path fill="#6EB867" d="
M977.173218,671.097290 
	C977.380188,671.038025 977.666504,671.245728 978.054932,671.707764 
	C977.855469,671.762756 977.554077,671.563538 977.173218,671.097290 
z" />
  <path fill="#6EB867" d="
M1072.196045,670.876099 
	C1072.088257,670.661804 1072.220459,670.330872 1072.607178,669.906128 
	C1072.719849,670.127991 1072.578003,670.443787 1072.196045,670.876099 
z" />
  <path fill="#6EB867" d="
M1012.187073,706.076965 
	C1012.410095,706.011719 1012.696228,706.214539 1013.059082,706.680054 
	C1012.840576,706.743530 1012.545349,706.544250 1012.187073,706.076965 
z" />
  <path fill="#6EB867" d="
M1013.145020,707.124756 
	C1013.349365,707.062195 1013.641296,707.255066 1014.024292,707.701233 
	C1013.821167,707.763123 1013.526917,707.571655 1013.145020,707.124756 
z" />
  <path fill="#6EB867" d="
M1014.141357,708.137207 
	C1014.352112,708.060120 1014.659119,708.236389 1015.058105,708.667480 
	C1014.845947,708.745056 1014.541748,708.567810 1014.141357,708.137207 
z" />
  <path fill="#6EB867" d="
M980.131958,674.108154 
	C980.347839,674.030212 980.661499,674.211426 981.068604,674.651611 
	C980.851257,674.729431 980.540466,674.548340 980.131958,674.108154 
z" />
  <path fill="#6EB867" d="
M1013.951416,616.224426 
	C1014.052124,616.476562 1013.875793,616.782532 1013.434814,617.160400 
	C1013.338257,616.914307 1013.506287,616.596252 1013.951416,616.224426 
z" />
  <path fill="#6EB867" d="
M979.882568,650.148987 
	C979.939514,650.350037 979.740234,650.635254 979.290405,651.013428 
	C979.235291,650.815308 979.430786,650.524231 979.882568,650.148987 
z" />
  <path fill="#6EB867" d="
M978.855835,651.135132 
	C978.917786,651.331909 978.729248,651.623840 978.293457,652.015381 
	C978.232544,651.820129 978.419006,651.525146 978.855835,651.135132 
z" />
  <path fill="#6EB867" d="
M1070.849609,651.864868 
	C1070.653198,651.926880 1070.356445,651.729248 1069.940430,651.286011 
	C1070.130493,651.228760 1070.440063,651.416931 1070.849609,651.864868 
z" />
  <path fill="#6EB867" d="
M977.864380,652.145508 
	C977.958618,652.365417 977.798523,652.685120 977.381592,653.096436 
	C977.286560,652.873840 977.448303,652.559570 977.864380,652.145508 
z" />
  <path fill="#6EB867" d="
M1071.810669,652.927612 
	C1071.584595,652.993713 1071.296509,652.791260 1070.937744,652.321289 
	C1071.160767,652.255432 1071.454712,652.457214 1071.810669,652.927612 
z" />
  <path fill="#FAFBFA" d="
M998.035583,671.946899 
	C994.879333,671.940735 992.212463,672.016296 989.552734,671.911438 
	C983.240723,671.662537 979.828125,668.004639 979.910522,661.695129 
	C979.987793,655.780273 983.528992,652.131165 989.588623,652.050964 
	C997.733032,651.943237 1005.880005,652.024292 1014.663025,652.024292 
	C1014.663025,643.515198 1014.646667,635.244019 1014.669678,626.972900 
	C1014.681702,622.644470 1016.939636,619.712463 1020.797058,618.144897 
	C1024.710205,616.554749 1028.609009,617.263794 1031.305298,620.399475 
	C1032.882568,622.233826 1033.958862,625.063660 1034.062622,627.496887 
	C1034.401245,635.439697 1034.189453,643.406067 1034.189453,652.006226 
	C1041.736938,652.006226 1048.830322,652.017090 1055.923828,652.003418 
	C1064.886719,651.986206 1069.302246,655.445312 1069.152832,662.395874 
	C1069.010620,669.018188 1064.778687,672.038635 1055.715576,672.019104 
	C1048.744629,672.004028 1041.773682,672.016113 1034.200562,672.016113 
	C1034.200562,680.379211 1034.314087,688.474182 1034.167603,696.564453 
	C1034.030273,704.150024 1028.589966,708.083557 1021.376282,705.984497 
	C1017.256470,704.785583 1014.848389,702.035950 1014.743652,697.679749 
	C1014.607666,692.023315 1014.667969,686.362061 1014.650696,680.702881 
	C1014.642151,677.911438 1014.649231,675.119995 1014.649231,671.946594 
	C1008.808411,671.946594 1003.668274,671.946594 998.035583,671.946899 
z" />
</svg>