<svg xmlns="http://www.w3.org/2000/svg" viewBox="248.9865138 0.26794730000000655 215.5777224 215.5777224">
  <path fill="#090E13" d="
M354.997406,161.786377 
	C350.909851,161.147415 346.822266,160.508453 342.728058,159.868439 
	C341.831665,166.795792 338.635895,170.709854 333.178802,171.797348 
	C324.396606,173.547455 318.009491,171.466934 314.821503,165.454819 
	C313.519226,162.998917 313.219055,159.992188 311.820404,157.613953 
	C310.948334,156.131119 308.955444,154.668915 307.315216,154.476044 
	C305.974060,154.318344 303.719757,155.703674 303.060242,157.007050 
	C299.461334,164.119080 297.098206,165.276184 286.530975,164.155319 
	C281.733215,163.646423 278.386353,160.046768 277.152161,153.934525 
	C276.824799,152.313217 276.742645,150.642395 276.500793,148.595978 
	C268.772583,147.702591 266.951324,142.110901 267.010559,135.500977 
	C267.195618,114.862999 267.330109,94.220413 267.917755,73.591949 
	C268.210663,63.309189 272.760254,58.418175 282.826660,56.762341 
	C310.890686,52.146061 338.875885,46.695553 367.115631,43.639175 
	C383.328674,41.884445 400.040436,43.407963 416.406250,44.841709 
	C428.156433,45.871098 432.334015,51.337563 434.135681,62.943974 
	C434.277130,63.855129 434.619934,65.406197 435.088867,65.494629 
	C442.075958,66.812134 443.600006,73.320755 444.917755,78.120087 
	C446.599426,84.244766 446.059448,91.226585 445.158447,97.654129 
	C444.906677,99.450241 440.006409,100.594757 436.242798,102.557449 
	C438.992798,117.529495 432.537598,133.864700 436.601837,150.572266 
	C435.443329,150.998047 434.722076,150.997620 433.914642,150.707748 
	C433.741180,150.236847 433.653931,150.055389 433.634735,149.529663 
	C432.797821,148.076981 431.892883,146.968552 430.993469,145.510162 
	C431.005554,144.460648 431.012085,143.761093 431.104156,142.725342 
	C431.320862,141.946625 431.451996,141.504089 431.858398,140.950958 
	C432.031281,139.877472 431.928864,138.914581 431.788086,137.578751 
	C431.832306,136.462585 431.914856,135.719360 432.216187,134.878510 
	C432.700623,134.582550 432.882477,134.325043 432.986237,133.578918 
	C432.991302,131.431229 432.990631,129.712967 432.992401,127.532242 
	C432.741913,122.707260 432.488983,118.344734 431.940704,113.864799 
	C431.437012,113.708633 431.228699,113.669876 430.844299,113.395096 
	C430.382935,112.648849 430.097687,112.138634 430.035583,111.321663 
	C430.860291,109.229996 431.990570,107.439766 431.972687,105.661064 
	C431.890930,97.524200 431.283295,89.390793 431.274048,81.255684 
	C431.268280,76.152023 430.362915,71.796677 425.953186,69.039276 
	C426.556152,68.928078 426.791321,68.854187 427.441528,68.824432 
	C428.571991,68.275650 429.845703,67.729469 429.899994,67.081177 
	C430.075653,64.982964 429.803558,62.847252 429.737427,60.408310 
	C429.562012,59.734894 429.353149,59.379150 428.994568,58.716515 
	C427.928101,56.911392 427.011353,55.413162 425.952393,53.600166 
	C422.862335,51.774178 419.914520,50.262955 416.733948,48.555187 
	C416.100922,48.322498 415.700714,48.286354 414.929169,48.390820 
	C412.710693,48.423420 410.863525,48.315411 408.669220,48.086067 
	C407.846771,47.851295 407.371429,47.737858 406.618347,47.422867 
	C405.415710,47.188480 404.490814,47.155640 403.140869,47.217129 
	C399.456207,47.118118 396.196625,46.924778 392.693481,46.518166 
	C390.998657,46.402084 389.547394,46.499275 387.634399,46.673943 
	C383.428497,46.720558 379.684357,46.689705 375.776306,46.492104 
	C375.086548,46.474464 374.560699,46.623569 373.623474,46.865543 
	C369.217224,48.342419 365.222351,49.726429 360.943420,51.002647 
	C360.126007,50.605423 359.592590,50.315994 358.961609,49.660015 
	C357.139618,49.273273 355.415222,49.253082 353.386963,49.210236 
	C352.733856,49.372162 352.384644,49.556740 351.686646,49.860985 
	C350.125366,50.069763 348.912964,50.158875 347.394287,50.221039 
	C346.736664,50.381149 346.385284,50.568211 345.697174,50.872711 
	C344.419830,51.038105 343.479218,51.086060 342.199799,51.105492 
	C341.255432,51.298595 340.649841,51.520214 339.692871,51.867287 
	C338.119415,52.067097 336.897339,52.141453 335.313690,52.163914 
	C334.308807,52.359978 333.665497,52.607937 332.675385,52.973579 
	C331.126221,53.157146 329.923889,53.223026 328.410156,53.251137 
	C327.742218,53.406372 327.385651,53.599373 326.678955,53.911369 
	C325.112762,54.095306 323.896698,54.160244 322.318329,54.170761 
	C321.311127,54.364944 320.666260,54.613544 319.667816,54.972416 
	C318.104309,55.138508 316.894348,55.194328 315.320740,55.187332 
	C314.310944,55.379032 313.664825,55.633553 312.701691,56.012581 
	C311.496948,56.189213 310.609222,56.241344 309.410645,56.253868 
	C308.742889,56.405853 308.386017,56.597443 307.699951,56.905472 
	C306.452087,57.065136 305.533386,57.108360 304.261383,57.120193 
	C303.281769,57.330788 302.655457,57.572773 301.682251,57.935802 
	C300.134399,58.152550 298.933411,58.248257 297.417542,58.291420 
	C296.742584,58.438690 296.382477,58.638508 295.636536,58.961449 
	C292.376556,59.442211 289.502502,59.799850 286.274597,60.124275 
	C285.290619,60.328697 284.660461,60.566330 283.661499,60.923508 
	C278.603333,61.525383 275.036804,63.674725 272.714142,68.235817 
	C272.461151,68.873390 272.438904,69.288383 272.467804,69.929382 
	C272.475342,70.474091 272.338043,70.745354 271.804565,71.209320 
	C271.385986,74.984848 271.269989,78.520218 271.197571,82.495598 
	C271.126984,85.292000 271.012787,87.648399 270.625610,90.311081 
	C270.452942,95.060555 270.553162,99.503738 270.709686,104.279808 
	C270.705841,105.056007 270.645721,105.499321 270.235535,106.091438 
	C270.200409,113.156586 270.515320,120.072922 270.913971,127.417290 
	C271.045044,129.876236 271.092377,131.907166 270.839111,134.197479 
	C270.370819,135.736206 269.970306,137.035904 270.079956,138.291016 
	C270.385223,141.784851 271.546692,145.282715 275.727875,144.826950 
	C279.820557,144.380829 277.443176,140.755539 277.713989,138.156769 
	C277.873779,137.224030 278.072113,136.612839 278.457886,135.864548 
	C278.863403,135.481750 278.962982,135.194901 278.989563,134.584381 
	C279.100647,133.928650 279.166199,133.555420 279.178223,133.158051 
	C279.124695,133.133911 279.164917,133.244293 279.403381,133.215240 
	C279.641876,133.186172 280.099487,133.038254 280.309509,132.938721 
	C280.781616,132.648422 280.952545,132.395966 281.097595,131.850922 
	C281.162811,131.620026 281.222717,131.143921 281.169617,131.125031 
	C281.116486,131.106140 281.161499,131.209518 281.461792,131.173279 
	C282.152802,131.040421 282.543549,130.943817 283.199158,131.157318 
	C285.144562,131.703568 286.825134,131.939728 288.421448,132.554489 
	C285.867249,135.019836 282.238892,136.639114 281.168915,139.290771 
	C278.948944,144.792206 280.015045,150.715546 282.690643,156.032288 
	C283.471436,157.583832 285.592133,159.655411 286.811707,159.481079 
	C288.246277,159.276016 290.314178,156.971405 290.452484,155.428879 
	C290.902679,150.407349 290.502716,145.315277 290.654541,140.257111 
	C290.690186,139.070175 291.609528,137.909790 292.169861,136.941193 
	C292.217407,137.145172 292.206421,137.562134 292.189850,137.838028 
	C292.375183,138.408997 292.577087,138.704071 292.892578,139.296387 
	C293.095459,140.220505 293.184723,140.847382 293.194336,141.815552 
	C293.356079,142.766205 293.597443,143.375580 293.921326,144.316467 
	C294.003510,145.101990 294.003143,145.556015 293.835632,146.097122 
	C293.795380,146.449310 293.922333,146.714432 294.242004,147.309021 
	C300.136230,148.678650 305.837769,149.718811 311.857574,150.817032 
	C312.370728,147.501404 312.718781,145.252289 313.239502,142.737427 
	C313.646912,141.673676 313.881683,140.875656 314.070618,140.038971 
	C314.024811,140.000320 314.089447,140.101242 314.369476,139.907059 
	C316.793579,135.626221 319.936584,133.431839 324.817169,134.312134 
	C324.892944,134.238770 324.700836,134.325912 324.825867,134.557114 
	C325.274963,134.904984 325.598999,135.021667 325.937866,135.092651 
	C325.952637,135.046967 325.865326,135.086975 325.962158,135.336212 
	C326.358521,135.765625 326.657990,135.945816 327.017273,136.339386 
	C327.205322,136.841446 327.419922,137.033981 327.794006,137.505417 
	C328.588501,140.227219 329.309845,142.573914 330.035645,145.216827 
	C330.322723,146.000366 330.605255,146.487686 331.011688,147.267303 
	C331.149597,148.184540 331.163666,148.809494 331.130127,149.831696 
	C331.392242,151.153870 331.701935,152.078781 332.178436,153.171555 
	C332.560974,153.569626 332.781647,153.795029 333.204407,154.282074 
	C334.041199,154.638290 334.680847,154.728073 335.687775,154.804672 
	C337.024353,154.922379 337.993683,155.053268 339.046082,155.531189 
	C341.989929,158.090302 344.998627,158.803802 348.672424,156.768311 
	C350.377838,156.874954 351.688385,156.995071 353.091064,157.265350 
	C353.453003,157.316956 353.722839,157.218399 354.271057,156.920074 
	C354.668579,155.823456 354.787659,154.926605 355.170593,153.843018 
	C355.968292,152.761459 356.502106,151.866638 357.112366,151.329727 
	C357.545776,153.071518 357.902771,154.455383 358.278503,156.131683 
	C358.632874,156.901154 358.968536,157.378204 358.981628,157.988953 
	C357.438477,159.343887 356.217926,160.565140 354.997406,161.786377 
M322.603912,138.878998 
	C314.470337,141.874039 313.465363,160.882721 321.868652,167.024429 
	C322.681976,167.618866 325.624573,166.685303 326.489807,165.596039 
	C331.665375,159.080505 329.819275,144.582947 322.603912,138.878998 
M442.635590,85.875488 
	C442.457092,84.726913 442.543274,83.442162 442.038696,82.461311 
	C441.259796,80.947205 440.076599,79.641075 439.064880,78.246742 
	C438.051971,79.838058 436.404907,81.338768 436.161835,83.040070 
	C435.695404,86.304596 435.786926,89.708504 436.139771,93.001801 
	C436.285950,94.366119 437.698608,95.594742 438.535278,96.885071 
	C439.730225,95.809128 441.534332,94.938263 441.981293,93.610504 
	C442.701416,91.471573 442.526398,89.031303 442.635590,85.875488 
M332.002411,159.464767 
	C331.078156,162.066406 330.153900,164.668045 329.229675,167.269669 
	C329.532135,167.707321 329.834595,168.144974 330.137085,168.582626 
	C332.295990,167.285095 334.782166,166.308533 336.489197,164.567871 
	C337.489014,163.548370 337.246735,161.310730 337.563232,159.621063 
	C335.807526,159.330856 334.051819,159.040649 332.002411,159.464767 
M294.230713,152.895401 
	C293.518707,154.665283 292.806702,156.435165 292.006683,158.423767 
	C297.702362,161.160141 298.053741,156.696747 299.867554,153.607819 
	C297.913605,153.177078 296.358429,152.834259 294.230713,152.895401 
M437.841156,73.884102 
	C437.256104,73.489525 436.671051,73.094948 436.085999,72.700371 
	C436.060364,73.412697 436.034729,74.125031 436.009125,74.837349 
	C436.640808,74.719093 437.272491,74.600838 437.841156,73.884102 
M434.886658,69.666985 
	C434.515381,69.963203 434.144135,70.259430 433.772888,70.555656 
	C434.066986,70.673958 434.553711,70.960365 434.622284,70.881828 
	C434.940826,70.516853 435.143555,70.050789 434.886658,69.666985 
z" />
  <path fill="#0E0D0F" d="
M434.000824,150.997192 
	C434.722076,150.997620 435.443329,150.998047 436.525208,150.998322 
	C438.067017,155.458313 435.654205,157.996002 431.955414,159.446487 
	C429.523407,160.400192 426.863831,160.880829 424.260803,161.268158 
	C419.281494,162.009048 415.003326,162.571289 411.518036,167.723618 
	C407.117401,174.229172 393.523865,172.692459 388.650238,166.431198 
	C387.676056,165.179626 385.633057,164.252289 383.999359,164.105652 
	C374.604797,163.262405 365.185150,162.699112 355.385681,161.913635 
	C356.217926,160.565140 357.438477,159.343887 359.378265,158.053116 
	C382.780121,160.862213 405.383270,160.065536 427.837219,156.012115 
	C430.119141,155.600189 431.956940,152.727783 434.000824,150.997192 
z" />
  <path fill="#21ACE8" d="
M327.720825,137.130310 
	C327.419922,137.033981 327.205322,136.841446 326.934906,136.077515 
	C326.483643,135.430527 326.174469,135.258743 325.865326,135.086975 
	C325.865326,135.086975 325.952637,135.046967 325.837524,134.830521 
	C325.381897,134.518021 325.041382,134.421967 324.700836,134.325912 
	C324.700836,134.325912 324.892944,134.238770 324.751282,133.963303 
	C319.354584,131.079422 314.347382,134.131958 314.089447,140.101242 
	C314.089447,140.101242 314.024811,140.000320 313.714417,140.054352 
	C312.932678,141.074081 312.461334,142.039780 311.553223,143.016510 
	C306.055847,142.371017 300.995209,141.714523 295.907654,140.689606 
	C294.260193,137.875961 292.639679,135.430710 290.863464,132.955276 
	C290.707794,132.925079 290.395294,132.979050 290.219910,132.731674 
	C289.698730,132.302979 289.352936,132.121674 289.022461,131.967789 
	C289.037720,131.995224 289.067047,131.939682 289.080872,131.723267 
	C289.094696,131.506851 288.984314,131.086685 288.939240,130.725098 
	C284.966339,127.011581 283.461761,127.176193 281.161499,131.209518 
	C281.161499,131.209518 281.116486,131.106140 280.892609,131.166656 
	C280.462128,131.521454 280.255524,131.815720 280.040466,132.070831 
	C280.032013,132.031693 280.110291,132.048752 279.846863,132.147873 
	C279.443939,132.579437 279.304443,132.911865 279.164917,133.244293 
	C279.164917,133.244293 279.124695,133.133911 278.818176,133.126312 
	C277.208557,133.949844 275.905487,134.780975 273.319672,136.430237 
	C272.749146,126.757660 272.236786,118.071686 271.701813,109.001961 
	C275.014252,109.511147 276.956970,109.809776 279.042358,110.480423 
	C279.878540,111.214821 280.563171,111.874557 281.266846,111.895607 
	C294.709167,112.297646 308.152710,112.701614 321.598999,112.875565 
	C323.406311,112.898941 325.229675,111.684174 327.253143,110.923187 
	C327.719666,110.604774 327.917969,110.357307 328.457855,110.049698 
	C329.578064,110.746437 330.871277,111.413231 330.925751,112.169304 
	C331.528259,120.529541 331.938477,128.903641 332.422180,137.662170 
	C330.251282,137.416580 328.986053,137.273453 327.720825,137.130310 
z" />
  <path fill="#0A1D30" d="
M429.812439,111.628418 
	C430.097687,112.138634 430.382935,112.648849 430.527069,113.633774 
	C428.333008,114.744926 426.300293,115.853027 424.223907,115.942017 
	C409.668396,116.565804 395.100586,117.381668 380.544006,117.260262 
	C374.786804,117.212242 369.048248,114.929436 363.149963,113.321121 
	C362.294556,110.806458 360.831146,108.559372 361.038055,106.478340 
	C361.527863,101.551018 359.015228,99.646675 354.840576,98.333244 
	C354.937531,91.041870 355.074097,84.137367 355.480865,77.054337 
	C358.051270,74.225281 355.672607,73.226913 354.010406,71.986687 
	C354.001221,72.001053 354.027130,71.977280 354.009033,71.656830 
	C353.653229,70.552063 353.315552,69.767746 353.346313,68.953415 
	C356.046661,70.705910 358.378601,72.488411 361.050781,74.531013 
	C360.918335,73.064148 361.100830,71.816269 360.664795,70.846474 
	C359.136627,67.447365 354.968262,66.530380 352.755798,68.866638 
	C351.938019,68.115990 351.382812,67.526711 350.830139,66.625580 
	C351.250580,65.610641 351.668579,64.907570 352.480865,64.146225 
	C356.891693,62.024178 354.872406,57.959381 356.015930,54.593571 
	C357.095856,52.859917 358.077515,51.443237 359.059204,50.026566 
	C359.592590,50.315994 360.126007,50.605423 360.818390,51.336895 
	C360.538605,52.613167 360.099792,53.447395 359.675293,54.321083 
	C359.689545,54.360535 359.715729,54.440254 359.393616,54.699631 
	C358.626373,57.508087 357.747162,60.072567 357.836914,62.602673 
	C357.974609,66.483421 361.047150,67.722397 364.344696,67.761711 
	C367.213776,67.795906 370.090607,67.178566 373.422424,66.915268 
	C380.657990,66.645172 387.433899,66.078529 394.212708,66.042099 
	C400.153809,66.010162 406.098053,66.573425 412.480042,66.910828 
	C417.100769,67.676788 421.282349,68.405693 425.355347,69.405655 
	C425.190216,69.863007 425.133636,70.049286 424.729553,70.145203 
	C423.908234,70.088982 423.434357,70.123131 422.546692,70.095306 
	C418.725189,69.778282 415.317474,69.523224 411.498688,69.172485 
	C409.409271,69.087509 407.730957,69.098221 405.588074,69.019547 
	C394.416779,68.972466 383.709991,69.014771 372.618713,68.965500 
	C370.230774,69.148628 368.227356,69.423332 365.792908,69.790894 
	C365.119659,70.379929 364.877380,70.876114 364.446777,71.638832 
	C364.342957,72.884262 364.060394,74.152916 364.568909,74.797226 
	C369.600769,81.172668 367.498260,88.427467 367.196045,95.429756 
	C367.143677,96.642891 366.552063,98.368546 365.642487,98.916916 
	C361.516327,101.404541 362.988922,104.675720 363.966156,108.340057 
	C366.092865,110.407860 367.999146,112.959877 370.407196,113.587921 
	C374.446899,114.641510 378.806183,114.469818 383.433258,114.918213 
	C385.219177,115.002350 386.602814,114.981979 388.431396,115.057404 
	C391.585815,115.077751 394.295319,115.002304 397.417816,115.051163 
	C400.117523,114.707008 402.404175,114.238556 405.073669,113.807968 
	C406.220734,113.922836 406.984924,113.999847 408.002808,114.419235 
	C412.991486,114.198143 417.726562,113.634659 422.736572,113.028427 
	C423.648285,112.342628 424.285004,111.699593 425.039429,111.137840 
	C425.157104,111.219124 425.442566,111.199646 425.610535,111.478348 
	C426.191925,111.887375 426.605408,112.017700 427.028198,112.385139 
	C427.180511,112.878716 427.323456,113.135185 427.466370,113.391647 
	C427.639954,112.998215 427.813538,112.604790 428.297974,112.134674 
	C429.010010,111.914795 429.411224,111.771606 429.812439,111.628418 
M362.965271,79.465416 
	C360.285706,78.831413 357.279877,77.971992 356.981049,82.114937 
	C356.694244,86.090782 356.732544,90.130890 357.141846,94.089630 
	C357.255005,95.184166 359.172974,96.849541 360.313477,96.891930 
	C361.795258,96.947021 364.626007,95.648010 364.629120,94.922195 
	C364.650604,89.911072 364.086914,84.897430 362.965271,79.465416 
z" />
  <path fill="#AFD5E3" d="
M430.987976,145.860123 
	C431.892883,146.968552 432.797821,148.076981 433.275360,149.566971 
	C422.805237,151.596954 412.798706,154.287674 402.710938,154.637619 
	C389.219208,155.105637 375.666565,153.684387 362.133514,153.313599 
	C360.866272,153.278885 359.552124,154.956604 358.259766,155.839264 
	C357.902771,154.455383 357.545776,153.071518 357.235138,151.096893 
	C357.556732,149.865601 357.831970,149.225052 358.507019,148.482452 
	C370.548676,148.783707 382.214447,149.839249 393.825775,149.412872 
	C406.239929,148.957016 418.602753,147.103546 430.987976,145.860123 
z" />
  <path fill="#80CBE6" d="
M358.961609,49.660011 
	C358.077515,51.443237 357.095856,52.859917 355.701538,54.608208 
	C354.870819,54.963722 354.452667,54.987614 353.583984,54.990471 
	C348.350372,55.387798 343.528625,55.551174 338.791077,56.269588 
	C320.305023,59.072853 301.869934,62.222229 283.361908,64.864700 
	C277.592804,65.688385 275.005066,68.834824 273.672028,74.082962 
	C273.027130,74.403717 272.608246,74.640991 272.159241,74.489090 
	C272.121765,73.056343 272.114410,72.012756 272.107086,70.969177 
	C272.338043,70.745354 272.475342,70.474091 272.669617,69.693039 
	C272.861816,68.824875 272.903351,68.419052 272.944885,68.013229 
	C275.036804,63.674725 278.603333,61.525383 284.009247,60.967964 
	C285.359985,60.647743 285.994202,60.402615 286.628418,60.157486 
	C289.502502,59.799850 292.376556,59.442211 295.953461,59.004936 
	C297.015015,58.731518 297.373718,58.537743 297.732452,58.343964 
	C298.933411,58.248257 300.134399,58.152550 302.028931,57.980869 
	C303.353241,57.653793 303.983978,57.402695 304.614685,57.151588 
	C305.533386,57.108360 306.452087,57.065136 308.013367,56.945969 
	C309.011108,56.677845 309.366272,56.485664 309.721466,56.293480 
	C310.609222,56.241344 311.496948,56.189213 313.060791,56.059914 
	C314.386047,55.738544 315.035217,55.494350 315.684387,55.250153 
	C316.894348,55.194328 318.104309,55.138508 320.025146,55.019505 
	C321.384216,54.712608 322.032440,54.468899 322.680634,54.225182 
	C323.896698,54.160244 325.112762,54.095306 326.993042,53.951683 
	C328.011993,53.678299 328.366760,53.483601 328.721527,53.288902 
	C329.923889,53.223026 331.126221,53.157146 333.032043,53.019325 
	C334.382080,52.703526 335.028687,52.459667 335.675262,52.215813 
	C336.897339,52.141453 338.119415,52.067097 340.024536,51.914352 
	C341.317932,51.601982 341.928253,51.367996 342.538574,51.134010 
	C343.479218,51.086060 344.419830,51.038105 346.006775,50.911358 
	C347.002228,50.637711 347.351379,50.442856 347.700531,50.247993 
	C348.912964,50.158875 350.125366,50.069763 351.993835,49.897171 
	C352.996857,49.620094 353.343842,49.426498 353.690857,49.232895 
	C355.415222,49.253082 357.139618,49.273273 358.961609,49.660011 
z" />
  <path fill="#3A99C5" d="
M354.880219,98.720123 
	C359.015228,99.646675 361.527863,101.551018 361.038055,106.478340 
	C360.831146,108.559372 362.294556,110.806458 363.053955,113.427643 
	C363.109131,113.877228 362.913666,114.087112 362.555267,114.003143 
	C361.086426,110.978333 360.113800,107.973862 358.799469,105.127190 
	C358.253510,103.944740 356.977844,103.099220 356.033997,102.100494 
	C355.365448,102.865448 354.120697,103.625389 354.113983,104.396118 
	C353.995667,117.984566 354.028351,131.574326 354.028351,144.610565 
	C367.465363,144.610565 380.430603,144.610565 393.710693,144.610565 
	C393.426331,143.258560 393.196564,142.166092 393.378174,141.074463 
	C397.864502,141.055664 401.939484,141.036011 406.030640,141.431931 
	C406.431030,142.513000 406.764221,143.721252 407.206970,143.762833 
	C414.148987,144.414764 420.994690,144.191345 427.388733,140.585358 
	C425.655212,139.960785 423.841187,140.335907 422.267029,139.881073 
	C419.184326,138.990402 415.676331,138.043335 417.700470,133.665314 
	C422.336853,139.650391 424.627777,139.674072 431.887695,134.309875 
	C431.844879,134.537903 431.997406,134.976135 431.997406,134.976135 
	C431.914856,135.719360 431.832306,136.462585 431.603333,137.848633 
	C431.498993,139.348160 431.541046,140.204865 431.583130,141.061554 
	C431.451996,141.504089 431.320862,141.946625 430.834900,142.793762 
	C429.988434,143.456116 429.496796,143.713852 428.625854,143.952362 
	C427.030762,144.237259 425.815033,144.541351 424.271179,144.804443 
	C423.291870,144.862961 422.640625,144.962509 421.597321,145.014175 
	C420.168396,145.099640 419.131500,145.233002 417.714233,145.323914 
	C415.551758,145.541763 413.769653,145.802063 411.541138,146.003723 
	C407.713989,146.257706 404.333282,146.570328 400.488953,146.831543 
	C392.157440,146.804855 384.289551,146.829559 376.039917,146.654602 
	C372.783691,146.350006 369.909241,146.245071 366.644592,146.049011 
	C365.188660,145.917419 364.122894,145.876923 362.765869,145.659027 
	C359.015991,144.652893 356.628021,146.169907 354.446594,148.977081 
	C353.306427,149.000244 352.546417,149.018616 351.840607,148.624634 
	C352.020874,146.834976 352.146912,145.457657 352.400452,143.959991 
	C352.565857,143.729401 352.661194,143.598236 352.630188,143.513046 
	C352.553955,143.303665 352.419617,143.115417 352.288269,142.473083 
	C352.347900,127.673019 352.427948,113.318565 352.806030,98.929199 
	C353.696106,98.836235 354.288147,98.778175 354.880219,98.720123 
z" />
  <path fill="#93A3AB" d="
M358.278503,156.131683 
	C359.552124,154.956604 360.866272,153.278885 362.133514,153.313599 
	C375.666565,153.684387 389.219208,155.105637 402.710938,154.637619 
	C412.798706,154.287674 422.805237,151.596954 433.207336,149.911224 
	C433.653931,150.055389 433.741180,150.236847 433.914642,150.707733 
	C431.956940,152.727783 430.119141,155.600189 427.837219,156.012115 
	C405.383270,160.065536 382.780121,160.862213 359.700867,157.919434 
	C358.968536,157.378204 358.632874,156.901154 358.278503,156.131683 
z" />
  <path fill="#3A99C5" d="
M272.189392,74.878265 
	C272.608246,74.640991 273.027130,74.403717 274.080933,74.084167 
	C279.227722,73.145409 283.708191,72.023491 288.257721,71.485222 
	C299.253143,70.184303 310.275299,69.095718 321.302094,68.090096 
	C322.756012,67.957497 324.299744,68.809395 325.375458,69.208466 
	C313.946075,70.441620 302.943146,71.671646 291.549011,72.876617 
	C290.121948,72.978523 289.086121,73.105476 287.631104,73.169952 
	C276.633179,73.631126 275.045746,75.188705 274.873749,85.508209 
	C274.782135,91.004967 274.369141,96.560776 275.023956,101.978409 
	C275.351593,104.689201 277.748627,107.149879 279.133026,109.820526 
	C279.056335,109.917366 278.899689,110.108414 278.899689,110.108414 
	C276.956970,109.809776 275.014252,109.511147 271.701813,109.001961 
	C272.236786,118.071686 272.749146,126.757660 273.319672,136.430237 
	C275.905487,134.780975 277.208557,133.949844 278.871704,133.150467 
	C279.166199,133.555420 279.100647,133.928650 278.779724,134.706146 
	C278.258453,135.355850 278.173798,135.652939 278.270447,136.001648 
	C278.072113,136.612839 277.873779,137.224030 277.466156,138.430283 
	C276.634216,140.512512 276.011566,141.999695 275.388947,143.486862 
	C274.940155,143.560791 274.491364,143.634720 274.042572,143.708649 
	C273.074951,140.451797 272.107330,137.194946 271.139709,133.938095 
	C271.092377,131.907166 271.045044,129.876236 270.997833,126.956139 
	C270.860504,119.358856 270.723053,112.650742 270.585602,105.942635 
	C270.645721,105.499321 270.705841,105.056007 270.830688,103.833679 
	C270.896454,98.704704 270.897491,94.354752 270.898560,90.004799 
	C271.012787,87.648399 271.126984,85.292000 271.393921,82.157455 
	C271.760925,79.212296 271.975159,77.045280 272.189392,74.878265 
z" />
  <path fill="#3A99C5" d="
M327.794006,137.505402 
	C328.986053,137.273453 330.251282,137.416580 332.422180,137.662170 
	C331.938477,128.903641 331.528259,120.529541 330.925751,112.169304 
	C330.871277,111.413231 329.578064,110.746437 328.354431,109.952820 
	C327.848724,109.867462 327.639343,109.676384 327.788696,109.324570 
	C328.274536,96.660332 328.611084,84.347900 329.327698,72.019814 
	C331.174072,71.701439 332.640411,71.398727 334.080750,71.509331 
	C333.779572,74.557159 333.272400,77.191093 333.265900,79.826263 
	C333.213257,101.105324 333.254791,122.384613 333.228516,143.897552 
	C333.214355,144.468597 333.366882,144.731964 333.749847,145.236603 
	C333.934692,145.985641 334.016632,146.419434 333.965393,147.142822 
	C333.235718,148.282944 332.639221,149.133453 331.834412,149.834106 
	C331.476654,149.600967 331.327179,149.517715 331.177734,149.434448 
	C331.163666,148.809494 331.149597,148.184540 331.049896,146.966217 
	C330.653229,145.888779 330.342224,145.404694 330.031189,144.920609 
	C329.309845,142.573914 328.588501,140.227219 327.794006,137.505402 
z" />
  <path fill="#3A99C5" d="
M363.205170,113.770706 
	C369.048248,114.929436 374.786804,117.212242 380.544006,117.260262 
	C395.100586,117.381668 409.668396,116.565804 424.223907,115.942017 
	C426.300293,115.853027 428.333008,114.744926 430.703186,113.869812 
	C431.228699,113.669876 431.437012,113.708633 431.874146,114.325516 
	C431.992920,119.216125 431.882874,123.528595 431.550232,127.605431 
	C428.602112,122.671898 424.698425,122.170494 420.106171,123.827209 
	C422.748108,122.213943 425.364655,120.985634 428.675262,119.431488 
	C427.286316,118.716759 426.610901,118.056091 425.972504,118.090080 
	C420.709564,118.370262 415.454254,119.076683 410.195190,119.090393 
	C397.356537,119.123871 384.503510,119.131775 371.688141,118.501617 
	C368.698181,118.354591 365.835114,115.627251 362.913666,114.087112 
	C362.913666,114.087112 363.109131,113.877228 363.205170,113.770706 
z" />
  <path fill="#70C1DC" d="
M359.661011,54.281628 
	C360.099792,53.447395 360.538605,52.613167 361.102417,51.444687 
	C365.222351,49.726429 369.217224,48.342419 373.942322,46.930309 
	C375.095062,46.821091 375.517609,46.739975 375.940186,46.658855 
	C379.684357,46.689705 383.428497,46.720558 388.028137,46.775650 
	C390.234772,46.777073 391.585907,46.754257 392.937042,46.731441 
	C396.196625,46.924778 399.456207,47.118118 403.437012,47.411652 
	C405.070892,47.549370 405.983490,47.586895 406.896118,47.624416 
	C407.371429,47.737858 407.846771,47.851295 408.629883,48.399502 
	C408.608551,49.606972 408.279388,50.379673 407.491821,51.243263 
	C397.752472,51.369049 388.471497,51.403938 378.990387,51.108643 
	C377.554016,50.619678 376.317810,50.460896 374.701233,50.279320 
	C369.434235,51.598221 364.547607,52.939926 359.661011,54.281628 
z" />
  <path fill="#3F5667" d="
M322.985229,138.900833 
	C329.819275,144.582947 331.665375,159.080505 326.489807,165.596039 
	C325.624573,166.685303 322.681976,167.618866 321.868652,167.024429 
	C313.465363,160.882721 314.470337,141.874039 322.985229,138.900833 
M325.227783,146.487854 
	C323.476105,143.134933 321.091095,143.198334 320.083374,146.508438 
	C319.031952,149.962082 319.038635,153.836685 319.195343,157.501038 
	C319.244446,158.649506 321.466248,160.743271 322.359863,160.579819 
	C323.784210,160.319290 325.881195,158.626358 326.007874,157.369308 
	C326.344849,154.024582 325.781952,150.589203 325.227783,146.487854 
z" />
  <path fill="#061422" d="
M363.057129,145.836426 
	C364.122894,145.876923 365.188660,145.917419 366.948669,146.313171 
	C370.569183,146.730377 373.495422,146.792328 376.421692,146.854279 
	C384.289551,146.829559 392.157440,146.804855 400.744873,147.132385 
	C404.972168,147.010544 408.479858,146.536453 411.987579,146.062378 
	C413.769653,145.802063 415.551758,145.541763 417.959625,145.513779 
	C419.720062,145.518082 420.854736,145.290054 421.989380,145.062042 
	C422.640625,144.962509 423.291870,144.862961 424.676392,144.853348 
	C426.608154,144.619385 427.806671,144.295502 429.005188,143.971588 
	C429.496796,143.713852 429.988434,143.456116 430.749329,143.129944 
	C431.012085,143.761093 431.005554,144.460648 430.993469,145.510162 
	C418.602753,147.103546 406.239929,148.957016 393.825775,149.412872 
	C382.214447,149.839249 370.548676,148.783707 358.627502,148.116989 
	C359.917816,147.181198 361.487488,146.508804 363.057129,145.836426 
z" />
  <path fill="#3F5667" d="
M290.395294,132.979050 
	C290.395294,132.979050 290.707794,132.925079 290.865173,133.199646 
	C291.097015,133.799057 291.090240,134.122192 291.041107,134.767670 
	C291.367920,135.396423 291.655914,135.701141 292.034637,136.177429 
	C292.125336,136.349030 292.122345,136.737198 292.122345,136.737198 
	C291.609528,137.909790 290.690186,139.070175 290.654541,140.257111 
	C290.502716,145.315277 290.902679,150.407349 290.452484,155.428879 
	C290.314178,156.971405 288.246277,159.276016 286.811707,159.481079 
	C285.592133,159.655411 283.471436,157.583832 282.690643,156.032288 
	C280.015045,150.715546 278.948944,144.792206 281.168915,139.290771 
	C282.238892,136.639114 285.867249,135.019836 288.566284,132.511765 
	C288.795380,132.090439 289.067047,131.939682 289.067047,131.939682 
	C289.067047,131.939682 289.037720,131.995224 289.128601,132.270142 
	C289.611389,132.689713 290.003357,132.834381 290.395294,132.979050 
M282.505493,142.560318 
	C282.674408,145.774063 282.637726,149.020508 283.140106,152.181244 
	C283.286957,153.104996 284.985077,154.417252 285.942261,154.392563 
	C286.839081,154.369431 288.222229,152.943100 288.479523,151.907684 
	C289.564667,147.540787 289.908142,143.160309 286.134369,138.931290 
	C284.942322,140.010330 283.912415,140.942612 282.505493,142.560318 
z" />
  <path fill="#287BBA" d="
M295.934601,141.058029 
	C300.995209,141.714523 306.055847,142.371017 311.822510,143.019165 
	C312.707977,143.008301 312.887421,143.005753 313.066864,143.003189 
	C312.718781,145.252289 312.370728,147.501404 311.857574,150.817032 
	C305.837769,149.718811 300.136230,148.678650 294.285400,147.064117 
	C294.136139,146.489731 294.002777,146.010040 294.002808,146.010040 
	C294.003143,145.556015 294.003510,145.101990 293.983429,143.985016 
	C294.001587,142.874619 294.040161,142.427155 294.318756,141.877838 
	C295.017365,141.536667 295.475983,141.297348 295.934601,141.058029 
z" />
  <path fill="#287BBA" d="
M332.042725,149.983963 
	C332.639221,149.133453 333.235718,148.282944 334.275269,147.320282 
	C340.149017,151.293182 347.690460,152.101242 351.786377,149.036987 
	C352.546417,149.018616 353.306427,149.000244 354.460632,149.314178 
	C354.872101,151.107574 354.889404,152.568680 354.906708,154.029770 
	C354.787659,154.926605 354.668579,155.823456 354.022949,156.861603 
	C353.330566,157.040344 353.164734,157.077759 352.998901,157.115173 
	C351.688385,156.995071 350.377838,156.874954 348.347351,156.547699 
	C344.739258,155.955093 341.851105,155.569626 338.962982,155.184158 
	C337.993683,155.053268 337.024353,154.922379 335.452881,154.587402 
	C334.236237,154.260742 333.621735,154.138184 333.007233,154.015625 
	C332.781647,153.795029 332.560974,153.569626 332.189087,152.792908 
	C332.036163,151.492249 332.039459,150.738113 332.042725,149.983963 
z" />
  <path fill="#D9F2F9" d="
M427.018860,112.148041 
	C426.605408,112.017700 426.191925,111.887375 426.041199,111.403290 
	C427.209442,109.523956 428.810455,108.036346 428.896210,106.465996 
	C429.211823,100.685898 428.994232,94.878166 429.035675,89.081245 
	C429.082733,82.505791 428.971191,75.977173 425.077057,70.235565 
	C425.133636,70.049286 425.190216,69.863007 425.398376,69.417946 
	C425.550018,69.159164 425.585358,69.076591 425.585358,69.076591 
	C430.362915,71.796677 431.268280,76.152023 431.274048,81.255684 
	C431.283295,89.390793 431.890930,97.524200 431.972687,105.661064 
	C431.990570,107.439766 430.860291,109.229996 430.035583,111.321655 
	C429.411224,111.771606 429.010010,111.914795 428.061340,112.034897 
	C427.348907,112.057220 427.183868,112.102631 427.018860,112.148041 
z" />
  <path fill="#3F5667" d="
M442.682556,86.296913 
	C442.526398,89.031303 442.701416,91.471573 441.981293,93.610504 
	C441.534332,94.938263 439.730225,95.809128 438.535278,96.885071 
	C437.698608,95.594742 436.285950,94.366119 436.139771,93.001801 
	C435.786926,89.708504 435.695404,86.304596 436.161835,83.040070 
	C436.404907,81.338768 438.051971,79.838058 439.064880,78.246742 
	C440.076599,79.641075 441.259796,80.947205 442.038696,82.461311 
	C442.543274,83.442162 442.457092,84.726913 442.682556,86.296913 
z" />
  <path fill="#111313" d="
M420.080750,124.212166 
	C424.698425,122.170494 428.602112,122.671898 431.851990,127.664642 
	C432.580902,127.971230 432.785431,127.982964 432.989990,127.994690 
	C432.990631,129.712967 432.991302,131.431229 432.723022,133.584961 
	C432.279510,134.040878 432.105011,134.061356 431.930481,134.081833 
	C424.627777,139.674072 422.336853,139.650391 417.703156,133.555573 
	C417.475067,133.174057 417.304962,133.029007 417.326843,132.633728 
	C417.683350,130.202957 418.017944,128.167480 418.567993,125.983154 
	C419.215912,125.293587 419.648315,124.752876 420.080750,124.212166 
M429.035645,128.839539 
	C427.134216,127.850723 425.305664,126.404099 423.297699,126.084488 
	C422.418457,125.944542 420.592651,127.938438 420.209290,129.257645 
	C419.298340,132.392410 420.609192,135.305603 423.879395,135.725601 
	C427.898529,136.241791 429.282990,133.315475 429.035645,128.839539 
z" />
  <path fill="#0A1D30" d="
M332.149261,159.107605 
	C334.051819,159.040649 335.807526,159.330856 337.563232,159.621063 
	C337.246735,161.310730 337.489014,163.548370 336.489197,164.567871 
	C334.782166,166.308533 332.295990,167.285095 330.137085,168.582626 
	C329.834595,168.144974 329.532135,167.707321 329.229675,167.269669 
	C330.153900,164.668045 331.078156,162.066406 332.149261,159.107605 
z" />
  <path fill="#80CBE6" d="
M407.950226,51.152370 
	C408.279388,50.379673 408.608551,49.606972 408.977051,48.520836 
	C410.863525,48.315411 412.710693,48.423420 415.149384,48.612015 
	C416.149506,48.712315 416.558105,48.732025 416.966705,48.751732 
	C419.914520,50.262955 422.862335,51.774178 425.922913,53.626785 
	C426.035675,53.968174 425.977356,54.022118 425.591187,54.074379 
	C422.104004,53.796970 419.003052,53.467300 415.558777,52.970650 
	C412.793701,52.253235 410.371979,51.702805 407.950226,51.152370 
z" />
  <path fill="#3A99C5" d="
M425.953186,69.039276 
	C425.585358,69.076591 425.550018,69.159164 425.506989,69.146881 
	C421.282349,68.405693 417.100769,67.676788 412.398743,66.610153 
	C410.934326,65.321434 409.990326,64.370430 409.372437,63.361267 
	C410.135529,63.347893 410.572418,63.392685 411.110138,63.548248 
	C411.210938,63.659019 411.637299,63.709663 411.637299,63.709663 
	C411.637299,63.709663 411.985199,63.448097 412.330170,63.364586 
	C413.746979,62.819408 414.818848,62.357742 415.963043,61.963425 
	C416.035400,62.030781 416.180542,62.165043 416.135437,62.544785 
	C418.694031,63.941029 421.240753,65.271950 423.940033,65.761719 
	C424.649963,65.890533 425.832245,63.416092 426.855042,62.549778 
	C426.950500,64.901726 426.988464,66.841003 427.026459,68.780289 
	C426.791321,68.854187 426.556152,68.928078 425.953186,69.039276 
z" />
  <path fill="#3F5667" d="
M294.516968,152.693420 
	C296.358429,152.834259 297.913605,153.177078 299.867554,153.607819 
	C298.053741,156.696747 297.702362,161.160141 292.006683,158.423767 
	C292.806702,156.435165 293.518707,154.665283 294.516968,152.693420 
z" />
  <path fill="#80CBE6" d="
M427.441528,68.824432 
	C426.988464,66.841003 426.950500,64.901726 426.888611,62.182335 
	C426.798004,60.919773 426.731293,60.437313 426.680725,59.583038 
	C426.457001,57.481518 426.217194,55.751820 425.977356,54.022118 
	C425.977356,54.022118 426.035675,53.968174 426.065125,53.941551 
	C427.011353,55.413162 427.928101,56.911392 428.972290,59.033875 
	C429.301147,60.014076 429.502594,60.370033 429.704010,60.725990 
	C429.803558,62.847252 430.075653,64.982964 429.899994,67.081177 
	C429.845703,67.729469 428.571991,68.275650 427.441528,68.824432 
z" />
  <path fill="#0A1D30" d="
M270.839111,134.197479 
	C272.107330,137.194946 273.074951,140.451797 274.042572,143.708649 
	C274.491364,143.634720 274.940155,143.560791 275.388947,143.486862 
	C276.011566,141.999695 276.634216,140.512512 277.504700,138.751831 
	C277.443176,140.755539 279.820557,144.380829 275.727875,144.826950 
	C271.546692,145.282715 270.385223,141.784851 270.079956,138.291016 
	C269.970306,137.035904 270.370819,135.736206 270.839111,134.197479 
z" />
  <path fill="#0A1D30" d="
M270.235535,106.091438 
	C270.723053,112.650742 270.860504,119.358856 270.914093,126.528114 
	C270.515320,120.072922 270.200409,113.156586 270.235535,106.091438 
z" />
  <path fill="#0A1D30" d="
M355.170593,153.843018 
	C354.889404,152.568680 354.872101,151.107574 354.840759,149.309387 
	C356.628021,146.169907 359.015991,144.652893 362.765869,145.659012 
	C361.487488,146.508804 359.917816,147.181198 358.227692,148.219055 
	C357.831970,149.225052 357.556732,149.865601 357.158691,150.738983 
	C356.502106,151.866638 355.968292,152.761459 355.170593,153.843018 
z" />
  <path fill="#3A99C5" d="
M314.369476,139.907059 
	C314.347382,134.131958 319.354584,131.079422 324.675476,134.036667 
	C319.936584,133.431839 316.793579,135.626221 314.369476,139.907059 
z" />
  <path fill="#3A99C5" d="
M295.907654,140.689606 
	C295.475983,141.297348 295.017365,141.536667 294.125732,141.738342 
	C293.692719,141.700714 293.274017,141.474258 293.274017,141.474258 
	C293.184723,140.847382 293.095459,140.220505 292.909393,139.021957 
	C292.610535,138.154236 292.408478,137.858185 292.206421,137.562134 
	C292.206421,137.562134 292.217407,137.145172 292.169861,136.941193 
	C292.122345,136.737198 292.125336,136.349030 291.923096,135.891510 
	C291.481323,135.103867 291.241821,134.773743 291.002319,134.443634 
	C291.090240,134.122192 291.097015,133.799057 291.020874,133.229858 
	C292.639679,135.430710 294.260193,137.875961 295.907654,140.689606 
z" />
  <path fill="#0A1D30" d="
M272.159241,74.489098 
	C271.975159,77.045280 271.760925,79.212296 271.350342,81.717453 
	C271.269989,78.520218 271.385986,74.984848 271.804565,71.209320 
	C272.114410,72.012756 272.121765,73.056343 272.159241,74.489098 
z" />
  <path fill="#0A1D30" d="
M339.046082,155.531189 
	C341.851105,155.569626 344.739258,155.955093 347.952454,156.561157 
	C344.998627,158.803802 341.989929,158.090302 339.046082,155.531189 
z" />
  <path fill="#3A99C5" d="
M281.461792,131.173279 
	C283.461761,127.176193 284.966339,127.011581 288.582520,130.649933 
	C286.492004,130.906662 284.713165,130.876938 282.934296,130.847214 
	C282.543549,130.943817 282.152802,131.040421 281.461792,131.173279 
z" />
  <path fill="#0A1D30" d="
M270.625610,90.311081 
	C270.897491,94.354752 270.896454,98.704704 270.774414,103.500793 
	C270.553162,99.503738 270.452942,95.060555 270.625610,90.311081 
z" />
  <path fill="#0A1D30" d="
M432.992432,127.532242 
	C432.785431,127.982964 432.580902,127.971230 432.074585,127.900284 
	C431.882874,123.528595 431.992920,119.216125 432.169495,114.442932 
	C432.488983,118.344734 432.741913,122.707260 432.992432,127.532242 
z" />
  <path fill="#0A1D30" d="
M283.199158,131.157318 
	C284.713165,130.876938 286.492004,130.906662 288.627594,131.011536 
	C288.984314,131.086685 289.094696,131.506851 289.080872,131.723267 
	C289.067047,131.939682 288.795380,132.090439 288.650543,132.133163 
	C286.825134,131.939728 285.144562,131.703568 283.199158,131.157318 
z" />
  <path fill="#0A1017" d="
M437.872681,74.183342 
	C437.272491,74.600838 436.640808,74.719093 436.009125,74.837357 
	C436.034729,74.125031 436.060364,73.412697 436.085999,72.700371 
	C436.671051,73.094948 437.256104,73.489525 437.872681,74.183342 
z" />
  <path fill="#0A1D30" d="
M431.858398,140.950958 
	C431.541046,140.204865 431.498993,139.348160 431.641663,138.221588 
	C431.928864,138.914581 432.031281,139.877472 431.858398,140.950958 
z" />
  <path fill="#0A1017" d="
M392.693481,46.518166 
	C391.585907,46.754257 390.234772,46.777073 388.489868,46.698181 
	C389.547394,46.499275 390.998657,46.402084 392.693481,46.518166 
z" />
  <path fill="#3A99C5" d="
M313.239502,142.737427 
	C312.887421,143.005753 312.707977,143.008301 312.259277,143.008163 
	C312.461334,142.039780 312.932678,141.074081 313.760223,140.093018 
	C313.881683,140.875656 313.646912,141.673676 313.239502,142.737427 
z" />
  <path fill="#0A1017" d="
M435.137177,69.643936 
	C435.143555,70.050789 434.940826,70.516853 434.622284,70.881828 
	C434.553711,70.960365 434.066986,70.673958 433.772888,70.555649 
	C434.144135,70.259430 434.515381,69.963203 435.137177,69.643936 
z" />
  <path fill="#0A1017" d="
M331.834412,149.834106 
	C332.039459,150.738113 332.036163,151.492249 332.022278,152.625046 
	C331.701935,152.078781 331.392242,151.153870 331.130127,149.831696 
	C331.327179,149.517715 331.476654,149.600967 331.834412,149.834106 
z" />
  <path fill="#0A1017" d="
M406.618347,47.422867 
	C405.983490,47.586895 405.070892,47.549370 403.862091,47.317326 
	C404.490814,47.155640 405.415710,47.188480 406.618347,47.422867 
z" />
  <path fill="#0A1017" d="
M335.313690,52.163914 
	C335.028687,52.459667 334.382080,52.703526 333.378845,52.901638 
	C333.665497,52.607937 334.308807,52.359978 335.313690,52.163914 
z" />
  <path fill="#0A1017" d="
M342.199799,51.105492 
	C341.928253,51.367996 341.317932,51.601982 340.375916,51.788902 
	C340.649841,51.520214 341.255432,51.298595 342.199799,51.105492 
z" />
  <path fill="#0A1017" d="
M375.776306,46.492111 
	C375.517609,46.739975 375.095062,46.821091 374.353638,46.837440 
	C374.560699,46.623569 375.086548,46.474464 375.776306,46.492111 
z" />
  <path fill="#0A1017" d="
M315.320740,55.187332 
	C315.035217,55.494350 314.386047,55.738544 313.377777,55.935406 
	C313.664825,55.633553 314.310944,55.379032 315.320740,55.187332 
z" />
  <path fill="#0A1017" d="
M286.274597,60.124275 
	C285.994202,60.402615 285.359985,60.647743 284.378052,60.848419 
	C284.660461,60.566330 285.290619,60.328697 286.274597,60.124275 
z" />
  <path fill="#0A1017" d="
M330.035675,145.216827 
	C330.342224,145.404694 330.653229,145.888779 330.926025,146.673950 
	C330.605255,146.487686 330.322723,146.000366 330.035675,145.216827 
z" />
  <path fill="#0A1017" d="
M304.261383,57.120197 
	C303.983978,57.402695 303.353241,57.653793 302.375854,57.859829 
	C302.655457,57.572773 303.281769,57.330788 304.261383,57.120197 
z" />
  <path fill="#0A1D30" d="
M293.194336,141.815552 
	C293.274017,141.474258 293.692719,141.700714 293.885742,141.840210 
	C294.040161,142.427155 294.001587,142.874619 293.900879,143.653519 
	C293.597443,143.375580 293.356079,142.766205 293.194336,141.815552 
z" />
  <path fill="#0A1017" d="
M322.318329,54.170765 
	C322.032440,54.468899 321.384216,54.712608 320.378693,54.909233 
	C320.666260,54.613544 321.311127,54.364944 322.318329,54.170765 
z" />
  <path fill="#0A1D30" d="
M333.204407,154.282074 
	C333.621735,154.138184 334.236237,154.260742 335.085632,154.600586 
	C334.680847,154.728073 334.041199,154.638290 333.204407,154.282074 
z" />
  <path fill="#0A1D30" d="
M292.189850,137.838028 
	C292.408478,137.858185 292.610535,138.154236 292.795776,138.724716 
	C292.577087,138.704071 292.375183,138.408997 292.189850,137.838028 
z" />
  <path fill="#0A1017" d="
M328.410156,53.251137 
	C328.366760,53.483601 328.011993,53.678299 327.343140,53.832684 
	C327.385651,53.599373 327.742218,53.406372 328.410156,53.251137 
z" />
  <path fill="#0A1D30" d="
M431.887695,134.309875 
	C432.105011,134.061356 432.279510,134.040878 432.717285,134.014374 
	C432.882477,134.325043 432.700623,134.582550 432.216187,134.878510 
	C431.997406,134.976135 431.844879,134.537903 431.887695,134.309875 
z" />
  <path fill="#0A1D30" d="
M278.457886,135.864548 
	C278.173798,135.652939 278.258453,135.355850 278.734192,134.988647 
	C278.962982,135.194901 278.863403,135.481750 278.457886,135.864548 
z" />
  <path fill="#0A1017" d="
M416.733948,48.555187 
	C416.558105,48.732025 416.149506,48.712315 415.520691,48.471409 
	C415.700714,48.286354 416.100922,48.322498 416.733948,48.555187 
z" />
  <path fill="#3A99C5" d="
M324.825867,134.557114 
	C325.041382,134.421967 325.381897,134.518021 325.822754,134.876205 
	C325.598999,135.021667 325.274963,134.904984 324.825867,134.557114 
z" />
  <path fill="#3A99C5" d="
M325.962158,135.336212 
	C326.174469,135.258743 326.483643,135.430527 326.875122,135.864166 
	C326.657990,135.945816 326.358521,135.765625 325.962158,135.336212 
z" />
  <path fill="#0A1017" d="
M347.394287,50.221043 
	C347.351379,50.442856 347.002228,50.637711 346.343445,50.793922 
	C346.385284,50.568211 346.736664,50.381149 347.394287,50.221043 
z" />
  <path fill="#0A1017" d="
M353.386963,49.210243 
	C353.343842,49.426498 352.996857,49.620094 352.342651,49.777504 
	C352.384644,49.556740 352.733856,49.372162 353.386963,49.210243 
z" />
  <path fill="#0A1D30" d="
M281.032379,132.081818 
	C280.952545,132.395966 280.781616,132.648422 280.305176,132.691254 
	C280.090820,132.543304 280.110291,132.048752 280.110291,132.048752 
	C280.110291,132.048752 280.032013,132.031693 280.286285,132.060455 
	C280.540558,132.089203 281.032379,132.081818 281.032379,132.081818 
z" />
  <path fill="#3A99C5" d="
M279.846863,132.147873 
	C280.110291,132.048752 280.090820,132.543304 280.095154,132.790771 
	C280.099487,133.038254 279.641876,133.186172 279.403381,133.215240 
	C279.304443,132.911865 279.443939,132.579437 279.846863,132.147873 
z" />
  <path fill="#0A1D30" d="
M293.835602,146.097122 
	C294.002777,146.010040 294.136139,146.489731 294.092712,146.734650 
	C293.922333,146.714432 293.795380,146.449310 293.835602,146.097122 
z" />
  <path fill="#0A1D30" d="
M353.091064,157.265350 
	C353.164734,157.077759 353.330566,157.040344 353.744537,157.061371 
	C353.722839,157.218399 353.453003,157.316956 353.091064,157.265350 
z" />
  <path fill="#0A1D30" d="
M272.714172,68.235817 
	C272.903351,68.419052 272.861816,68.824875 272.618469,69.467026 
	C272.438904,69.288383 272.461151,68.873390 272.714172,68.235817 
z" />
  <path fill="#3A99C5" d="
M281.097595,131.850922 
	C281.032379,132.081818 280.540558,132.089203 280.294739,132.099594 
	C280.255524,131.815720 280.462128,131.521454 280.945740,131.185547 
	C281.222717,131.143921 281.162811,131.620026 281.097595,131.850922 
z" />
  <path fill="#0A1017" d="
M429.737427,60.408310 
	C429.502594,60.370033 429.301147,60.014076 429.122009,59.340767 
	C429.353149,59.379150 429.562012,59.734894 429.737427,60.408310 
z" />
  <path fill="#0A1017" d="
M297.417542,58.291420 
	C297.373718,58.537743 297.015015,58.731518 296.339355,58.881813 
	C296.382477,58.638508 296.742584,58.438690 297.417542,58.291420 
z" />
  <path fill="#0A1017" d="
M309.410645,56.253876 
	C309.366272,56.485664 309.011108,56.677845 308.342529,56.829529 
	C308.386017,56.597443 308.742889,56.405853 309.410645,56.253876 
z" />
  <path fill="#3A99C5" d="
M327.045593,111.042755 
	C325.229675,111.684174 323.406311,112.898941 321.598999,112.875565 
	C308.152710,112.701614 294.709167,112.297646 281.266846,111.895607 
	C280.563171,111.874557 279.878540,111.214821 279.042358,110.480423 
	C278.899689,110.108414 279.056335,109.917366 279.578339,109.849167 
	C283.741058,109.825706 287.381805,109.870445 291.346497,109.996864 
	C292.113617,110.063637 292.556793,110.048744 293.352112,110.267807 
	C304.677094,110.522278 315.649994,110.542801 326.727997,110.683670 
	C326.833130,110.804008 327.045593,111.042755 327.045593,111.042755 
z" />
  <path fill="#3A99C5" d="
M327.952148,109.964340 
	C327.917969,110.357307 327.719666,110.604774 327.253143,110.923187 
	C327.045593,111.042755 326.833130,110.804008 326.859283,110.495758 
	C327.094208,109.954437 327.345520,109.784065 327.639343,109.676384 
	C327.639343,109.676384 327.848724,109.867462 327.952148,109.964340 
z" />
  <path fill="#0A1D30" d="
M290.219910,132.731674 
	C290.003357,132.834381 289.611389,132.689713 289.113312,132.242706 
	C289.352936,132.121674 289.698730,132.302979 290.219910,132.731674 
z" />
  <path fill="#D9F2F9" d="
M373.003235,69.057068 
	C383.709991,69.014771 394.416779,68.972466 405.546204,69.374664 
	C401.568604,78.152321 397.086426,86.443535 392.794342,94.832008 
	C389.418213,101.430336 386.276703,108.148674 383.030975,114.813705 
	C378.806183,114.469818 374.446899,114.641510 370.407196,113.587921 
	C367.999146,112.959877 366.092865,110.407860 364.291840,108.369217 
	C367.470062,110.096748 368.819885,108.261703 370.014069,105.968437 
	C373.143097,99.959465 376.309174,93.969635 379.409393,87.945854 
	C382.186798,82.549248 384.895996,77.117569 387.994293,70.991501 
	C383.730408,70.991501 380.293488,71.168938 376.891174,70.903000 
	C375.555267,70.798576 374.296906,69.701881 373.003235,69.057068 
z" />
  <path fill="#A4DDF1" d="
M424.729553,70.145203 
	C428.971191,75.977173 429.082733,82.505791 429.035675,89.081245 
	C428.994232,94.878166 429.211823,100.685898 428.896210,106.465996 
	C428.810455,108.036346 427.209442,109.523956 425.873230,111.124588 
	C425.442566,111.199646 425.157104,111.219124 425.000916,110.791855 
	C422.238220,106.189980 418.590790,103.930580 413.625000,105.092918 
	C409.043945,106.165199 405.531006,108.679550 404.690857,113.770096 
	C402.404175,114.238556 400.117523,114.707008 397.408478,114.678101 
	C403.997864,100.430901 410.929108,86.638466 418.142822,72.995407 
	C418.884644,71.592491 421.314148,71.081924 422.960510,70.157272 
	C423.434357,70.123131 423.908234,70.088982 424.729553,70.145203 
z" />
  <path fill="#21ACE8" d="
M334.106720,71.096016 
	C332.640411,71.398727 331.174072,71.701439 329.345520,72.015923 
	C328.983246,72.027695 328.965454,72.054718 328.965302,71.732841 
	C328.529022,71.034737 328.092896,70.658508 327.721924,70.249115 
	C327.787079,70.215950 327.723419,70.347588 327.668243,70.022675 
	C327.024200,69.519676 326.435333,69.341583 325.832611,69.170235 
	C325.818756,69.176987 325.801880,69.205330 325.801880,69.205330 
	C324.299744,68.809395 322.756012,67.957497 321.302094,68.090096 
	C310.275299,69.095718 299.253143,70.184303 288.257721,71.485222 
	C283.708191,72.023491 279.227722,73.145409 274.306946,74.000694 
	C275.005066,68.834824 277.592804,65.688385 283.361908,64.864700 
	C301.869934,62.222229 320.305023,59.072853 338.791077,56.269588 
	C343.528625,55.551174 348.350372,55.387798 353.576294,55.411873 
	C353.374969,58.637703 352.730743,61.421089 352.086548,64.204483 
	C351.668579,64.907570 351.250580,65.610641 350.504028,66.623215 
	C349.747131,67.007599 349.318787,67.082481 348.572357,67.083923 
	C347.827271,66.926865 347.400299,66.843246 346.668091,66.517845 
	C343.190857,66.488029 339.507172,64.248352 337.071838,68.136673 
	C337.026825,68.067566 337.155975,68.170166 336.826599,68.134132 
	C336.095520,68.519653 335.693787,68.941208 335.255524,69.297134 
	C335.219025,69.231499 335.355469,69.294273 335.034119,69.337509 
	C334.503815,69.951912 334.294861,70.523087 334.078979,71.086632 
	C334.072021,71.079002 334.106720,71.096016 334.106720,71.096016 
z" />
  <path fill="#A4DDF1" d="
M372.618713,68.965500 
	C374.296906,69.701881 375.555267,70.798576 376.891174,70.903000 
	C380.293488,71.168938 383.730408,70.991501 387.994293,70.991501 
	C384.895996,77.117569 382.186798,82.549248 379.409393,87.945854 
	C376.309174,93.969635 373.143097,99.959465 370.014069,105.968437 
	C368.819885,108.261703 367.470062,110.096748 364.296967,107.988525 
	C362.988922,104.675720 361.516327,101.404541 365.642487,98.916916 
	C366.552063,98.368546 367.143677,96.642891 367.196045,95.429756 
	C367.498260,88.427467 369.600769,81.172668 364.568909,74.797226 
	C364.060394,74.152916 364.342957,72.884262 364.756165,71.400246 
	C365.577271,70.496101 365.900574,70.097069 366.223907,69.698036 
	C368.227356,69.423332 370.230774,69.148628 372.618713,68.965500 
z" />
  <path fill="#A4DDF1" d="
M383.433258,114.918213 
	C386.276703,108.148674 389.418213,101.430336 392.794342,94.832008 
	C397.086426,86.443535 401.568604,78.152321 406.010742,69.464050 
	C407.730957,69.098221 409.409271,69.087509 411.359467,69.377075 
	C411.072815,71.496391 410.723877,73.414345 409.920044,75.117607 
	C406.169983,83.063622 402.558014,91.093269 398.375458,98.810516 
	C395.333801,104.422585 391.478790,109.593819 387.986450,114.961609 
	C386.602814,114.981979 385.219177,115.002350 383.433258,114.918213 
z" />
  <path fill="#D9F2F9" d="
M388.431396,115.057404 
	C391.478790,109.593819 395.333801,104.422585 398.375458,98.810516 
	C402.558014,91.093269 406.169983,83.063622 409.920044,75.117607 
	C410.723877,73.414345 411.072815,71.496391 411.770538,69.472748 
	C415.317474,69.523224 418.725189,69.778282 422.546692,70.095306 
	C421.314148,71.081924 418.884644,71.592491 418.142822,72.995407 
	C410.929108,86.638466 403.997864,100.430901 396.995453,114.553802 
	C394.295319,115.002304 391.585815,115.077751 388.431396,115.057404 
z" />
  <path fill="#21ACE8" d="
M359.675293,54.321083 
	C364.547607,52.939926 369.434235,51.598221 374.745911,50.655960 
	C375.722107,55.098282 376.273224,59.141167 376.821381,63.162323 
	C372.299744,64.102669 368.017456,65.445671 363.687744,65.621811 
	C362.364746,65.675636 360.358521,62.718437 359.675598,60.783531 
	C359.013489,58.907516 359.649689,56.573257 359.715698,54.440254 
	C359.715729,54.440254 359.689545,54.360535 359.675293,54.321083 
z" />
  <path fill="#3F5667" d="
M363.338257,79.675011 
	C364.086914,84.897430 364.650604,89.911072 364.629120,94.922195 
	C364.626007,95.648010 361.795258,96.947021 360.313477,96.891930 
	C359.172974,96.849541 357.255005,95.184166 357.141846,94.089630 
	C356.732544,90.130890 356.694244,86.090782 356.981049,82.114937 
	C357.279877,77.971992 360.285706,78.831413 363.338257,79.675011 
z" />
  <path fill="#3877A4" d="
M409.046295,63.419426 
	C409.990326,64.370430 410.934326,65.321434 411.959656,66.573105 
	C406.098053,66.573425 400.153809,66.010162 394.212708,66.042099 
	C387.433899,66.078529 380.657990,66.645172 373.542297,66.545059 
	C375.512115,65.739502 377.854767,65.508888 380.115784,64.948845 
	C381.461060,64.615631 382.677979,63.764297 384.419495,63.068092 
	C392.939667,63.133327 400.992981,63.276375 409.046295,63.419426 
z" />
  <path fill="#3A99C5" d="
M383.952606,63.145905 
	C382.677979,63.764297 381.461060,64.615631 380.115784,64.948845 
	C377.854767,65.508888 375.512115,65.739502 373.083923,66.478928 
	C370.090607,67.178566 367.213776,67.795906 364.344696,67.761711 
	C361.047150,67.722397 357.974609,66.483421 357.836914,62.602673 
	C357.747162,60.072567 358.626373,57.508087 359.393616,54.699631 
	C359.649689,56.573257 359.013489,58.907516 359.675598,60.783531 
	C360.358521,62.718437 362.364746,65.675636 363.687744,65.621811 
	C368.017456,65.445671 372.299744,64.102669 376.821381,63.162323 
	C376.273224,59.141167 375.722107,55.098282 375.126282,50.678757 
	C376.317810,50.460896 377.554016,50.619678 378.875854,51.435211 
	C375.512054,58.470047 377.317139,62.467789 383.952606,63.145905 
z" />
  <path fill="#3F5667" d="
M405.073669,113.807968 
	C405.531006,108.679550 409.043945,106.165199 413.625000,105.092918 
	C418.590790,103.930580 422.238220,106.189980 424.883240,110.710571 
	C424.285004,111.699593 423.648285,112.342628 422.527832,112.730080 
	C416.544647,106.595490 412.406464,107.059357 407.749146,114.076851 
	C406.984924,113.999847 406.220734,113.922836 405.073669,113.807968 
z" />
  <path fill="#AFD5E3" d="
M408.002808,114.419235 
	C412.406464,107.059357 416.544647,106.595490 422.252869,112.772827 
	C417.726562,113.634659 412.991486,114.198143 408.002808,114.419235 
z" />
  <path fill="#93A3AB" d="
M354.840576,98.333244 
	C354.288147,98.778175 353.696106,98.836235 352.812073,98.561562 
	C352.457855,89.894043 352.395630,81.559258 352.539154,73.057236 
	C353.172333,72.585762 353.599731,72.281525 354.027130,71.977280 
	C354.027130,71.977280 354.001221,72.001053 353.974121,72.378731 
	C354.368256,74.248566 354.789459,75.740723 355.210663,77.232872 
	C355.074097,84.137367 354.937531,91.041870 354.840576,98.333244 
z" />
  <path fill="#3F5667" d="
M353.018433,69.028000 
	C354.968262,66.530380 359.136627,67.447365 360.664795,70.846474 
	C361.100830,71.816269 360.918335,73.064148 361.050781,74.531013 
	C358.378601,72.488411 356.046661,70.705910 353.363647,68.957809 
	C353.012512,68.992203 353.018433,69.028000 353.018433,69.028000 
z" />
  <path fill="#3A99C5" d="
M352.480835,64.146225 
	C352.730743,61.421089 353.374969,58.637703 354.026855,55.432911 
	C354.452667,54.987614 354.870819,54.963722 355.603302,54.925186 
	C354.872406,57.959381 356.891693,62.024178 352.480835,64.146225 
z" />
  <path fill="#2F5F90" d="
M354.009033,71.656830 
	C353.599731,72.281525 353.172333,72.585762 352.384033,72.722290 
	C350.978943,70.755508 349.934692,68.956444 348.890442,67.157364 
	C349.318787,67.082481 349.747131,67.007599 350.501526,66.935081 
	C351.382812,67.526711 351.938019,68.115990 352.755798,68.866638 
	C353.018433,69.028000 353.012512,68.992203 352.995178,68.987808 
	C353.315552,69.767746 353.653229,70.552063 354.009033,71.656830 
z" />
  <path fill="#2F5F90" d="
M355.480865,77.054337 
	C354.789459,75.740723 354.368256,74.248566 353.983337,72.364365 
	C355.672607,73.226913 358.051270,74.225281 355.480865,77.054337 
z" />
  <path fill="#090E13" d="
M427.028198,112.385147 
	C427.183868,112.102631 427.348907,112.057220 427.750519,112.111588 
	C427.813538,112.604790 427.639954,112.998215 427.466370,113.391647 
	C427.323456,113.135185 427.180511,112.878716 427.028198,112.385147 
z" />
  <path fill="#D9F2F9" d="
M365.792908,69.790894 
	C365.900574,70.097069 365.577271,70.496101 364.944519,71.133720 
	C364.877380,70.876114 365.119659,70.379929 365.792908,69.790894 
z" />
  <path fill="#21ACE8" d="
M417.304962,133.029007 
	C417.304962,133.029007 417.475067,133.174057 417.472382,133.283813 
	C415.676331,138.043335 419.184326,138.990402 422.267029,139.881073 
	C423.841187,140.335907 425.655212,139.960785 427.388733,140.585358 
	C420.994690,144.191345 414.148987,144.414764 407.206970,143.762833 
	C406.764221,143.721252 406.431030,142.513000 406.024780,141.424545 
	C406.002716,141.001587 406.015045,141.015976 406.327759,141.011703 
	C407.059692,140.609192 407.478912,140.210938 407.909698,139.859222 
	C407.921265,139.905746 407.829407,139.878281 408.097107,139.827728 
	C408.558319,139.484589 408.751801,139.192017 408.962250,138.939056 
	C408.979187,138.978653 408.900055,138.944550 409.155884,138.864807 
	C409.586151,138.486023 409.760620,138.186981 409.952576,137.929626 
	C409.970093,137.971313 409.886536,137.936707 410.148254,137.849960 
	C410.557281,137.441895 410.704590,137.120560 410.866333,136.850479 
	C410.880737,136.901718 410.776001,136.882614 411.077148,136.776123 
	C411.569458,136.091156 411.760620,135.512695 411.975830,134.963211 
	C411.999847,134.992188 411.931580,134.960556 412.288300,134.922882 
	C412.815155,133.270920 412.985260,131.656616 413.067627,129.779892 
	C412.915070,129.155624 412.850250,128.793808 412.647339,128.048569 
	C412.071106,127.459953 411.638489,127.088882 411.194092,127.074211 
	C403.536133,126.821548 395.877136,126.588577 388.216522,126.475174 
	C387.878967,126.470177 387.523926,127.645523 387.059753,128.464752 
	C386.731750,128.886810 386.476685,129.042633 385.846436,129.117722 
	C385.813965,130.388306 386.112396,131.667068 386.457275,133.049744 
	C386.503723,133.153656 386.403473,133.358063 386.287109,133.759064 
	C386.806946,135.091339 387.443146,136.022614 388.042297,136.973267 
	C388.005249,136.992676 388.054108,136.924789 388.050446,137.252197 
	C388.488251,137.958115 388.929688,138.336609 389.305969,138.741898 
	C389.240784,138.768692 389.291107,138.637039 389.317200,138.954025 
	C389.886536,139.522995 390.429810,139.774979 390.985931,140.013184 
	C390.998779,139.999390 390.978851,140.030304 391.123352,140.279480 
	C391.623230,140.642029 391.978546,140.755417 392.508484,140.869431 
	C392.683075,140.870041 392.966797,141.073624 392.966797,141.073624 
	C393.196564,142.166092 393.426331,143.258560 393.710693,144.610565 
	C380.430603,144.610565 367.465363,144.610565 354.028351,144.610565 
	C354.028351,131.574326 353.995667,117.984566 354.113983,104.396118 
	C354.120697,103.625389 355.365448,102.865448 356.033997,102.100494 
	C356.977844,103.099220 358.253510,103.944740 358.799469,105.127190 
	C360.113800,107.973862 361.086426,110.978333 362.555267,114.003143 
	C365.835114,115.627251 368.698181,118.354591 371.688141,118.501617 
	C384.503510,119.131775 397.356537,119.123871 410.195190,119.090393 
	C415.454254,119.076683 420.709564,118.370262 425.972504,118.090080 
	C426.610901,118.056091 427.286316,118.716759 428.675262,119.431488 
	C425.364655,120.985634 422.748108,122.213943 420.106171,123.827209 
	C419.648315,124.752876 419.215912,125.293587 418.190063,126.073944 
	C417.499420,128.552063 417.402191,130.790527 417.304962,133.029007 
M378.686188,125.718361 
	C378.358673,125.576569 378.031189,125.434776 377.904083,125.173523 
	C377.904083,125.173523 377.743896,125.343155 377.625092,124.694740 
	C377.036530,124.510017 376.447937,124.325294 375.960876,124.063690 
	C375.960876,124.063690 375.909912,124.180382 375.662537,123.456070 
	C373.281525,121.831696 370.918884,120.394714 369.005493,124.019516 
	C369.005493,124.019516 369.091400,124.073723 368.319580,124.007462 
	C367.252045,125.379105 366.184509,126.750748 365.047943,128.035645 
	C365.047943,128.035645 365.153900,128.068237 364.450928,128.340210 
	C361.933228,131.819550 362.580658,134.671768 366.557159,137.141693 
	C366.801666,137.334976 366.958069,137.583664 367.212891,138.403961 
	C367.526581,138.568054 367.840302,138.732147 368.064606,138.917297 
	C368.064606,138.917297 368.076080,138.826172 368.382385,139.434433 
	C369.021881,139.568619 369.661346,139.702805 371.074463,139.857269 
	C373.947021,138.533997 376.819550,137.210709 380.434509,135.678436 
	C380.499603,133.522781 380.564728,131.367111 380.754608,129.137955 
	C380.754608,129.137955 380.697723,129.271133 380.715302,128.717392 
	C380.435669,128.502457 380.156036,128.287521 379.986938,128.023209 
	C379.986938,128.023209 379.899933,128.107391 379.933960,127.452065 
	C379.510468,127.049904 379.086945,126.647743 378.794128,126.126801 
	C378.794128,126.126801 378.727417,126.290337 378.686188,125.718361 
z" />
  <path fill="#0A1D30" d="
M348.572327,67.083923 
	C349.934692,68.956444 350.978943,70.755508 352.178284,72.889526 
	C352.395630,81.559258 352.457855,89.894043 352.514038,98.596466 
	C352.427948,113.318565 352.347900,127.673019 352.208588,142.761383 
	C352.190521,143.690292 352.231720,143.885330 352.272949,144.080353 
	C352.146912,145.457657 352.020874,146.834976 351.840607,148.624634 
	C347.690460,152.101242 340.149017,151.293182 334.408478,147.030685 
	C334.016632,146.419434 333.934692,145.985641 333.787964,145.006683 
	C333.688263,144.128906 333.536407,143.863007 333.267578,143.663834 
	C333.254791,122.384613 333.213257,101.105324 333.265900,79.826263 
	C333.272400,77.191093 333.779572,74.557159 334.080750,71.509331 
	C334.106720,71.096016 334.072021,71.079002 334.325684,70.938919 
	C334.838043,70.297310 335.096741,69.795792 335.355469,69.294266 
	C335.355469,69.294273 335.219025,69.231499 335.537415,69.239670 
	C336.289185,68.888611 336.722565,68.529388 337.155975,68.170166 
	C337.155975,68.170166 337.026825,68.067566 337.474854,68.106430 
	C340.939728,67.683403 343.956512,67.221512 346.973328,66.759628 
	C347.400299,66.843246 347.827271,66.926865 348.572327,67.083923 
M348.784119,70.667984 
	C347.316833,70.452843 345.849548,70.237701 344.334595,70.015572 
	C344.334595,83.748177 344.334595,96.773102 344.334595,109.823044 
	C346.242798,109.823044 347.825836,109.823044 349.234833,109.823044 
	C349.234833,96.843872 349.234833,84.132423 348.784119,70.667984 
M336.037445,84.524323 
	C336.037445,92.808304 336.037445,101.092278 336.037445,109.602707 
	C337.975403,109.602707 339.525116,109.602707 341.345947,109.602707 
	C341.345947,96.445427 341.345947,83.547394 341.345947,70.482666 
	C337.639801,70.493614 335.854462,71.943031 336.011475,75.551949 
	C336.127075,78.209206 336.037903,80.875359 336.037445,84.524323 
M349.849670,128.502838 
	C349.849670,123.395309 349.849670,118.287781 349.849670,112.782440 
	C347.602905,112.885536 345.904816,112.963455 343.974670,113.052025 
	C343.974670,124.981514 343.974670,136.367645 343.974670,147.946747 
	C345.792725,147.946747 347.403137,147.946747 349.850006,147.946747 
	C349.850006,141.675552 349.850006,135.587875 349.849670,128.502838 
M340.474457,147.212509 
	C340.839478,145.255371 341.497345,143.301605 341.519867,141.340546 
	C341.629608,131.783417 341.569519,122.224358 341.569519,112.497604 
	C339.356232,112.497604 337.796722,112.497604 336.018341,112.497604 
	C336.018341,121.696075 336.013123,130.621979 336.023438,139.547897 
	C336.025146,141.039917 335.662964,142.737473 336.249542,143.967941 
	C336.877380,145.285019 338.428467,146.162018 340.474457,147.212509 
z" />
  <path fill="#0A1017" d="
M412.785431,128.431976 
	C412.850250,128.793808 412.915070,129.155624 412.952026,130.124542 
	C412.593323,132.141266 412.262451,133.550919 411.931580,134.960556 
	C411.931580,134.960556 411.999847,134.992188 411.715942,135.115448 
	C411.213318,135.786682 410.994659,136.334641 410.776001,136.882614 
	C410.776001,136.882614 410.880737,136.901718 410.617920,136.951202 
	C410.198914,137.312714 410.042725,137.624710 409.886536,137.936707 
	C409.886536,137.936707 409.970093,137.971313 409.695251,138.006500 
	C409.246979,138.342636 409.073517,138.643585 408.900055,138.944550 
	C408.900055,138.944550 408.979187,138.978653 408.703491,139.006653 
	C408.228333,139.315842 408.028870,139.597061 407.829407,139.878281 
	C407.829407,139.878281 407.921265,139.905746 407.618896,139.901550 
	C406.882690,140.270218 406.448853,140.643097 406.015045,141.015961 
	C406.015045,141.015976 406.002716,141.001587 406.008575,141.008972 
	C401.939484,141.036011 397.864502,141.055664 393.378174,141.074463 
	C392.966797,141.073624 392.683075,140.870041 392.351471,140.634003 
	C391.672852,140.275421 391.325867,140.152863 390.978851,140.030304 
	C390.978851,140.030304 390.998779,139.999390 390.863281,139.753693 
	C390.248901,139.217667 389.770020,138.927353 389.291107,138.637039 
	C389.291107,138.637039 389.240784,138.768692 389.241211,138.457336 
	C388.845795,137.738922 388.449951,137.331848 388.054108,136.924789 
	C388.054108,136.924789 388.005249,136.992676 388.004089,136.639984 
	C387.469757,135.310883 386.936615,134.334473 386.403503,133.358063 
	C386.403473,133.358063 386.503723,133.153656 386.460510,132.665619 
	C386.337311,131.160339 386.257324,130.143127 386.177338,129.125900 
	C386.476685,129.042633 386.731750,128.886810 387.450562,128.497955 
	C396.227203,130.220901 404.503418,130.086456 412.785431,128.431976 
M397.075378,139.698196 
	C399.755798,139.433029 402.436188,139.167877 406.014526,138.813873 
	C401.047424,132.615173 395.953400,132.408096 390.515045,133.560394 
	C390.205170,134.052856 389.895264,134.545319 389.585388,135.037781 
	C391.826874,136.517090 394.068390,137.996414 397.075378,139.698196 
z" />
  <path fill="#0A1D30" d="
M411.541138,146.003723 
	C408.479858,146.536453 404.972168,147.010544 401.208527,147.183807 
	C404.333282,146.570328 407.713989,146.257706 411.541138,146.003723 
z" />
  <path fill="#0A1D30" d="
M376.039917,146.654617 
	C373.495422,146.792328 370.569183,146.730377 367.338867,146.404266 
	C369.909241,146.245071 372.783691,146.350006 376.039917,146.654617 
z" />
  <path fill="#0A1D30" d="
M428.625854,143.952377 
	C427.806671,144.295502 426.608154,144.619385 425.004456,144.894348 
	C425.815033,144.541351 427.030762,144.237259 428.625854,143.952377 
z" />
  <path fill="#0A1D30" d="
M421.597321,145.014160 
	C420.854736,145.290054 419.720062,145.518082 418.340027,145.556244 
	C419.131500,145.233002 420.168396,145.099640 421.597321,145.014160 
z" />
  <path fill="#2F5F90" d="
M352.400482,143.959991 
	C352.231720,143.885330 352.190521,143.690292 352.229004,143.206970 
	C352.419617,143.115417 352.553955,143.303665 352.630188,143.513046 
	C352.661194,143.598236 352.565857,143.729401 352.400482,143.959991 
z" />
  <path fill="#0A1D30" d="
M327.788696,109.324570 
	C327.345520,109.784065 327.094208,109.954437 326.754150,110.375412 
	C315.649994,110.542801 304.677094,110.522278 293.367462,109.871681 
	C293.086212,108.716286 293.141754,108.190964 293.506348,107.696800 
	C294.223389,107.703049 294.631409,107.678131 295.366943,107.734451 
	C296.139587,107.776543 296.584656,107.737381 297.447937,107.786118 
	C299.571350,107.864105 301.276550,107.854202 303.431061,107.925018 
	C305.476898,108.005737 307.073395,108.005737 308.816406,108.005737 
	C308.816406,100.157982 308.816406,92.586349 308.883240,84.644608 
	C308.950073,80.826736 308.950073,77.378983 308.950073,73.706589 
	C306.978271,73.934944 305.503387,74.105751 303.618927,74.214233 
	C300.443726,74.534752 297.678070,74.917603 294.868774,75.185913 
	C294.825073,75.071373 295.025604,74.930298 294.822296,74.683517 
	C293.726044,73.925049 292.833130,73.413361 291.940186,72.901672 
	C302.943146,71.671646 313.946075,70.441620 325.375458,69.208466 
	C325.801880,69.205330 325.818756,69.176987 325.990234,69.412529 
	C326.682251,69.881241 327.202850,70.114410 327.723419,70.347588 
	C327.723419,70.347588 327.787079,70.215950 327.793945,70.524628 
	C328.188995,71.240448 328.577240,71.647583 328.965454,72.054718 
	C328.965454,72.054718 328.983246,72.027695 328.965424,72.031586 
	C328.611084,84.347900 328.274536,96.660332 327.788696,109.324570 
M311.859802,79.932594 
	C311.833893,88.137642 311.753967,96.343262 311.840485,104.547119 
	C311.853424,105.773331 312.647675,106.991302 313.835632,108.489891 
	C316.467102,108.581688 319.101532,108.796616 321.729279,108.733673 
	C324.914551,108.657372 327.001312,107.318787 326.969238,103.688362 
	C326.899536,95.794945 326.934265,87.900620 327.090210,79.183289 
	C326.699188,76.592430 328.506409,73.020706 323.143280,72.089264 
	C319.412445,72.432091 315.681641,72.774918 311.751434,73.136070 
	C311.864838,75.424576 311.953705,77.218391 311.859802,79.932594 
z" />
  <path fill="#0A1D30" d="
M291.022522,109.915192 
	C287.381805,109.870445 283.741058,109.825706 279.655029,109.752319 
	C277.748627,107.149879 275.351593,104.689201 275.023956,101.978409 
	C274.369141,96.560776 274.782135,91.004967 274.873749,85.508209 
	C275.045746,75.188705 276.633179,73.631126 287.617737,73.500381 
	C288.015625,74.554749 288.007690,75.216202 287.598846,75.981094 
	C285.219147,76.352463 283.101471,76.275238 281.305664,76.997871 
	C279.876617,77.572937 277.826599,79.096008 277.793640,80.248062 
	C277.566559,88.181480 277.797363,96.128021 277.892090,104.450378 
	C279.601227,105.554939 281.299194,106.279472 283.352051,107.110703 
	C286.087067,107.058823 288.467194,106.900246 290.881165,107.137680 
	C290.950836,108.327530 290.986694,109.121361 291.022522,109.915192 
z" />
  <path fill="#090E13" d="
M287.999786,75.877655 
	C288.007690,75.216202 288.015625,74.554749 288.036896,73.562866 
	C289.086121,73.105476 290.121948,72.978523 291.549011,72.876625 
	C292.833130,73.413361 293.726044,73.925049 294.443298,74.830544 
	C293.919281,75.905876 293.272430,76.585495 293.268097,77.269196 
	C293.215729,85.501877 293.258484,93.735176 293.188629,102.368210 
	C293.132996,104.400620 293.165131,106.033127 293.197266,107.665634 
	C293.141754,108.190964 293.086212,108.716286 293.015320,109.637726 
	C292.556793,110.048744 292.113617,110.063637 291.346497,109.996864 
	C290.986694,109.121361 290.950836,108.327530 290.855835,106.686211 
	C290.799622,97.106415 290.784027,88.374023 290.819580,79.641846 
	C290.827820,77.613297 291.106628,75.513649 287.999786,75.877655 
z" />
  <path fill="#287BBA" d="
M333.228516,143.897552 
	C333.536407,143.863007 333.688263,144.128906 333.685059,144.691437 
	C333.366882,144.731964 333.214355,144.468597 333.228516,143.897552 
z" />
  <path fill="#0A1D30" d="
M384.419495,63.068092 
	C377.317139,62.467789 375.512054,58.470047 379.076019,51.765396 
	C388.471497,51.403938 397.752472,51.369049 407.491821,51.243263 
	C410.371979,51.702805 412.793701,52.253235 415.624268,53.343346 
	C415.985596,56.554039 415.938141,59.225060 415.890686,61.896072 
	C414.818848,62.357742 413.746979,62.819408 412.087189,63.283154 
	C411.335907,63.335983 411.172607,63.386734 411.009338,63.437481 
	C410.572418,63.392685 410.135529,63.347893 409.372437,63.361263 
	C400.992981,63.276375 392.939667,63.133327 384.419495,63.068092 
M384.815308,60.075466 
	C393.239319,60.351646 401.663605,60.768688 410.087128,60.754452 
	C411.373108,60.752277 412.655731,58.755165 413.939911,57.680725 
	C412.896240,56.488892 411.917175,54.332821 410.798645,54.257858 
	C401.897614,53.661304 392.970123,53.305359 384.050690,53.304340 
	C382.721558,53.304188 381.392151,55.543144 380.062897,56.746243 
	C381.345917,57.856293 382.628906,58.966347 384.815308,60.075466 
z" />
  <path fill="#111313" d="
M325.402344,146.838867 
	C325.781952,150.589203 326.344849,154.024582 326.007874,157.369308 
	C325.881195,158.626358 323.784210,160.319290 322.359863,160.579819 
	C321.466248,160.743271 319.244446,158.649506 319.195343,157.501038 
	C319.038635,153.836685 319.031952,149.962082 320.083374,146.508438 
	C321.091095,143.198334 323.476105,143.134933 325.402344,146.838867 
M323.353394,147.812958 
	C320.174988,149.812805 319.890137,154.152908 323.860199,158.107986 
	C323.860199,154.894363 323.860199,151.680725 323.353394,147.812958 
z" />
  <path fill="#111313" d="
M282.693970,142.217606 
	C283.912415,140.942612 284.942322,140.010330 286.134369,138.931290 
	C289.908142,143.160309 289.564667,147.540787 288.479523,151.907684 
	C288.222229,152.943100 286.839081,154.369431 285.942261,154.392563 
	C284.985077,154.417252 283.286957,153.104996 283.140106,152.181244 
	C282.637726,149.020508 282.674408,145.774063 282.693970,142.217606 
z" />
  <path fill="#0A1D30" d="
M291.041107,134.767670 
	C291.241821,134.773743 291.481323,135.103867 291.832397,135.719910 
	C291.655914,135.701141 291.367920,135.396423 291.041107,134.767670 
z" />
  <path fill="#E0BF3E" d="
M429.127502,129.244110 
	C429.282990,133.315475 427.898529,136.241791 423.879395,135.725601 
	C420.609192,135.305603 419.298340,132.392410 420.209290,129.257645 
	C420.592651,127.938438 422.418457,125.944542 423.297699,126.084488 
	C425.305664,126.404099 427.134216,127.850723 429.127502,129.244110 
z" />
  <path fill="#3A99C5" d="
M417.326843,132.633728 
	C417.402191,130.790527 417.499420,128.552063 417.974609,126.222794 
	C418.017944,128.167480 417.683350,130.202957 417.326843,132.633728 
z" />
  <path fill="#3A99C5" d="
M415.963074,61.963428 
	C415.938141,59.225060 415.985596,56.554039 415.967560,53.510326 
	C419.003052,53.467300 422.104004,53.796970 425.591187,54.074379 
	C426.217194,55.751820 426.457001,57.481518 426.372253,59.508812 
	C425.281708,58.609619 424.722778,57.175037 423.694336,56.279835 
	C422.560547,55.292927 420.995758,54.801182 419.618713,54.093742 
	C419.075745,55.442791 418.553772,56.800808 417.983856,58.138386 
	C417.407471,59.491131 416.783600,60.823662 416.180542,62.165043 
	C416.180542,62.165043 416.035400,62.030781 415.963074,61.963428 
z" />
  <path fill="#21ACE8" d="
M416.135437,62.544785 
	C416.783600,60.823662 417.407471,59.491131 417.983856,58.138386 
	C418.553772,56.800808 419.075745,55.442791 419.618713,54.093742 
	C420.995758,54.801182 422.560547,55.292927 423.694336,56.279835 
	C424.722778,57.175037 425.281708,58.609619 426.356110,59.880627 
	C426.731293,60.437313 426.798004,60.919773 426.831177,61.769676 
	C425.832245,63.416092 424.649963,65.890533 423.940033,65.761719 
	C421.240753,65.271950 418.694031,63.941029 416.135437,62.544785 
z" />
  <path fill="#3877A4" d="
M411.110138,63.548248 
	C411.172607,63.386734 411.335907,63.335983 411.742218,63.366665 
	C411.985199,63.448097 411.637299,63.709663 411.637299,63.709663 
	C411.637299,63.709663 411.210938,63.659019 411.110138,63.548248 
z" />
  <path fill="#3A99C5" d="
M346.668091,66.517845 
	C343.956512,67.221512 340.939728,67.683403 337.519897,68.175537 
	C339.507172,64.248352 343.190857,66.488029 346.668091,66.517845 
z" />
  <path fill="#3A99C5" d="
M335.034119,69.337502 
	C335.096741,69.795792 334.838043,70.297310 334.332642,70.946548 
	C334.294861,70.523087 334.503815,69.951912 335.034119,69.337502 
z" />
  <path fill="#3A99C5" d="
M328.965302,71.732841 
	C328.577240,71.647583 328.188995,71.240448 327.728760,70.557800 
	C328.092896,70.658508 328.529022,71.034737 328.965302,71.732841 
z" />
  <path fill="#3A99C5" d="
M336.826599,68.134132 
	C336.722565,68.529388 336.289185,68.888611 335.573914,69.305298 
	C335.693787,68.941208 336.095520,68.519653 336.826599,68.134132 
z" />
  <path fill="#3A99C5" d="
M327.668243,70.022675 
	C327.202850,70.114410 326.682251,69.881241 326.004089,69.405777 
	C326.435333,69.341583 327.024200,69.519676 327.668243,70.022675 
z" />
  <path fill="#0A1D30" d="
M367.026367,137.887787 
	C366.958069,137.583664 366.801666,137.334976 366.241547,136.654541 
	C365.668579,133.467667 365.411224,130.767960 365.153900,128.068237 
	C365.153900,128.068237 365.047943,128.035645 365.351501,127.910751 
	C366.800537,126.548485 367.945984,125.311111 369.091400,124.073730 
	C369.091400,124.073723 369.005493,124.019516 369.463745,124.041077 
	C371.917999,124.101883 373.913940,124.141129 375.909912,124.180382 
	C375.909912,124.180382 375.960876,124.063690 376.059814,124.355209 
	C376.687103,124.878868 377.215515,125.111015 377.743896,125.343155 
	C377.743896,125.343155 377.904083,125.173523 377.886230,125.476349 
	C378.154755,125.949570 378.441071,126.119957 378.727417,126.290337 
	C378.727417,126.290337 378.794128,126.126801 378.774353,126.477661 
	C379.136383,127.254822 379.518158,127.681107 379.899933,128.107391 
	C379.899933,128.107391 379.986938,128.023209 379.973816,128.306274 
	C380.206390,128.816605 380.452057,129.043869 380.697723,129.271133 
	C380.697723,129.271133 380.754608,129.137955 380.685242,129.550003 
	C380.307983,131.937180 380.000031,133.912292 379.692108,135.887421 
	C376.819550,137.210709 373.947021,138.533997 370.472900,139.614120 
	C369.272888,139.189377 368.674500,139.007782 368.076080,138.826172 
	C368.076080,138.826172 368.064606,138.917297 368.005432,138.659775 
	C367.639618,138.230759 367.332977,138.059265 367.026367,137.887787 
M368.140350,128.966690 
	C368.053894,129.311279 367.967438,129.655869 367.519165,130.438004 
	C367.549011,131.333923 367.578888,132.229828 367.677887,133.821625 
	C368.064362,134.383255 368.450806,134.944885 368.965179,135.842300 
	C369.118866,136.053040 369.326141,136.157425 370.164124,136.745392 
	C373.227753,137.781876 376.120758,137.366699 377.184937,134.141937 
	C377.748413,132.434494 377.349396,129.290344 376.173981,128.408066 
	C374.664825,127.275330 371.938538,127.764137 369.672150,127.610825 
	C369.672150,127.610825 369.586945,127.620232 369.127289,127.797806 
	C368.835510,127.992973 368.664490,128.264252 368.800171,128.680695 
	C368.800171,128.680695 368.601837,128.675491 368.140350,128.966690 
z" />
  <path fill="#3A99C5" d="
M412.647339,128.048569 
	C404.503418,130.086456 396.227203,130.220901 387.567871,128.304276 
	C387.523926,127.645523 387.878967,126.470177 388.216522,126.475174 
	C395.877136,126.588577 403.536133,126.821548 411.194092,127.074211 
	C411.638489,127.088882 412.071106,127.459953 412.647339,128.048569 
z" />
  <path fill="#3A99C5" d="
M364.802429,128.204224 
	C365.411224,130.767960 365.668579,133.467667 366.040771,136.555664 
	C362.580658,134.671768 361.933228,131.819550 364.802429,128.204224 
z" />
  <path fill="#3A99C5" d="
M375.786224,123.818222 
	C373.913940,124.141129 371.917999,124.101883 369.491821,124.083412 
	C370.918884,120.394714 373.281525,121.831696 375.786224,123.818222 
z" />
  <path fill="#3A99C5" d="
M368.705505,124.040596 
	C367.945984,125.311111 366.800537,126.548485 365.386047,127.954132 
	C366.184509,126.750748 367.252045,125.379105 368.705505,124.040596 
z" />
  <path fill="#3A99C5" d="
M380.063293,135.782928 
	C380.000031,133.912292 380.307983,131.937180 380.622864,129.586761 
	C380.564728,131.367111 380.499603,133.522781 380.063293,135.782928 
z" />
  <path fill="#3A99C5" d="
M412.288300,134.922882 
	C412.262451,133.550919 412.593323,132.141266 413.039795,130.386978 
	C412.985260,131.656616 412.815155,133.270920 412.288300,134.922882 
z" />
  <path fill="#3A99C5" d="
M385.846436,129.117722 
	C386.257324,130.143127 386.337311,131.160339 386.414062,132.561707 
	C386.112396,131.667068 385.813965,130.388306 385.846436,129.117722 
z" />
  <path fill="#3A99C5" d="
M386.287109,133.759064 
	C386.936615,134.334473 387.469757,135.310883 388.041138,136.620575 
	C387.443146,136.022614 386.806946,135.091339 386.287109,133.759064 
z" />
  <path fill="#3A99C5" d="
M388.050446,137.252197 
	C388.449951,137.331848 388.845795,137.738922 389.306396,138.430542 
	C388.929688,138.336609 388.488251,137.958115 388.050446,137.252197 
z" />
  <path fill="#3A99C5" d="
M368.229248,139.130310 
	C368.674500,139.007782 369.272888,139.189377 370.086060,139.603973 
	C369.661346,139.702805 369.021881,139.568619 368.229248,139.130310 
z" />
  <path fill="#3A99C5" d="
M411.077148,136.776123 
	C410.994659,136.334641 411.213318,135.786682 411.691895,135.086487 
	C411.760620,135.512695 411.569458,136.091156 411.077148,136.776123 
z" />
  <path fill="#3A99C5" d="
M406.327759,141.011688 
	C406.448853,140.643097 406.882690,140.270218 407.607330,139.855011 
	C407.478912,140.210938 407.059692,140.609192 406.327759,141.011688 
z" />
  <path fill="#3A99C5" d="
M389.317200,138.954025 
	C389.770020,138.927353 390.248901,139.217667 390.850464,139.767487 
	C390.429810,139.774979 389.886536,139.522995 389.317200,138.954025 
z" />
  <path fill="#3A99C5" d="
M377.684509,125.018951 
	C377.215515,125.111015 376.687103,124.878868 376.009033,124.393646 
	C376.447937,124.325294 377.036530,124.510017 377.684509,125.018951 
z" />
  <path fill="#3A99C5" d="
M379.916931,127.779724 
	C379.518158,127.681107 379.136383,127.254822 378.709015,126.537056 
	C379.086945,126.647743 379.510468,127.049904 379.916931,127.779724 
z" />
  <path fill="#3A99C5" d="
M367.119629,138.145874 
	C367.332977,138.059265 367.639618,138.230759 368.050110,138.649246 
	C367.840302,138.732147 367.526581,138.568054 367.119629,138.145874 
z" />
  <path fill="#3A99C5" d="
M380.706512,128.994263 
	C380.452057,129.043869 380.206390,128.816605 379.918579,128.330963 
	C380.156036,128.287521 380.435669,128.502457 380.706512,128.994263 
z" />
  <path fill="#3A99C5" d="
M409.155884,138.864807 
	C409.073517,138.643585 409.246979,138.342636 409.677765,137.964798 
	C409.760620,138.186981 409.586151,138.486023 409.155884,138.864807 
z" />
  <path fill="#3A99C5" d="
M378.706787,126.004349 
	C378.441071,126.119957 378.154755,125.949570 377.786041,125.536087 
	C378.031189,125.434776 378.358673,125.576569 378.706787,126.004349 
z" />
  <path fill="#3A99C5" d="
M410.148254,137.849960 
	C410.042725,137.624710 410.198914,137.312714 410.603485,136.899963 
	C410.704590,137.120560 410.557281,137.441895 410.148254,137.849960 
z" />
  <path fill="#3A99C5" d="
M391.123352,140.279480 
	C391.325867,140.152863 391.672852,140.275421 392.176880,140.633392 
	C391.978546,140.755417 391.623230,140.642029 391.123352,140.279480 
z" />
  <path fill="#3A99C5" d="
M408.097107,139.827728 
	C408.028870,139.597061 408.228333,139.315842 408.686584,138.967041 
	C408.751801,139.192017 408.558319,139.484589 408.097107,139.827728 
z" />
  <path fill="#AFD5E3" d="
M349.009460,71.044479 
	C349.234833,84.132423 349.234833,96.843872 349.234833,109.823044 
	C347.825836,109.823044 346.242798,109.823044 344.334595,109.823044 
	C344.334595,96.773102 344.334595,83.748177 344.334595,70.015572 
	C345.849548,70.237701 347.316833,70.452843 349.009460,71.044479 
z" />
  <path fill="#AFD5E3" d="
M336.038696,84.030937 
	C336.037903,80.875359 336.127075,78.209206 336.011475,75.551949 
	C335.854462,71.943031 337.639801,70.493614 341.345947,70.482666 
	C341.345947,83.547394 341.345947,96.445427 341.345947,109.602707 
	C339.525116,109.602707 337.975403,109.602707 336.037445,109.602707 
	C336.037445,101.092278 336.037445,92.808304 336.038696,84.030937 
z" />
  <path fill="#AFD5E3" d="
M349.849854,129.001526 
	C349.850006,135.587875 349.850006,141.675552 349.850006,147.946747 
	C347.403137,147.946747 345.792725,147.946747 343.974670,147.946747 
	C343.974670,136.367645 343.974670,124.981514 343.974670,113.052025 
	C345.904816,112.963455 347.602905,112.885536 349.849670,112.782440 
	C349.849670,118.287781 349.849670,123.395309 349.849854,129.001526 
z" />
  <path fill="#AFD5E3" d="
M340.025513,147.221802 
	C338.428467,146.162018 336.877380,145.285019 336.249542,143.967941 
	C335.662964,142.737473 336.025146,141.039917 336.023438,139.547897 
	C336.013123,130.621979 336.018341,121.696075 336.018341,112.497604 
	C337.796722,112.497604 339.356232,112.497604 341.569519,112.497604 
	C341.569519,122.224358 341.629608,131.783417 341.519867,141.340546 
	C341.497345,143.301605 340.839478,145.255371 340.025513,147.221802 
z" />
  <path fill="#D75641" d="
M396.692627,139.586975 
	C394.068390,137.996414 391.826874,136.517090 389.585388,135.037781 
	C389.895264,134.545319 390.205170,134.052856 390.515045,133.560394 
	C395.953400,132.408096 401.047424,132.615173 406.014526,138.813873 
	C402.436188,139.167877 399.755798,139.433029 396.692627,139.586975 
z" />
  <path fill="#A2DAF0" d="
M326.926300,80.006668 
	C326.934265,87.900620 326.899536,95.794945 326.969238,103.688362 
	C327.001312,107.318787 324.914551,108.657372 321.729279,108.733673 
	C319.101532,108.796616 316.467102,108.581688 313.434448,107.909607 
	C313.016571,106.171738 312.559875,104.765427 313.051758,103.895355 
	C317.583099,95.879601 322.278595,87.956642 326.926300,80.006668 
z" />
  <path fill="#A4DDF1" d="
M308.816406,85.014725 
	C308.816406,92.586349 308.816406,100.157982 308.816406,108.005737 
	C307.073395,108.005737 305.476898,108.005737 303.173401,107.683044 
	C300.654144,107.472977 298.841949,107.585602 297.029724,107.698227 
	C296.584656,107.737381 296.139587,107.776543 295.315857,107.424026 
	C294.955048,105.361473 294.972900,103.690605 295.125854,101.700699 
	C298.938446,94.837860 302.615936,88.294060 306.135590,82.031136 
	C307.081696,83.084099 307.949036,84.049416 308.816406,85.014725 
z" />
  <path fill="#CAEAF3" d="
M308.883240,84.644608 
	C307.949036,84.049416 307.081696,83.084099 306.135590,82.031136 
	C302.615936,88.294060 298.938446,94.837860 294.840088,101.694031 
	C294.038300,101.993698 293.657349,101.981003 293.276398,101.968307 
	C293.258484,93.735176 293.215729,85.501877 293.268097,77.269196 
	C293.272430,76.585495 293.919281,75.905876 294.646606,75.077332 
	C295.025604,74.930298 294.825073,75.071373 294.899261,75.631004 
	C294.973450,80.523895 294.973450,84.857162 294.973450,89.190422 
	C295.419678,89.280876 295.865906,89.371323 296.312103,89.461777 
	C298.884247,84.400040 301.456390,79.338310 304.028503,74.276566 
	C305.503387,74.105751 306.978271,73.934944 308.950073,73.706589 
	C308.950073,77.378983 308.950073,80.826736 308.883240,84.644608 
z" />
  <path fill="#CAEAF3" d="
M327.008240,79.594978 
	C322.278595,87.956642 317.583099,95.879601 313.051758,103.895355 
	C312.559875,104.765427 313.016571,106.171738 313.056885,107.771194 
	C312.647675,106.991302 311.853424,105.773331 311.840485,104.547119 
	C311.753967,96.343262 311.833893,88.137642 312.232971,79.767212 
	C312.821625,83.111580 313.037140,86.621338 313.252655,90.131088 
	C313.578247,90.254272 313.903809,90.377449 314.229401,90.500626 
	C317.487305,84.422020 320.745209,78.343407 324.003113,72.264801 
	C328.506409,73.020706 326.699188,76.592430 327.008240,79.594978 
z" />
  <path fill="#A2DAF0" d="
M323.573181,72.177032 
	C320.745209,78.343407 317.487305,84.422020 314.229401,90.500626 
	C313.903809,90.377449 313.578247,90.254272 313.252655,90.131088 
	C313.037140,86.621338 312.821625,83.111580 312.324341,79.307014 
	C311.953705,77.218391 311.864838,75.424576 311.751434,73.136070 
	C315.681641,72.774918 319.412445,72.432091 323.573181,72.177032 
z" />
  <path fill="#AFD5E3" d="
M303.618958,74.214233 
	C301.456390,79.338310 298.884247,84.400040 296.312103,89.461777 
	C295.865906,89.371323 295.419678,89.280876 294.973450,89.190422 
	C294.973450,84.857162 294.973450,80.523895 294.942932,75.745544 
	C297.678070,74.917603 300.443726,74.534752 303.618958,74.214233 
z" />
  <path fill="#AFD5E3" d="
M293.188629,102.368210 
	C293.657349,101.981003 294.038300,101.993698 294.705017,102.013062 
	C294.972900,103.690605 294.955048,105.361473 294.988281,107.342773 
	C294.631409,107.678131 294.223389,107.703049 293.506348,107.696800 
	C293.165131,106.033127 293.132996,104.400620 293.188629,102.368210 
z" />
  <path fill="#AFD5E3" d="
M297.447937,107.786118 
	C298.841949,107.585602 300.654144,107.472977 302.724060,107.602325 
	C301.276550,107.854202 299.571350,107.864105 297.447937,107.786118 
z" />
  <path fill="#CAEAF3" d="
M287.598846,75.981094 
	C291.106628,75.513649 290.827820,77.613297 290.819580,79.641846 
	C290.784027,88.374023 290.799622,97.106415 290.821960,106.290192 
	C288.467194,106.900246 286.087067,107.058823 283.620605,106.818588 
	C285.253387,106.075226 286.972565,105.730675 288.766235,105.371208 
	C288.766235,99.041954 288.766235,93.036995 288.766235,86.034599 
	C284.798187,92.609200 281.339539,98.339760 277.880890,104.070328 
	C277.797363,96.128021 277.566559,88.181480 277.793640,80.248062 
	C277.826599,79.096008 279.876617,77.572937 281.305664,76.997871 
	C283.101471,76.275238 285.219147,76.352463 287.598846,75.981094 
M279.881042,90.191940 
	C281.980316,86.786652 284.079590,83.381363 286.349976,79.698502 
	C280.635040,78.805588 279.215576,79.759613 279.031403,84.101845 
	C278.948212,86.063210 279.144714,88.036430 279.881042,90.191940 
z" />
  <path fill="#AFD5E3" d="
M277.892090,104.450371 
	C281.339539,98.339760 284.798187,92.609200 288.766235,86.034599 
	C288.766235,93.036995 288.766235,99.041954 288.766235,105.371208 
	C286.972565,105.730675 285.253387,106.075226 283.265686,106.711884 
	C281.299194,106.279472 279.601227,105.554939 277.892090,104.450371 
z" />
  <path fill="#3F5667" d="
M384.363617,60.075935 
	C382.628906,58.966347 381.345917,57.856293 380.062897,56.746239 
	C381.392151,55.543144 382.721558,53.304188 384.050690,53.304340 
	C392.970123,53.305359 401.897614,53.661304 410.798645,54.257858 
	C411.917175,54.332821 412.896240,56.488892 413.939911,57.680733 
	C412.655731,58.755165 411.373108,60.752277 410.087128,60.754452 
	C401.663605,60.768688 393.239319,60.351646 384.363617,60.075935 
z" />
  <path fill="#CAEAF3" d="
M323.606812,148.140030 
	C323.860199,151.680725 323.860199,154.894363 323.860199,158.107986 
	C319.890137,154.152908 320.174988,149.812805 323.606812,148.140030 
z" />
  <path fill="#E0BF3E" d="
M367.608765,133.125763 
	C367.578888,132.229828 367.549011,131.333923 367.947388,130.082779 
	C368.451050,129.376862 368.526428,129.026169 368.601807,128.675491 
	C368.601837,128.675491 368.800171,128.680695 369.003967,128.654663 
	C369.334167,128.292480 369.460541,127.956360 369.586945,127.620232 
	C369.586945,127.620232 369.672150,127.610825 370.104706,127.720863 
	C373.388977,127.998848 376.085938,128.764420 375.864777,132.209534 
	C375.622620,135.982010 372.433411,136.013657 369.586975,136.155441 
	C369.326141,136.157425 369.118866,136.053040 368.922241,135.294754 
	C368.455780,134.206726 368.032257,133.666245 367.608765,133.125763 
z" />
  <path fill="#E3AA4C" d="
M369.875549,136.450409 
	C372.433411,136.013657 375.622620,135.982010 375.864777,132.209534 
	C376.085938,128.764420 373.388977,127.998848 370.136963,127.692627 
	C371.938538,127.764137 374.664825,127.275330 376.173981,128.408066 
	C377.349396,129.290344 377.748413,132.434494 377.184937,134.141937 
	C376.120758,137.366699 373.227753,137.781876 369.875549,136.450409 
z" />
  <path fill="#E3AA4C" d="
M367.643311,133.473694 
	C368.032257,133.666245 368.455780,134.206726 368.858276,135.126862 
	C368.450806,134.944885 368.064362,134.383255 367.643311,133.473694 
z" />
  <path fill="#E3AA4C" d="
M369.357117,127.709015 
	C369.460541,127.956360 369.334167,128.292480 368.910950,128.620132 
	C368.664490,128.264252 368.835510,127.992973 369.357117,127.709015 
z" />
  <path fill="#E3AA4C" d="
M368.371094,128.821091 
	C368.526428,129.026169 368.451050,129.376862 368.128296,129.863998 
	C367.967438,129.655869 368.053894,129.311279 368.371094,128.821091 
z" />
  <path fill="#A4DDF1" d="
M279.547668,90.098106 
	C279.144714,88.036430 278.948212,86.063210 279.031403,84.101845 
	C279.215576,79.759613 280.635040,78.805588 286.349976,79.698502 
	C284.079590,83.381363 281.980316,86.786652 279.547668,90.098106 
z" />
</svg>