<svg xmlns="http://www.w3.org/2000/svg" viewBox="252.37796960000003 192.5490966 203.0111208 203.0111208">
  <path fill="#14100D" d="
M328.790161,370.299377 
	C311.236847,372.801697 295.420959,367.199524 279.490082,362.565796 
	C272.929565,360.657593 269.295563,354.527039 270.256409,347.301819 
	C273.590057,322.234528 277.070282,297.186707 280.495270,272.131531 
	C281.757050,262.901459 282.913116,253.655304 284.309998,244.445709 
	C286.005737,233.265915 291.083740,229.095398 302.586945,229.093918 
	C304.080383,229.093719 305.573792,229.093887 307.407562,229.093887 
	C309.545441,222.454117 311.656738,215.307617 320.746857,215.887680 
	C328.461090,216.379959 331.045868,222.166962 332.624939,228.899750 
	C334.314301,228.993149 335.954041,228.974731 337.561279,229.194321 
	C341.479279,229.729630 343.874817,228.876633 344.987030,224.348907 
	C346.209534,219.372086 349.778656,216.006668 355.384155,215.845200 
	C360.990295,215.683701 364.251892,218.986313 366.427551,223.686005 
	C367.187225,225.326935 367.747314,227.060242 368.484741,228.975159 
	C371.732086,228.975159 375.015839,228.975159 378.447662,228.975159 
	C379.028778,227.104889 379.472839,225.183884 380.213470,223.384979 
	C382.379669,218.123764 386.162231,215.589935 391.319061,215.768677 
	C396.121582,215.935150 400.509277,219.139557 401.793365,224.271164 
	C402.638031,227.646698 403.901367,229.113556 407.607147,229.527512 
	C417.528748,230.635864 422.459961,236.144180 423.889282,246.089859 
	C428.406769,277.524048 433.057709,308.938995 437.609924,340.368256 
	C438.471497,346.316742 438.426361,352.062378 432.754883,356.067108 
	C432.139160,356.501923 431.686798,357.345856 431.436646,358.093109 
	C428.719360,366.208893 422.560913,368.483032 414.674713,368.607544 
	C386.204163,369.057068 357.736877,369.711151 328.790161,370.299377 
M318.005890,247.994614 
	C318.005890,247.994614 318.069244,247.975250 317.912659,247.457794 
	C317.630676,247.253784 317.348694,247.049789 317.062531,246.958206 
	C317.062531,246.958206 317.173492,246.939789 317.063110,246.198425 
	C316.818115,244.500031 316.573120,242.801620 316.185303,241.078781 
	C316.185303,241.078781 316.219727,241.219559 316.786194,240.772476 
	C316.992554,240.084015 317.198883,239.395554 317.705231,238.681091 
	C317.705231,238.681091 317.844604,238.414215 318.478027,237.958984 
	C318.354706,236.585175 318.231354,235.211349 318.108032,233.837540 
	C312.374115,234.526917 306.640198,235.216293 300.424347,236.043243 
	C300.227966,236.305161 300.031555,236.567078 299.365204,237.006607 
	C299.188049,237.281921 299.010895,237.557236 298.383606,238.044571 
	C298.061279,238.417480 297.738953,238.790375 296.626007,239.012756 
	C296.007477,238.546494 295.388947,238.080231 294.832489,237.078476 
	C294.892578,236.726212 294.952637,236.373947 295.207245,235.841721 
	C295.162354,235.917236 295.117462,235.992752 294.408478,235.825043 
	C292.956635,237.227936 291.504822,238.630844 289.257385,240.180710 
	C287.006073,245.259064 287.290375,250.200592 290.280548,255.628418 
	C290.279327,256.064819 290.278137,256.501221 289.658691,257.272858 
	C288.610718,258.556366 287.163818,259.686768 286.599976,261.156036 
	C285.514771,263.983887 282.396759,266.665009 285.354065,270.885498 
	C285.182251,271.916595 285.010437,272.947723 284.090302,274.194733 
	C283.833313,278.177277 283.576355,282.159790 283.386688,286.766479 
	C283.277161,287.166962 283.167633,287.567413 282.458160,288.514923 
	C282.353363,289.870972 282.248566,291.227020 282.409607,293.026886 
	C282.314240,293.351105 282.218872,293.675354 281.361237,294.131805 
	C281.342590,296.133728 281.323944,298.135681 281.377777,300.765259 
	C281.269806,301.169312 281.161865,301.573395 280.446838,302.541168 
	C280.340088,304.548248 280.233337,306.555298 280.335052,309.160706 
	C280.216705,309.777985 280.098389,310.395294 279.409332,311.558624 
	C279.315857,313.178497 279.222382,314.798340 279.239960,317.073700 
	C279.116486,317.723328 278.993011,318.372955 278.356567,319.551300 
	C278.288483,320.532318 278.220398,321.513336 278.251770,323.312286 
	C277.335510,330.721649 276.431976,338.132599 275.499603,345.539948 
	C274.472900,353.696564 275.581116,355.731598 283.092712,359.849701 
	C287.381561,362.500488 291.757935,364.751678 297.690308,362.874359 
	C298.010742,362.280884 298.331207,361.687408 299.581207,361.032562 
	C300.510742,360.972382 301.440247,360.912201 302.889465,361.267090 
	C306.250336,365.709229 311.053772,365.765350 315.970276,365.666290 
	C349.374786,364.993256 382.780609,364.380951 416.183746,363.647522 
	C418.203491,363.603210 420.204132,362.688629 422.034698,362.005524 
	C422.034698,362.005524 422.181488,362.206177 422.877869,361.990601 
	C424.052826,360.539856 425.227783,359.089111 426.856781,357.077728 
	C416.801605,357.077728 407.683899,357.077728 397.544952,357.035492 
	C391.701416,357.317688 385.857910,357.599884 379.271088,358.042450 
	C378.515686,358.003021 377.760284,357.963562 377.001007,357.200562 
	C377.001343,356.476959 377.001678,355.753387 377.875336,354.833710 
	C384.255859,354.627502 390.636383,354.421295 397.486298,354.651062 
	C398.654694,354.474640 399.823120,354.298187 401.913727,353.947021 
	C409.726166,353.722839 417.545868,353.637512 425.348633,353.228516 
	C431.109619,352.926575 433.720154,349.799316 433.401215,344.126831 
	C433.308136,342.471191 433.055420,340.817139 432.769989,339.180817 
	C430.828918,328.053711 428.776917,316.945282 426.921509,305.804047 
	C424.882996,293.563507 423.017029,281.294250 421.014740,268.651367 
	C416.939117,268.651367 412.970459,268.651367 409.005066,267.965149 
	C409.002808,267.278656 409.000549,266.592194 409.636780,265.725281 
	C410.072418,265.772736 410.508057,265.820190 411.409912,266.456757 
	C413.269318,266.317535 415.128693,266.178345 417.651733,266.040710 
	C418.472565,265.341522 419.293396,264.642303 420.061310,263.174683 
	C420.167725,262.423035 420.274109,261.671417 420.803009,260.303375 
	C420.567108,257.877838 420.331207,255.452332 419.865784,252.243866 
	C419.583527,250.288574 419.287415,248.335144 419.021454,246.377640 
	C417.828918,237.601379 412.132050,233.218430 403.023468,234.295227 
	C402.650909,236.800247 402.268280,239.373062 401.382629,242.401016 
	C398.598450,248.154388 394.776978,250.733566 391.019714,249.058212 
	C386.933929,247.236389 386.490936,243.877853 388.377716,239.440643 
	C388.984589,237.821609 389.591431,236.202591 390.399414,234.047043 
	C383.073151,234.047043 376.488586,233.949265 369.915009,234.173538 
	C369.113312,234.200912 368.370575,235.958344 367.269836,237.549973 
	C366.807892,239.294388 366.493378,241.094788 365.856110,242.772614 
	C364.003021,247.651779 360.374451,250.216995 356.649536,249.159332 
	C351.631226,247.734421 351.560974,243.815216 352.914459,239.144806 
	C353.522400,237.612503 354.130341,236.080185 354.857239,234.248016 
	C346.774475,234.248016 339.565826,234.248016 332.283264,234.248016 
	C331.963165,236.728394 331.689026,238.852371 331.095978,241.549286 
	C328.213165,248.898941 326.263611,250.113632 318.983673,248.443237 
	C318.662811,248.272202 318.341949,248.101181 318.005890,247.994614 
M357.924530,232.857178 
	C357.163696,236.643570 356.402863,240.429962 355.560944,244.619873 
	C358.211823,246.796982 360.256012,245.238022 361.983185,242.582642 
	C365.260834,237.543610 364.413483,226.770935 360.099731,222.495453 
	C358.885376,221.291840 356.701141,221.066772 354.303711,220.370316 
	C350.475403,222.055130 348.875610,225.223984 348.223633,229.029541 
	C351.360474,231.069717 356.243622,226.363953 357.924530,232.857178 
M313.499786,225.600159 
	C313.247681,226.787140 312.995605,227.974121 312.722229,229.261230 
	C321.980286,229.352921 324.350800,232.170364 321.771362,239.441483 
	C321.444519,240.362869 320.536072,241.124817 320.373291,242.044876 
	C320.196838,243.042267 320.219391,244.524887 320.818512,245.080322 
	C321.394501,245.614304 323.077667,245.634705 323.811584,245.162140 
	C324.984100,244.407089 325.773712,243.057419 327.146545,241.227600 
	C328.934845,235.500778 329.257538,229.716354 325.980255,224.524979 
	C324.745697,222.569412 321.916107,220.332535 319.967102,220.465988 
	C317.872406,220.609375 315.957977,223.386017 313.499786,225.600159 
M397.918304,240.994064 
	C397.991699,236.277679 398.683990,231.461746 397.946259,226.875854 
	C397.335907,223.081985 394.977875,220.007782 389.871063,220.924759 
	C384.884552,221.820129 384.699677,225.457733 383.666809,229.391602 
	C385.181854,229.391602 386.140991,229.436539 387.094757,229.384125 
	C392.278534,229.099228 393.349274,230.003143 392.940277,235.108902 
	C392.773407,237.191788 391.723602,239.189621 391.322784,241.273712 
	C391.101807,242.422592 391.393494,243.670059 391.454102,244.873093 
	C392.824677,244.748611 394.338837,244.938309 395.519592,244.398575 
	C396.436371,243.979523 396.936981,242.650116 397.918304,240.994064 
z" />
  <path fill="#F4942B" d="
M317.844604,238.414215 
	C317.844604,238.414215 317.705231,238.681091 317.239197,238.911789 
	C316.588715,239.834839 316.404205,240.527206 316.219727,241.219559 
	C316.219727,241.219559 316.185303,241.078781 315.910339,241.242233 
	C316.148071,243.250381 316.660797,245.095093 317.173492,246.939789 
	C317.173492,246.939789 317.062531,246.958206 317.140320,247.161041 
	C317.501801,247.567673 317.785522,247.771469 318.069244,247.975250 
	C318.069244,247.975250 318.005890,247.994614 318.135559,248.216797 
	C318.595184,248.601608 318.925171,248.764236 319.255157,248.926849 
	C326.263611,250.113632 328.213165,248.898941 331.630524,241.110336 
	C334.452942,239.745361 336.744141,238.048126 339.027924,238.058105 
	C343.422577,238.077271 347.812988,239.062805 352.205170,239.647552 
	C351.560974,243.815216 351.631226,247.734421 356.649536,249.159332 
	C360.374451,250.216995 364.003021,247.651779 365.856110,242.772614 
	C366.493378,241.094788 366.807892,239.294388 367.930115,237.253906 
	C372.384369,236.961060 376.230042,236.585541 379.955170,237.093597 
	C382.676971,237.464828 385.240204,238.998825 387.874115,240.014496 
	C386.490936,243.877853 386.933929,247.236389 391.019714,249.058212 
	C394.776978,250.733566 398.598450,248.154388 401.928375,242.011414 
	C403.290436,240.463577 404.106750,239.305359 404.806580,238.312424 
	C410.241669,239.814758 415.230408,241.510605 415.905151,247.729080 
	C416.489563,253.115280 416.607574,258.552094 416.469971,263.972168 
	C396.897156,264.310638 377.786865,264.700745 358.674774,264.953339 
	C348.351837,265.089813 338.024902,264.924927 327.702148,265.068970 
	C326.118988,265.091064 324.548889,266.048981 322.550049,266.670471 
	C320.396820,266.723633 318.666321,266.680420 316.592224,266.422180 
	C312.606873,266.137878 308.948578,265.821075 305.327698,266.063660 
	C301.079742,266.348267 299.759888,264.540588 299.955200,260.520874 
	C300.188354,255.722092 299.985931,250.902115 300.232330,245.858994 
	C303.051514,237.746964 309.367401,237.491653 316.493134,238.075836 
	C317.244232,238.262650 317.544403,238.338425 317.844604,238.414215 
z" />
  <path fill="#221208" d="
M316.935791,266.637177 
	C318.666321,266.680420 320.396820,266.723633 322.977417,266.756378 
	C325.558990,266.830109 327.290466,266.914307 329.015015,267.343018 
	C329.005341,268.376648 329.002594,269.065735 328.538330,269.841187 
	C318.658722,269.927521 309.240662,269.927521 298.666962,269.927521 
	C301.351532,287.841705 303.641541,304.523987 306.471436,321.114166 
	C307.272949,325.812866 310.838806,328.794922 316.326111,329.279297 
	C317.152466,329.524628 317.658752,329.558838 318.519165,329.720367 
	C323.164490,330.571442 327.455719,331.295197 331.857178,332.370758 
	C332.999390,335.261475 333.864685,337.885040 335.100952,340.320190 
	C337.128448,344.313873 339.396881,348.185181 341.713562,352.378113 
	C342.231903,352.809845 342.600403,352.971527 342.963593,353.089355 
	C342.958313,353.045471 342.874786,353.074371 343.034546,353.344482 
	C343.790741,353.763641 344.387207,353.912689 344.977356,354.032928 
	C344.971100,354.004150 344.925995,354.042480 345.245300,354.325745 
	C347.512207,354.870056 349.460541,355.359344 351.407196,355.352661 
	C359.939056,355.323395 368.470459,355.150543 377.002014,355.029785 
	C377.001678,355.753387 377.001343,356.476959 376.559692,357.658508 
	C361.693420,358.287018 347.137329,361.201935 332.875641,355.942261 
	C332.784821,355.829865 332.499298,355.874573 332.281555,355.602997 
	C331.402954,355.137421 330.742126,354.943451 330.083038,354.810242 
	C330.084808,354.871033 330.195465,354.820648 330.020813,354.561066 
	C329.235657,354.175293 328.625153,354.049103 328.009583,353.956696 
	C328.004547,353.990479 328.066559,353.961823 327.939758,353.668396 
	C326.889343,352.891052 325.965790,352.407196 325.024292,351.958679 
	C325.006348,351.994080 325.073029,351.951050 324.940460,351.662323 
	C323.889252,350.885193 322.970642,350.396820 322.030853,349.947815 
	C322.009705,349.987213 322.085968,349.940552 321.947632,349.639587 
	C320.560913,348.524048 319.312531,347.709442 318.043335,346.930634 
	C318.022461,346.966431 318.104767,346.956879 318.017395,346.702209 
	C317.629578,346.272064 317.329132,346.096649 317.019348,345.957275 
	C317.010010,345.993317 317.071045,345.950684 316.935120,345.649231 
	C314.898438,343.521088 312.997742,341.694397 311.076721,339.907837 
	C311.056427,339.948029 311.146057,339.939697 311.077759,339.671143 
	C310.730042,339.182037 310.450592,338.961517 310.158936,338.811096 
	C310.146759,338.881226 310.285004,338.847382 310.216309,338.560730 
	C309.765350,337.846954 309.383087,337.419800 308.999817,336.996338 
	C308.998779,337.000000 309.006104,337.001556 308.964294,336.733276 
	C308.660583,336.236267 308.398682,336.007538 308.123901,335.845184 
	C308.111023,335.911530 308.244934,335.893280 308.188232,335.594604 
	C307.774384,334.833313 307.417267,334.370636 307.038147,333.941528 
	C307.016144,333.975067 307.095856,333.965912 307.038055,333.696045 
	C306.674469,333.236389 306.368713,333.046600 306.057281,332.908386 
	C306.051605,332.959930 306.154938,332.951141 306.105408,332.629089 
	C305.725189,331.806366 305.394470,331.305664 305.051453,330.602020 
	C305.039124,330.399048 304.899170,330.017212 304.930908,329.742615 
	C304.684723,329.244843 304.406769,329.021667 304.118591,328.856842 
	C304.108337,328.915192 304.224762,328.893158 304.189789,328.497192 
	C301.130859,309.373627 298.106873,290.646088 295.082916,271.918518 
	C293.598969,273.334900 292.705231,275.123474 292.868652,276.809540 
	C294.199615,290.540955 295.728241,304.253235 297.141235,318.308136 
	C297.165802,319.089996 297.245850,319.535065 297.272461,320.393188 
	C297.893097,327.190186 298.449158,333.589355 299.272858,339.953949 
	C300.176514,346.936615 301.326935,353.887360 302.369781,360.852020 
	C301.440247,360.912201 300.510742,360.972382 298.882202,360.764404 
	C297.498077,356.577393 296.553406,352.683777 296.169922,348.735657 
	C293.692047,323.225159 291.353333,297.701141 288.910339,272.187164 
	C288.707825,270.072174 288.071167,267.998779 287.636200,265.906036 
	C287.276642,265.950653 286.917084,265.995239 286.557526,266.039856 
	C286.143280,267.393585 285.729034,268.747345 285.314789,270.101074 
	C282.396759,266.665009 285.514771,263.983887 286.599976,261.156036 
	C287.163818,259.686768 288.610718,258.556366 290.163391,257.458252 
	C290.948883,261.219788 291.229675,264.795898 291.510498,268.372040 
	C292.012939,268.592804 292.515411,268.813599 293.017853,269.034363 
	C293.715607,267.844574 294.961700,266.671417 294.998413,265.461578 
	C295.078094,262.836365 294.347992,260.196533 294.291687,257.555359 
	C294.149963,250.905197 290.961487,244.167206 294.770416,237.613983 
	C295.388947,238.080231 296.007477,238.546494 296.903473,239.532410 
	C297.578461,248.912781 297.975983,257.773468 298.373627,266.637177 
	C305.105255,266.637177 311.020538,266.637177 316.935791,266.637177 
M335.990784,352.876221 
	C336.254913,352.832886 336.519043,352.789551 336.783173,352.746185 
	C336.571014,352.451233 336.358856,352.156281 335.969696,351.174713 
	C333.691772,346.054443 331.413849,340.934143 329.018524,335.954498 
	C329.018524,335.954498 329.174591,335.859039 328.873260,335.164154 
	C322.742584,334.031464 316.611908,332.898773 309.779633,331.636444 
	C316.579346,341.764130 323.569275,350.238251 335.990784,352.876221 
z" />
  <path fill="#EFEACB" d="
M316.006012,329.068207 
	C310.838806,328.794922 307.272949,325.812866 306.471436,321.114166 
	C303.641541,304.523987 301.351532,287.841705 298.666962,269.927521 
	C309.240662,269.927521 318.658722,269.927521 329.002014,269.914581 
	C352.618286,269.520599 375.309265,269.139557 398.452972,268.836426 
	C402.271057,268.826660 405.636414,268.739014 409.001801,268.651367 
	C412.970459,268.651367 416.939117,268.651367 421.014740,268.651367 
	C423.017029,281.294250 424.882996,293.563507 426.921509,305.804047 
	C428.776917,316.945282 430.828918,328.053711 432.769989,339.180817 
	C433.055420,340.817139 433.308136,342.471191 433.401215,344.126831 
	C433.720154,349.799316 431.109619,352.926575 425.348633,353.228516 
	C417.545868,353.637512 409.726166,353.722839 401.058197,353.960449 
	C399.140747,354.054291 398.078827,354.134705 397.016907,354.215088 
	C390.636383,354.421295 384.255859,354.627502 377.438660,354.931763 
	C368.470459,355.150543 359.939056,355.323395 351.407196,355.352661 
	C349.460541,355.359344 347.512207,354.870056 345.717590,354.318848 
	C356.278290,353.366913 366.678436,352.468842 377.096680,352.134918 
	C383.033875,351.944611 389.000519,352.919769 394.953949,352.920166 
	C400.574402,352.920532 406.198792,352.385986 411.813843,351.980804 
	C414.942200,351.755005 418.094147,351.515350 421.165405,350.920258 
	C425.495178,350.081329 431.488068,343.261566 430.914703,339.878021 
	C430.320129,336.369324 429.375488,332.919952 428.444580,328.832794 
	C427.279968,330.118896 426.618896,330.848969 425.646576,331.922729 
	C425.072723,323.382660 425.271088,315.274689 423.822815,307.472382 
	C421.837708,296.778229 425.486053,284.567810 416.022308,275.754181 
	C414.750641,274.569916 413.017883,273.159485 411.461182,273.113159 
	C394.189117,272.599060 376.909882,272.323456 359.631989,272.016998 
	C357.977051,271.987671 356.319244,272.224274 354.660889,272.269623 
	C346.870361,272.482727 339.077820,272.869354 331.288513,272.818054 
	C322.333405,272.759094 313.381897,272.263855 304.426636,272.048340 
	C301.810028,271.985382 301.262268,273.186646 301.695587,275.904541 
	C302.500702,280.954559 302.270630,286.169708 303.077332,291.219330 
	C305.207397,304.552307 305.009888,318.744232 316.006012,329.068207 
z" />
  <path fill="#E5BE85" d="
M302.629639,361.059570 
	C301.326935,353.887360 300.176514,346.936615 299.272858,339.953949 
	C298.449158,333.589355 297.893097,327.190186 297.623566,320.506348 
	C299.352142,330.113556 301.092255,339.987915 301.876373,349.937561 
	C302.577606,358.835480 307.283203,363.992035 316.217163,363.997253 
	C322.543427,364.000946 328.876556,364.176392 335.193634,363.935242 
	C339.651733,363.765076 344.088074,363.025146 348.534149,362.539581 
	C348.538055,362.096863 348.541962,361.654144 348.545868,361.211426 
	C346.356689,360.805603 344.077118,360.658661 341.999634,359.933044 
	C338.913513,358.855194 335.970428,357.367798 332.966461,356.054688 
	C347.137329,361.201935 361.693420,358.287018 376.561646,358.020264 
	C377.760284,357.963562 378.515686,358.003021 380.104736,358.035400 
	C386.814301,357.711517 392.690216,357.394623 398.566162,357.077728 
	C407.683899,357.077728 416.801605,357.077728 426.856781,357.077728 
	C425.227783,359.089111 424.052826,360.539856 422.498840,361.709900 
	C423.500244,358.086182 421.515076,357.876801 419.002777,357.993195 
	C402.464050,358.759460 385.923767,359.493317 369.384583,360.250336 
	C369.275909,360.255280 369.175354,360.436646 368.409668,361.163239 
	C386.778015,361.510010 404.495850,361.844482 422.213684,362.178955 
	C420.204132,362.688629 418.203491,363.603210 416.183746,363.647522 
	C382.780609,364.380951 349.374786,364.993256 315.970276,365.666290 
	C311.053772,365.765350 306.250336,365.709229 302.629639,361.059570 
z" />
  <path fill="#E69440" d="
M285.334412,270.493286 
	C285.729034,268.747345 286.143280,267.393585 286.557526,266.039856 
	C286.917084,265.995239 287.276642,265.950653 287.636200,265.906036 
	C288.071167,267.998779 288.707825,270.072174 288.910339,272.187164 
	C291.353333,297.701141 293.692047,323.225159 296.169922,348.735657 
	C296.553406,352.683777 297.498077,356.577393 298.417450,360.795044 
	C298.331207,361.687408 298.010742,362.280884 297.085754,362.640900 
	C291.976746,361.310425 287.472351,360.213409 282.967926,359.116425 
	C275.581116,355.731598 274.472900,353.696564 275.499603,345.539948 
	C276.431976,338.132599 277.335510,330.721649 278.421021,322.604309 
	C278.683380,320.938416 278.776459,319.980499 278.869568,319.022583 
	C278.993011,318.372955 279.116486,317.723328 279.394409,316.401245 
	C279.692627,314.156708 279.836334,312.584656 279.980072,311.012573 
	C280.098389,310.395294 280.216705,309.777985 280.480560,308.510071 
	C280.768677,305.898804 280.911285,303.938110 281.053894,301.977448 
	C281.161865,301.573395 281.269806,301.169312 281.531311,300.114990 
	C281.831024,297.643036 281.977264,295.821320 282.123474,293.999603 
	C282.218872,293.675354 282.314240,293.351105 282.543152,292.494202 
	C282.803864,290.630310 282.931000,289.299103 283.058105,287.967896 
	C283.167633,287.567413 283.277161,287.166962 283.561676,286.116669 
	C284.103973,281.637512 284.471313,277.808167 284.838623,273.978821 
	C285.010437,272.947723 285.182251,271.916595 285.334412,270.493286 
M286.407806,281.494690 
	C284.915833,291.744324 283.401917,301.990814 281.937714,312.244415 
	C280.285980,323.811432 278.584015,335.372803 277.113403,346.963196 
	C276.700043,350.221039 276.537323,353.802673 281.267059,355.667236 
	C285.377563,357.095520 289.459808,358.627747 293.649323,359.765045 
	C294.004883,359.861572 295.815887,357.253052 295.703491,356.014343 
	C294.258942,340.094208 292.668945,324.185760 290.934998,308.294098 
	C290.189758,301.463989 289.026367,294.679504 288.033875,287.097137 
	C288.000702,286.055267 287.967560,285.013367 287.972137,283.269318 
	C287.955872,282.288635 287.939606,281.307922 287.923340,280.327240 
	C287.600616,280.544769 287.277863,280.762299 286.407806,281.494690 
z" />
  <path fill="#AFD5E3" d="
M397.770447,241.359711 
	C396.936981,242.650116 396.436371,243.979523 395.519592,244.398575 
	C394.338837,244.938309 392.824677,244.748611 391.454102,244.873093 
	C391.393494,243.670059 391.101807,242.422592 391.322784,241.273712 
	C391.723602,239.189621 392.773407,237.191788 392.940277,235.108902 
	C393.349274,230.003143 392.278534,229.099228 387.094757,229.384125 
	C386.140991,229.436539 385.181854,229.391602 383.666809,229.391602 
	C384.699677,225.457733 384.884552,221.820129 389.871063,220.924759 
	C394.977875,220.007782 397.335907,223.081985 397.946259,226.875854 
	C398.683990,231.461746 397.991699,236.277679 397.770447,241.359711 
z" />
  <path fill="#E0BF3E" d="
M416.931763,263.966492 
	C416.607574,258.552094 416.489563,253.115280 415.905151,247.729080 
	C415.230408,241.510605 410.241669,239.814758 404.806580,238.312424 
	C404.106750,239.305359 403.290436,240.463577 402.179871,241.783844 
	C402.268280,239.373062 402.650909,236.800247 403.023468,234.295227 
	C412.132050,233.218430 417.828918,237.601379 419.021454,246.377640 
	C419.287415,248.335144 419.583527,250.288574 419.925873,253.071655 
	C420.117493,256.239563 420.249023,258.579651 420.380554,260.919769 
	C420.274109,261.671417 420.167725,262.423035 419.691284,263.581055 
	C418.524750,263.980438 417.728271,263.973480 416.931763,263.966492 
z" />
  <path fill="#E3AA4C" d="
M416.469971,263.972168 
	C417.728271,263.973480 418.524750,263.980438 419.717743,263.965271 
	C419.293396,264.642303 418.472565,265.341522 417.069153,265.792511 
	C414.638977,265.652069 412.791321,265.759857 410.943695,265.867615 
	C410.508057,265.820190 410.072418,265.772736 408.855896,265.724976 
	C392.299957,265.833069 376.524048,265.874817 360.750214,266.079498 
	C353.466949,266.173981 346.187836,266.586731 338.466278,266.769409 
	C335.024475,266.788605 332.023224,266.893524 329.021973,266.998474 
	C327.290466,266.914307 325.558990,266.830109 323.400146,266.659973 
	C324.548889,266.048981 326.118988,265.091064 327.702148,265.068970 
	C338.024902,264.924927 348.351837,265.089813 358.674774,264.953339 
	C377.786865,264.700745 396.897156,264.310638 416.469971,263.972168 
z" />
  <path fill="#80CBE6" d="
M326.725220,241.959152 
	C325.773712,243.057419 324.984100,244.407089 323.811584,245.162140 
	C323.077667,245.634705 321.394501,245.614304 320.818512,245.080322 
	C320.219391,244.524887 320.196838,243.042267 320.373291,242.044876 
	C320.536072,241.124817 321.444519,240.362869 321.771362,239.441483 
	C324.350800,232.170364 321.980286,229.352921 312.722229,229.261230 
	C312.995605,227.974121 313.247681,226.787140 314.157562,225.327545 
	C317.771088,226.434143 321.915405,221.549149 323.930511,226.327484 
	C325.277313,229.521088 325.347534,233.257538 325.953369,236.757217 
	C326.252258,238.483994 326.470490,240.224731 326.725220,241.959152 
z" />
  <path fill="#E69440" d="
M294.801453,237.346222 
	C290.961487,244.167206 294.149963,250.905197 294.291687,257.555359 
	C294.347992,260.196533 295.078094,262.836365 294.998413,265.461578 
	C294.961700,266.671417 293.715607,267.844574 293.017853,269.034363 
	C292.515411,268.813599 292.012939,268.592804 291.510498,268.372040 
	C291.229675,264.795898 290.948883,261.219788 290.472504,257.290649 
	C290.278137,256.501221 290.279327,256.064819 290.223633,254.878113 
	C290.128784,249.429794 290.090881,244.731750 290.052979,240.033722 
	C291.504822,238.630844 292.956635,237.227936 294.725952,235.932831 
	C295.043457,236.040604 295.012695,236.021683 295.012695,236.021683 
	C294.952637,236.373947 294.892578,236.726212 294.801453,237.346222 
z" />
  <path fill="#AFD5E3" d="
M354.961761,220.392883 
	C356.701141,221.066772 358.885376,221.291840 360.099731,222.495453 
	C364.413483,226.770935 365.260834,237.543610 361.983185,242.582642 
	C360.256012,245.238022 358.211823,246.796982 355.560944,244.619873 
	C356.402863,240.429962 357.163696,236.643570 358.356079,232.504745 
	C359.405823,234.014786 360.024048,235.877274 360.694519,237.897263 
	C362.159058,230.810303 359.496033,225.287521 354.961761,220.392883 
z" />
  <path fill="#221208" d="
M338.906830,266.855164 
	C346.187836,266.586731 353.466949,266.173981 360.750214,266.079498 
	C376.524048,265.874817 392.299957,265.833069 408.536682,265.815186 
	C409.000549,266.592194 409.002808,267.278656 409.003418,268.308289 
	C405.636414,268.739014 402.271057,268.826660 398.337128,268.459808 
	C397.546173,267.769287 397.322998,267.326111 397.101440,267.326935 
	C384.361816,267.372833 371.622009,267.543182 358.882935,267.498901 
	C352.223572,267.475769 345.565491,267.081696 338.906830,266.855164 
z" />
  <path fill="#80CBE6" d="
M354.632751,220.381592 
	C359.496033,225.287521 362.159058,230.810303 360.694519,237.897263 
	C360.024048,235.877274 359.405823,234.014786 358.413940,232.089691 
	C356.243622,226.363953 351.360474,231.069717 348.223633,229.029541 
	C348.875610,225.223984 350.475403,222.055130 354.632751,220.381592 
z" />
  <path fill="#F6C271" d="
M352.559814,239.396179 
	C347.812988,239.062805 343.422577,238.077271 339.027924,238.058105 
	C336.744141,238.048126 334.452942,239.745361 331.789978,240.823883 
	C331.689026,238.852371 331.963165,236.728394 332.283264,234.248016 
	C339.565826,234.248016 346.774475,234.248016 354.857239,234.248016 
	C354.130341,236.080185 353.522400,237.612503 352.559814,239.396179 
z" />
  <path fill="#AFD5E3" d="
M326.935883,241.593384 
	C326.470490,240.224731 326.252258,238.483994 325.953369,236.757217 
	C325.347534,233.257538 325.277313,229.521088 323.930511,226.327484 
	C321.915405,221.549149 317.771088,226.434143 314.390137,225.034302 
	C315.957977,223.386017 317.872406,220.609375 319.967102,220.465988 
	C321.916107,220.332535 324.745697,222.569412 325.980255,224.524979 
	C329.257538,229.716354 328.934845,235.500778 326.935883,241.593384 
z" />
  <path fill="#F6C271" d="
M388.125916,239.727570 
	C385.240204,238.998825 382.676971,237.464828 379.955170,237.093597 
	C376.230042,236.585541 372.384369,236.961060 368.095459,236.935928 
	C368.370575,235.958344 369.113312,234.200912 369.915009,234.173538 
	C376.488586,233.949265 383.073151,234.047043 390.399414,234.047043 
	C389.591431,236.202591 388.984589,237.821609 388.125916,239.727570 
z" />
  <path fill="#E3AA4C" d="
M316.592224,266.422180 
	C311.020538,266.637177 305.105255,266.637177 298.373627,266.637177 
	C297.975983,257.773468 297.578461,248.912781 297.298767,239.607681 
	C297.738953,238.790375 298.061279,238.417480 298.664215,237.993637 
	C298.944824,237.942703 299.060791,238.047729 298.986328,238.432495 
	C298.260742,241.388397 296.241760,244.158890 299.972229,246.091324 
	C299.985931,250.902115 300.188354,255.722092 299.955200,260.520874 
	C299.759888,264.540588 301.079742,266.348267 305.327698,266.063660 
	C308.948578,265.821075 312.606873,266.137878 316.592224,266.422180 
z" />
  <path fill="#E3AA4C" d="
M318.161316,238.186600 
	C317.544403,238.338425 317.244232,238.262650 316.391724,237.682251 
	C310.912354,236.812988 305.985321,236.448318 301.022217,236.037476 
	C300.986206,235.991302 300.906281,235.905670 300.906281,235.905670 
	C306.640198,235.216293 312.374115,234.526917 318.108032,233.837540 
	C318.231354,235.211349 318.354706,236.585175 318.161316,238.186600 
z" />
  <path fill="#221208" d="
M283.030334,359.483063 
	C287.472351,360.213409 291.976746,361.310425 296.756775,362.655396 
	C291.757935,364.751678 287.381561,362.500488 283.030334,359.483063 
z" />
  <path fill="#221208" d="
M289.655182,240.107208 
	C290.090881,244.731750 290.128784,249.429794 290.112091,254.567978 
	C287.290375,250.200592 287.006073,245.259064 289.655182,240.107208 
z" />
  <path fill="#221208" d="
M284.464478,274.086792 
	C284.471313,277.808167 284.103973,281.637512 283.528015,285.804596 
	C283.576355,282.159790 283.833313,278.177277 284.464478,274.086792 
z" />
  <path fill="#221208" d="
M398.055542,357.056610 
	C392.690216,357.394623 386.814301,357.711517 380.476379,357.955231 
	C385.857910,357.599884 391.701416,357.317688 398.055542,357.056610 
z" />
  <path fill="#221208" d="
M411.176819,266.162170 
	C412.791321,265.759857 414.638977,265.652069 416.737366,265.791748 
	C415.128693,266.178345 413.269318,266.317535 411.176819,266.162170 
z" />
  <path fill="#221208" d="
M281.742371,294.065704 
	C281.977264,295.821320 281.831024,297.643036 281.495056,299.801178 
	C281.323944,298.135681 281.342590,296.133728 281.742371,294.065704 
z" />
  <path fill="#E3AA4C" d="
M317.118286,246.569107 
	C316.660797,245.095093 316.148071,243.250381 315.981750,241.254456 
	C316.573120,242.801620 316.818115,244.500031 317.118286,246.569107 
z" />
  <path fill="#221208" d="
M420.591797,260.611572 
	C420.249023,258.579651 420.117493,256.239563 420.040619,253.463135 
	C420.331207,255.452332 420.567108,257.877838 420.591797,260.611572 
z" />
  <path fill="#221208" d="
M280.750366,302.259308 
	C280.911285,303.938110 280.768677,305.898804 280.376343,308.210938 
	C280.233337,306.555298 280.340088,304.548248 280.750366,302.259308 
z" />
  <path fill="#221208" d="
M279.694702,311.285583 
	C279.836334,312.584656 279.692627,314.156708 279.338898,316.073486 
	C279.222382,314.798340 279.315857,313.178497 279.694702,311.285583 
z" />
  <path fill="#221208" d="
M397.251587,354.433075 
	C398.078827,354.134705 399.140747,354.054291 400.597107,354.047821 
	C399.823120,354.298187 398.654694,354.474640 397.251587,354.433075 
z" />
  <path fill="#221208" d="
M282.758148,288.241394 
	C282.931000,289.299103 282.803864,290.630310 282.410217,292.272278 
	C282.248566,291.227020 282.353363,289.870972 282.758148,288.241394 
z" />
  <path fill="#221208" d="
M278.613068,319.286926 
	C278.776459,319.980499 278.683380,320.938416 278.371307,322.195343 
	C278.220398,321.513336 278.288483,320.532318 278.613068,319.286926 
z" />
  <path fill="#E3AA4C" d="
M316.502960,240.996017 
	C316.404205,240.527206 316.588715,239.834839 317.089233,238.924789 
	C317.198883,239.395554 316.992554,240.084015 316.502960,240.996017 
z" />
  <path fill="#E3AA4C" d="
M298.889282,237.887634 
	C299.010895,237.557236 299.188049,237.281921 299.651886,236.971390 
	C299.938568,236.936172 300.042511,237.042801 299.922974,237.249969 
	C299.604614,237.715210 299.357056,237.912079 299.060791,238.047729 
	C299.060791,238.047729 298.944824,237.942703 298.889282,237.887634 
z" />
  <path fill="#E3AA4C" d="
M317.990967,247.716522 
	C317.785522,247.771469 317.501801,247.567673 317.142395,247.104843 
	C317.348694,247.049789 317.630676,247.253784 317.990967,247.716522 
z" />
  <path fill="#E3AA4C" d="
M319.119415,248.685043 
	C318.925171,248.764236 318.595184,248.601608 318.143127,248.184570 
	C318.341949,248.101181 318.662811,248.272202 319.119415,248.685043 
z" />
  <path fill="#E69440" d="
M295.058014,236.054443 
	C295.117462,235.992752 295.162354,235.917236 295.109985,235.931702 
	C295.012695,236.021683 295.043457,236.040604 295.058014,236.054443 
z" />
  <path fill="#E3AA4C" d="
M299.886841,236.882584 
	C300.031555,236.567078 300.227966,236.305161 300.665314,235.974457 
	C300.906281,235.905670 300.986206,235.991302 300.894775,236.237930 
	C300.596619,236.734497 300.343018,236.920578 300.042511,237.042801 
	C300.042511,237.042801 299.938568,236.936172 299.886841,236.882584 
z" />
  <path fill="#E0BF3E" d="
M299.922974,237.249969 
	C300.343018,236.920578 300.596619,236.734497 300.930817,236.284103 
	C305.985321,236.448318 310.912354,236.812988 315.940796,237.571213 
	C309.367401,237.491653 303.051514,237.746964 300.232300,245.858994 
	C296.241760,244.158890 298.260742,241.388397 298.986328,238.432495 
	C299.357056,237.912079 299.604614,237.715210 299.922974,237.249969 
z" />
  <path fill="#FDEBAF" d="
M316.326111,329.279297 
	C305.009888,318.744232 305.207397,304.552307 303.077332,291.219330 
	C302.270630,286.169708 302.500702,280.954559 301.695587,275.904541 
	C301.262268,273.186646 301.810028,271.985382 304.426636,272.048340 
	C313.381897,272.263855 322.333405,272.759094 331.288513,272.818054 
	C339.077820,272.869354 346.870361,272.482727 354.660889,272.269623 
	C356.319244,272.224274 357.977051,271.987671 359.631989,272.016998 
	C376.909882,272.323456 394.189117,272.599060 411.461182,273.113159 
	C413.017883,273.159485 414.750641,274.569916 416.022308,275.754181 
	C425.486053,284.567810 421.837708,296.778229 423.822815,307.472382 
	C425.271088,315.274689 425.072723,323.382660 425.646576,331.922729 
	C426.618896,330.848969 427.279968,330.118896 428.444580,328.832794 
	C429.375488,332.919952 430.320129,336.369324 430.914703,339.878021 
	C431.488068,343.261566 425.495178,350.081329 421.165405,350.920258 
	C418.094147,351.515350 414.942200,351.755005 411.813843,351.980804 
	C406.198792,352.385986 400.574402,352.920532 394.953949,352.920166 
	C389.000519,352.919769 383.033875,351.944611 377.096680,352.134918 
	C366.678436,352.468842 356.278290,353.366913 345.398254,354.035583 
	C344.925995,354.042480 344.971100,354.004150 344.807007,353.770691 
	C344.053558,353.382935 343.464172,353.228638 342.874786,353.074371 
	C342.874786,353.074371 342.958313,353.045471 342.811707,352.822296 
	C342.297943,352.435455 341.930817,352.271790 341.563690,352.108124 
	C339.396881,348.185181 337.128448,344.313873 335.100952,340.320190 
	C333.864685,337.885040 332.999390,335.261475 332.183105,332.168335 
	C333.829071,327.789978 332.370697,325.930664 328.419922,325.904236 
	C324.568176,325.878448 319.802155,323.424286 318.165039,329.593048 
	C317.658752,329.558838 317.152466,329.524628 316.326111,329.279297 
M396.843781,298.490356 
	C396.646332,298.232819 396.397034,298.043579 395.912323,297.179535 
	C392.191162,296.448730 388.481598,295.181976 384.746368,295.101135 
	C377.474884,294.943756 373.609314,298.860474 372.384674,305.626740 
	C370.523682,301.825562 360.938477,300.534637 358.368256,303.786316 
	C357.883698,304.399323 357.442780,305.319244 357.511047,306.047943 
	C357.757996,308.683167 357.768616,311.494354 358.774933,313.852264 
	C359.486359,315.519257 361.550751,317.486877 363.206970,317.685211 
	C366.410736,318.068817 369.752686,317.298248 373.707336,317.096466 
	C377.238281,320.716705 380.579437,324.671295 385.802460,324.706299 
	C381.509399,327.298706 381.216583,331.987061 385.001007,338.000946 
	C385.001007,338.000946 384.959137,338.029419 385.293945,338.746277 
	C387.479523,339.152557 389.664459,339.885803 391.850861,339.890198 
	C395.321472,339.897186 398.984283,339.905579 398.985352,334.684021 
	C398.986908,327.149292 397.459503,324.617889 392.482605,323.468079 
	C397.768982,322.739075 401.286987,320.056366 402.948853,314.920288 
	C404.139557,315.480225 405.277924,316.253235 406.530609,316.560852 
	C410.582672,317.556000 416.792480,315.677795 417.659760,313.340759 
	C418.602661,310.799835 416.354523,302.260193 414.398193,300.951660 
	C411.449005,298.979034 404.961639,300.049652 401.147644,303.010651 
	C400.794525,302.977051 400.441406,302.943451 400.002991,302.328583 
	C399.689453,301.856781 399.375946,301.384979 398.826904,300.491760 
	C398.632202,300.222076 398.380219,300.025970 397.832245,299.485077 
	C397.634583,299.219025 397.381470,299.025482 396.843781,298.490356 
M339.000000,317.000000 
	C339.000000,317.000000 338.931519,317.061951 339.369659,317.695892 
	C342.612274,318.021362 345.867615,318.654175 349.091217,318.520569 
	C350.374786,318.467377 352.236786,316.968231 352.724426,315.700134 
	C355.222229,309.204163 350.581268,302.907288 343.592651,302.953979 
	C342.595520,302.960632 341.388245,302.621246 340.645020,303.061371 
	C339.093048,303.980499 336.532043,305.402313 336.607086,306.460083 
	C336.860474,310.033356 338.084839,313.537720 339.000000,317.000000 
M328.998566,304.997559 
	C328.998566,304.997559 329.065063,304.948486 328.719086,304.234070 
	C324.479248,304.367188 319.992462,303.777985 316.155518,305.089661 
	C315.056519,305.465332 315.290070,311.443237 315.893738,314.668793 
	C316.666382,318.797211 327.080261,321.048981 330.101318,318.011108 
	C330.537567,317.572449 331.044678,316.833923 330.968384,316.315186 
	C330.408600,312.509735 329.708527,308.724915 328.998566,304.997559 
M338.241058,295.733154 
	C340.055908,295.800507 341.870880,295.927673 343.685577,295.924011 
	C349.142090,295.913055 350.537872,294.295074 349.711273,289.035736 
	C349.455750,287.409973 349.571747,285.587677 348.844666,284.210724 
	C348.023193,282.654999 346.638550,280.716034 345.150238,280.346130 
	C342.670715,279.729919 339.888947,280.030792 337.285065,280.353882 
	C336.163818,280.492981 334.741638,281.414276 334.196899,282.392639 
	C332.543762,285.361786 334.533203,292.721283 338.241058,295.733154 
M361.077789,335.901489 
	C363.104645,340.779480 372.923584,343.010345 376.514282,339.359406 
	C377.057922,338.806610 377.626953,337.861786 377.541779,337.178345 
	C377.133575,333.901825 376.684967,330.605194 375.846436,327.422241 
	C375.586517,326.435516 374.170624,325.325226 373.086609,325.050690 
	C363.569885,322.640015 360.649139,324.991974 361.022919,334.534912 
	C361.029419,334.700958 361.034180,334.867096 361.077789,335.901489 
M414.667053,288.645050 
	C414.296967,286.532043 414.225189,284.302673 413.461090,282.343323 
	C412.864502,280.813599 411.675293,278.922638 410.289490,278.390808 
	C402.317108,275.331421 397.618988,279.182343 398.832642,287.494904 
	C398.880463,287.822327 398.926544,288.156555 398.913971,288.485321 
	C398.765564,292.358337 401.084930,294.118988 404.480316,293.856323 
	C408.286407,293.561890 413.622559,296.119690 414.667053,288.645050 
M351.113007,341.008026 
	C355.075409,340.970947 356.313171,338.702148 355.865143,335.128235 
	C355.659943,333.491486 355.727325,331.641754 354.957153,330.297638 
	C353.869171,328.398743 352.149506,325.501953 350.646881,325.469269 
	C346.936646,325.388580 343.170624,326.599884 339.505249,327.583405 
	C339.113159,327.688629 338.956635,329.772705 339.165924,330.846161 
	C341.113220,340.834045 339.665741,341.270142 351.113007,341.008026 
M386.221436,278.874939 
	C384.230042,278.892151 382.118835,278.506470 380.284576,279.052002 
	C378.774139,279.501251 376.793213,280.819275 376.399109,282.158051 
	C374.414551,288.899414 378.591675,294.112335 385.480896,293.975128 
	C386.974701,293.945374 388.490082,294.086487 389.955292,293.872955 
	C390.844635,293.743347 391.969391,293.305603 392.450592,292.625702 
	C394.772522,289.344910 391.028442,279.911591 386.221436,278.874939 
M357.441528,294.404602 
	C360.531799,294.630676 363.619812,294.897369 366.713013,295.071411 
	C369.824341,295.246460 371.355499,293.789185 371.114838,290.600342 
	C370.940887,288.295532 371.201935,285.864471 370.527435,283.723267 
	C370.068848,282.267365 368.364807,280.186401 367.154327,280.142792 
	C355.626465,279.727112 353.304688,278.351624 355.904358,290.954651 
	C356.100708,291.906494 356.573120,292.801453 357.441528,294.404602 
z" />
  <path fill="#F6C271" d="
M332.875641,355.942261 
	C335.970428,357.367798 338.913513,358.855194 341.999634,359.933044 
	C344.077118,360.658661 346.356689,360.805603 348.545868,361.211426 
	C348.541962,361.654144 348.538055,362.096863 348.534149,362.539581 
	C344.088074,363.025146 339.651733,363.765076 335.193634,363.935242 
	C328.876556,364.176392 322.543427,364.000946 316.217163,363.997253 
	C307.283203,363.992035 302.577606,358.835480 301.876373,349.937561 
	C301.092255,339.987915 299.352142,330.113556 297.676941,320.093262 
	C297.245850,319.535065 297.165802,319.089996 297.385620,318.096344 
	C299.748901,315.068604 299.519135,317.033661 300.054657,318.580872 
	C301.265869,322.080200 302.813782,325.462982 304.224762,328.893158 
	C304.224762,328.893158 304.108337,328.915192 304.156982,329.108704 
	C304.436829,329.540558 304.667999,329.778900 304.899170,330.017212 
	C304.899170,330.017212 305.039124,330.399048 305.051331,330.931915 
	C305.427338,331.960236 305.791138,332.455688 306.154938,332.951141 
	C306.154938,332.951141 306.051605,332.959930 306.143799,333.162811 
	C306.522614,333.565765 306.809235,333.765839 307.095856,333.965912 
	C307.095856,333.965912 307.016144,333.975067 307.038513,334.265564 
	C307.455566,335.001770 307.850250,335.447510 308.244934,335.893280 
	C308.244934,335.893280 308.111023,335.911530 308.167664,336.110657 
	C308.484924,336.540375 308.745514,336.770966 309.006104,337.001556 
	C309.006104,337.001556 308.998779,337.000000 309.019470,337.313324 
	C309.455109,338.033569 309.870056,338.440491 310.285004,338.847382 
	C310.285004,338.847382 310.146759,338.881226 310.205505,339.089996 
	C310.558167,339.512421 310.852112,339.726044 311.146057,339.939697 
	C311.146057,339.939697 311.056427,339.948029 311.044312,340.288086 
	C311.544525,344.104858 313.474792,345.972870 317.071045,345.950684 
	C317.071045,345.950684 317.010010,345.993317 317.120117,346.201080 
	C317.521729,346.591522 317.813263,346.774200 318.104767,346.956879 
	C318.104767,346.956879 318.022461,346.966431 318.056152,347.299988 
	C319.421875,348.402557 320.753937,349.171570 322.085968,349.940552 
	C322.085968,349.940552 322.009705,349.987213 322.062622,350.306671 
	C323.101349,351.067749 324.087189,351.509399 325.073029,351.951050 
	C325.073029,351.951050 325.006348,351.994080 325.059143,352.315247 
	C326.096832,353.078217 327.081696,353.520020 328.066559,353.961823 
	C328.066559,353.961823 328.004547,353.990479 328.182251,354.230591 
	C328.971771,354.587311 329.583618,354.703979 330.195465,354.820648 
	C330.195465,354.820648 330.084808,354.871033 330.250336,355.138306 
	C331.110352,355.561920 331.804810,355.718262 332.499298,355.874573 
	C332.499298,355.874573 332.784821,355.829865 332.875641,355.942261 
z" />
  <path fill="#E5BE85" d="
M304.189789,328.497192 
	C302.813782,325.462982 301.265869,322.080200 300.054657,318.580872 
	C299.519135,317.033661 299.748901,315.068604 297.441071,317.759521 
	C295.728241,304.253235 294.199615,290.540955 292.868652,276.809540 
	C292.705231,275.123474 293.598969,273.334900 295.082916,271.918518 
	C298.106873,290.646088 301.130859,309.373627 304.189789,328.497192 
z" />
  <path fill="#14100D" d="
M338.466278,266.769409 
	C345.565491,267.081696 352.223572,267.475769 358.882935,267.498901 
	C371.622009,267.543182 384.361816,267.372833 397.101440,267.326935 
	C397.322998,267.326111 397.546173,267.769287 397.884430,268.381927 
	C375.309265,269.139557 352.618286,269.520599 329.463562,269.828247 
	C329.002594,269.065735 329.005341,268.376648 329.015015,267.343018 
	C332.023224,266.893524 335.024475,266.788605 338.466278,266.769409 
z" />
  <path fill="#E5BE85" d="
M329.135925,335.813873 
	C331.413849,340.934143 333.691772,346.054443 335.897156,351.684052 
	C335.824615,352.193390 335.531616,352.551453 335.531616,352.551453 
	C323.569275,350.238251 316.579346,341.764130 309.779633,331.636444 
	C316.611908,332.898773 322.742584,334.031464 328.592773,335.550690 
	C324.352051,335.558807 320.391815,335.180420 316.021088,334.762787 
	C317.870117,341.023254 325.623749,347.307007 330.961975,347.364105 
	C330.346954,343.473877 329.741455,339.643890 329.135925,335.813873 
z" />
  <path fill="#E3AA4C" d="
M318.519165,329.720367 
	C319.802155,323.424286 324.568176,325.878448 328.419922,325.904236 
	C332.370697,325.930664 333.829071,327.789978 332.072876,331.816528 
	C327.455719,331.295197 323.164490,330.571442 318.519165,329.720367 
z" />
  <path fill="#E5BE85" d="
M316.935120,345.649231 
	C313.474792,345.972870 311.544525,344.104858 311.064636,340.247894 
	C312.997742,341.694397 314.898438,343.521088 316.935120,345.649231 
z" />
  <path fill="#E5BE85" d="
M321.947632,349.639587 
	C320.753937,349.171570 319.421875,348.402557 318.077026,347.264221 
	C319.312531,347.709442 320.560913,348.524048 321.947632,349.639587 
z" />
  <path fill="#E5BE85" d="
M324.940460,351.662323 
	C324.087189,351.509399 323.101349,351.067749 322.083740,350.267273 
	C322.970642,350.396820 323.889252,350.885193 324.940460,351.662323 
z" />
  <path fill="#E5BE85" d="
M327.939758,353.668396 
	C327.081696,353.520020 326.096832,353.078217 325.077087,352.279877 
	C325.965790,352.407196 326.889343,352.891052 327.939758,353.668396 
z" />
  <path fill="#E5BE85" d="
M308.188232,335.594604 
	C307.850250,335.447510 307.455566,335.001770 307.060516,334.231995 
	C307.417267,334.370636 307.774384,334.833313 308.188232,335.594604 
z" />
  <path fill="#E5BE85" d="
M306.105408,332.629089 
	C305.791138,332.455688 305.427338,331.960236 305.063660,331.134888 
	C305.394470,331.305664 305.725189,331.806366 306.105408,332.629089 
z" />
  <path fill="#E5BE85" d="
M310.216309,338.560730 
	C309.870056,338.440491 309.455109,338.033569 309.020508,337.309631 
	C309.383087,337.419800 309.765350,337.846954 310.216309,338.560730 
z" />
  <path fill="#EFEACB" d="
M343.034546,353.344482 
	C343.464172,353.228638 344.053558,353.382935 344.813293,353.799438 
	C344.387207,353.912689 343.790741,353.763641 343.034546,353.344482 
z" />
  <path fill="#E5BE85" d="
M330.020813,354.561066 
	C329.583618,354.703979 328.971771,354.587311 328.187256,354.196777 
	C328.625153,354.049103 329.235657,354.175293 330.020813,354.561066 
z" />
  <path fill="#E5BE85" d="
M332.281555,355.603027 
	C331.804810,355.718262 331.110352,355.561920 330.248566,355.077545 
	C330.742126,354.943451 331.402954,355.137421 332.281555,355.603027 
z" />
  <path fill="#E5BE85" d="
M304.930908,329.742615 
	C304.667999,329.778900 304.436829,329.540558 304.167236,329.050354 
	C304.406769,329.021667 304.684723,329.244843 304.930908,329.742615 
z" />
  <path fill="#E5BE85" d="
M308.964294,336.733276 
	C308.745514,336.770966 308.484924,336.540375 308.180542,336.044312 
	C308.398682,336.007538 308.660583,336.236267 308.964294,336.733276 
z" />
  <path fill="#E5BE85" d="
M307.038055,333.696045 
	C306.809235,333.765839 306.522614,333.565765 306.149475,333.111267 
	C306.368713,333.046600 306.674469,333.236389 307.038055,333.696045 
z" />
  <path fill="#EFEACB" d="
M341.713562,352.378113 
	C341.930817,352.271790 342.297943,352.435455 342.816956,352.866180 
	C342.600403,352.971527 342.231903,352.809845 341.713562,352.378113 
z" />
  <path fill="#E5BE85" d="
M335.985657,352.027344 
	C336.358856,352.156281 336.571014,352.451233 336.783173,352.746185 
	C336.519043,352.789551 336.254913,352.832886 335.761200,352.713837 
	C335.531616,352.551453 335.824615,352.193390 335.985657,352.027344 
z" />
  <path fill="#E5BE85" d="
M318.017395,346.702209 
	C317.813263,346.774200 317.521729,346.591522 317.129425,346.165039 
	C317.329132,346.096649 317.629578,346.272064 318.017395,346.702209 
z" />
  <path fill="#E5BE85" d="
M311.077759,339.671143 
	C310.852112,339.726044 310.558167,339.512421 310.217682,339.019897 
	C310.450592,338.961517 310.730042,339.182037 311.077759,339.671143 
z" />
  <path fill="#F6C271" d="
M422.124207,362.092224 
	C404.495850,361.844482 386.778015,361.510010 368.409668,361.163239 
	C369.175354,360.436646 369.275909,360.255280 369.384583,360.250336 
	C385.923767,359.493317 402.464050,358.759460 419.002777,357.993195 
	C421.515076,357.876801 423.500244,358.086182 422.150665,361.817688 
	C422.181488,362.206177 422.034698,362.005524 422.124207,362.092224 
z" />
  <path fill="#F6A00B" d="
M288.052979,287.874298 
	C289.026367,294.679504 290.189758,301.463989 290.934998,308.294098 
	C292.668945,324.185760 294.258942,340.094208 295.703491,356.014343 
	C295.815887,357.253052 294.004883,359.861572 293.649323,359.765045 
	C289.459808,358.627747 285.377563,357.095520 281.114197,354.899139 
	C281.695862,346.737396 282.435608,339.344269 283.163757,331.949982 
	C284.440948,318.980286 285.690186,306.007721 287.008636,293.042206 
	C287.185577,291.302155 287.696625,289.596100 288.052979,287.874298 
z" />
  <path fill="#F4942B" d="
M288.043396,287.485718 
	C287.696625,289.596100 287.185577,291.302155 287.008636,293.042206 
	C285.690186,306.007721 284.440948,318.980286 283.163757,331.949982 
	C282.435608,339.344269 281.695862,346.737396 280.923218,354.587616 
	C276.537323,353.802673 276.700043,350.221039 277.113403,346.963196 
	C278.584015,335.372803 280.285980,323.811432 281.937714,312.244415 
	C283.401917,301.990814 284.915833,291.744324 286.703064,281.571533 
	C287.310364,282.422791 287.622375,283.197144 287.934387,283.971497 
	C287.967560,285.013367 288.000702,286.055267 288.043396,287.485718 
z" />
  <path fill="#F6A00B" d="
M287.953247,283.620422 
	C287.622375,283.197144 287.310364,282.422791 286.976746,281.314117 
	C287.277863,280.762299 287.600616,280.544769 287.923340,280.327240 
	C287.939606,281.307922 287.955872,282.288635 287.953247,283.620422 
z" />
  <path fill="#F4942B" d="
M337.844299,295.599670 
	C334.533203,292.721283 332.543762,285.361786 334.196899,282.392639 
	C334.741638,281.414276 336.163818,280.492981 337.285065,280.353882 
	C339.888947,280.030792 342.670715,279.729919 345.150238,280.346130 
	C346.638550,280.716034 348.023193,282.654999 348.844666,284.210724 
	C349.571747,285.587677 349.455750,287.409973 349.711273,289.035736 
	C350.537872,294.295074 349.142090,295.913055 343.685577,295.924011 
	C341.870880,295.927673 340.055908,295.800507 337.844299,295.599670 
z" />
  <path fill="#E3AA4C" d="
M401.675964,303.051178 
	C404.961639,300.049652 411.449005,298.979034 414.398193,300.951660 
	C416.354523,302.260193 418.602661,310.799835 417.659760,313.340759 
	C416.792480,315.677795 410.582672,317.556000 406.530609,316.560852 
	C405.277924,316.253235 404.139557,315.480225 402.581970,314.487183 
	C402.130890,313.696014 402.046661,313.337921 401.975952,312.535645 
	C401.849823,309.712341 401.710175,307.333191 401.640503,304.641113 
	C401.698975,303.902496 401.687469,303.476837 401.675964,303.051178 
M404.552612,312.792633 
	C408.128326,312.846222 411.704041,312.899841 415.279755,312.953430 
	C415.060059,310.108582 415.795319,306.535370 414.342743,304.630768 
	C412.983948,302.849182 409.299500,302.306274 406.651245,302.336243 
	C405.736206,302.346588 404.604004,305.645203 404.052063,307.579071 
	C403.665955,308.931976 404.096680,310.517975 404.552612,312.792633 
z" />
  <path fill="#E3AA4C" d="
M361.058777,335.467346 
	C361.034180,334.867096 361.029419,334.700958 361.022919,334.534912 
	C360.649139,324.991974 363.569885,322.640015 373.086609,325.050690 
	C374.170624,325.325226 375.586517,326.435516 375.846436,327.422241 
	C376.684967,330.605194 377.133575,333.901825 377.541779,337.178345 
	C377.626953,337.861786 377.057922,338.806610 376.514282,339.359406 
	C372.923584,343.010345 363.104645,340.779480 361.058777,335.467346 
M374.285583,329.583801 
	C371.333557,325.916870 366.456909,324.313721 364.204132,327.218506 
	C362.635742,329.240875 362.631866,333.364990 363.425446,336.119049 
	C364.567688,340.083191 368.185394,339.025482 371.423523,338.435181 
	C377.107910,337.398956 374.647217,333.447601 374.285583,329.583801 
z" />
  <path fill="#E3AA4C" d="
M414.731079,289.045471 
	C413.622559,296.119690 408.286407,293.561890 404.480316,293.856323 
	C401.084930,294.118988 398.765564,292.358337 398.913971,288.485321 
	C398.926544,288.156555 398.880463,287.822327 398.832642,287.494904 
	C397.618988,279.182343 402.317108,275.331421 410.289490,278.390808 
	C411.675293,278.922638 412.864502,280.813599 413.461090,282.343323 
	C414.225189,284.302673 414.296967,286.532043 414.731079,289.045471 
M412.028839,286.543335 
	C411.100372,284.455811 410.650482,281.165375 409.131897,280.561188 
	C406.823212,279.642700 403.158264,279.710602 401.253723,281.047211 
	C399.975861,281.944031 400.431549,285.790802 400.669342,288.264008 
	C401.115967,292.908844 404.829468,291.893036 407.863983,292.031250 
	C411.201660,292.183258 412.257538,290.418579 412.028839,286.543335 
z" />
  <path fill="#E3AA4C" d="
M350.667297,341.010742 
	C339.665741,341.270142 341.113220,340.834045 339.165924,330.846161 
	C338.956635,329.772705 339.113159,327.688629 339.505249,327.583405 
	C343.170624,326.599884 346.936646,325.388580 350.646881,325.469269 
	C352.149506,325.501953 353.869171,328.398743 354.957153,330.297638 
	C355.727325,331.641754 355.659943,333.491486 355.865143,335.128235 
	C356.313171,338.702148 355.075409,340.970947 350.667297,341.010742 
M353.996826,334.474609 
	C353.706665,327.751709 352.140778,326.282379 346.074310,327.040771 
	C341.528412,327.609070 340.570740,329.174561 342.118469,335.184143 
	C342.505402,336.686615 344.649170,338.810699 345.949158,338.785339 
	C348.855164,338.728699 353.425781,341.200684 353.996826,334.474609 
z" />
  <path fill="#E3AA4C" d="
M384.969513,338.042145 
	C381.216583,331.987061 381.509399,327.298706 386.483948,324.495453 
	C388.778473,324.195282 390.391510,324.105957 392.004578,324.016632 
	C397.459503,324.617889 398.986908,327.149292 398.985352,334.684021 
	C398.984283,339.905579 395.321472,339.897186 391.850861,339.890198 
	C389.664459,339.885803 387.479523,339.152557 385.581360,338.371368 
	C387.197937,338.000641 388.531616,337.934998 389.855560,338.020355 
	C397.929810,338.541138 397.853088,334.506714 395.530823,328.564667 
	C394.035675,324.738800 390.115692,325.715973 387.187805,326.278992 
	C384.275787,326.838959 383.623932,329.198059 384.466187,332.140930 
	C384.999268,334.003448 384.825989,336.068146 384.969513,338.042145 
z" />
  <path fill="#E3AA4C" d="
M329.052673,304.933594 
	C329.708527,308.724915 330.408600,312.509735 330.968384,316.315186 
	C331.044678,316.833923 330.537567,317.572449 330.101318,318.011108 
	C327.080261,321.048981 316.666382,318.797211 315.893738,314.668793 
	C315.290070,311.443237 315.056519,305.465332 316.155518,305.089661 
	C319.992462,303.777985 324.479248,304.367188 328.434601,304.612366 
	C326.006409,304.990417 323.792572,304.660583 321.741669,305.096741 
	C320.166962,305.431641 317.775208,306.524506 317.547729,307.645691 
	C317.060669,310.046600 316.811371,313.966309 318.150055,314.935059 
	C320.361053,316.535065 323.944885,316.772919 326.863098,316.531616 
	C327.728394,316.460052 328.553345,312.901672 328.935242,310.854919 
	C329.292450,308.940491 329.037933,306.911926 329.052673,304.933594 
z" />
  <path fill="#E3AA4C" d="
M373.037384,317.006042 
	C369.752686,317.298248 366.410736,318.068817 363.206970,317.685211 
	C361.550751,317.486877 359.486359,315.519257 358.774933,313.852264 
	C357.768616,311.494354 357.757996,308.683167 357.511047,306.047943 
	C357.442780,305.319244 357.883698,304.399323 358.368256,303.786316 
	C360.938477,300.534637 370.523682,301.825562 372.626709,306.326935 
	C372.977966,308.685150 373.087189,310.343201 373.167236,312.261719 
	C373.192139,312.688416 373.246216,312.854614 373.247131,313.416565 
	C373.141785,314.876923 373.089600,315.941467 373.037384,317.006042 
M371.695435,311.550842 
	C371.459808,310.260315 371.455688,308.864075 370.927460,307.707153 
	C370.325073,306.387878 369.288757,304.297089 368.382874,304.266571 
	C365.584503,304.172241 362.758453,304.898834 359.943176,305.306641 
	C360.630157,308.639954 360.406189,312.649139 362.245239,315.127655 
	C364.329376,317.936523 369.911041,315.899445 371.695435,311.550842 
z" />
  <path fill="#E3AA4C" d="
M338.938019,317.068451 
	C338.084839,313.537720 336.860474,310.033356 336.607086,306.460083 
	C336.532043,305.402313 339.093048,303.980499 340.645020,303.061371 
	C341.388245,302.621246 342.595520,302.960632 343.592651,302.953979 
	C350.581268,302.907288 355.222229,309.204163 352.724426,315.700134 
	C352.236786,316.968231 350.374786,318.467377 349.091217,318.520569 
	C345.867615,318.654175 342.612274,318.021362 339.614960,317.349915 
	C342.011230,317.000916 344.169403,316.884918 346.311554,317.020996 
	C349.664978,317.234009 351.281586,315.925049 351.024200,312.428680 
	C350.781067,309.124756 351.173035,305.538483 346.466522,305.001434 
	C338.483734,304.090637 337.413391,305.244446 338.802826,313.113678 
	C339.029907,314.399780 338.901886,315.748627 338.938019,317.068451 
z" />
  <path fill="#E3AA4C" d="
M386.664948,278.886353 
	C391.028442,279.911591 394.772522,289.344910 392.450592,292.625702 
	C391.969391,293.305603 390.844635,293.743347 389.955292,293.872955 
	C388.490082,294.086487 386.974701,293.945374 385.480896,293.975128 
	C378.591675,294.112335 374.414551,288.899414 376.399109,282.158051 
	C376.793213,280.819275 378.774139,279.501251 380.284576,279.052002 
	C382.118835,278.506470 384.230042,278.892151 386.664948,278.886353 
M378.539032,282.133423 
	C377.628479,290.375916 381.286163,293.890869 388.856445,291.888000 
	C389.690094,291.667450 390.973145,290.281586 390.837921,289.736176 
	C390.072693,286.650085 389.760681,282.625092 387.669342,280.956360 
	C386.000977,279.625153 382.010742,281.203857 378.539032,282.133423 
z" />
  <path fill="#E3AA4C" d="
M357.179382,294.063721 
	C356.573120,292.801453 356.100708,291.906494 355.904358,290.954651 
	C353.304688,278.351624 355.626465,279.727112 367.154327,280.142792 
	C368.364807,280.186401 370.068848,282.267365 370.527435,283.723267 
	C371.201935,285.864471 370.940887,288.295532 371.114838,290.600342 
	C371.355499,293.789185 369.824341,295.246460 366.713013,295.071411 
	C363.619812,294.897369 360.531799,294.630676 357.179382,294.063721 
M366.816162,282.162384 
	C365.169128,282.104004 363.520660,281.970123 361.875336,282.001678 
	C357.292236,282.089630 356.173065,283.547638 357.062469,288.823120 
	C357.634674,292.217255 359.167572,294.666504 363.397430,293.760193 
	C370.700439,292.195404 371.505554,290.142395 366.816162,282.162384 
z" />
  <path fill="#EFEACB" d="
M373.372375,317.051270 
	C373.089600,315.941467 373.141785,314.876923 373.454285,313.405212 
	C373.714569,312.998108 374.131470,312.963989 374.418518,313.133118 
	C377.606506,319.020660 381.822296,322.843262 388.648254,322.567169 
	C394.988129,322.310699 399.084656,318.977051 401.299194,312.992615 
	C401.520325,312.990906 401.962463,312.979828 401.962463,312.979828 
	C402.046661,313.337921 402.130890,313.696014 402.251526,314.323486 
	C401.286987,320.056366 397.768982,322.739075 392.243591,323.742371 
	C390.391510,324.105957 388.778473,324.195282 386.773376,324.287842 
	C380.579437,324.671295 377.238281,320.716705 373.372375,317.051270 
z" />
  <path fill="#EFEACB" d="
M373.196411,312.001221 
	C373.087189,310.343201 372.977966,308.685150 372.861298,306.618408 
	C373.609314,298.860474 377.474884,294.943756 384.746368,295.101135 
	C388.481598,295.181976 392.191162,296.448730 395.915771,297.640320 
	C395.919250,298.101135 395.749146,298.285797 395.392456,298.165649 
	C382.847717,292.397980 374.270721,298.050690 373.704285,311.992157 
	C373.534943,311.991730 373.196411,312.001221 373.196411,312.001221 
z" />
  <path fill="#EFEACB" d="
M401.411804,303.030914 
	C401.687469,303.476837 401.698975,303.902496 401.415405,304.671997 
	C401.120331,305.015839 400.666962,305.082275 400.468994,304.888855 
	C400.144440,304.158417 400.017822,303.621460 399.941162,303.041565 
	C399.991058,302.998657 400.088287,302.909851 400.088287,302.909851 
	C400.441406,302.943451 400.794525,302.977051 401.411804,303.030914 
z" />
  <path fill="#EFEACB" d="
M399.062408,300.913177 
	C399.375946,301.384979 399.689453,301.856781 400.045654,302.619202 
	C400.088287,302.909851 399.991058,302.998657 399.716064,302.869568 
	C399.222687,302.223297 399.004272,301.706055 398.856628,301.121552 
	C398.927368,301.054260 399.062408,300.913177 399.062408,300.913177 
z" />
  <path fill="#EFEACB" d="
M398.070923,299.903503 
	C398.380219,300.025970 398.632202,300.222076 398.944641,300.702454 
	C399.062408,300.913177 398.927368,301.054260 398.635498,301.010437 
	C398.084625,300.736084 397.934174,300.448792 397.938232,300.055573 
	C397.984222,300.006439 398.070923,299.903503 398.070923,299.903503 
z" />
  <path fill="#EFEACB" d="
M397.072937,298.904419 
	C397.381470,299.025482 397.634583,299.219025 397.951599,299.694275 
	C398.070923,299.903503 397.984222,300.006439 397.705383,299.967896 
	C397.132111,299.736938 396.949310,299.468475 396.927979,299.070129 
	C396.977783,299.016205 397.072937,298.904419 397.072937,298.904419 
z" />
  <path fill="#EFEACB" d="
M396.007568,298.011902 
	C396.397034,298.043579 396.646332,298.232819 396.958374,298.697388 
	C397.072937,298.904419 396.977783,299.016205 396.689575,299.006165 
	C396.079712,298.855042 395.862305,298.618286 395.749146,298.285797 
	C395.749146,298.285797 395.919250,298.101135 396.007568,298.011902 
z" />
  <path fill="#F6C271" d="
M329.077209,335.884186 
	C329.741455,339.643890 330.346954,343.473877 330.961975,347.364105 
	C325.623749,347.307007 317.870117,341.023254 316.021088,334.762787 
	C320.391815,335.180420 324.352051,335.558807 328.743469,335.898132 
	C329.174591,335.859039 329.018524,335.954498 329.077209,335.884186 
z" />
  <path fill="#F4942B" d="
M404.357605,312.396240 
	C404.096680,310.517975 403.665955,308.931976 404.052063,307.579071 
	C404.604004,305.645203 405.736206,302.346588 406.651245,302.336243 
	C409.299500,302.306274 412.983948,302.849182 414.342743,304.630768 
	C415.795319,306.535370 415.060059,310.108582 415.279755,312.953430 
	C411.704041,312.899841 408.128326,312.846222 404.357605,312.396240 
z" />
  <path fill="#FDEBAF" d="
M400.666931,305.082275 
	C400.666962,305.082275 401.120331,305.015839 401.345398,304.984955 
	C401.710175,307.333191 401.849823,309.712341 401.975952,312.535645 
	C401.962463,312.979828 401.520325,312.990906 401.277283,312.551727 
	C400.911804,309.769135 400.789368,307.425690 400.666931,305.082275 
z" />
  <path fill="#F4942B" d="
M374.462677,329.958191 
	C374.647217,333.447601 377.107910,337.398956 371.423523,338.435181 
	C368.185394,339.025482 364.567688,340.083191 363.425446,336.119049 
	C362.631866,333.364990 362.635742,329.240875 364.204132,327.218506 
	C366.456909,324.313721 371.333557,325.916870 374.462677,329.958191 
z" />
  <path fill="#F4942B" d="
M412.028931,286.982666 
	C412.257538,290.418579 411.201660,292.183258 407.863983,292.031250 
	C404.829468,291.893036 401.115967,292.908844 400.669342,288.264008 
	C400.431549,285.790802 399.975861,281.944031 401.253723,281.047211 
	C403.158264,279.710602 406.823212,279.642700 409.131897,280.561188 
	C410.650482,281.165375 411.100372,284.455811 412.028931,286.982666 
z" />
  <path fill="#F4942B" d="
M353.993378,334.907288 
	C353.425781,341.200684 348.855164,338.728699 345.949158,338.785339 
	C344.649170,338.810699 342.505402,336.686615 342.118469,335.184143 
	C340.570740,329.174561 341.528412,327.609070 346.074310,327.040771 
	C352.140778,326.282379 353.706665,327.751709 353.993378,334.907288 
z" />
  <path fill="#F4942B" d="
M384.985260,338.021545 
	C384.825989,336.068146 384.999268,334.003448 384.466187,332.140930 
	C383.623932,329.198059 384.275787,326.838959 387.187805,326.278992 
	C390.115692,325.715973 394.035675,324.738800 395.530823,328.564667 
	C397.853088,334.506714 397.929810,338.541138 389.855560,338.020355 
	C388.531616,337.934998 387.197937,338.000641 385.413940,338.012939 
	C384.959137,338.029419 385.001007,338.000946 384.985260,338.021545 
z" />
  <path fill="#F4942B" d="
M329.025635,304.965576 
	C329.037933,306.911926 329.292450,308.940491 328.935242,310.854919 
	C328.553345,312.901672 327.728394,316.460052 326.863098,316.531616 
	C323.944885,316.772919 320.361053,316.535065 318.150055,314.935059 
	C316.811371,313.966309 317.060669,310.046600 317.547729,307.645691 
	C317.775208,306.524506 320.166962,305.431641 321.741669,305.096741 
	C323.792572,304.660583 326.006409,304.990417 328.607605,304.969543 
	C329.065063,304.948486 328.998566,304.997559 329.025635,304.965576 
z" />
  <path fill="#F4942B" d="
M371.764252,311.946838 
	C369.911041,315.899445 364.329376,317.936523 362.245239,315.127655 
	C360.406189,312.649139 360.630157,308.639954 359.943176,305.306641 
	C362.758453,304.898834 365.584503,304.172241 368.382874,304.266571 
	C369.288757,304.297089 370.325073,306.387878 370.927460,307.707153 
	C371.455688,308.864075 371.459808,310.260315 371.764252,311.946838 
z" />
  <path fill="#FDEBAF" d="
M373.167236,312.261719 
	C373.196411,312.001221 373.534943,311.991730 373.807220,312.224854 
	C374.096802,312.626617 374.114136,312.795288 374.131470,312.963989 
	C374.131470,312.963989 373.714569,312.998108 373.507416,313.009460 
	C373.246216,312.854614 373.192139,312.688416 373.167236,312.261719 
z" />
  <path fill="#F4942B" d="
M338.968994,317.034241 
	C338.901886,315.748627 339.029907,314.399780 338.802826,313.113678 
	C337.413391,305.244446 338.483734,304.090637 346.466522,305.001434 
	C351.173035,305.538483 350.781067,309.124756 351.024200,312.428680 
	C351.281586,315.925049 349.664978,317.234009 346.311554,317.020996 
	C344.169403,316.884918 342.011230,317.000916 339.395874,317.032928 
	C338.931519,317.061951 339.000000,317.000000 338.968994,317.034241 
z" />
  <path fill="#F4942B" d="
M378.795105,281.812164 
	C382.010742,281.203857 386.000977,279.625153 387.669342,280.956360 
	C389.760681,282.625092 390.072693,286.650085 390.837921,289.736176 
	C390.973145,290.281586 389.690094,291.667450 388.856445,291.888000 
	C381.286163,293.890869 377.628479,290.375916 378.795105,281.812164 
z" />
  <path fill="#F4942B" d="
M367.174377,282.371094 
	C371.505554,290.142395 370.700439,292.195404 363.397430,293.760193 
	C359.167572,294.666504 357.634674,292.217255 357.062469,288.823120 
	C356.173065,283.547638 357.292236,282.089630 361.875336,282.001678 
	C363.520660,281.970123 365.169128,282.104004 367.174377,282.371094 
z" />
  <path fill="#3F5667" d="
M374.418518,313.133118 
	C374.114136,312.795288 374.096802,312.626617 373.976562,312.225281 
	C374.270721,298.050690 382.847717,292.397980 395.392456,298.165649 
	C395.862305,298.618286 396.079712,298.855042 396.639771,299.060059 
	C396.949310,299.468475 397.132111,299.736938 397.659393,300.017029 
	C397.934174,300.448792 398.084625,300.736084 398.564758,301.077698 
	C399.004272,301.706055 399.222687,302.223297 399.666138,302.912476 
	C400.017822,303.621460 400.144440,304.158417 400.468994,304.888855 
	C400.789368,307.425690 400.911804,309.769135 401.056122,312.553406 
	C399.084656,318.977051 394.988129,322.310699 388.648254,322.567169 
	C381.822296,322.843262 377.606506,319.020660 374.418518,313.133118 
M395.743744,315.863678 
	C396.429840,314.559570 397.375854,313.326569 397.755798,311.938660 
	C399.178528,306.741028 396.611145,301.750854 391.710571,299.828796 
	C386.376801,297.736755 380.886169,299.533813 378.395782,304.186584 
	C376.021973,308.621521 377.351532,314.746155 381.305817,317.591980 
	C385.462677,320.583588 391.293365,319.916260 394.997345,316.000061 
	C394.997345,316.000061 395.017303,316.038147 395.743744,315.863678 
z" />
  <path fill="#EFEACB" d="
M395.035095,316.020599 
	C391.293365,319.916260 385.462677,320.583588 381.305817,317.591980 
	C377.351532,314.746155 376.021973,308.621521 378.395782,304.186584 
	C380.886169,299.533813 386.376801,297.736755 391.710571,299.828796 
	C396.611145,301.750854 399.178528,306.741028 397.755798,311.938660 
	C397.375854,313.326569 396.429840,314.559570 395.223999,315.531067 
	C394.527222,312.629761 394.350189,310.061096 394.265259,307.257446 
	C394.278442,306.699585 394.199463,306.376709 394.121460,305.736725 
	C393.762390,304.942139 393.402374,304.464630 393.028595,303.985138 
	C393.014832,303.983124 393.016754,303.955383 392.878052,303.627319 
	C389.564667,301.189758 386.354828,300.074860 382.989502,302.961212 
	C382.975281,302.967285 382.951080,302.986664 382.584839,303.050629 
	C378.734833,306.450714 379.469757,310.326599 381.217194,314.007324 
	C383.104248,317.982117 386.926208,317.232422 390.361938,316.930878 
	C391.934204,316.792908 393.478241,316.333954 395.035095,316.020599 
z" />
  <path fill="#F4942B" d="
M394.120483,306.053833 
	C394.199463,306.376709 394.278442,306.699585 394.216187,307.703613 
	C393.720551,313.782959 391.608734,316.320496 387.791443,315.934967 
	C383.563904,315.507965 381.488831,312.453156 382.046478,307.305939 
	C382.204132,305.850586 382.641815,304.425598 382.951080,302.986664 
	C382.951080,302.986664 382.975281,302.967285 383.421021,302.991547 
	C386.916779,303.329010 389.966766,303.642212 393.016754,303.955383 
	C393.016754,303.955383 393.014832,303.983124 393.025757,304.301086 
	C393.397949,305.097290 393.759216,305.575562 394.120483,306.053833 
z" />
  <path fill="#E69440" d="
M382.584839,303.050629 
	C382.641815,304.425598 382.204132,305.850586 382.046478,307.305939 
	C381.488831,312.453156 383.563904,315.507965 387.791443,315.934967 
	C391.608734,316.320496 393.720551,313.782959 394.124084,307.938599 
	C394.350189,310.061096 394.527222,312.629761 394.860779,315.618286 
	C395.017303,316.038147 394.997345,316.000061 395.016235,316.010315 
	C393.478241,316.333954 391.934204,316.792908 390.361938,316.930878 
	C386.926208,317.232422 383.104248,317.982117 381.217194,314.007324 
	C379.469757,310.326599 378.734833,306.450714 382.584839,303.050629 
z" />
  <path fill="#E69440" d="
M392.878052,303.627319 
	C389.966766,303.642212 386.916779,303.329010 383.435272,302.985474 
	C386.354828,300.074860 389.564667,301.189758 392.878052,303.627319 
z" />
  <path fill="#E69440" d="
M394.121460,305.736725 
	C393.759216,305.575562 393.397949,305.097290 393.039520,304.303101 
	C393.402374,304.464630 393.762390,304.942139 394.121460,305.736725 
z" />
</svg>