<svg xmlns="http://www.w3.org/2000/svg" viewBox="480.5892212 195.76917569999995 195.13784160000006 195.13784160000006">
  <path fill="#0A1017" d="
M619.819214,233.186905 
	C631.414551,243.375351 638.968750,255.727219 642.918518,270.211365 
	C646.747742,284.253448 645.168884,298.402374 642.202087,312.519073 
	C648.627625,306.637512 650.112732,306.340027 654.099731,310.316559 
	C658.872498,315.076813 658.848694,315.272797 652.511536,321.445343 
	C657.697205,329.590240 659.465576,338.516785 656.640747,347.972595 
	C654.367432,355.582397 649.782227,361.520142 642.934143,365.754456 
	C629.306702,374.180664 614.135864,370.638031 601.905457,356.320190 
	C594.447021,358.000519 587.297302,360.292603 579.979797,361.146454 
	C540.177551,365.790833 503.397308,335.326843 500.053741,295.285736 
	C496.850708,256.927155 522.109680,223.336914 560.011108,216.504059 
	C582.246155,212.495529 602.238159,218.297760 619.819214,233.186905 
M619.938965,240.456680 
	C619.629517,240.273666 619.320007,240.090652 619.060303,239.993317 
	C619.060303,239.993317 619.142639,239.938309 618.959106,239.279587 
	C617.806763,238.102493 616.744202,236.818588 615.488770,235.764191 
	C593.540955,217.329620 562.744141,215.039047 537.661743,229.942398 
	C513.011780,244.588837 500.352844,273.626099 506.225128,302.719543 
	C508.125214,307.854340 510.025330,312.989136 511.946198,318.031982 
	C511.946198,318.031982 511.851959,318.030243 511.920898,318.642426 
	C512.259583,319.132050 512.598328,319.621674 512.958374,320.032684 
	C512.958374,320.032684 512.877075,320.027679 512.945435,320.623474 
	C513.272339,321.101318 513.599243,321.579163 514.002319,322.016937 
	C514.002319,322.016937 513.931580,322.069794 514.057495,322.612122 
	C514.342285,322.815033 514.627075,323.017944 514.901184,323.036926 
	C514.901184,323.036926 514.720947,323.075134 514.756287,323.713562 
	C515.132874,324.198853 515.509521,324.684113 515.911377,325.058289 
	C515.911377,325.058289 515.797668,325.065704 515.914856,325.698547 
	C516.580017,326.499969 517.245117,327.301361 517.884460,328.024445 
	C517.884460,328.024445 517.828430,328.084991 517.892883,328.650574 
	C518.291687,329.005371 518.690552,329.360138 518.973633,329.849426 
	C518.973633,329.849426 519.104065,329.969727 519.147888,330.487000 
	C519.428223,330.653076 519.708618,330.819122 519.993286,331.006042 
	C519.993286,331.006042 520.014038,331.010437 520.145813,331.673523 
	C536.549561,353.263489 568.412048,362.650665 593.905090,353.404144 
	C599.913208,351.224945 599.953308,351.109894 597.219849,343.010651 
	C597.158936,338.201172 594.138794,341.139954 591.759827,341.131348 
	C591.423157,341.223114 591.174622,341.423859 590.512695,342.002472 
	C590.140442,342.058136 589.768127,342.113800 588.318359,342.126007 
	C587.660889,342.388519 587.003357,342.651031 585.536011,342.126190 
	C588.241333,340.629181 590.838135,338.864624 593.682861,337.711487 
	C596.451599,336.589142 598.064270,335.041687 598.148438,331.280487 
	C601.787109,319.269897 610.551697,312.378387 622.572815,308.653412 
	C616.104797,302.772125 616.213379,298.587616 622.644104,295.852997 
	C623.772400,295.568787 624.900757,295.284576 626.640015,294.995148 
	C627.248779,295.014526 627.857544,295.033905 628.828369,295.419403 
	C628.914490,295.567902 629.000549,295.716370 629.041931,296.626923 
	C629.023682,297.390381 629.005432,298.153809 628.243042,298.999115 
	C627.253174,298.983643 626.226501,298.794312 625.282227,298.994293 
	C623.939880,299.278595 622.658020,299.848999 621.350342,300.297180 
	C621.907959,301.549866 622.465637,302.802521 623.583374,304.602509 
	C626.385254,304.407837 629.187195,304.213165 632.384155,303.700378 
	C632.776001,303.380585 633.167847,303.060791 634.157349,303.095825 
	C634.255127,303.684204 634.550659,304.323639 634.414490,304.851654 
	C633.958984,306.617310 633.348999,308.343109 632.798157,310.084137 
	C633.874084,310.375916 635.510681,311.250793 635.923889,310.853455 
	C637.330200,309.501007 638.901917,307.841888 639.330017,306.042755 
	C640.501892,301.117798 641.655151,296.075562 641.785400,291.053070 
	C641.880798,287.378448 640.344849,283.661530 639.166748,279.242035 
	C639.092346,278.168701 639.017944,277.095337 639.463135,275.589783 
	C638.763672,273.380768 638.064270,271.171783 637.058777,268.374878 
	C636.975952,267.721985 636.893188,267.069092 636.934570,265.685272 
	C636.406616,264.776703 635.878723,263.868134 635.022522,262.491180 
	C634.957336,262.119507 634.892151,261.747803 634.937927,260.599884 
	C634.013855,259.058136 633.089844,257.516388 631.912598,255.691727 
	C631.912598,255.691727 631.869629,255.314499 631.816528,254.763885 
	C631.564636,254.509125 631.312805,254.254364 630.834412,253.766937 
	C630.834412,253.766937 630.826172,253.442337 630.769104,252.831558 
	C630.476746,252.566849 630.184326,252.302155 629.460388,251.751328 
	C629.258728,251.282822 629.057068,250.814331 628.776245,249.767471 
	C628.491089,249.520905 628.205994,249.274323 627.400085,248.652420 
	C625.736816,246.744339 624.073608,244.836258 622.105347,242.371613 
	C621.737244,242.219711 621.369202,242.067795 621.053589,242.015366 
	C621.053589,242.015366 621.152893,241.962601 621.073853,241.376053 
	C620.718018,241.214355 620.362122,241.052658 620.016235,240.996323 
	C620.016235,240.996323 620.121094,240.982407 619.938965,240.456680 
M602.001648,344.997253 
	C602.001648,344.997253 602.016235,344.983185 601.929504,345.735596 
	C606.631287,360.759094 618.622375,368.161224 633.210754,364.904388 
	C642.798889,362.763855 649.393555,356.755615 652.104065,347.543304 
	C654.780273,338.447418 653.995239,329.432404 646.675720,321.369202 
	C641.712280,316.614838 636.289734,312.854095 628.115356,313.001038 
	C614.333191,312.693359 603.890991,321.613953 600.975403,336.783691 
	C601.060791,338.199249 601.146179,339.614838 601.221069,341.787384 
	C601.391052,342.518372 601.561035,343.249390 601.514221,344.348145 
	C601.536133,344.674408 601.703369,344.886017 602.001648,344.997253 
z" />
  <path fill="#EBF6FA" d="
M621.930054,295.641113 
	C616.213379,298.587616 616.104797,302.772125 622.572815,308.653412 
	C610.551697,312.378387 601.787109,319.269897 597.694824,331.475342 
	C595.848999,331.794556 594.394836,331.703766 593.076172,332.083496 
	C589.100220,333.228363 585.242554,334.918945 581.203613,335.649506 
	C579.367065,335.981689 577.212402,334.555298 575.178589,333.565643 
	C575.164307,332.481262 575.173401,331.757843 575.312927,330.911743 
	C575.280090,330.535675 575.116943,330.282288 574.745117,329.764343 
	C568.959045,326.563202 569.932678,331.043274 569.304932,334.249084 
	C567.012146,334.981476 564.809814,336.038177 562.858948,335.689117 
	C559.507996,335.089569 556.194153,333.876892 553.074036,332.460541 
	C535.724243,324.584564 523.762817,307.805328 525.434937,291.541962 
	C527.162476,291.753235 528.659851,292.306976 529.729980,291.853149 
	C531.266235,291.201569 532.491089,289.815643 533.848816,288.743164 
	C532.540833,287.827820 531.344604,286.515533 529.893860,286.106964 
	C528.393372,285.684387 526.645752,286.139160 524.969666,285.748810 
	C524.148621,278.129364 527.136841,272.112610 530.368835,266.022339 
	C538.782227,250.168381 551.577087,241.478699 569.692383,241.523743 
	C569.453186,249.240234 570.096863,249.978943 575.054260,247.888794 
	C575.318726,247.762146 575.486877,247.647003 575.469177,247.586823 
	C575.404968,247.369720 575.278198,247.171127 575.181030,246.531158 
	C575.036316,244.086380 574.885620,242.075974 575.161560,240.035431 
	C589.466187,241.775269 601.484558,247.287247 609.985840,258.649872 
	C615.979370,266.660675 620.658081,275.467834 619.564087,286.014709 
	C617.485718,285.990204 615.692932,285.610992 614.243958,286.152252 
	C612.998657,286.617432 612.146057,288.133728 611.119812,289.185211 
	C612.155273,290.039185 613.086731,291.384430 614.250854,291.630920 
	C615.953552,291.991455 617.823059,291.563995 619.929749,291.672455 
	C620.802002,293.128723 621.366028,294.384918 621.930054,295.641113 
M588.920166,268.586884 
	C587.946228,269.435669 586.972351,270.284485 585.300781,271.110565 
	C582.553284,273.451050 579.784973,275.767578 577.063354,278.137695 
	C573.065979,281.618744 569.757996,281.632233 565.533203,278.534729 
	C561.244751,275.390656 556.952698,272.153931 552.275818,269.691711 
	C550.700623,268.862457 547.941528,270.281860 545.723572,270.673553 
	C546.201721,272.878265 545.970825,275.781281 547.308411,277.139740 
	C549.946106,279.818481 553.438171,281.663269 556.604858,283.811798 
	C560.258484,286.290649 563.817932,288.465546 566.107300,292.815521 
	C569.148560,298.594055 577.010864,297.356720 580.169434,291.403107 
	C581.963501,288.021332 584.217834,284.738953 586.860596,281.983032 
	C592.044800,276.576782 597.702881,271.627930 603.034424,266.357758 
	C604.407288,265.000671 605.728577,263.293671 606.311707,261.499756 
	C607.382812,258.205017 604.003967,254.378296 601.678040,256.102936 
	C597.091248,259.503876 593.287109,263.960175 588.920166,268.586884 
M566.546692,311.369446 
	C564.925171,310.227570 563.303589,309.085693 560.704956,307.255768 
	C560.894226,313.148682 564.383057,314.594391 567.601135,315.809174 
	C573.134399,317.897919 580.833374,316.033508 583.561340,312.097260 
	C584.181824,311.201935 583.882996,309.669586 584.007324,308.430420 
	C578.394531,312.690826 573.297974,314.587982 566.546692,311.369446 
M603.268188,302.720764 
	C605.287415,299.026764 602.956482,296.581299 600.089478,296.041168 
	C597.683655,295.587921 594.730347,296.960602 592.342163,298.164825 
	C591.644287,298.516754 592.052124,301.061462 591.953186,302.601105 
	C592.382324,302.829498 592.811462,303.057922 593.240601,303.286346 
	C596.125244,297.972778 598.885193,298.602203 601.613892,302.777222 
	C601.742615,302.974182 602.218689,302.944244 603.268188,302.720764 
M553.572266,299.759155 
	C550.943298,295.592957 547.451904,294.207184 544.252258,296.342834 
	C541.894836,297.916260 540.668030,300.007324 543.309082,303.088928 
	C546.336426,297.260132 549.248962,299.102539 552.104797,303.413574 
	C552.820496,302.085541 553.260132,301.269714 553.572266,299.759155 
z" />
  <path fill="#AFD5E3" d="
M575.202026,333.926605 
	C577.212402,334.555298 579.367065,335.981689 581.203613,335.649506 
	C585.242554,334.918945 589.100220,333.228363 593.076172,332.083496 
	C594.394836,331.703766 595.848999,331.794556 597.560913,331.816711 
	C598.064270,335.041687 596.451599,336.589142 593.682861,337.711487 
	C590.838135,338.864624 588.241333,340.629181 585.970215,342.528320 
	C586.404419,342.930450 586.418884,342.986176 586.317993,342.804260 
	C585.890686,342.480133 585.662964,342.574738 585.793823,342.465973 
	C584.942017,341.727112 583.831360,341.175110 582.718750,341.171143 
	C575.816467,341.146545 568.913818,341.244934 561.657349,341.175232 
	C560.557129,340.975159 559.810852,340.902344 558.795776,340.622406 
	C558.084290,340.345856 557.641541,340.276459 556.905396,340.056946 
	C555.066528,339.303284 553.507202,338.733002 551.977844,338.091278 
	C529.818848,328.793335 516.614075,306.419556 519.106995,282.414215 
	C521.541382,258.972382 539.799438,239.862549 564.055359,235.368912 
	C586.375244,231.233932 609.472656,243.277679 620.324097,264.475372 
	C625.271851,274.140686 626.149231,284.448761 626.029053,295.000366 
	C624.900757,295.284576 623.772400,295.568787 622.287109,295.747070 
	C621.366028,294.384918 620.802002,293.128723 620.162720,291.439453 
	C620.057861,289.357452 620.028320,287.708466 619.998779,286.059479 
	C620.658081,275.467834 615.979370,266.660675 609.985840,258.649872 
	C601.484558,247.287247 589.466187,241.775269 574.857239,239.945557 
	C572.655151,240.287308 571.183960,240.688797 569.712769,241.090271 
	C551.577087,241.478699 538.782227,250.168381 530.368835,266.022339 
	C527.136841,272.112610 524.148621,278.129364 524.779968,286.025208 
	C524.755859,288.320129 524.884888,289.877228 525.013916,291.434357 
	C523.762817,307.805328 535.724243,324.584564 553.074036,332.460541 
	C556.194153,333.876892 559.507996,335.089569 562.858948,335.689117 
	C564.809814,336.038177 567.012146,334.981476 569.448730,334.614624 
	C570.725098,335.734222 571.654175,336.796448 572.583252,337.858643 
	C573.456177,336.547943 574.329102,335.237274 575.202026,333.926605 
z" />
  <path fill="#2FA1D9" d="
M636.810425,266.416199 
	C636.893188,267.069092 636.975952,267.721985 637.118958,269.036835 
	C637.767273,271.806519 638.355408,273.914276 638.943542,276.022003 
	C639.017944,277.095337 639.092346,278.168701 639.193359,280.003662 
	C639.219971,287.490356 639.219971,294.215485 639.219971,300.940582 
	C637.410156,295.308746 633.120728,295.819977 629.086609,295.864807 
	C629.000549,295.716370 628.914490,295.567902 628.735840,294.772644 
	C631.897278,267.945221 614.330933,237.578079 581.177002,232.712250 
	C572.682983,231.465637 563.718384,233.425568 555.053772,233.548676 
	C558.999268,232.123367 562.813538,230.419891 566.732239,230.130676 
	C575.486267,229.484604 584.212463,229.711197 592.502869,233.565460 
	C595.529602,234.972610 598.138611,233.999649 598.456421,229.900589 
	C601.268494,230.811935 603.816956,231.447617 606.090210,232.617950 
	C610.522400,234.899887 614.800659,237.481064 619.142639,239.938324 
	C619.142639,239.938309 619.060303,239.993317 619.126831,240.211807 
	C619.502563,240.614334 619.811829,240.798370 620.121094,240.982407 
	C620.121094,240.982407 620.016235,240.996323 620.120239,241.198029 
	C620.533813,241.587372 620.843323,241.774979 621.152893,241.962585 
	C621.152893,241.962601 621.053589,242.015366 621.197327,242.211716 
	C621.697510,242.581436 622.053955,242.754791 622.410400,242.928162 
	C624.073608,244.836258 625.736816,246.744339 627.721863,249.116943 
	C628.314270,249.836258 628.584839,250.091034 628.855347,250.345810 
	C629.057068,250.814331 629.258728,251.282822 629.733887,252.184494 
	C630.280273,252.892563 630.553223,253.167450 630.826172,253.442337 
	C630.826172,253.442337 630.834412,253.766937 630.967590,254.160034 
	C631.357056,254.806915 631.613342,255.060715 631.869629,255.314499 
	C631.869629,255.314499 631.912598,255.691727 632.034180,256.174774 
	C633.046143,258.230591 633.936523,259.803345 634.826965,261.376129 
	C634.892151,261.747803 634.957336,262.119507 635.137817,263.046356 
	C635.772156,264.539764 636.291260,265.477997 636.810425,266.416199 
z" />
  <path fill="#0A1D30" d="
M554.969971,233.912323 
	C563.718384,233.425568 572.682983,231.465637 581.177002,232.712250 
	C614.330933,237.578079 631.897278,267.945221 628.554810,294.589600 
	C627.857544,295.033905 627.248779,295.014526 626.334534,294.997772 
	C626.149231,284.448761 625.271851,274.140686 620.324097,264.475372 
	C609.472656,243.277679 586.375244,231.233932 564.055359,235.368912 
	C539.799438,239.862549 521.541382,258.972382 519.106995,282.414215 
	C516.614075,306.419556 529.818848,328.793335 551.977844,338.091278 
	C553.507202,338.733002 555.066528,339.303284 556.919922,340.386169 
	C557.840149,340.853546 558.452332,340.841553 559.064575,340.829559 
	C559.810852,340.902344 560.557129,340.975159 561.736328,341.499146 
	C564.104919,342.910339 566.040588,343.870331 567.557251,344.898987 
	C565.656433,344.799347 564.151001,344.745880 562.696716,344.445160 
	C546.100159,341.013489 533.113647,332.268463 523.878296,317.736023 
	C523.588562,317.286560 523.334351,317.085663 523.066528,316.928955 
	C523.053040,316.973145 523.136780,316.934052 523.108765,316.635101 
	C522.745239,315.865082 522.409607,315.393982 522.042603,314.958221 
	C522.011169,314.993530 522.097473,314.954926 522.071655,314.659973 
	C521.712158,313.899323 521.378479,313.433624 521.022400,312.983948 
	C521.000000,313.000000 521.044861,312.965973 521.025452,312.670105 
	C520.692566,311.894806 520.379150,311.415344 520.036255,310.967834 
	C520.006775,310.999817 520.083618,310.958984 520.076050,310.656067 
	C519.764343,309.864075 519.460266,309.375031 519.124084,308.956085 
	C519.091980,309.026184 519.187073,308.904694 519.196899,308.568787 
	C518.861938,307.445801 518.517151,306.658752 518.182190,305.921692 
	C518.192017,305.971680 518.240540,305.882019 518.246582,305.472778 
	C517.731873,296.531128 516.447449,287.959564 516.882690,279.476227 
	C517.432495,268.760956 522.994812,259.712616 529.174927,251.125595 
	C529.164368,251.073425 529.120422,251.170395 529.386108,251.101990 
	C529.820801,250.722046 529.989746,250.410522 530.111084,250.081406 
	C530.063416,250.063812 530.102356,250.157684 530.365906,250.085449 
	C530.802307,249.706390 530.975220,249.399597 531.100220,249.074036 
	C531.052429,249.055267 531.096008,249.148315 531.359497,249.077759 
	C531.797485,248.702438 531.971924,248.397644 532.098022,248.073303 
	C532.049683,248.053741 532.095947,248.147202 532.359497,248.077835 
	C532.796387,247.704178 532.969727,247.399887 533.092163,247.073059 
	C533.041321,247.050537 533.098450,247.145950 533.363586,247.084396 
	C533.810364,246.725021 533.992004,246.427200 534.112183,246.103424 
	C534.050720,246.077454 534.133545,246.182068 534.400452,246.122269 
	C534.841125,245.758575 535.014893,245.454697 535.114990,245.114456 
	C535.041321,245.078110 535.155334,245.196335 535.421265,245.144348 
	C535.871216,244.800583 536.055237,244.508789 536.159485,244.193604 
	C536.079651,244.170212 536.205322,244.279251 536.492737,244.240509 
	C537.177795,243.802841 537.575439,243.403931 537.989624,243.007767 
	C538.006226,243.010513 538.011536,242.977249 538.265381,242.925537 
	C538.712891,242.603790 538.906616,242.333755 539.063110,242.041702 
	C539.025879,242.019684 539.048767,242.103165 539.352051,242.044067 
	C539.941956,241.698395 540.228516,241.411850 540.750916,241.098755 
	C541.342773,240.782791 541.698853,240.493378 542.348999,240.149323 
	C543.096069,239.734848 543.549072,239.375015 544.002319,239.008408 
	C544.002441,239.001633 544.015381,239.007187 544.270386,238.958405 
	C544.696838,238.616852 544.868347,238.324066 545.018677,238.018860 
	C544.997559,238.006470 545.037170,238.040176 545.404785,238.009521 
	C548.576965,236.675446 551.381531,235.372025 554.389526,234.066895 
	C554.592896,234.065186 554.969971,233.912308 554.969971,233.912323 
z" />
  <path fill="#2FA5DE" d="
M523.913696,317.984619 
	C533.113647,332.268463 546.100159,341.013489 562.696716,344.445160 
	C564.151001,344.745880 565.656433,344.799347 567.992554,344.978271 
	C570.903931,344.949738 572.960876,344.910645 575.385254,344.940857 
	C576.487671,344.911530 577.222717,344.812866 578.385071,344.738281 
	C579.632141,344.544739 580.451843,344.327057 581.380615,344.206360 
	C581.715881,344.308502 581.868347,344.204773 581.967651,344.006042 
	C581.988220,344.019806 582.013611,343.977264 582.351501,344.021606 
	C583.515564,343.783264 584.341797,343.500549 585.312256,343.201904 
	C585.456543,343.185944 585.534058,342.906158 585.534058,342.906158 
	C585.662964,342.574738 585.890686,342.480133 586.717407,342.827057 
	C587.943726,342.744324 588.669800,342.456879 589.395874,342.169464 
	C589.768127,342.113800 590.140442,342.058136 591.013672,341.881836 
	C591.760132,341.545105 592.005676,341.329071 592.251221,341.113037 
	C594.138794,341.139954 597.158936,338.201172 597.040405,343.691101 
	C588.466797,351.374969 578.092346,351.797272 568.128784,351.779419 
	C552.911072,351.752167 539.306580,346.269867 527.624390,336.276947 
	C525.292297,334.282135 522.561157,332.753876 520.014038,331.010437 
	C520.014038,331.010437 519.993286,331.006042 519.933350,330.760864 
	C519.699036,330.218109 519.442566,330.036102 519.104065,329.969727 
	C519.104065,329.969727 518.973633,329.849426 518.973083,329.509918 
	C518.591187,328.808624 518.209778,328.446808 517.828430,328.084991 
	C517.828430,328.084991 517.884460,328.024445 517.873779,327.728455 
	C517.174561,326.643555 516.486145,325.854614 515.797668,325.065704 
	C515.797668,325.065704 515.911377,325.058289 515.894165,324.780701 
	C515.491638,324.027100 515.106262,323.551117 514.720947,323.075134 
	C514.720947,323.075134 514.901184,323.036926 514.824524,322.873352 
	C514.475769,322.496460 514.203674,322.283142 513.931580,322.069794 
	C513.931580,322.069794 514.002319,322.016937 513.942627,321.729340 
	C513.547668,320.970398 513.212402,320.499023 512.877075,320.027679 
	C512.877075,320.027679 512.958374,320.032684 512.929077,319.751892 
	C512.550476,318.990814 512.201233,318.510529 511.851959,318.030243 
	C511.851959,318.030243 511.946198,318.031982 511.951294,317.720642 
	C511.988678,316.934753 512.020935,316.460205 512.211670,315.891846 
	C512.244568,315.530975 512.119019,315.263977 511.971680,314.774841 
	C511.949829,314.552704 511.957672,314.106384 511.972107,313.694458 
	C511.925842,312.137573 511.611084,310.932983 511.862640,309.861298 
	C512.261719,308.160980 512.634521,306.075439 513.805908,305.075226 
	C514.528015,304.458649 516.712585,305.554810 518.240540,305.882019 
	C518.240540,305.882019 518.192017,305.971680 518.128052,306.276672 
	C518.438416,307.356018 518.812744,308.130371 519.187073,308.904694 
	C519.187073,308.904694 519.091980,309.026184 519.093323,309.269226 
	C519.424316,309.994537 519.753967,310.476746 520.083618,310.958984 
	C520.083618,310.958984 520.006775,310.999817 520.033447,311.274323 
	C520.388306,312.021210 520.716614,312.493591 521.044861,312.965973 
	C521.044861,312.965973 521.000000,313.000000 521.028076,313.290314 
	C521.403198,314.038727 521.750366,314.496826 522.097473,314.954926 
	C522.097473,314.954926 522.011169,314.993530 522.040527,315.271423 
	C522.425537,316.010864 522.781189,316.472473 523.136780,316.934052 
	C523.136780,316.934052 523.053040,316.973145 523.129028,317.163422 
	C523.359924,317.655365 523.596130,317.865662 523.913696,317.984619 
z" />
  <path fill="#80CBE6" d="
M619.050903,239.608948 
	C614.800659,237.481064 610.522400,234.899887 606.090210,232.617950 
	C603.816956,231.447617 601.268494,230.811935 598.287659,229.594025 
	C596.132568,228.435196 594.614807,227.350662 592.923706,226.838837 
	C568.698242,219.506531 540.678955,226.082993 521.650269,249.075287 
	C518.868042,253.481888 516.380066,257.715576 513.658325,262.130341 
	C513.284546,262.876678 513.144409,263.441925 512.760010,264.168152 
	C512.398254,264.884705 512.280823,265.440308 512.105713,266.235718 
	C512.048035,266.475555 511.987518,266.965210 511.708130,267.199280 
	C507.419037,278.313171 505.750244,289.441559 507.658447,301.078247 
	C507.055176,301.441132 506.661530,301.697693 506.267883,301.954254 
	C500.352844,273.626099 513.011780,244.588837 537.661743,229.942398 
	C562.744141,215.039047 593.540955,217.329620 615.488770,235.764191 
	C616.744202,236.818588 617.806763,238.102493 619.050903,239.608948 
z" />
  <path fill="#3877A4" d="
M647.021851,321.956299 
	C653.995239,329.432404 654.780273,338.447418 652.104065,347.543304 
	C649.393555,356.755615 642.798889,362.763855 633.210754,364.904388 
	C618.622375,368.161224 606.631287,360.759094 602.286743,345.229553 
	C603.538452,344.061615 604.432922,343.399750 605.537598,343.029541 
	C608.005127,352.118103 613.067505,358.670685 622.107239,360.627319 
	C630.765442,362.501373 638.796936,360.177887 644.356628,352.886902 
	C650.704895,344.561707 650.756165,335.498627 645.929565,325.948242 
	C646.304016,324.362915 646.662903,323.159607 647.021851,321.956299 
z" />
  <path fill="#287BBA" d="
M520.079956,331.341980 
	C522.561157,332.753876 525.292297,334.282135 527.624390,336.276947 
	C539.306580,346.269867 552.911072,351.752167 568.128784,351.779419 
	C578.092346,351.797272 588.466797,351.374969 597.065063,344.056763 
	C599.953308,351.109894 599.913208,351.224945 593.905090,353.404144 
	C568.412048,362.650665 536.549561,353.263489 520.079956,331.341980 
z" />
  <path fill="#46B1DD" d="
M605.327393,342.737915 
	C604.432922,343.399750 603.538452,344.061615 602.330078,344.853333 
	C602.016235,344.983185 602.001648,344.997253 602.043701,344.806152 
	C602.065979,344.348419 601.947693,344.136871 601.731079,343.980377 
	C601.561035,343.249390 601.391052,342.518372 601.445496,341.149231 
	C601.524597,338.995819 601.379333,337.480591 601.234009,335.965363 
	C603.890991,321.613953 614.333191,312.693359 628.562256,313.471527 
	C630.303101,315.183289 631.597168,316.424530 632.442627,317.590393 
	C615.674622,315.090698 604.565613,325.598267 605.327393,342.737915 
z" />
  <path fill="#0A1D30" d="
M629.064270,296.245850 
	C633.120728,295.819977 637.410156,295.308746 639.219971,300.940582 
	C639.219971,294.215485 639.219971,287.490356 639.378052,280.364380 
	C640.344849,283.661530 641.880798,287.378448 641.785400,291.053070 
	C641.655151,296.075562 640.501892,301.117798 639.330017,306.042755 
	C638.901917,307.841888 637.330200,309.501007 635.923889,310.853455 
	C635.510681,311.250793 633.874084,310.375916 632.798157,310.084137 
	C633.348999,308.343109 633.958984,306.617310 634.414490,304.851654 
	C634.550659,304.323639 634.255127,303.684204 633.933044,302.573395 
	C632.134888,301.006409 630.561035,299.961823 628.987183,298.917267 
	C629.005432,298.153809 629.023682,297.390381 629.064270,296.245850 
z" />
  <path fill="#3A99C5" d="
M632.891174,317.665802 
	C631.597168,316.424530 630.303101,315.183289 628.991699,313.565826 
	C636.289734,312.854095 641.712280,316.614838 646.848755,321.662750 
	C646.662903,323.159607 646.304016,324.362915 645.653076,325.737976 
	C641.204346,323.161713 637.047791,320.413757 632.891174,317.665802 
z" />
  <path fill="#3877A4" d="
M628.615112,298.958191 
	C630.561035,299.961823 632.134888,301.006409 633.634216,302.395966 
	C633.167847,303.060791 632.776001,303.380585 631.738220,303.861755 
	C628.402588,304.033813 625.712952,304.044495 623.023254,304.055206 
	C622.465637,302.802521 621.907959,301.549866 621.350342,300.297180 
	C622.658020,299.848999 623.939880,299.278595 625.282227,298.994293 
	C626.226501,298.794312 627.253174,298.983643 628.615112,298.958191 
z" />
  <path fill="#70C1DC" d="
M506.246521,302.336914 
	C506.661530,301.697693 507.055176,301.441132 507.722595,301.475372 
	C509.316803,305.879578 510.637238,309.992981 511.957672,314.106384 
	C511.957672,314.106384 511.949829,314.552704 511.975098,315.022705 
	C512.000366,315.492737 512.053162,315.985687 512.053162,315.985687 
	C512.020935,316.460205 511.988678,316.934753 511.940918,317.766602 
	C510.025330,312.989136 508.125214,307.854340 506.246521,302.336914 
z" />
  <path fill="#0A1D30" d="
M639.203369,275.805908 
	C638.355408,273.914276 637.767273,271.806519 637.271973,269.330780 
	C638.064270,271.171783 638.763672,273.380768 639.203369,275.805908 
z" />
  <path fill="#0A1D30" d="
M623.303345,304.328857 
	C625.712952,304.044495 628.402588,304.033813 631.540649,304.020813 
	C629.187195,304.213165 626.385254,304.407837 623.303345,304.328857 
z" />
  <path fill="#0A1D30" d="
M634.882446,260.988007 
	C633.936523,259.803345 633.046143,258.230591 632.160767,256.316223 
	C633.089844,257.516388 634.013855,259.058136 634.882446,260.988007 
z" />
  <path fill="#3877A4" d="
M601.104736,336.374512 
	C601.379333,337.480591 601.524597,338.995819 601.450684,340.770721 
	C601.146179,339.614838 601.060791,338.199249 601.104736,336.374512 
z" />
  <path fill="#0A1D30" d="
M636.872437,266.050720 
	C636.291260,265.477997 635.772156,264.539764 635.301941,263.280518 
	C635.878723,263.868134 636.406616,264.776703 636.872437,266.050720 
z" />
  <path fill="#70C1DC" d="
M515.856262,325.382141 
	C516.486145,325.854614 517.174561,326.643555 517.886658,327.767639 
	C517.245117,327.301361 516.580017,326.499969 515.856262,325.382141 
z" />
  <path fill="#0A1D30" d="
M588.857117,342.147736 
	C588.669800,342.456879 587.943726,342.744324 586.818237,343.008972 
	C586.418884,342.986176 586.404419,342.930450 586.375122,342.921997 
	C587.003357,342.651031 587.660889,342.388519 588.857117,342.147736 
z" />
  <path fill="#70C1DC" d="
M511.886414,318.336334 
	C512.201233,318.510529 512.550476,318.990814 512.918335,319.791199 
	C512.598328,319.621674 512.259583,319.132050 511.886414,318.336334 
z" />
  <path fill="#70C1DC" d="
M512.911255,320.325562 
	C513.212402,320.499023 513.547668,320.970398 513.904541,321.749390 
	C513.599243,321.579163 513.272339,321.101318 512.911255,320.325562 
z" />
  <path fill="#70C1DC" d="
M514.738647,323.394348 
	C515.106262,323.551117 515.491638,324.027100 515.881531,324.836243 
	C515.509521,324.684113 515.132874,324.198853 514.738647,323.394348 
z" />
  <path fill="#2FA1D9" d="
M517.860657,328.367798 
	C518.209778,328.446808 518.591187,328.808624 519.030945,329.442657 
	C518.690552,329.360138 518.291687,329.005371 517.860657,328.367798 
z" />
  <path fill="#80CBE6" d="
M621.113403,241.669312 
	C620.843323,241.774979 620.533813,241.587372 620.115234,241.145355 
	C620.362122,241.052658 620.718018,241.214355 621.113403,241.669312 
z" />
  <path fill="#80CBE6" d="
M620.030029,240.719543 
	C619.811829,240.798370 619.502563,240.614334 619.101929,240.168976 
	C619.320007,240.090652 619.629517,240.273666 620.030029,240.719543 
z" />
  <path fill="#0A1D30" d="
M631.843079,255.039185 
	C631.613342,255.060715 631.357056,254.806915 631.080811,254.276367 
	C631.312805,254.254364 631.564636,254.509125 631.843079,255.039185 
z" />
  <path fill="#0A1D30" d="
M630.797607,253.136948 
	C630.553223,253.167450 630.280273,252.892563 629.949646,252.327560 
	C630.184326,252.302155 630.476746,252.566849 630.797607,253.136948 
z" />
  <path fill="#0A1D30" d="
M628.815796,250.056641 
	C628.584839,250.091034 628.314270,249.836258 627.982239,249.304611 
	C628.205994,249.274323 628.491089,249.520905 628.815796,250.056641 
z" />
  <path fill="#80CBE6" d="
M622.257874,242.649887 
	C622.053955,242.754791 621.697510,242.581436 621.171082,242.161987 
	C621.369202,242.067795 621.737244,242.219711 622.257874,242.649887 
z" />
  <path fill="#287BBA" d="
M519.125977,330.228363 
	C519.442566,330.036102 519.699036,330.218109 519.931213,330.750458 
	C519.708618,330.819122 519.428223,330.653076 519.125977,330.228363 
z" />
  <path fill="#70C1DC" d="
M513.994507,322.340942 
	C514.203674,322.283142 514.475769,322.496460 514.829834,322.965332 
	C514.627075,323.017944 514.342285,322.815033 513.994507,322.340942 
z" />
  <path fill="#3877A4" d="
M601.622681,344.164246 
	C601.947693,344.136871 602.065979,344.348419 602.050842,344.799011 
	C601.703369,344.886017 601.536133,344.674408 601.622681,344.164246 
z" />
  <path fill="#0A1D30" d="
M592.005493,341.122192 
	C592.005676,341.329071 591.760132,341.545105 591.264404,341.747406 
	C591.174622,341.423859 591.423157,341.223114 592.005493,341.122192 
z" />
  <path fill="#061422" d="
M589.159302,267.980011 
	C593.287109,263.960175 597.091248,259.503876 601.678040,256.102936 
	C604.003967,254.378296 607.382812,258.205017 606.311707,261.499756 
	C605.728577,263.293671 604.407288,265.000671 603.034424,266.357758 
	C597.702881,271.627930 592.044800,276.576782 586.860596,281.983032 
	C584.217834,284.738953 581.963501,288.021332 580.169434,291.403107 
	C577.010864,297.356720 569.148560,298.594055 566.107300,292.815521 
	C563.817932,288.465546 560.258484,286.290649 556.604858,283.811798 
	C553.438171,281.663269 549.946106,279.818481 547.308411,277.139740 
	C545.970825,275.781281 546.201721,272.878265 545.723572,270.673553 
	C547.941528,270.281860 550.700623,268.862457 552.275818,269.691711 
	C556.952698,272.153931 561.244751,275.390656 565.533203,278.534729 
	C569.757996,281.632233 573.065979,281.618744 577.063354,278.137695 
	C579.784973,275.767578 582.553284,273.451050 585.634460,271.464294 
	C583.716980,274.436890 581.327576,276.954315 579.290161,279.730072 
	C578.582153,280.694672 578.745361,282.298676 578.510620,283.610657 
	C579.651062,283.254333 581.093018,283.223511 581.884399,282.490417 
	C588.341553,276.508484 594.737610,270.456421 600.993530,264.265289 
	C602.101074,263.169159 602.470398,261.327148 603.180664,259.829590 
	C602.683655,259.518280 602.186646,259.207001 601.689636,258.895691 
	C599.659668,260.492615 597.676208,262.153595 595.586792,263.668457 
	C593.499451,265.181793 591.306152,266.548828 589.159302,267.980011 
M552.934448,273.333801 
	C551.393677,272.845337 549.852844,272.356873 548.312073,271.868378 
	C547.994202,272.454071 547.676392,273.039734 547.358582,273.625427 
	C552.315674,278.824921 558.815491,281.953857 565.535095,285.273346 
	C565.496948,283.355560 565.003174,281.603699 563.846375,280.713562 
	C560.571594,278.193665 557.025269,276.026642 552.934448,273.333801 
M570.241211,292.818481 
	C572.542053,292.187958 575.103638,291.961182 577.014709,290.726990 
	C577.772583,290.237488 577.765320,286.694702 576.909119,285.983551 
	C575.370789,284.705719 572.855469,283.816345 570.878723,284.021484 
	C567.014282,284.422455 566.556946,288.025055 570.241211,292.818481 
z" />
  <path fill="#2F5F90" d="
M589.039734,268.283447 
	C591.306152,266.548828 593.499451,265.181793 595.586792,263.668457 
	C597.676208,262.153595 599.659668,260.492615 601.689636,258.895691 
	C602.186646,259.207001 602.683655,259.518280 603.180664,259.829590 
	C602.470398,261.327148 602.101074,263.169159 600.993530,264.265289 
	C594.737610,270.456421 588.341553,276.508484 581.884399,282.490417 
	C581.093018,283.223511 579.651062,283.254333 578.510620,283.610657 
	C578.745361,282.298676 578.582153,280.694672 579.290161,279.730072 
	C581.327576,276.954315 583.716980,274.436890 585.983276,271.475647 
	C586.972351,270.284485 587.946228,269.435669 589.039734,268.283447 
z" />
  <path fill="#111313" d="
M566.862183,311.590820 
	C573.297974,314.587982 578.394531,312.690826 584.007324,308.430420 
	C583.882996,309.669586 584.181824,311.201935 583.561340,312.097260 
	C580.833374,316.033508 573.134399,317.897919 567.601135,315.809174 
	C564.383057,314.594391 560.894226,313.148682 560.704956,307.255768 
	C563.303589,309.085693 564.925171,310.227570 566.862183,311.590820 
z" />
  <path fill="#111313" d="
M602.900574,302.870361 
	C602.218689,302.944244 601.742615,302.974182 601.613892,302.777222 
	C598.885193,298.602203 596.125244,297.972778 593.240601,303.286346 
	C592.811462,303.057922 592.382324,302.829498 591.953186,302.601105 
	C592.052124,301.061462 591.644287,298.516754 592.342163,298.164825 
	C594.730347,296.960602 597.683655,295.587921 600.089478,296.041168 
	C602.956482,296.581299 605.287415,299.026764 602.900574,302.870361 
z" />
  <path fill="#111313" d="
M553.636047,300.106537 
	C553.260132,301.269714 552.820496,302.085541 552.104797,303.413574 
	C549.248962,299.102539 546.336426,297.260132 543.309082,303.088928 
	C540.668030,300.007324 541.894836,297.916260 544.252258,296.342834 
	C547.451904,294.207184 550.943298,295.592957 553.636047,300.106537 
z" />
  <path fill="#3877A4" d="
M619.564026,286.014709 
	C620.028320,287.708466 620.057861,289.357452 619.854492,291.239441 
	C617.823059,291.563995 615.953552,291.991455 614.250854,291.630920 
	C613.086731,291.384430 612.155273,290.039185 611.119812,289.185211 
	C612.146057,288.133728 612.998657,286.617432 614.243958,286.152252 
	C615.692932,285.610992 617.485718,285.990204 619.564026,286.014709 
z" />
  <path fill="#3877A4" d="
M525.434937,291.541962 
	C524.884888,289.877228 524.755859,288.320129 524.816528,286.486572 
	C526.645752,286.139160 528.393372,285.684387 529.893860,286.106964 
	C531.344604,286.515533 532.540833,287.827820 533.848816,288.743164 
	C532.491089,289.815643 531.266235,291.201569 529.729980,291.853149 
	C528.659851,292.306976 527.162476,291.753235 525.434937,291.541962 
z" />
  <path fill="#2F5F90" d="
M569.692383,241.523727 
	C571.183960,240.688797 572.655151,240.287308 574.430664,239.975708 
	C574.885620,242.075974 575.036316,244.086380 575.049011,246.753418 
	C574.898254,247.581863 574.885437,247.753677 574.872620,247.925507 
	C570.096863,249.978943 569.453186,249.240234 569.692383,241.523727 
z" />
  <path fill="#3877A4" d="
M575.178589,333.565643 
	C574.329102,335.237274 573.456177,336.547943 572.583252,337.858643 
	C571.654175,336.796448 570.725098,335.734222 569.652283,334.306458 
	C569.932678,331.043274 568.959045,326.563202 574.750122,330.027557 
	C575.036743,330.714996 575.109619,330.874725 575.182556,331.034424 
	C575.173401,331.757843 575.164307,332.481262 575.178589,333.565643 
z" />
  <path fill="#AFD5E3" d="
M575.054260,247.888794 
	C574.885437,247.753677 574.898254,247.581863 575.043091,247.187805 
	C575.278198,247.171127 575.404968,247.369720 575.469177,247.586823 
	C575.486877,247.647003 575.318726,247.762146 575.054260,247.888794 
z" />
  <path fill="#AFD5E3" d="
M575.312927,330.911743 
	C575.109619,330.874725 575.036743,330.714996 574.958740,330.292114 
	C575.116943,330.282288 575.280090,330.535675 575.312927,330.911743 
z" />
  <path fill="#0A1017" d="
M575.017822,344.871521 
	C572.960876,344.910645 570.903931,344.949738 568.411621,344.909607 
	C566.040588,343.870331 564.104919,342.910339 562.090210,341.626404 
	C568.913818,341.244934 575.816467,341.146545 582.718750,341.171143 
	C583.831360,341.175110 584.942017,341.727112 585.793823,342.465973 
	C585.534058,342.906158 585.456543,343.185944 584.964478,343.124329 
	C583.652832,343.367554 582.833252,343.672424 582.013611,343.977295 
	C582.013611,343.977264 581.988220,344.019806 581.851074,343.993164 
	C581.713867,343.966522 581.271545,344.109344 581.271545,344.109375 
	C580.451843,344.327057 579.632141,344.544739 578.177917,344.540527 
	C576.701538,344.502899 575.859680,344.687225 575.017822,344.871521 
z" />
  <path fill="#0A1017" d="
M558.795776,340.622406 
	C558.452332,340.841553 557.840149,340.853546 557.213379,340.536316 
	C557.641541,340.276459 558.084290,340.345856 558.795776,340.622406 
z" />
  <path fill="#21ACE8" d="
M513.004272,264.007202 
	C513.144409,263.441925 513.284546,262.876678 514.014404,262.102905 
	C517.003967,257.537109 522.272766,254.800842 521.944519,248.902359 
	C540.678955,226.082993 568.698242,219.506531 592.923706,226.838837 
	C594.614807,227.350662 596.132568,228.435196 597.899658,229.559967 
	C598.138611,233.999649 595.529602,234.972610 592.502869,233.565460 
	C584.212463,229.711197 575.486267,229.484604 566.732239,230.130676 
	C562.813538,230.419891 558.999268,232.123367 555.053772,233.548676 
	C554.969971,233.912308 554.592896,234.065186 553.969482,234.037750 
	C550.576416,235.353607 547.806763,236.696899 545.037170,238.040176 
	C545.037170,238.040176 544.997559,238.006470 544.785217,238.106094 
	C544.277649,238.396774 544.091858,238.663925 544.015381,239.007187 
	C544.015381,239.007187 544.002441,239.001633 543.686768,239.017212 
	C542.932373,239.423187 542.493652,239.813599 542.054932,240.203979 
	C541.698853,240.493378 541.342773,240.782791 540.433899,241.138763 
	C539.603577,241.504623 539.326172,241.803879 539.048767,242.103149 
	C539.048767,242.103165 539.025879,242.019684 538.819336,242.108551 
	C538.412415,242.457367 538.211975,242.717316 538.011536,242.977264 
	C538.011536,242.977249 538.006226,243.010513 537.678833,243.021210 
	C536.969360,243.447678 536.587341,243.863449 536.205322,244.279236 
	C536.205322,244.279251 536.079651,244.170212 535.882690,244.225647 
	C535.508850,244.586166 535.332092,244.891251 535.155334,245.196320 
	C535.155334,245.196335 535.041321,245.078110 534.846680,245.172363 
	C534.479187,245.571777 534.306335,245.876923 534.133545,246.182068 
	C534.133545,246.182068 534.050720,246.077454 533.847290,246.164795 
	C533.462036,246.550079 533.280212,246.848022 533.098450,247.145950 
	C533.098450,247.145950 533.041321,247.050537 532.832764,247.148621 
	C532.448120,247.546860 532.272034,247.847031 532.095947,248.147186 
	C532.095947,248.147202 532.049683,248.053741 531.837891,248.149475 
	C531.449463,248.546249 531.272705,248.847275 531.096008,249.148315 
	C531.096008,249.148315 531.052429,249.055267 530.839355,249.151154 
	C530.451660,249.550598 530.276978,249.854141 530.102356,250.157684 
	C530.102356,250.157684 530.063416,250.063812 529.847900,250.156708 
	C529.461792,250.556534 529.291138,250.863464 529.120422,251.170395 
	C529.120422,251.170395 529.164368,251.073425 528.791748,251.067017 
	C527.263855,251.583267 525.557556,251.790207 525.046753,252.681961 
	C522.530151,257.075226 519.764893,261.458374 518.156311,266.207153 
	C515.929321,272.781464 514.656616,279.679047 512.572021,288.059753 
	C511.388062,285.549316 510.015350,284.023407 510.113464,282.598816 
	C510.473755,277.369385 511.322540,272.173645 511.987518,266.965210 
	C511.987518,266.965210 512.048035,266.475555 512.380615,266.201111 
	C512.810181,265.286835 512.907227,264.647034 513.004272,264.007202 
z" />
  <path fill="#2FA1D9" d="
M511.708130,267.199280 
	C511.322540,272.173645 510.473755,277.369385 510.113464,282.598816 
	C510.015350,284.023407 511.388062,285.549316 512.572021,288.059753 
	C514.656616,279.679047 515.929321,272.781464 518.156311,266.207153 
	C519.764893,261.458374 522.530151,257.075226 525.046753,252.681961 
	C525.557556,251.790207 527.263855,251.583267 528.802246,251.119202 
	C522.994812,259.712616 517.432495,268.760956 516.882690,279.476227 
	C516.447449,287.959564 517.731873,296.531128 518.246582,305.472778 
	C516.712585,305.554810 514.528015,304.458649 513.805908,305.075226 
	C512.634521,306.075439 512.261719,308.160980 511.862640,309.861298 
	C511.611084,310.932983 511.925842,312.137573 511.972107,313.694458 
	C510.637238,309.992981 509.316803,305.879578 507.932220,301.369049 
	C505.750244,289.441559 507.419037,278.313171 511.708130,267.199280 
z" />
  <path fill="#2FA1D9" d="
M545.404785,238.009521 
	C547.806763,236.696899 550.576416,235.353607 553.766052,234.039459 
	C551.381531,235.372025 548.576965,236.675446 545.404785,238.009521 
z" />
  <path fill="#2FA1D9" d="
M519.196899,308.568787 
	C518.812744,308.130371 518.438416,307.356018 518.118286,306.226685 
	C518.517151,306.658752 518.861938,307.445801 519.196899,308.568787 
z" />
  <path fill="#2FA1D9" d="
M542.348999,240.149338 
	C542.493652,239.813599 542.932373,239.423187 543.686646,239.023987 
	C543.549072,239.375015 543.096069,239.734848 542.348999,240.149338 
z" />
  <path fill="#2FA1D9" d="
M536.492737,244.240479 
	C536.587341,243.863449 536.969360,243.447678 537.662231,243.018463 
	C537.575439,243.403931 537.177795,243.802841 536.492737,244.240479 
z" />
  <path fill="#2FA1D9" d="
M522.071655,314.659973 
	C521.750366,314.496826 521.403198,314.038727 521.050415,313.274292 
	C521.378479,313.433624 521.712158,313.899323 522.071655,314.659973 
z" />
  <path fill="#2FA1D9" d="
M523.108765,316.635101 
	C522.781189,316.472473 522.425537,316.010864 522.072021,315.236084 
	C522.409607,315.393982 522.745239,315.865082 523.108765,316.635101 
z" />
  <path fill="#2FA1D9" d="
M521.025452,312.670105 
	C520.716614,312.493591 520.388306,312.021210 520.062866,311.242340 
	C520.379150,311.415344 520.692566,311.894806 521.025452,312.670105 
z" />
  <path fill="#2FA1D9" d="
M520.076050,310.656067 
	C519.753967,310.476746 519.424316,309.994537 519.125427,309.199158 
	C519.460266,309.375031 519.764343,309.864075 520.076050,310.656067 
z" />
  <path fill="#2FA1D9" d="
M544.270386,238.958405 
	C544.091858,238.663925 544.277649,238.396774 544.806396,238.118500 
	C544.868347,238.324066 544.696838,238.616852 544.270386,238.958405 
z" />
  <path fill="#2FA1D9" d="
M538.265381,242.925537 
	C538.211975,242.717316 538.412415,242.457367 538.856567,242.130585 
	C538.906616,242.333755 538.712891,242.603790 538.265381,242.925537 
z" />
  <path fill="#2FA1D9" d="
M539.352051,242.044037 
	C539.326172,241.803879 539.603577,241.504623 540.198059,241.165329 
	C540.228516,241.411850 539.941956,241.698395 539.352051,242.044037 
z" />
  <path fill="#2FA1D9" d="
M532.359497,248.077820 
	C532.272034,247.847031 532.448120,247.546860 532.883667,247.171143 
	C532.969727,247.399887 532.796387,247.704178 532.359497,248.077820 
z" />
  <path fill="#2FA1D9" d="
M533.363586,247.084396 
	C533.280212,246.848022 533.462036,246.550079 533.908691,246.190765 
	C533.992004,246.427200 533.810364,246.725021 533.363586,247.084396 
z" />
  <path fill="#2FA1D9" d="
M534.400452,246.122269 
	C534.306335,245.876923 534.479187,245.571777 534.920288,245.208710 
	C535.014893,245.454697 534.841125,245.758575 534.400452,246.122269 
z" />
  <path fill="#2FA1D9" d="
M531.359497,249.077759 
	C531.272705,248.847275 531.449463,248.546249 531.886230,248.169037 
	C531.971924,248.397644 531.797485,248.702438 531.359497,249.077759 
z" />
  <path fill="#2FA1D9" d="
M530.365906,250.085449 
	C530.276978,249.854141 530.451660,249.550598 530.887207,249.169922 
	C530.975220,249.399597 530.802307,249.706390 530.365906,250.085449 
z" />
  <path fill="#2FA1D9" d="
M529.386108,251.101990 
	C529.291138,250.863464 529.461792,250.556534 529.895630,250.174301 
	C529.989746,250.410522 529.820801,250.722046 529.386108,251.101990 
z" />
  <path fill="#2FA1D9" d="
M535.421265,245.144348 
	C535.332092,244.891251 535.508850,244.586166 535.962524,244.249039 
	C536.055237,244.508789 535.871216,244.800583 535.421265,245.144348 
z" />
  <path fill="#2FA1D9" d="
M523.878296,317.736023 
	C523.596130,317.865662 523.359924,317.655365 523.142517,317.119263 
	C523.334351,317.085663 523.588562,317.286560 523.878296,317.736023 
z" />
  <path fill="#0A1D30" d="
M582.351501,344.021606 
	C582.833252,343.672424 583.652832,343.367554 584.820190,343.140259 
	C584.341797,343.500549 583.515564,343.783264 582.351501,344.021606 
z" />
  <path fill="#0A1D30" d="
M575.385254,344.940857 
	C575.859680,344.687225 576.701538,344.502899 577.750549,344.516388 
	C577.222717,344.812866 576.487671,344.911530 575.385254,344.940857 
z" />
  <path fill="#2FA1D9" d="
M512.211670,315.891846 
	C512.053162,315.985687 512.000366,315.492737 511.996948,315.244843 
	C512.119019,315.263977 512.244568,315.530975 512.211670,315.891846 
z" />
  <path fill="#0A1D30" d="
M581.380615,344.206360 
	C581.271545,344.109344 581.713867,343.966522 581.830444,343.979370 
	C581.868347,344.204773 581.715881,344.308502 581.380615,344.206360 
z" />
  <path fill="#2FA1D9" d="
M521.650269,249.075287 
	C522.272766,254.800842 517.003967,257.537109 514.248169,261.921814 
	C516.380066,257.715576 518.868042,253.481888 521.650269,249.075287 
z" />
  <path fill="#2FA1D9" d="
M512.760010,264.168152 
	C512.907227,264.647034 512.810181,265.286835 512.438232,265.961273 
	C512.280823,265.440308 512.398254,264.884705 512.760010,264.168152 
z" />
  <path fill="#061422" d="
M632.442627,317.590393 
	C637.047791,320.413757 641.204346,323.161713 645.637451,326.119934 
	C650.756165,335.498627 650.704895,344.561707 644.356628,352.886902 
	C638.796936,360.177887 630.765442,362.501373 622.107239,360.627319 
	C613.067505,358.670685 608.005127,352.118103 605.537598,343.029541 
	C604.565613,325.598267 615.674622,315.090698 632.442627,317.590393 
M634.784851,321.102631 
	C632.201599,320.744751 629.618286,320.386871 626.213745,319.903107 
	C623.808899,320.420837 621.221008,320.535004 619.031494,321.527679 
	C610.530518,325.381897 606.242065,334.949829 608.693237,343.952820 
	C611.272705,353.426544 619.480652,359.525330 628.493896,358.665344 
	C639.181641,357.645569 645.631470,350.633453 646.725525,338.393005 
	C645.975525,330.747040 643.133850,324.506744 634.784851,321.102631 
z" />
  <path fill="#2F5F90" d="
M553.260193,273.527222 
	C557.025269,276.026642 560.571594,278.193665 563.846375,280.713562 
	C565.003174,281.603699 565.496948,283.355560 565.535095,285.273346 
	C558.815491,281.953857 552.315674,278.824921 547.358582,273.625427 
	C547.676392,273.039734 547.994202,272.454071 548.312073,271.868378 
	C549.852844,272.356873 551.393677,272.845337 553.260193,273.527222 
z" />
  <path fill="#3877A4" d="
M569.904358,292.595886 
	C566.556946,288.025055 567.014282,284.422455 570.878723,284.021484 
	C572.855469,283.816345 575.370789,284.705719 576.909119,285.983551 
	C577.765320,286.694702 577.772583,290.237488 577.014709,290.726990 
	C575.103638,291.961182 572.542053,292.187958 569.904358,292.595886 
z" />
  <path fill="#FAFBFA" d="
M646.450745,339.143219 
	C645.631470,350.633453 639.181641,357.645569 628.493896,358.665344 
	C619.480652,359.525330 611.272705,353.426544 608.693237,343.952820 
	C606.242065,334.949829 610.530518,325.381897 619.031494,321.527679 
	C621.221008,320.535004 623.808899,320.420837 626.628662,320.327942 
	C626.987915,321.474548 626.932251,322.196289 626.554688,323.191528 
	C626.158325,325.270630 626.161560,327.083679 625.988708,328.879791 
	C625.792847,330.915283 626.156677,333.625122 625.007141,334.821289 
	C622.492310,337.438171 621.557007,339.952728 624.186584,342.455841 
	C627.076904,345.207245 629.904724,343.809448 632.477295,341.010620 
	C633.560486,340.719849 634.325989,340.442963 635.528687,340.187042 
	C638.303162,340.170441 640.640442,340.132812 643.147583,340.287048 
	C644.361816,340.033661 645.406311,339.588440 646.450745,339.143219 
z" />
  <path fill="#E5BE85" d="
M646.588135,338.768127 
	C645.406311,339.588440 644.361816,340.033661 643.282532,339.973694 
	C643.452393,337.987427 643.657104,336.506409 643.856323,334.679443 
	C643.492432,333.241547 643.134094,332.149597 642.739258,330.828247 
	C642.548035,330.292206 642.299194,330.128967 641.688232,329.907471 
	C639.301270,327.783264 637.182434,325.860687 635.038940,323.619568 
	C635.001709,322.875244 634.989136,322.449432 635.085266,321.906525 
	C635.194031,321.789398 635.406128,321.550262 635.406128,321.550262 
	C643.133850,324.506744 645.975525,330.747040 646.588135,338.768127 
z" />
  <path fill="#E5BE85" d="
M626.876587,322.918030 
	C626.932251,322.196289 626.987915,321.474548 627.039307,320.390900 
	C629.618286,320.386871 632.201599,320.744751 635.095459,321.326447 
	C635.406128,321.550262 635.194031,321.789398 634.685547,321.911377 
	C633.109009,322.043457 632.040894,322.053528 630.608765,322.122192 
	C629.738708,322.962769 629.232666,323.744720 628.505615,324.303436 
	C627.815247,323.692810 627.345947,323.305420 626.876587,322.918030 
z" />
  <path fill="#111313" d="
M626.554688,323.191528 
	C627.345947,323.305420 627.815247,323.692810 628.473877,324.419800 
	C628.663086,324.759430 628.836365,324.926971 628.837158,325.383118 
	C627.980774,330.820251 629.148621,335.242401 632.383423,339.383240 
	C632.239014,340.142365 632.199280,340.583405 632.159546,341.024475 
	C629.904724,343.809448 627.076904,345.207245 624.186584,342.455841 
	C621.557007,339.952728 622.492310,337.438171 625.007141,334.821289 
	C626.156677,333.625122 625.792847,330.915283 625.988708,328.879791 
	C626.161560,327.083679 626.158325,325.270630 626.554688,323.191528 
z" />
  <path fill="#E3AA4C" d="
M632.488159,339.065155 
	C629.148621,335.242401 627.980774,330.820251 629.157715,325.635895 
	C629.667480,327.217804 629.357727,329.278748 630.157166,330.727844 
	C631.585632,333.317261 633.225159,336.543365 635.626465,337.636963 
	C638.160706,338.791046 642.200500,339.247437 643.861816,335.025360 
	C643.657104,336.506409 643.452393,337.987427 643.112732,339.781830 
	C640.640442,340.132812 638.303162,340.170441 635.287842,340.027405 
	C633.902649,339.586212 633.195435,339.325684 632.488159,339.065155 
z" />
  <path fill="#E5BE85" d="
M632.383423,339.383240 
	C633.195435,339.325684 633.902649,339.586212 634.850708,340.006409 
	C634.325989,340.442963 633.560486,340.719849 632.477234,341.010620 
	C632.199280,340.583405 632.239014,340.142365 632.383423,339.383240 
z" />
  <path fill="#F4942B" d="
M643.856323,334.679443 
	C642.200500,339.247437 638.160706,338.791046 635.626465,337.636963 
	C633.225159,336.543365 631.585632,333.317261 630.157166,330.727844 
	C629.357727,329.278748 629.667480,327.217804 629.156921,325.179749 
	C628.836365,324.926971 628.663086,324.759430 628.694885,324.643066 
	C629.232666,323.744720 629.738708,322.962769 630.817139,322.368988 
	C632.614258,323.017487 633.838928,323.477783 635.063599,323.938080 
	C637.182434,325.860687 639.301270,327.783264 641.783325,330.098480 
	C642.307007,330.734650 642.516785,330.923492 642.775757,331.057678 
	C643.134094,332.149597 643.492432,333.241547 643.856323,334.679443 
z" />
  <path fill="#E3AA4C" d="
M635.038940,323.619568 
	C633.838928,323.477783 632.614258,323.017487 631.181213,322.310364 
	C632.040894,322.053528 633.109009,322.043457 634.576782,322.028503 
	C634.989136,322.449432 635.001709,322.875244 635.038940,323.619568 
z" />
  <path fill="#E3AA4C" d="
M642.739258,330.828247 
	C642.516785,330.923492 642.307007,330.734650 642.051392,330.300110 
	C642.299194,330.128967 642.548035,330.292206 642.739258,330.828247 
z" />
</svg>