<svg xmlns="http://www.w3.org/2000/svg" viewBox="930.724774 383.05093050000005 190.63333799999992 190.63333799999992">
  <path fill="#090E13" d="
M1045.653198,521.830566 
	C1045.129272,526.921204 1045.100220,531.656433 1044.056152,536.156189 
	C1043.396484,538.998657 1041.852661,542.399353 1039.602783,543.961548 
	C1033.628052,548.110107 1027.210571,551.713074 1020.673340,554.932373 
	C1014.854065,557.798157 1010.657593,554.936646 1010.085388,548.307129 
	C1009.111816,537.028625 1008.303711,525.734314 1007.172852,514.472168 
	C1006.956848,512.320740 1006.009827,509.933044 1004.655945,508.254486 
	C993.475952,494.394348 982.142151,480.657867 970.790405,466.937347 
	C969.425903,465.288116 967.796082,463.799072 966.085693,462.504700 
	C952.409302,452.154541 953.731750,434.894592 968.944580,426.932831 
	C981.762329,420.224548 995.892883,418.825592 1009.935059,417.146332 
	C1011.062866,417.011505 1012.195007,416.913269 1013.908630,416.738495 
	C1013.908630,413.146759 1013.924438,409.700623 1013.904724,406.254700 
	C1013.877991,401.587738 1016.086304,399.089966 1020.842834,399.053253 
	C1024.839478,399.022400 1028.838013,398.937042 1032.832642,399.018158 
	C1036.837280,399.099457 1038.968872,401.216431 1039.002075,405.274475 
	C1039.031860,408.908234 1039.008301,412.542419 1039.008301,416.002869 
	C1048.850830,417.693848 1058.463623,418.732269 1067.723633,421.131683 
	C1075.028442,423.024475 1082.287476,425.899445 1088.867432,429.586395 
	C1097.693848,434.532043 1099.673584,452.883362 1091.718140,458.976685 
	C1083.444092,465.313995 1077.984375,473.808960 1071.283081,481.331268 
	C1063.757202,489.779144 1056.890137,498.813873 1049.364136,507.261627 
	C1045.550903,511.541870 1046.329956,516.527222 1045.653198,521.830566 
M1047.541382,501.908844 
	C1047.703125,501.608124 1047.864868,501.307404 1047.998657,501.000122 
	C1047.998657,501.000122 1048.012939,501.025543 1048.548218,500.751495 
	C1048.780518,500.217804 1049.012939,499.684113 1049.147095,499.196472 
	C1049.147095,499.196472 1049.246216,499.240417 1049.836792,499.084137 
	C1050.278564,498.431122 1050.720459,497.778107 1051.110229,497.049530 
	C1051.110229,497.049530 1051.082520,497.136932 1051.606201,496.966278 
	C1051.794922,496.659363 1051.983643,496.352448 1052.672607,495.769562 
	C1053.100586,495.152802 1053.528564,494.536011 1054.487793,493.669830 
	C1054.730225,493.153717 1054.972656,492.637604 1055.117432,492.148712 
	C1055.117432,492.148712 1055.194580,492.214508 1055.789795,492.061127 
	C1056.251831,491.419830 1056.713867,490.778534 1057.118530,490.065216 
	C1057.118530,490.065216 1057.089478,490.152802 1057.619263,489.977631 
	C1057.832153,489.679291 1058.044922,489.380981 1058.650635,488.890869 
	C1058.882690,488.690063 1059.016846,488.437256 1059.579590,487.829865 
	C1059.826538,487.298615 1060.073486,486.767395 1060.171143,486.051147 
	C1060.171143,486.051147 1060.272339,486.266235 1060.781250,486.116882 
	C1060.936279,485.811249 1061.091431,485.505615 1061.075195,485.148468 
	C1061.075195,485.148468 1061.216431,485.258362 1061.814941,485.086639 
	C1062.260986,484.417633 1062.706909,483.748657 1063.044067,483.032227 
	C1063.044067,483.032227 1063.115479,483.126953 1063.642578,482.839661 
	C1063.870117,482.306549 1064.097656,481.773468 1064.229248,481.046082 
	C1064.229248,481.046082 1064.271606,481.258484 1064.785889,481.103577 
	C1064.930786,480.787109 1065.075562,480.470642 1065.113403,480.074982 
	C1065.113403,480.074982 1065.159790,480.199677 1065.671143,480.022766 
	C1065.830811,479.709564 1065.990479,479.396393 1066.030273,479.065216 
	C1066.030273,479.065216 1066.127808,479.137146 1066.727295,478.839935 
	C1069.326050,475.823700 1071.985474,472.856049 1074.472656,469.750488 
	C1074.974243,469.124237 1074.822998,467.975189 1074.973145,466.222931 
	C1074.890503,465.380524 1074.807983,464.538086 1074.763672,463.717285 
	C1074.763672,463.717285 1074.802979,463.736786 1075.568848,463.912659 
	C1076.712769,463.285522 1077.856689,462.658386 1079.260010,461.819153 
	C1079.260010,461.819153 1079.595093,461.812897 1080.159058,461.814301 
	C1080.437744,461.580048 1080.716431,461.345795 1081.297241,460.885315 
	C1081.297241,460.885315 1081.673462,460.852936 1082.221069,460.823364 
	C1082.478882,460.579681 1082.736694,460.336029 1083.245239,459.857025 
	C1083.245239,459.857025 1083.586426,459.815369 1084.181396,459.769073 
	C1084.440430,459.484924 1084.699585,459.200775 1084.981689,458.994202 
	C1084.981689,458.994202 1084.916382,458.946350 1085.383301,458.854126 
	C1085.689697,458.711700 1085.893921,458.479462 1086.224487,457.893524 
	C1086.224487,457.893524 1086.565430,457.817749 1087.196167,457.714020 
	C1087.419800,457.372131 1087.643433,457.030243 1088.230225,456.087311 
	C1091.630493,452.945740 1091.265503,448.938507 1091.023804,444.082092 
	C1092.213013,438.752136 1089.905518,434.940399 1085.300903,432.804840 
	C1080.202026,430.440094 1074.812500,428.702332 1069.029541,426.248688 
	C1068.361694,426.177917 1067.693848,426.107178 1066.451904,425.719696 
	C1065.609619,425.544952 1064.767456,425.370209 1063.194214,424.910278 
	C1058.867554,424.083557 1054.540771,423.256805 1049.726685,422.088104 
	C1049.143799,422.092621 1048.560913,422.097107 1047.321289,422.032074 
	C1046.881470,422.017639 1046.441650,422.003204 1045.413208,421.461945 
	C1042.852295,421.317474 1039.979004,419.916779 1038.251465,424.225800 
	C1040.749634,424.225800 1043.247681,424.225800 1046.216553,424.686127 
	C1047.171265,425.755341 1048.125854,426.824585 1049.176636,428.790710 
	C1049.263672,429.078522 1049.350830,429.366302 1049.346436,430.324127 
	C1043.615479,436.039978 1037.869751,441.740936 1032.158569,447.476593 
	C1027.972290,451.680847 1025.924561,451.916199 1021.688904,447.829926 
	C1017.756836,444.036469 1013.979004,440.047546 1010.468933,435.863098 
	C1007.488525,432.310089 1004.233032,430.114471 998.582886,430.989471 
	C998.062012,430.371277 997.541138,429.753052 997.621521,428.952576 
	C998.879395,428.909698 1000.137268,428.866852 1002.191345,428.928894 
	C1003.115234,428.605804 1004.039062,428.282715 1004.934387,427.411835 
	C1004.853821,427.247650 1004.773254,427.083496 1004.821167,426.340759 
	C1004.955322,425.969299 1005.089417,425.597839 1006.019836,425.141815 
	C1008.875610,424.694458 1011.731384,424.247131 1014.587158,423.799774 
	C1014.617798,423.279266 1014.648376,422.758759 1014.679016,422.238251 
	C1011.777222,419.868744 1008.354980,421.868439 1004.227844,422.507721 
	C993.195618,425.337341 982.013245,427.697479 971.184326,431.162506 
	C964.033936,433.450470 960.921082,439.205719 962.322815,447.671692 
	C961.911255,452.689392 964.343933,456.267303 968.479126,458.543243 
	C972.811584,460.927795 977.410156,462.828827 982.593079,464.970245 
	C982.823547,464.931152 983.054016,464.892090 983.873291,464.800140 
	C984.249695,464.910950 984.626099,465.021759 985.288635,465.751709 
	C984.979614,466.679413 984.670593,467.607117 983.627075,468.533722 
	C982.186340,468.245331 980.745667,467.956970 978.900513,467.253937 
	C978.431152,467.270660 977.961792,467.287384 977.492432,467.304108 
	C977.854797,467.695160 978.217163,468.086212 978.867188,469.079041 
	C988.446960,480.749054 998.162964,492.311646 1007.507141,504.167328 
	C1009.740723,507.001251 1011.685242,510.693268 1012.122559,514.195374 
	C1013.477844,525.049500 1014.010193,536.004883 1014.930115,546.915283 
	C1015.333069,551.694702 1015.880615,551.896973 1021.044739,549.209656 
	C1024.685181,547.125244 1028.325562,545.040833 1032.658691,542.830505 
	C1037.290771,540.945984 1039.331055,537.601624 1039.642822,532.509216 
	C1040.118042,524.747131 1041.275391,517.026855 1042.637817,508.888763 
	C1042.837402,508.298218 1043.036987,507.707642 1043.132935,507.084137 
	C1043.132935,507.084137 1043.146118,507.192078 1043.656738,506.996857 
	C1043.834351,506.684937 1044.011963,506.373047 1044.607666,505.816864 
	C1044.788818,505.379944 1044.970093,504.943024 1045.660278,504.166260 
	C1045.827515,503.805389 1045.994751,503.444519 1046.070679,503.078735 
	C1046.070679,503.078735 1046.108887,503.161896 1046.621460,502.986359 
	C1046.781738,502.672943 1046.942017,502.359497 1047.024170,502.023346 
	C1047.024170,502.023346 1047.051147,502.099945 1047.541382,501.908844 
M1041.960327,431.454529 
	C1042.912354,430.304626 1043.864258,429.154724 1045.542480,427.127625 
	C1041.296387,427.127625 1038.374268,427.127625 1034.792969,427.127625 
	C1034.792969,420.276276 1034.925049,413.816437 1034.690552,407.369934 
	C1034.638916,405.946838 1033.348633,403.408478 1032.528564,403.367004 
	C1028.101196,403.143188 1023.325684,402.702026 1019.368408,404.191162 
	C1018.005432,404.704010 1018.627563,410.565155 1018.400330,413.986938 
	C1018.312256,415.312897 1018.385925,416.649384 1018.380859,417.981079 
	C1018.345947,427.125946 1018.345459,427.121552 1009.500305,427.415558 
	C1009.315857,427.421692 1009.146240,427.876587 1008.659729,428.553406 
	C1014.529053,434.688507 1020.458130,440.886017 1025.625610,446.287384 
	C1031.121582,441.298798 1036.281128,436.615662 1041.960327,431.454529 
z" />
  <path fill="#21ACE8" d="
M1031.965942,542.956360 
	C1028.325562,545.040833 1024.685181,547.125244 1020.446899,548.888000 
	C1019.564026,547.458923 1019.071167,546.359741 1019.026428,545.242737 
	C1018.622559,535.147217 1018.715698,525.008850 1017.764648,514.968262 
	C1017.317505,510.247009 1015.491272,505.397949 1013.227234,501.176819 
	C1010.750061,496.558289 1006.964600,492.655548 1003.897095,488.335938 
	C1000.237610,483.182770 996.734985,477.918182 992.716492,472.047424 
	C995.061646,471.915924 996.205322,471.851807 997.755981,471.716675 
	C1015.273376,474.465912 1032.440796,474.401398 1050.040283,472.790009 
	C1050.994629,472.977783 1051.549927,473.038513 1052.082764,473.471375 
	C1048.322876,480.805939 1044.722290,487.846222 1040.814941,494.711914 
	C1035.442993,504.151001 1030.707275,513.606384 1031.894531,525.069458 
	C1032.505615,530.970886 1031.978516,536.990295 1031.965942,542.956360 
z" />
  <path fill="#2F5F90" d="
M999.434082,431.203217 
	C1004.233032,430.114471 1007.488525,432.310089 1010.468933,435.863098 
	C1013.979004,440.047546 1017.756836,444.036469 1021.688904,447.829926 
	C1025.924561,451.916199 1027.972290,451.680847 1032.158569,447.476593 
	C1037.869751,441.740936 1043.615479,436.039978 1049.583862,429.973877 
	C1050.119873,429.581024 1050.314453,429.415588 1050.447266,429.526093 
	C1052.501709,431.166260 1054.524902,433.785553 1056.636108,429.698608 
	C1057.139282,429.403290 1057.382935,429.524719 1057.484863,430.314178 
	C1059.931396,431.674469 1062.400391,432.605164 1065.164795,433.717163 
	C1068.901611,435.106659 1072.494873,436.005646 1075.746582,437.600739 
	C1079.894287,439.635284 1079.987183,442.147491 1076.003540,444.269714 
	C1072.517578,446.126831 1068.802490,447.844238 1064.981445,448.734802 
	C1039.843506,454.593506 1014.634827,454.074860 989.512878,448.642761 
	C984.157104,447.484680 978.857910,445.594513 974.000366,440.924774 
	C976.793762,439.253601 978.731934,437.612518 980.969482,436.847961 
	C987.056641,434.768127 993.270447,433.059174 999.434082,431.203217 
z" />
  <path fill="#2FA1D9" d="
M1083.586426,459.815369 
	C1083.586426,459.815369 1083.245239,459.857025 1082.848022,459.991638 
	C1082.191650,460.368469 1081.932617,460.610718 1081.673462,460.852936 
	C1081.673462,460.852936 1081.297241,460.885315 1080.867676,461.003784 
	C1080.157104,461.352448 1079.876099,461.582672 1079.595093,461.812897 
	C1079.595093,461.812897 1079.260010,461.819153 1078.796143,461.925781 
	C1077.155762,462.600525 1075.979370,463.168671 1074.802979,463.736786 
	C1074.802979,463.736786 1074.763672,463.717285 1074.355713,463.731537 
	C1057.438110,468.158875 1040.619629,470.792297 1023.562744,469.761261 
	C1010.663208,468.981445 997.852661,466.729401 985.002502,465.132568 
	C984.626099,465.021759 984.249695,464.910950 983.423218,464.684479 
	C982.612915,464.692963 982.252686,464.817078 981.892456,464.941162 
	C977.410156,462.828827 972.811584,460.927795 968.479126,458.543243 
	C964.343933,456.267303 961.911255,452.689392 962.753906,447.236816 
	C964.641663,447.308716 966.164917,447.678833 967.541138,448.350342 
	C970.511536,449.799652 973.271729,451.778351 976.353271,452.885529 
	C1003.069214,462.484009 1030.423096,462.914978 1058.143188,458.491150 
	C1070.171875,456.571472 1080.737671,451.412537 1090.800415,444.908234 
	C1091.265503,448.938507 1091.630493,452.945740 1087.769043,456.495056 
	C1087.060425,457.207764 1086.812988,457.512756 1086.565430,457.817749 
	C1086.565430,457.817749 1086.224487,457.893524 1085.868042,458.051453 
	C1085.193115,458.358063 1084.994629,458.603699 1084.916382,458.946350 
	C1084.916382,458.946350 1084.981689,458.994202 1084.684326,459.002899 
	C1084.119995,459.279510 1083.853271,459.547455 1083.586426,459.815369 
z" />
  <path fill="#70C1DC" d="
M1090.912109,444.495178 
	C1080.737671,451.412537 1070.171875,456.571472 1058.143188,458.491150 
	C1030.423096,462.914978 1003.069214,462.484009 976.353271,452.885529 
	C973.271729,451.778351 970.511536,449.799652 967.541138,448.350342 
	C966.164917,447.678833 964.641663,447.308716 962.912048,446.872803 
	C960.921082,439.205719 964.033936,433.450470 971.184326,431.162506 
	C982.013245,427.697479 993.195618,425.337341 1004.662903,422.913574 
	C1005.139832,423.955109 1005.181702,424.590729 1005.223572,425.226379 
	C1005.089417,425.597839 1004.955322,425.969299 1004.509399,426.697083 
	C1003.841980,427.413727 1003.486267,427.774078 1002.812683,428.179626 
	C1002.128235,428.424561 1001.761658,428.624237 1001.395142,428.823975 
	C1000.137268,428.866852 998.879395,428.909698 996.980896,428.987000 
	C989.151978,431.464386 981.657104,433.272003 974.870544,436.547272 
	C969.240906,439.264099 969.687500,444.448151 975.023560,447.419983 
	C982.437683,451.549133 990.469788,453.202576 998.862244,454.358154 
	C1020.301941,457.310150 1041.618042,457.861633 1062.771973,452.805267 
	C1068.356689,451.470398 1073.914307,449.379944 1078.977295,446.684143 
	C1084.071289,443.971832 1083.970093,440.009094 1079.219727,436.582275 
	C1076.697388,434.762726 1073.720703,433.572906 1070.766968,431.837158 
	C1069.986450,431.522278 1069.388184,431.469147 1068.765869,431.394836 
	C1068.741943,431.373657 1068.684692,431.402405 1068.591187,431.041382 
	C1062.444580,428.977448 1056.391357,427.274567 1050.338257,425.571716 
	C1050.469604,425.051910 1050.600952,424.532135 1050.732422,424.012329 
	C1052.282837,424.218323 1053.828125,424.487183 1055.384888,424.616669 
	C1058.228149,424.853088 1061.078003,425.007080 1063.925171,425.195465 
	C1064.767456,425.370209 1065.609619,425.544952 1066.979980,426.130005 
	C1068.188599,426.590729 1068.869019,426.641113 1069.549561,426.691498 
	C1074.812500,428.702332 1080.202026,430.440094 1085.300903,432.804840 
	C1089.905518,434.940399 1092.213013,438.752136 1090.912109,444.495178 
z" />
  <path fill="#F5F6F5" d="
M1041.700439,431.693542 
	C1036.281128,436.615662 1031.121582,441.298798 1025.625610,446.287384 
	C1020.458130,440.886017 1014.529053,434.688507 1008.659729,428.553406 
	C1009.146240,427.876587 1009.315857,427.421692 1009.500305,427.415558 
	C1018.345459,427.121552 1018.345947,427.125946 1018.380859,417.981079 
	C1018.385925,416.649384 1018.312256,415.312897 1018.400330,413.986938 
	C1018.627563,410.565155 1018.005432,404.704010 1019.368408,404.191162 
	C1023.325684,402.702026 1028.101196,403.143188 1032.528564,403.367004 
	C1033.348633,403.408478 1034.638916,405.946838 1034.690552,407.369934 
	C1034.925049,413.816437 1034.792969,420.276276 1034.792969,427.127625 
	C1038.374268,427.127625 1041.296387,427.127625 1045.542480,427.127625 
	C1043.864258,429.154724 1042.912354,430.304626 1041.700439,431.693542 
z" />
  <path fill="#287BBA" d="
M1032.312256,542.893433 
	C1031.978516,536.990295 1032.505615,530.970886 1031.894531,525.069458 
	C1030.707275,513.606384 1035.442993,504.151001 1040.814941,494.711914 
	C1044.722290,487.846222 1048.322876,480.805939 1052.508667,473.433319 
	C1058.139526,472.638855 1063.322021,472.254547 1068.680664,471.857208 
	C1067.570435,475.023254 1066.849121,477.080200 1066.127808,479.137146 
	C1066.127808,479.137146 1066.030273,479.065216 1065.829346,479.159760 
	C1065.472168,479.569427 1065.315918,479.884552 1065.159790,480.199677 
	C1065.159790,480.199677 1065.113403,480.074982 1064.894531,480.179565 
	C1064.540894,480.608917 1064.406250,480.933716 1064.271606,481.258484 
	C1064.271606,481.258484 1064.229248,481.046082 1063.954834,481.207397 
	C1063.492188,481.954773 1063.303833,482.540894 1063.115479,483.126953 
	C1063.115479,483.126953 1063.044067,483.032227 1062.791504,483.141876 
	C1062.098145,483.920471 1061.657349,484.589417 1061.216431,485.258362 
	C1061.216431,485.258362 1061.075195,485.148468 1060.883911,485.223114 
	C1060.552612,485.620575 1060.412476,485.943420 1060.272339,486.266235 
	C1060.272339,486.266235 1060.171143,486.051147 1059.923340,486.212463 
	C1059.467896,486.959991 1059.260498,487.546204 1059.052979,488.132446 
	C1059.016846,488.437256 1058.882690,488.690063 1058.175903,489.058472 
	C1057.497192,489.534973 1057.293335,489.843872 1057.089478,490.152771 
	C1057.089478,490.152802 1057.118530,490.065216 1056.793213,490.094482 
	C1056.043579,490.820618 1055.619019,491.517548 1055.194580,492.214478 
	C1055.194580,492.214508 1055.117432,492.148712 1054.874756,492.226227 
	C1054.406738,492.842224 1054.181519,493.380707 1053.956421,493.919250 
	C1053.528564,494.536011 1053.100586,495.152802 1052.158203,495.993530 
	C1051.456665,496.523956 1051.269653,496.830444 1051.082520,497.136932 
	C1051.082520,497.136932 1051.110229,497.049530 1050.781006,497.084076 
	C1050.049805,497.825867 1049.647949,498.533142 1049.246094,499.240417 
	C1049.246216,499.240417 1049.147095,499.196472 1048.891602,499.262329 
	C1048.428467,499.893982 1048.220703,500.459778 1048.012939,501.025543 
	C1048.012939,501.025543 1047.998657,501.000122 1047.775513,501.108917 
	C1047.385254,501.511810 1047.218262,501.805878 1047.051147,502.099945 
	C1047.051147,502.099945 1047.024170,502.023346 1046.811768,502.131592 
	C1046.435913,502.547211 1046.272461,502.854553 1046.108887,503.161896 
	C1046.108887,503.161896 1046.070679,503.078735 1045.826660,503.212463 
	C1045.438965,503.732819 1045.295044,504.119476 1045.151245,504.506104 
	C1044.970093,504.943024 1044.788818,505.379944 1044.132446,506.027161 
	C1043.486816,506.555664 1043.316528,506.873871 1043.146118,507.192078 
	C1043.146118,507.192078 1043.132935,507.084137 1042.870361,507.235138 
	C1042.453003,508.020355 1042.297974,508.654572 1042.143066,509.288788 
	C1041.275391,517.026855 1040.118042,524.747131 1039.642822,532.509216 
	C1039.331055,537.601624 1037.290771,540.945984 1032.312256,542.893433 
z" />
  <path fill="#061422" d="
M1070.949097,432.098877 
	C1073.720703,433.572906 1076.697388,434.762726 1079.219727,436.582275 
	C1083.970093,440.009094 1084.071289,443.971832 1078.977295,446.684143 
	C1073.914307,449.379944 1068.356689,451.470398 1062.771973,452.805267 
	C1041.618042,457.861633 1020.301941,457.310150 998.862244,454.358154 
	C990.469788,453.202576 982.437683,451.549133 975.023560,447.419983 
	C969.687500,444.448151 969.240906,439.264099 974.870544,436.547272 
	C981.657104,433.272003 989.151978,431.464386 996.680298,429.078125 
	C997.541138,429.753052 998.062012,430.371277 999.008484,431.096344 
	C993.270447,433.059174 987.056641,434.768127 980.969482,436.847961 
	C978.731934,437.612518 976.793762,439.253601 974.000366,440.924774 
	C978.857910,445.594513 984.157104,447.484680 989.512878,448.642761 
	C1014.634827,454.074860 1039.843506,454.593506 1064.981445,448.734802 
	C1068.802490,447.844238 1072.517578,446.126831 1076.003540,444.269714 
	C1079.987183,442.147491 1079.894287,439.635284 1075.746582,437.600739 
	C1072.494873,436.005646 1068.901611,435.106659 1065.202881,433.283875 
	C1064.979736,432.095337 1065.013916,431.521393 1065.418335,430.931000 
	C1066.753906,431.077148 1067.719238,431.239777 1068.684692,431.402405 
	C1068.684692,431.402405 1068.741943,431.373657 1068.976807,431.598694 
	C1069.790771,431.915466 1070.369873,432.007172 1070.949097,432.098877 
z" />
  <path fill="#80CBE6" d="
M997.348999,471.787720 
	C996.205322,471.851807 995.061646,471.915924 992.716492,472.047424 
	C996.734985,477.918182 1000.237610,483.182770 1003.897095,488.335938 
	C1006.964600,492.655548 1010.750061,496.558289 1013.227234,501.176819 
	C1015.491272,505.397949 1017.317505,510.247009 1017.764648,514.968262 
	C1018.715698,525.008850 1018.622559,535.147217 1019.026428,545.242737 
	C1019.071167,546.359741 1019.564026,547.458923 1020.100586,548.942017 
	C1015.880615,551.896973 1015.333069,551.694702 1014.930115,546.915283 
	C1014.010193,536.004883 1013.477844,525.049500 1012.122559,514.195374 
	C1011.685242,510.693268 1009.740723,507.001251 1007.507141,504.167328 
	C998.162964,492.311646 988.446960,480.749054 978.905151,468.576385 
	C979.063721,467.938690 979.184326,467.803619 979.304932,467.668579 
	C980.745667,467.956970 982.186340,468.245331 984.332275,468.725891 
	C989.141296,469.874634 993.245178,470.831177 997.348999,471.787720 
z" />
  <path fill="#0A1D30" d="
M997.755981,471.716675 
	C993.245178,470.831177 989.141296,469.874634 984.699463,468.726440 
	C984.670593,467.607117 984.979614,466.679413 985.145569,465.442139 
	C997.852661,466.729401 1010.663208,468.981445 1023.562744,469.761261 
	C1040.619629,470.792297 1057.438110,468.158875 1074.336670,463.720734 
	C1074.807983,464.538086 1074.890503,465.380524 1074.656250,466.836823 
	C1066.106689,469.188141 1057.874023,470.925568 1049.641357,472.662994 
	C1032.440796,474.401398 1015.273376,474.465912 997.755981,471.716675 
z" />
  <path fill="#3877A4" d="
M1050.040283,472.790009 
	C1057.874023,470.925568 1066.106689,469.188141 1074.656006,467.258942 
	C1074.822998,467.975189 1074.974243,469.124237 1074.472656,469.750488 
	C1071.985474,472.856049 1069.326050,475.823700 1066.427490,478.988525 
	C1066.849121,477.080200 1067.570435,475.023254 1068.680664,471.857208 
	C1063.322021,472.254547 1058.139526,472.638855 1052.531128,473.061188 
	C1051.549927,473.038513 1050.994629,472.977783 1050.040283,472.790009 
z" />
  <path fill="#46B1DD" d="
M1068.591187,431.041382 
	C1067.719238,431.239777 1066.753906,431.077148 1065.412109,430.945496 
	C1065.035767,430.976410 1065.049683,430.953064 1064.775024,430.728210 
	C1063.336548,430.323059 1062.172729,430.142731 1060.799072,429.833252 
	C1060.258911,429.547913 1059.943970,429.574432 1059.471436,429.563416 
	C1058.800049,429.379211 1058.301758,429.415222 1057.664429,429.515228 
	C1057.525513,429.579224 1057.507324,429.884583 1057.507324,429.884583 
	C1057.382935,429.524719 1057.139282,429.403290 1056.623901,429.338257 
	C1055.786011,429.029419 1055.100586,428.902679 1054.078613,428.577820 
	C1052.188110,428.217712 1050.634399,428.055756 1049.080566,427.893799 
	C1048.125854,426.824585 1047.171265,425.755341 1046.031860,424.083832 
	C1045.898804,422.983948 1045.950317,422.486359 1046.001831,421.988770 
	C1046.441650,422.003204 1046.881470,422.017639 1047.879395,422.283356 
	C1049.029663,422.499786 1049.621948,422.464905 1050.214111,422.430054 
	C1054.540771,423.256805 1058.867554,424.083557 1063.559692,425.052856 
	C1061.078003,425.007080 1058.228149,424.853088 1055.384888,424.616669 
	C1053.828125,424.487183 1052.282837,424.218323 1050.732422,424.012329 
	C1050.600952,424.532135 1050.469604,425.051910 1050.338257,425.571716 
	C1056.391357,427.274567 1062.444580,428.977448 1068.591187,431.041382 
z" />
  <path fill="#3877A4" d="
M1005.621704,425.184082 
	C1005.181702,424.590729 1005.139832,423.955109 1005.104980,422.841187 
	C1008.354980,421.868439 1011.777222,419.868744 1014.679016,422.238251 
	C1014.648376,422.758759 1014.617798,423.279266 1014.587158,423.799774 
	C1011.731384,424.247131 1008.875610,424.694458 1005.621704,425.184082 
z" />
  <path fill="#2F5F90" d="
M1045.707520,421.725342 
	C1045.950317,422.486359 1045.898804,422.983948 1045.796509,423.853668 
	C1043.247681,424.225800 1040.749634,424.225800 1038.251465,424.225800 
	C1039.979004,419.916779 1042.852295,421.317474 1045.707520,421.725342 
z" />
  <path fill="#0A1D30" d="
M1075.185913,463.824707 
	C1075.979370,463.168671 1077.155762,462.600525 1078.666382,462.031799 
	C1077.856689,462.658386 1076.712769,463.285522 1075.185913,463.824707 
z" />
  <path fill="#061422" d="
M1049.128662,428.342255 
	C1050.634399,428.055756 1052.188110,428.217712 1053.581665,428.660156 
	C1052.415894,429.002869 1051.410522,429.065063 1050.405029,429.127289 
	C1050.314453,429.415588 1050.119873,429.581024 1049.629639,429.638855 
	C1049.350830,429.366302 1049.263672,429.078522 1049.128662,428.342255 
z" />
  <path fill="#3877A4" d="
M1055.492188,492.137817 
	C1055.619019,491.517548 1056.043579,490.820618 1056.822021,490.130493 
	C1056.713867,490.778534 1056.251831,491.419830 1055.492188,492.137817 
z" />
  <path fill="#3877A4" d="
M1049.541504,499.162262 
	C1049.647949,498.533142 1050.049805,497.825867 1050.806885,497.121857 
	C1050.720459,497.778107 1050.278564,498.431122 1049.541504,499.162262 
z" />
  <path fill="#3877A4" d="
M1061.515625,485.172485 
	C1061.657349,484.589417 1062.098145,483.920471 1062.845947,483.165588 
	C1062.706909,483.748657 1062.260986,484.417633 1061.515625,485.172485 
z" />
  <path fill="#061422" d="
M1001.793213,428.876404 
	C1001.761658,428.624237 1002.128235,428.424561 1003.120117,428.234985 
	C1004.151306,428.149994 1004.557129,428.054840 1004.962952,427.959656 
	C1004.039062,428.282715 1003.115234,428.605804 1001.793213,428.876404 
z" />
  <path fill="#3877A4" d="
M1042.390381,509.088776 
	C1042.297974,508.654572 1042.453003,508.020355 1042.922241,507.251617 
	C1043.036987,507.707642 1042.837402,508.298218 1042.390381,509.088776 
z" />
  <path fill="#3877A4" d="
M1063.379150,482.983337 
	C1063.303833,482.540894 1063.492188,481.954773 1064.002930,481.304504 
	C1064.097656,481.773468 1063.870117,482.306549 1063.379150,482.983337 
z" />
  <path fill="#80CBE6" d="
M978.761353,468.275513 
	C978.217163,468.086212 977.854797,467.695160 977.492432,467.304108 
	C977.961792,467.287384 978.431152,467.270660 979.102722,467.461243 
	C979.184326,467.803619 979.063721,467.938690 978.761353,468.275513 
z" />
  <path fill="#3877A4" d="
M1004.948669,427.685730 
	C1004.557129,428.054840 1004.151306,428.149994 1003.437988,428.189789 
	C1003.486267,427.774078 1003.841980,427.413727 1004.445190,426.986389 
	C1004.773254,427.083496 1004.853821,427.247650 1004.948669,427.685730 
z" />
  <path fill="#46B1DD" d="
M1069.289551,426.470093 
	C1068.869019,426.641113 1068.188599,426.590729 1067.267090,426.288391 
	C1067.693848,426.107178 1068.361694,426.177917 1069.289551,426.470093 
z" />
  <path fill="#2F5F90" d="
M1049.970459,422.259094 
	C1049.621948,422.464905 1049.029663,422.499786 1048.207764,422.318115 
	C1048.560913,422.097107 1049.143799,422.092621 1049.970459,422.259094 
z" />
  <path fill="#3877A4" d="
M1054.222168,493.794525 
	C1054.181519,493.380707 1054.406738,492.842224 1054.923584,492.212616 
	C1054.972656,492.637604 1054.730225,493.153717 1054.222168,493.794525 
z" />
  <path fill="#3877A4" d="
M1048.280518,500.888519 
	C1048.220703,500.459778 1048.428467,499.893982 1048.940674,499.239288 
	C1049.012939,499.684113 1048.780518,500.217804 1048.280518,500.888519 
z" />
  <path fill="#3877A4" d="
M1059.316284,487.981140 
	C1059.260498,487.546204 1059.467896,486.959991 1059.997925,486.304932 
	C1060.073486,486.767395 1059.826538,487.298615 1059.316284,487.981140 
z" />
  <path fill="#0A1D30" d="
M1081.947266,460.838135 
	C1081.932617,460.610718 1082.191650,460.368469 1082.722656,460.109283 
	C1082.736694,460.336029 1082.478882,460.579681 1081.947266,460.838135 
z" />
  <path fill="#3877A4" d="
M1064.528809,481.181030 
	C1064.406250,480.933716 1064.540894,480.608917 1064.947998,480.219147 
	C1065.075562,480.470642 1064.930786,480.787109 1064.528809,481.181030 
z" />
  <path fill="#3877A4" d="
M1065.415527,480.111206 
	C1065.315918,479.884552 1065.472168,479.569427 1065.889160,479.168762 
	C1065.990479,479.396393 1065.830811,479.709564 1065.415527,480.111206 
z" />
  <path fill="#0A1D30" d="
M982.242798,464.955719 
	C982.252686,464.817078 982.612915,464.692963 983.128784,464.710938 
	C983.054016,464.892090 982.823547,464.931152 982.242798,464.955719 
z" />
  <path fill="#0A1D30" d="
M1079.877075,461.813599 
	C1079.876099,461.582672 1080.157104,461.352448 1080.716553,461.116882 
	C1080.716431,461.345795 1080.437744,461.580048 1079.877075,461.813599 
z" />
  <path fill="#0A1D30" d="
M1083.883911,459.792236 
	C1083.853271,459.547455 1084.119995,459.279510 1084.672729,458.964111 
	C1084.699585,459.200775 1084.440430,459.484924 1083.883911,459.792236 
z" />
  <path fill="#0A1D30" d="
M1085.149902,458.900238 
	C1084.994629,458.603699 1085.193115,458.358063 1085.753662,458.183380 
	C1085.893921,458.479462 1085.689697,458.711700 1085.149902,458.900238 
z" />
  <path fill="#0A1D30" d="
M1086.880859,457.765900 
	C1086.812988,457.512756 1087.060425,457.207764 1087.587402,456.795563 
	C1087.643433,457.030243 1087.419800,457.372131 1086.880859,457.765900 
z" />
  <path fill="#3877A4" d="
M1043.401367,507.094482 
	C1043.316528,506.873871 1043.486816,506.555664 1043.923462,506.149292 
	C1044.011963,506.373047 1043.834351,506.684937 1043.401367,507.094482 
z" />
  <path fill="#3877A4" d="
M1045.405762,504.336182 
	C1045.295044,504.119476 1045.438965,503.732819 1045.872314,503.214905 
	C1045.994751,503.444519 1045.827515,503.805389 1045.405762,504.336182 
z" />
  <path fill="#3877A4" d="
M1046.365234,503.074127 
	C1046.272461,502.854553 1046.435913,502.547211 1046.850830,502.142944 
	C1046.942017,502.359497 1046.781738,502.672943 1046.365234,503.074127 
z" />
  <path fill="#3877A4" d="
M1047.296265,502.004395 
	C1047.218262,501.805878 1047.385254,501.511810 1047.789551,501.112183 
	C1047.864868,501.307404 1047.703125,501.608124 1047.296265,502.004395 
z" />
  <path fill="#3877A4" d="
M1051.344360,497.051605 
	C1051.269653,496.830444 1051.456665,496.523956 1051.908081,496.131531 
	C1051.983643,496.352448 1051.794922,496.659363 1051.344360,497.051605 
z" />
  <path fill="#3877A4" d="
M1057.354370,490.065186 
	C1057.293335,489.843872 1057.497192,489.534973 1057.979492,489.154358 
	C1058.044922,489.380981 1057.832153,489.679291 1057.354370,490.065186 
z" />
  <path fill="#3877A4" d="
M1060.526855,486.191589 
	C1060.412476,485.943420 1060.552612,485.620575 1060.969604,485.248901 
	C1061.091431,485.505615 1060.936279,485.811249 1060.526855,486.191589 
z" />
  <path fill="#090E13" d="
M1059.644287,429.783661 
	C1059.943970,429.574432 1060.258911,429.547913 1061.026245,430.115967 
	C1062.658813,430.669556 1063.854248,430.811310 1065.049683,430.953064 
	C1065.049683,430.953064 1065.035767,430.976410 1065.041992,430.961914 
	C1065.013916,431.521393 1064.979736,432.095337 1064.907471,433.102570 
	C1062.400391,432.605164 1059.931396,431.674469 1057.484863,430.314178 
	C1057.507324,429.884583 1057.525513,429.579224 1058.111816,429.671844 
	C1059.013550,429.770874 1059.328979,429.777283 1059.644287,429.783661 
z" />
  <path fill="#090E13" d="
M1050.447266,429.526093 
	C1051.410522,429.065063 1052.415894,429.002869 1053.918213,428.858276 
	C1055.100586,428.902679 1055.786011,429.029419 1056.483643,429.516510 
	C1054.524902,433.785553 1052.501709,431.166260 1050.447266,429.526093 
z" />
  <path fill="#46B1DD" d="
M1070.766968,431.837158 
	C1070.369873,432.007172 1069.790771,431.915466 1069.000732,431.619904 
	C1069.388184,431.469147 1069.986450,431.522278 1070.766968,431.837158 
z" />
  <path fill="#061422" d="
M1064.775024,430.728210 
	C1063.854248,430.811310 1062.658813,430.669556 1061.236084,430.245087 
	C1062.172729,430.142731 1063.336548,430.323059 1064.775024,430.728210 
z" />
  <path fill="#061422" d="
M1059.471436,429.563416 
	C1059.328979,429.777283 1059.013550,429.770874 1058.250732,429.607849 
	C1058.301758,429.415222 1058.800049,429.379211 1059.471436,429.563416 
z" />
</svg>