<svg xmlns="http://www.w3.org/2000/svg" viewBox="703.4493593999999 195.61204089999998 192.93581520000004 192.93581520000004">
  <path fill="#0A1017" d="
M868.063782,313.027100 
	C867.908752,328.987671 867.732056,344.948059 867.606873,360.908875 
	C867.531006,370.573822 867.154419,370.975922 857.448303,370.977081 
	C819.006042,370.981659 780.563721,370.996155 742.121460,370.994293 
	C734.872864,370.993927 733.770691,369.901276 733.775330,362.592590 
	C733.785767,346.117767 733.842712,329.642944 734.040527,312.436035 
	C735.421570,311.131073 736.642822,310.558197 737.997803,310.227417 
	C738.438354,310.658234 738.745056,310.847015 738.927856,311.434814 
	C738.611755,312.271851 738.253601,312.708984 738.251282,313.147980 
	C738.162354,329.846436 738.153870,346.545532 738.004761,363.243347 
	C737.975037,366.569336 739.628723,366.725861 742.541748,366.180115 
	C747.874268,366.295715 752.759216,366.295715 758.288879,366.295715 
	C758.288879,352.686340 758.206909,339.650482 758.370239,326.617706 
	C758.397217,324.465088 759.498291,322.325897 760.563477,320.145355 
	C770.314087,320.143005 779.604309,320.175781 788.908936,320.155518 
	C788.923462,320.102417 788.826538,320.154510 788.947327,320.430634 
	C789.657715,321.246613 790.247314,321.786438 790.839539,322.508606 
	C790.842102,322.690948 791.031372,323.002747 790.973755,323.468201 
	C790.919128,336.306091 790.888855,348.678741 790.963318,361.050751 
	C790.973755,362.780396 791.498779,364.506927 791.931274,366.400513 
	C792.478760,366.504730 792.880615,366.443359 793.671997,366.431030 
	C800.335144,366.310242 806.608704,366.140503 813.252686,365.979187 
	C814.117310,365.980774 814.611450,365.973907 815.438110,366.191772 
	C830.401428,366.507111 845.032593,366.572754 859.663086,366.709106 
	C862.627625,366.736725 863.245483,365.127533 863.235657,362.584259 
	C863.174866,346.776337 863.188904,330.968109 863.145508,315.160095 
	C863.143799,314.557922 862.807129,313.956635 862.526367,313.020905 
	C859.938354,313.020905 857.470215,313.066589 855.004211,313.013275 
	C841.720459,312.726227 828.437317,312.414642 814.909912,311.978394 
	C814.442871,311.557281 814.219849,311.269257 813.996643,310.651184 
	C813.993408,309.880219 813.990356,309.439301 814.307556,309.040222 
	C816.104492,309.376007 817.581055,309.669922 819.445862,309.973022 
	C820.874756,309.980743 821.915405,309.979340 823.173218,310.243835 
	C824.620178,310.324982 825.850159,310.140167 827.523376,309.969055 
	C830.631226,310.000000 833.295837,310.017181 836.066284,310.424988 
	C841.602661,311.005066 847.032776,311.207794 852.464844,311.325806 
	C852.646362,311.329773 852.846558,310.477783 853.489014,310.014160 
	C856.943848,310.023926 859.947632,310.044281 863.026428,310.406860 
	C864.755554,311.508453 866.409668,312.267761 868.063782,313.027100 
M787.982788,332.553558 
	C787.982788,329.478333 787.982788,326.403137 787.982788,323.342255 
	C778.712830,323.342255 770.301270,323.342255 761.667236,323.342255 
	C761.667236,337.829956 761.667236,352.015778 761.667236,366.258728 
	C770.553101,366.258728 779.093506,366.258728 787.977661,366.258728 
	C787.977661,355.125397 787.977661,344.331451 787.982788,332.553558 
z" />
  <path fill="#140E08" d="
M737.864075,309.985352 
	C736.642822,310.558197 735.421570,311.131073 734.033813,312.002563 
	C730.834106,312.205841 727.332520,313.050293 724.864990,311.820374 
	C719.659485,309.225800 719.527344,303.319550 724.147339,298.367279 
	C733.119812,288.749512 742.221741,279.252594 751.264893,269.700714 
	C756.187012,264.501648 761.136780,259.327911 766.001343,254.075302 
	C769.166016,250.658173 772.885254,249.113632 777.599365,249.624817 
	C788.685730,250.827011 799.781067,251.977859 810.896545,252.845413 
	C812.588623,252.977478 814.399719,251.467056 816.169922,250.751190 
	C817.777344,250.101151 819.388367,249.012466 821.024841,248.960098 
	C827.679749,248.747208 834.362671,248.572510 840.998413,248.982071 
	C843.911865,249.161880 848.214050,249.967819 849.279663,251.915390 
	C851.214783,255.451767 851.051758,260.030151 847.139343,263.760620 
	C846.633850,262.875366 846.276855,261.546356 846.728516,260.605469 
	C848.062622,257.826294 849.829163,255.189407 845.679871,253.017166 
	C845.447937,252.990158 845.004028,252.843719 844.761963,252.577118 
	C841.248291,250.480927 838.061096,250.350098 834.708191,252.859161 
	C834.230042,253.015289 834.044739,253.094971 833.654053,253.121094 
	C833.448608,253.067551 833.055298,252.907532 832.737427,252.641159 
	C828.283508,252.595612 824.147522,252.816452 819.769165,253.331161 
	C819.994446,255.501663 820.462097,257.378265 820.946411,259.573608 
	C821.301147,260.886810 821.639038,261.881256 821.877563,263.319763 
	C821.779114,266.177032 821.780212,268.590210 821.654297,271.143982 
	C821.763611,271.491974 821.999939,271.699432 822.518188,272.071686 
	C825.548035,274.932495 828.296021,277.628510 831.080444,280.678711 
	C834.422424,285.637878 838.635498,284.434052 843.007202,282.567261 
	C843.241333,281.848358 843.372437,281.436676 843.847290,280.867737 
	C844.453064,277.498199 844.525269,274.253815 845.061951,271.088165 
	C845.308838,269.631348 846.465698,268.328827 847.209961,266.956329 
	C848.205017,268.762512 848.880371,270.869019 850.248047,272.325165 
	C857.843384,280.411438 865.631775,288.315979 873.291077,296.342834 
	C874.760193,297.882446 876.258972,299.532379 877.208984,301.403137 
	C880.307190,307.504425 876.617004,312.562653 868.472290,313.043427 
	C866.409668,312.267761 864.755554,311.508453 863.459961,310.378967 
	C866.214966,309.684204 868.611450,309.359558 871.297607,308.845825 
	C874.963867,306.198578 874.087219,303.407257 871.801758,300.994049 
	C866.320435,295.206360 860.635498,289.611450 855.017273,283.967316 
	C855.001831,283.995880 855.065125,283.981384 854.984741,283.727020 
	C854.608582,283.293945 854.312866,283.115265 854.009583,282.967346 
	C854.002014,282.998169 854.063354,282.982025 853.982361,282.728485 
	C853.606384,282.296417 853.311340,282.117889 853.008789,281.968994 
	C853.001282,281.998627 853.060364,281.982819 852.979614,281.729675 
	C852.604431,281.298157 852.309998,281.119751 852.008789,280.970551 
	C852.002014,280.999725 852.054749,280.971344 851.931885,280.659302 
	C850.635498,278.907593 849.461975,277.467926 848.288452,276.028259 
	C847.849487,276.291748 847.410522,276.555237 846.971558,276.818726 
	C846.971558,279.534241 846.971558,282.249786 846.885864,285.076172 
	C846.800110,285.187073 846.864258,285.459930 846.421143,285.596558 
	C840.677490,285.444031 835.377075,285.154907 830.054199,284.905365 
	C830.031799,284.944946 830.122742,284.947144 830.036377,284.690613 
	C829.638062,284.269958 829.326111,284.105804 829.007080,283.970764 
	C829.000000,283.999817 829.057861,283.984711 828.980469,283.729706 
	C828.608643,283.294312 828.314331,283.113953 828.011597,282.965118 
	C828.003174,282.996643 828.066101,282.979401 827.994263,282.719788 
	C827.623413,282.282898 827.324402,282.105591 827.015381,281.961517 
	C827.005310,281.994720 827.071594,281.974060 826.999329,281.713440 
	C826.628723,281.275116 826.330322,281.097443 826.020630,280.955505 
	C826.009216,280.991272 826.080383,280.967407 826.012451,280.704224 
	C825.641602,280.265717 825.338684,280.090393 825.024170,279.952332 
	C825.012512,279.989594 825.086121,279.963501 825.026245,279.693237 
	C824.659729,279.250488 824.353027,279.077942 824.057312,278.946899 
	C824.068237,278.988434 824.112305,278.914764 824.042114,278.576538 
	C820.462036,274.630249 817.662781,270.830841 818.700073,265.249542 
	C818.876831,264.298462 817.099182,262.984100 816.166138,261.455505 
	C814.450378,259.832550 812.907715,257.733490 811.116211,257.493896 
	C801.467896,256.203461 791.757751,255.374756 782.068970,254.386719 
	C781.709351,254.740295 781.349670,255.093857 780.989990,255.447433 
	C782.327820,256.354248 783.665588,257.261047 785.127014,258.372955 
	C785.475098,258.830566 785.755798,258.969788 786.331421,259.107239 
	C786.683167,259.353149 786.796204,259.487549 786.503723,259.814911 
	C785.697876,260.446136 785.297607,260.884369 784.602783,261.144104 
	C783.599426,260.262299 782.882812,259.566772 782.183167,258.854553 
	C775.509521,252.060593 774.293884,251.974777 767.763062,258.730347 
	C759.085632,267.706329 750.543579,276.813110 741.939758,285.860260 
	C736.893433,291.166595 731.874390,296.499573 726.772522,301.752045 
	C724.776245,303.807220 724.277649,305.630646 727.111450,307.737793 
	C728.971924,307.679474 731.010193,307.822540 732.271606,306.901581 
	C734.616882,305.189240 736.509277,302.856659 738.923950,300.964355 
	C739.562134,301.544556 739.866638,301.942657 740.001282,302.660370 
	C739.175659,305.315125 738.519897,307.650238 737.864075,309.985352 
z" />
  <path fill="#D9F2F9" d="
M834.554077,245.051453 
	C833.737488,245.046432 832.920898,245.041412 831.749512,244.620972 
	C829.506409,234.436829 829.527100,234.468521 838.750244,228.441849 
	C839.550598,227.918869 840.049805,226.667694 840.328003,225.655548 
	C842.386719,218.166901 844.915039,216.853882 852.014648,219.476166 
	C853.095459,219.875381 854.609802,219.888626 855.662231,219.451294 
	C863.841125,216.052551 868.967041,219.669403 868.532837,228.971039 
	C862.934326,233.745682 857.216675,235.176743 850.373840,232.425171 
	C848.073730,231.500275 845.100220,231.809937 842.510681,232.144547 
	C838.269653,232.692566 834.322876,237.560242 834.872681,241.401337 
	C834.749573,242.888947 834.651794,243.970200 834.554077,245.051453 
z" />
  <path fill="#93A3AB" d="
M868.870911,228.899338 
	C868.967041,219.669403 863.841125,216.052551 855.662231,219.451294 
	C854.609802,219.888626 853.095459,219.875381 852.014648,219.476166 
	C844.915039,216.853882 842.386719,218.166901 840.328003,225.655548 
	C840.049805,226.667694 839.550598,227.918869 838.750244,228.441849 
	C829.527100,234.468521 829.506409,234.436829 831.443237,244.630005 
	C830.200500,244.387100 828.216919,244.041458 827.732544,242.999146 
	C825.039307,237.203217 827.718506,229.705887 832.933899,226.328308 
	C834.793640,225.123901 836.454773,223.165298 837.458557,221.173920 
	C840.049988,216.033081 844.595215,213.867722 850.756531,215.076019 
	C852.586853,215.434952 854.716492,215.545090 856.434448,214.961258 
	C861.723450,213.163742 866.055298,214.726669 869.481140,218.576141 
	C873.152832,222.701889 874.279541,227.652512 872.014587,232.946304 
	C868.671692,240.759567 859.792480,244.298737 851.080627,241.418350 
	C849.357422,240.848602 847.630859,240.105148 845.855408,239.916656 
	C842.451660,239.555298 839.091980,239.515472 838.085388,244.072998 
	C837.945190,244.707565 836.198059,244.987183 834.874390,245.241272 
	C834.651794,243.970200 834.749573,242.888947 835.164062,241.208374 
	C838.449585,235.627991 842.953796,235.202026 847.970886,236.469543 
	C850.518127,237.113098 852.992188,238.076065 855.558777,238.607712 
	C862.157593,239.974579 868.008240,235.641434 868.870911,228.899338 
z" />
  <path fill="#0A1D30" d="
M847.349976,266.623962 
	C846.465698,268.328827 845.308838,269.631348 845.061951,271.088165 
	C844.525269,274.253815 844.453064,277.498199 843.728638,280.411987 
	C843.266296,274.531342 843.266296,268.949188 843.266296,263.190308 
	C839.796204,263.190308 837.071228,263.190308 833.889221,263.190308 
	C833.889221,266.968506 833.845581,270.421082 833.897461,273.872162 
	C834.047852,283.869354 832.488098,282.978149 842.904175,282.874481 
	C838.635498,284.434052 834.422424,285.637878 831.187622,280.197449 
	C831.258301,274.084015 831.258301,268.805969 831.258301,262.875702 
	C827.882996,262.875702 824.929993,262.875702 821.976990,262.875702 
	C821.639038,261.881256 821.301147,260.886810 821.406860,259.472900 
	C825.889160,259.008575 829.927856,258.963715 834.426758,258.979767 
	C836.862915,259.058136 838.863708,258.881378 840.809814,259.131104 
	C845.812744,259.772980 846.897827,257.323029 845.911804,253.044174 
	C849.829163,255.189407 848.062622,257.826294 846.728516,260.605469 
	C846.276855,261.546356 846.633850,262.875366 846.995117,264.098572 
	C847.409241,264.877289 847.449646,265.584412 847.349976,266.623962 
z" />
  <path fill="#287BBA" d="
M815.153931,312.111511 
	C828.437317,312.414642 841.720459,312.726227 855.004211,313.013275 
	C857.470215,313.066589 859.938354,313.020905 862.526367,313.020905 
	C862.807129,313.956635 863.143799,314.557922 863.145508,315.160095 
	C863.188904,330.968109 863.174866,346.776337 863.235657,362.584259 
	C863.245483,365.127533 862.627625,366.736725 859.663086,366.709106 
	C845.032593,366.572754 830.401428,366.507111 815.457886,365.763733 
	C815.148132,347.444489 815.151001,329.778015 815.153931,312.111511 
M841.489563,350.021820 
	C843.655029,350.010345 845.839844,349.808685 847.981873,350.027130 
	C852.415771,350.479248 853.964111,348.443756 853.835876,344.224182 
	C853.674011,338.899353 853.784851,333.564667 853.846008,328.235046 
	C853.896179,323.864227 851.955017,321.849060 847.447510,322.059998 
	C842.959778,322.269989 838.453491,322.044983 833.956482,322.102051 
	C827.998291,322.177673 826.781982,323.507446 826.876160,329.623077 
	C826.912109,331.954773 827.004700,334.286285 827.001221,336.617767 
	C826.978027,352.108154 826.380981,349.747162 841.489563,350.021820 
z" />
  <path fill="#21ACE8" d="
M791.031372,323.002747 
	C791.031372,323.002747 790.842102,322.690948 790.866943,322.145111 
	C790.203430,321.117706 789.514954,320.636108 788.826538,320.154510 
	C788.826538,320.154510 788.923462,320.102417 788.813782,319.858215 
	C788.154236,319.364899 787.604370,319.115814 786.985779,318.557861 
	C785.943481,318.167297 784.969971,318.085663 783.559326,318.004272 
	C781.082275,318.002625 779.042358,318.000763 777.001831,317.615479 
	C777.474670,316.102478 777.653137,314.309631 778.467896,313.947113 
	C785.651978,310.751160 789.522705,305.437042 789.286926,296.964203 
	C791.481262,296.964203 793.258423,296.964203 795.330688,297.120605 
	C799.461243,301.456421 803.296692,305.635803 807.093750,310.230103 
	C807.712280,314.305298 808.274353,317.987000 809.093323,321.610596 
	C809.295593,322.505524 810.332764,323.211792 810.993530,324.432129 
	C810.993225,326.569336 810.985474,328.279236 810.605469,330.072510 
	C808.497070,332.655121 807.739868,335.048676 810.983032,337.479431 
	C810.986877,345.295929 810.980896,352.644592 810.516235,359.996216 
	C804.116455,358.826996 797.575439,362.970947 792.052856,357.502716 
	C792.031799,347.413757 792.071777,337.790863 791.972229,328.169373 
	C791.954285,326.444122 791.359741,324.724792 791.031372,323.002747 
z" />
  <path fill="#F5F6F5" d="
M787.980225,333.045532 
	C787.977661,344.331451 787.977661,355.125397 787.977661,366.258728 
	C779.093506,366.258728 770.553101,366.258728 761.667236,366.258728 
	C761.667236,352.015778 761.667236,337.829956 761.667236,323.342255 
	C770.301270,323.342255 778.712830,323.342255 787.982788,323.342255 
	C787.982788,326.403137 787.982788,329.478333 787.980225,333.045532 
M779.181763,344.864014 
	C779.273804,347.823944 780.949646,348.865417 783.413391,347.617920 
	C784.240906,347.198883 784.967590,344.727692 784.495789,343.937256 
	C782.982056,341.401093 781.033691,341.916412 779.181763,344.864014 
z" />
  <path fill="#287BBA" d="
M807.132141,309.815186 
	C803.296692,305.635803 799.461243,301.456421 795.179932,296.825012 
	C788.998474,290.580658 783.219055,284.830719 777.551270,278.972778 
	C775.587585,276.943176 773.972229,276.371979 771.753174,278.687012 
	C765.886292,284.807648 759.878052,290.792664 753.641357,297.015472 
	C749.220947,301.733276 745.085266,306.267212 740.639709,310.882172 
	C739.903809,310.987366 739.477783,311.011566 739.051819,311.035767 
	C738.745056,310.847015 738.438354,310.658234 737.997803,310.227417 
	C738.519897,307.650238 739.175659,305.315125 740.346741,302.596497 
	C752.497070,291.224762 764.132080,280.236572 774.427246,270.513641 
	C782.392639,277.835205 791.185425,285.917206 799.985474,294.002808 
	C799.992798,294.006409 799.999512,294.021576 800.073792,294.260468 
	C800.424744,294.668579 800.701416,294.837799 800.987366,295.005341 
	C800.996704,295.003662 800.992798,295.022064 801.068115,295.262177 
	C801.421143,295.673706 801.698730,295.845093 801.988159,296.008850 
	C802.000000,296.001221 801.983643,296.023834 802.062561,296.266541 
	C802.418213,296.694000 802.694885,296.878784 803.049194,297.290466 
	C803.309875,297.805603 803.569641,297.978699 804.002686,298.283569 
	C804.385498,298.726257 804.671753,298.922058 805.029785,299.335480 
	C805.270508,299.834137 805.516663,300.001526 805.947876,300.307678 
	C806.350464,300.766571 806.645203,300.973114 807.006958,301.388062 
	C807.234314,301.866028 807.469360,302.025726 807.896851,302.334137 
	C808.313477,302.818115 808.612244,303.043488 809.047424,303.556793 
	C810.460999,305.561035 811.738220,307.277344 812.952515,309.324982 
	C812.914185,310.104126 812.938782,310.551910 812.839844,311.254150 
	C812.637085,311.679810 812.557983,311.851013 812.232544,312.026794 
	C811.659119,311.998901 811.331116,311.988007 810.711426,311.858093 
	C809.324341,311.083374 808.228271,310.449310 807.132141,309.815186 
z" />
  <path fill="#80CBE6" d="
M738.927856,311.434814 
	C739.477783,311.011566 739.903809,310.987366 740.927490,311.137390 
	C741.725403,312.562927 741.925537,313.814209 742.077148,315.527710 
	C742.050537,332.681488 742.072388,349.373016 742.094177,366.064545 
	C739.628723,366.725861 737.975037,366.569336 738.004761,363.243347 
	C738.153870,346.545532 738.162354,329.846436 738.251282,313.147980 
	C738.253601,312.708984 738.611755,312.271851 738.927856,311.434814 
z" />
  <path fill="#2FA5DE" d="
M742.541748,366.180115 
	C742.072388,349.373016 742.050537,332.681488 742.339233,315.791718 
	C743.093933,320.184479 743.902405,324.775818 743.898010,329.366394 
	C743.891174,336.476044 742.882446,343.604492 743.187988,350.686584 
	C743.345520,354.338440 745.433411,357.903687 746.628052,361.515045 
	C747.956421,365.530792 751.377136,364.209198 753.687439,363.584564 
	C754.838989,363.273254 755.863831,360.240936 755.898254,358.419678 
	C756.102417,347.613190 755.973877,336.800842 756.016968,325.990662 
	C756.029053,322.970459 756.061707,319.847748 760.002563,319.288269 
	C760.049194,319.784882 760.076111,319.982697 760.102966,320.180511 
	C759.498291,322.325897 758.397217,324.465088 758.370239,326.617706 
	C758.206909,339.650482 758.288879,352.686340 758.288879,366.295715 
	C752.759216,366.295715 747.874268,366.295715 742.541748,366.180115 
z" />
  <path fill="#3A99C5" d="
M811.002441,311.998779 
	C811.331116,311.988007 811.659119,311.998901 812.315186,312.487671 
	C812.723389,330.619507 812.802795,348.295105 812.882263,365.970734 
	C806.608704,366.140503 800.335144,366.310242 793.304321,366.323242 
	C792.293213,366.189270 792.039429,366.212097 791.785583,366.234894 
	C791.498779,364.506927 790.973755,362.780396 790.963318,361.050751 
	C790.888855,348.678741 790.919128,336.306091 790.973755,323.468201 
	C791.359741,324.724792 791.954285,326.444122 791.972229,328.169373 
	C792.071777,337.790863 792.031799,347.413757 792.033020,357.908447 
	C793.248291,360.836639 794.227173,364.411133 795.738953,364.652924 
	C799.669434,365.281403 803.891357,364.753937 807.871216,364.012665 
	C809.112305,363.781525 809.951660,361.393768 810.974854,359.993286 
	C810.980896,352.644592 810.986877,345.295929 811.000427,337.040558 
	C810.997925,334.085632 810.987915,332.037384 810.977844,329.989136 
	C810.985474,328.279236 810.993225,326.569336 811.007812,323.971191 
	C811.010681,319.388214 811.006531,315.693481 811.002441,311.998779 
z" />
  <path fill="#0A1D30" d="
M813.252686,365.979187 
	C812.802795,348.295105 812.723389,330.619507 812.561401,312.483032 
	C812.557983,311.851013 812.637085,311.679810 813.098389,311.250549 
	C813.652588,310.988708 813.824707,310.984985 813.996826,310.981262 
	C814.219849,311.269257 814.442871,311.557281 814.909912,311.978394 
	C815.151001,329.778015 815.148132,347.444489 815.125488,365.539001 
	C814.611450,365.973907 814.117310,365.980774 813.252686,365.979187 
z" />
  <path fill="#140E08" d="
M813.015442,308.993622 
	C811.738220,307.277344 810.460999,305.561035 808.965820,303.270874 
	C808.424866,302.489838 808.101990,302.282684 807.779053,302.075531 
	C807.469360,302.025726 807.234314,301.866028 806.917114,301.121765 
	C806.453613,300.449829 806.146851,300.252563 805.840149,300.055328 
	C805.516663,300.001526 805.270508,299.834137 804.938232,299.084351 
	C804.485352,298.422607 804.195740,298.229645 803.906128,298.036682 
	C803.569641,297.978699 803.309875,297.805603 802.959839,297.054504 
	C802.523132,296.402344 802.253418,296.213104 801.983643,296.023834 
	C801.983643,296.023834 802.000000,296.001221 801.894470,295.782166 
	C801.594421,295.278503 801.329041,295.098145 800.992798,295.022064 
	C800.992798,295.022064 800.996704,295.003662 800.893433,294.780823 
	C800.596436,294.276245 800.332886,294.097473 799.999512,294.021576 
	C799.999512,294.021576 799.992798,294.006409 799.997070,293.590637 
	C800.042297,292.073212 800.083313,290.971558 800.428955,290.008179 
	C806.821655,296.442810 812.909668,302.739105 819.009888,309.267700 
	C819.022156,309.500000 819.057678,309.963867 819.057678,309.963867 
	C817.581055,309.669922 816.104492,309.376007 814.064697,309.037292 
	C813.501587,308.992493 813.015442,308.993622 813.015442,308.993622 
z" />
  <path fill="#3A99C5" d="
M760.563477,320.145355 
	C760.076111,319.982697 760.049194,319.784882 760.341064,319.271973 
	C761.109802,318.918884 761.559631,318.880859 762.341858,318.879456 
	C763.448486,318.609375 764.222656,318.302643 765.335938,317.995148 
	C766.468933,317.679474 767.262878,317.364532 768.453003,317.099548 
	C771.566956,317.432648 774.284668,317.715790 777.002441,317.998901 
	C779.042358,318.000763 781.082275,318.002625 783.772705,318.264343 
	C785.300293,318.638397 786.177368,318.752594 787.054504,318.866760 
	C787.604370,319.115814 788.154236,319.364899 788.799316,319.911285 
	C779.604309,320.175781 770.314087,320.143005 760.563477,320.145355 
z" />
  <path fill="#3D1C0D" d="
M871.007874,309.034912 
	C868.611450,309.359558 866.214966,309.684204 863.385010,310.036743 
	C859.947632,310.044281 856.943848,310.023926 853.017578,309.992004 
	C846.716858,309.998444 841.338623,310.016388 835.960388,310.034363 
	C833.295837,310.017181 830.631226,310.000000 827.539185,309.683289 
	C827.144470,309.195465 827.177185,309.007172 827.661987,308.846710 
	C842.411926,308.928009 856.709900,308.981445 871.007874,309.034912 
z" />
  <path fill="#140E08" d="
M836.066284,310.425018 
	C841.338623,310.016388 846.716858,309.998444 852.566528,310.002625 
	C852.846558,310.477783 852.646362,311.329773 852.464844,311.325806 
	C847.032776,311.207794 841.602661,311.005066 836.066284,310.425018 
z" />
  <path fill="#140E08" d="
M827.209961,308.818878 
	C827.177185,309.007172 827.144470,309.195465 827.095947,309.669556 
	C825.850159,310.140167 824.620178,310.324982 823.185913,309.987640 
	C822.980286,309.294220 822.978943,309.122955 823.101318,308.859497 
	C823.224976,308.767242 823.526672,308.702759 823.982239,308.783203 
	C825.355652,308.850922 826.273438,308.838196 827.193481,308.841064 
	C827.195618,308.856628 827.209961,308.818878 827.209961,308.818878 
z" />
  <path fill="#3D1C0D" d="
M822.977661,308.951721 
	C822.978943,309.122955 822.980286,309.294220 822.968872,309.721680 
	C821.915405,309.979340 820.874756,309.980743 819.445862,309.973022 
	C819.057678,309.963867 819.022156,309.500000 819.401367,309.184967 
	C820.846313,308.897217 821.911987,308.924469 822.977661,308.951721 
z" />
  <path fill="#3A99C5" d="
M788.947327,320.430634 
	C789.514954,320.636108 790.203430,321.117706 790.864380,321.962769 
	C790.247314,321.786438 789.657715,321.246613 788.947327,320.430634 
z" />
  <path fill="#111313" d="
M812.952515,309.324982 
	C813.015442,308.993622 813.501587,308.992493 813.744385,308.995453 
	C813.990356,309.439301 813.993408,309.880219 813.996643,310.651184 
	C813.824707,310.984985 813.652588,310.988708 813.221924,310.996063 
	C812.938782,310.551910 812.914185,310.104126 812.952515,309.324982 
z" />
  <path fill="#2F5F90" d="
M791.931274,366.400513 
	C792.039429,366.212097 792.293213,366.189270 792.914795,366.274231 
	C792.880615,366.443359 792.478760,366.504730 791.931274,366.400513 
z" />
  <path fill="#E7492F" d="
M846.864258,285.459930 
	C846.864258,285.459930 846.800110,285.187073 847.173462,284.891541 
	C849.049500,283.387787 850.552124,282.179596 852.054749,280.971375 
	C852.054749,280.971344 852.002014,280.999725 852.106201,281.211609 
	C852.493652,281.609924 852.777039,281.796387 853.060364,281.982819 
	C853.060364,281.982819 853.001282,281.998627 853.106079,282.210754 
	C853.494995,282.609222 853.779175,282.795624 854.063354,282.982025 
	C854.063354,282.982025 854.002014,282.998169 854.106262,283.209961 
	C854.495361,283.608337 854.780273,283.794861 855.065125,283.981384 
	C855.065125,283.981384 855.001831,283.995880 855.002563,284.337585 
	C856.022034,286.305908 856.826843,288.127472 858.098816,289.523315 
	C862.245667,294.074005 866.563049,298.469360 871.846802,304.005798 
	C855.991394,304.005798 841.755249,304.005798 827.441162,303.640442 
	C822.176453,297.335968 817.068787,291.325378 811.784119,285.474701 
	C804.280457,277.167236 796.646423,268.977539 789.358521,260.453918 
	C797.784790,260.724792 805.920654,261.279236 814.238647,262.163269 
	C815.278931,264.633453 816.723267,266.732941 816.876831,268.922943 
	C817.228210,273.934998 819.154541,277.421387 824.112305,278.914764 
	C824.112305,278.914764 824.068237,278.988434 824.143921,279.196838 
	C824.508423,279.591309 824.797241,279.777405 825.086121,279.963501 
	C825.086121,279.963501 825.012512,279.989594 825.113770,280.200256 
	C825.503540,280.596436 825.791931,280.781921 826.080383,280.967407 
	C826.080383,280.967407 826.009216,280.991272 826.110413,281.202576 
	C826.498291,281.600586 826.784912,281.787323 827.071594,281.974060 
	C827.071594,281.974060 827.005310,281.994720 827.107056,282.207092 
	C827.494507,282.606110 827.780334,282.792755 828.066101,282.979401 
	C828.066101,282.979401 828.003174,282.996643 828.106018,283.208069 
	C828.491882,283.607880 828.774841,283.796295 829.057861,283.984711 
	C829.057861,283.984711 829.000000,283.999817 829.111938,284.214661 
	C829.523560,284.602020 829.823120,284.774597 830.122742,284.947144 
	C830.122742,284.947144 830.031799,284.944946 830.085815,285.292419 
	C835.039062,289.135071 843.330750,289.045837 846.864258,285.459930 
z" />
  <path fill="#D75641" d="
M823.101318,308.859497 
	C821.911987,308.924469 820.846313,308.897217 819.389160,308.952667 
	C812.909668,302.739105 806.821655,296.442810 800.402039,290.022766 
	C800.070435,289.898987 800.102051,289.949982 800.029297,289.687866 
	C799.655090,289.249146 799.353699,289.072479 799.039917,288.935730 
	C799.027527,288.975586 799.105530,288.945709 799.037109,288.680939 
	C798.663879,288.241730 798.359009,288.067291 798.039062,287.930969 
	C798.023926,287.969055 798.103943,287.951263 798.035645,287.675018 
	C797.669922,287.173218 797.372498,286.947693 796.940186,286.425842 
	C790.852905,279.882843 784.707520,273.805420 779.023987,267.323059 
	C775.845276,263.697601 773.418030,264.218414 770.515686,267.274414 
	C759.891907,278.460876 749.234741,289.615601 738.590210,300.782288 
	C736.509277,302.856659 734.616882,305.189240 732.271606,306.901581 
	C731.010193,307.822540 728.971924,307.679474 727.196472,307.373016 
	C728.613098,304.767487 729.973083,302.671326 731.648560,300.868347 
	C736.843872,295.277466 742.160645,289.799377 747.427490,284.274933 
	C755.676392,275.622803 763.860352,266.906433 772.274841,258.418518 
	C773.055725,257.630737 775.932617,257.611084 776.753052,258.384277 
	C782.192566,263.510773 787.346497,268.941223 792.574158,274.291473 
	C802.324341,284.270294 812.047913,294.275208 821.834412,304.218262 
	C822.488098,304.882446 823.578003,305.117401 824.416687,305.872192 
	C824.087769,307.029144 823.807190,307.865936 823.526672,308.702759 
	C823.526672,308.702759 823.224976,308.767242 823.101318,308.859497 
z" />
  <path fill="#EA9081" d="
M824.465027,305.552002 
	C823.578003,305.117401 822.488098,304.882446 821.834412,304.218262 
	C812.047913,294.275208 802.324341,284.270294 792.574158,274.291473 
	C787.346497,268.941223 782.192566,263.510773 776.753052,258.384277 
	C775.932617,257.611084 773.055725,257.630737 772.274841,258.418518 
	C763.860352,266.906433 755.676392,275.622803 747.427490,284.274933 
	C742.160645,289.799377 736.843872,295.277466 731.648560,300.868347 
	C729.973083,302.671326 728.613098,304.767487 727.023682,307.094299 
	C724.277649,305.630646 724.776245,303.807220 726.772522,301.752045 
	C731.874390,296.499573 736.893433,291.166595 741.939758,285.860260 
	C750.543579,276.813110 759.085632,267.706329 767.763062,258.730347 
	C774.293884,251.974777 775.509521,252.060593 782.183167,258.854553 
	C782.882812,259.566772 783.599426,260.262299 784.738281,261.435547 
	C796.496277,273.610107 807.907349,285.236267 819.082275,297.085175 
	C821.335632,299.474426 822.694031,302.707794 824.465027,305.552002 
z" />
  <path fill="#111313" d="
M738.923950,300.964355 
	C749.234741,289.615601 759.891907,278.460876 770.515686,267.274414 
	C773.418030,264.218414 775.845276,263.697601 779.023987,267.323059 
	C784.707520,273.805420 790.852905,279.882843 797.012573,286.702972 
	C797.514526,287.501373 797.809265,287.726318 798.103943,287.951263 
	C798.103943,287.951263 798.023926,287.969055 798.132263,288.177765 
	C798.528931,288.572876 798.817200,288.759308 799.105530,288.945709 
	C799.105530,288.945709 799.027527,288.975586 799.133545,289.181946 
	C799.527100,289.575562 799.814575,289.762787 800.102051,289.949982 
	C800.102051,289.949982 800.070435,289.898987 800.097351,289.884430 
	C800.083313,290.971558 800.042297,292.073212 799.989746,293.587036 
	C791.185425,285.917206 782.392639,277.835205 774.427246,270.513641 
	C764.132080,280.236572 752.497070,291.224762 740.516602,302.276855 
	C739.866638,301.942657 739.562134,301.544556 738.923950,300.964355 
z" />
  <path fill="#D75641" d="
M827.519104,304.005798 
	C841.755249,304.005798 855.991394,304.005798 871.846802,304.005798 
	C866.563049,298.469360 862.245667,294.074005 858.098816,289.523315 
	C856.826843,288.127472 856.022034,286.305908 855.018005,284.309021 
	C860.635498,289.611450 866.320435,295.206360 871.801758,300.994049 
	C874.087219,303.407257 874.963867,306.198578 871.297607,308.845825 
	C856.709900,308.981445 842.411926,308.928009 827.661987,308.846710 
	C827.209961,308.818878 827.195618,308.856628 827.193298,308.439941 
	C827.300354,306.684082 827.409729,305.344940 827.519104,304.005798 
z" />
  <path fill="#3D1C0D" d="
M827.441162,303.640442 
	C827.409729,305.344940 827.300354,306.684082 827.191162,308.424347 
	C826.273438,308.838196 825.355652,308.850922 823.982239,308.783203 
	C823.807190,307.865936 824.087769,307.029144 824.416687,305.872162 
	C822.694031,302.707794 821.335632,299.474426 819.082275,297.085175 
	C807.907349,285.236267 796.496277,273.610107 785.032898,261.614044 
	C785.297607,260.884369 785.697876,260.446136 786.738525,259.895386 
	C787.941956,260.101074 788.505005,260.419281 789.068115,260.737488 
	C796.646423,268.977539 804.280457,277.167236 811.784119,285.474701 
	C817.068787,291.325378 822.176453,297.335968 827.441162,303.640442 
z" />
  <path fill="#287BBA" d="
M843.007202,282.567261 
	C832.488098,282.978149 834.047852,283.869354 833.897461,273.872162 
	C833.845581,270.421082 833.889221,266.968506 833.889221,263.190308 
	C837.071228,263.190308 839.796204,263.190308 843.266296,263.190308 
	C843.266296,268.949188 843.266296,274.531342 843.384888,280.569275 
	C843.372437,281.436676 843.241333,281.848358 843.007202,282.567261 
z" />
  <path fill="#EA9081" d="
M789.358521,260.453918 
	C788.505005,260.419281 787.941956,260.101074 787.144043,259.702393 
	C786.796204,259.487549 786.683167,259.353149 786.245239,258.859924 
	C785.614685,258.390045 785.309082,258.278961 785.003418,258.167877 
	C783.665588,257.261047 782.327820,256.354248 780.989990,255.447433 
	C781.349670,255.093857 781.709351,254.740295 782.068970,254.386719 
	C791.757751,255.374756 801.467896,256.203461 811.116211,257.493896 
	C812.907715,257.733490 814.450378,259.832550 815.805542,261.485779 
	C815.020996,261.876617 814.538757,261.855133 814.056458,261.833649 
	C805.920654,261.279236 797.784790,260.724792 789.358521,260.453918 
z" />
  <path fill="#A2DAF0" d="
M821.877563,263.319763 
	C824.929993,262.875702 827.882996,262.875702 831.258301,262.875702 
	C831.258301,268.805969 831.258301,274.084015 831.151123,279.843323 
	C828.296021,277.628510 825.548035,274.932495 822.458679,271.818420 
	C822.005371,271.268066 821.893372,271.135742 821.781311,271.003418 
	C821.780212,268.590210 821.779114,266.177032 821.877563,263.319763 
z" />
  <path fill="#A2DAF0" d="
M833.966431,258.918823 
	C829.927856,258.963715 825.889160,259.008575 821.390137,259.154175 
	C820.462097,257.378265 819.994446,255.501663 820.230957,253.363831 
	C824.975220,253.037582 829.015259,252.972549 833.055298,252.907532 
	C833.055298,252.907532 833.448608,253.067551 833.703308,253.529236 
	C833.960815,255.633560 833.963623,257.276184 833.966431,258.918823 
z" />
  <path fill="#287BBA" d="
M834.426758,258.979736 
	C833.963623,257.276184 833.960815,255.633560 833.908691,253.582794 
	C834.044739,253.094971 834.230042,253.015289 835.153931,252.955048 
	C838.929626,252.930878 841.966797,252.887299 845.004028,252.843719 
	C845.004028,252.843719 845.447937,252.990158 845.679871,253.017166 
	C846.897827,257.323029 845.812744,259.772980 840.809814,259.131104 
	C838.863708,258.881378 836.862915,259.058136 834.426758,258.979736 
z" />
  <path fill="#D75641" d="
M814.238647,262.163269 
	C814.538757,261.855133 815.020996,261.876617 815.863892,261.867859 
	C817.099182,262.984100 818.876831,264.298462 818.700073,265.249542 
	C817.662781,270.830841 820.462036,274.630249 824.042114,278.576538 
	C819.154541,277.421387 817.228210,273.934998 816.876831,268.922943 
	C816.723267,266.732941 815.278931,264.633453 814.238647,262.163269 
z" />
  <path fill="#D75641" d="
M846.421143,285.596558 
	C843.330750,289.045837 835.039062,289.135071 830.108276,285.252869 
	C835.377075,285.154907 840.677490,285.444031 846.421143,285.596558 
z" />
  <path fill="#D75641" d="
M851.931885,280.659302 
	C850.552124,282.179596 849.049500,283.387787 847.259155,284.780640 
	C846.971558,282.249786 846.971558,279.534241 846.971558,276.818726 
	C847.410522,276.555237 847.849487,276.291748 848.288452,276.028259 
	C849.461975,277.467926 850.635498,278.907593 851.931885,280.659302 
z" />
  <path fill="#0A1D30" d="
M844.761963,252.577118 
	C841.966797,252.887299 838.929626,252.930878 835.446655,252.878586 
	C838.061096,250.350098 841.248291,250.480927 844.761963,252.577118 
z" />
  <path fill="#0A1D30" d="
M832.737427,252.641144 
	C829.015259,252.972549 824.975220,253.037582 820.473389,253.069946 
	C824.147522,252.816452 828.283508,252.595612 832.737427,252.641144 
z" />
  <path fill="#0A1D30" d="
M821.654297,271.143982 
	C821.893372,271.135742 822.005371,271.268066 822.176758,271.653625 
	C821.999939,271.699432 821.763611,271.491974 821.654297,271.143982 
z" />
  <path fill="#3D1C0D" d="
M785.127014,258.372955 
	C785.309082,258.278961 785.614685,258.390045 786.006531,258.748413 
	C785.755798,258.969788 785.475098,258.830566 785.127014,258.372955 
z" />
  <path fill="#D75641" d="
M854.984741,283.727020 
	C854.780273,283.794861 854.495361,283.608337 854.113831,283.179169 
	C854.312866,283.115265 854.608582,283.293945 854.984741,283.727020 
z" />
  <path fill="#D75641" d="
M852.979614,281.729675 
	C852.777039,281.796387 852.493652,281.609924 852.112915,281.182434 
	C852.309998,281.119751 852.604431,281.298157 852.979614,281.729675 
z" />
  <path fill="#D75641" d="
M827.994263,282.719788 
	C827.780334,282.792755 827.494507,282.606110 827.117065,282.173889 
	C827.324402,282.105591 827.623413,282.282898 827.994263,282.719788 
z" />
  <path fill="#D75641" d="
M853.982361,282.728485 
	C853.779175,282.795624 853.494995,282.609222 853.113586,282.181091 
	C853.311340,282.117889 853.606384,282.296417 853.982361,282.728485 
z" />
  <path fill="#D75641" d="
M828.980469,283.729706 
	C828.774841,283.796295 828.491882,283.607880 828.114380,283.176514 
	C828.314331,283.113953 828.608643,283.294312 828.980469,283.729706 
z" />
  <path fill="#D75641" d="
M826.999329,281.713440 
	C826.784912,281.787323 826.498291,281.600586 826.121826,281.166809 
	C826.330322,281.097443 826.628723,281.275116 826.999329,281.713440 
z" />
  <path fill="#D75641" d="
M830.036377,284.690613 
	C829.823120,284.774597 829.523560,284.602020 829.119019,284.185577 
	C829.326111,284.105804 829.638062,284.269958 830.036377,284.690613 
z" />
  <path fill="#D75641" d="
M826.012451,280.704224 
	C825.791931,280.781921 825.503540,280.596436 825.125488,280.162994 
	C825.338684,280.090393 825.641602,280.265717 826.012451,280.704224 
z" />
  <path fill="#D75641" d="
M825.026245,279.693237 
	C824.797241,279.777405 824.508423,279.591309 824.132935,279.155304 
	C824.353027,279.077942 824.659729,279.250488 825.026245,279.693237 
z" />
  <path fill="#AFD5E3" d="
M868.532837,228.971039 
	C868.008240,235.641434 862.157593,239.974579 855.558777,238.607712 
	C852.992188,238.076065 850.518127,237.113098 847.970886,236.469543 
	C842.953796,235.202026 838.449585,235.627991 835.189392,240.802032 
	C834.322876,237.560242 838.269653,232.692566 842.510681,232.144547 
	C845.100220,231.809937 848.073730,231.500275 850.373840,232.425171 
	C857.216675,235.176743 862.934326,233.745682 868.532837,228.971039 
z" />
  <path fill="#0A1D30" d="
M841.000977,350.027222 
	C826.380981,349.747162 826.978027,352.108154 827.001221,336.617767 
	C827.004700,334.286285 826.912109,331.954773 826.876160,329.623077 
	C826.781982,323.507446 827.998291,322.177673 833.956482,322.102051 
	C838.453491,322.044983 842.959778,322.269989 847.447510,322.059998 
	C851.955017,321.849060 853.896179,323.864227 853.846008,328.235046 
	C853.784851,333.564667 853.674011,338.899353 853.835876,344.224182 
	C853.964111,348.443756 852.415771,350.479248 847.981873,350.027130 
	C845.839844,349.808685 843.655029,350.010345 841.000977,350.027222 
M850.960022,343.353210 
	C850.960022,341.586395 850.960022,339.819580 850.960022,338.108978 
	C847.709412,338.108978 845.011108,338.108978 842.320740,338.108978 
	C842.320740,341.243744 842.320740,343.973999 842.320740,347.299194 
	C845.307800,345.610016 849.604492,350.050323 850.960022,343.353210 
M835.515137,346.994385 
	C842.819946,346.254822 837.223755,341.008331 839.409363,338.028015 
	C835.881348,338.028015 833.177856,338.028015 830.431396,338.028015 
	C830.431396,341.076965 830.431396,343.802887 830.431396,346.747406 
	C832.011536,346.839233 833.301636,346.914185 835.515137,346.994385 
M842.038330,332.306824 
	C843.795227,338.229492 847.870667,333.441254 850.662537,334.807861 
	C850.662537,331.572296 850.662537,328.961212 850.662537,326.115173 
	C847.699097,326.115173 844.999939,326.115173 842.038147,326.115173 
	C842.038147,328.087067 842.038147,329.730957 842.038330,332.306824 
M839.037415,326.606628 
	C836.155701,326.304535 833.273926,326.002411 830.291504,325.689728 
	C830.291504,329.361359 830.291504,331.928467 830.291504,334.609985 
	C833.274841,334.609985 835.984497,334.609985 839.116394,334.609985 
	C839.116394,332.093140 839.116394,329.825623 839.037415,326.606628 
z" />
  <path fill="#2FA5DE" d="
M777.001831,317.615479 
	C774.284668,317.715790 771.566956,317.432648 768.304932,316.783752 
	C761.283752,311.206757 762.264221,300.728119 753.926025,296.831604 
	C759.878052,290.792664 765.886292,284.807648 771.753174,278.687012 
	C773.972229,276.371979 775.587585,276.943176 777.551270,278.972778 
	C783.219055,284.830719 788.998474,290.580658 794.884766,296.668610 
	C793.258423,296.964203 791.481262,296.964203 789.286926,296.964203 
	C789.522705,305.437042 785.651978,310.751160 778.467896,313.947113 
	C777.653137,314.309631 777.474670,316.102478 777.001831,317.615479 
M787.024292,296.882904 
	C785.136658,288.937439 779.482727,284.708466 772.430542,285.967255 
	C765.870422,287.138245 761.550232,293.349060 762.398743,300.389252 
	C763.225952,307.252838 768.808716,311.608276 776.148865,311.116730 
	C782.953796,310.661041 787.041809,305.652039 787.024292,296.882904 
z" />
  <path fill="#2FA5DE" d="
M810.516235,359.996216 
	C809.951660,361.393768 809.112305,363.781525 807.871216,364.012665 
	C803.891357,364.753937 799.669434,365.281403 795.738953,364.652924 
	C794.227173,364.411133 793.248291,360.836639 792.046509,358.374939 
	C797.575439,362.970947 804.116455,358.826996 810.516235,359.996216 
z" />
  <path fill="#2FA5DE" d="
M810.711426,311.858093 
	C811.006531,315.693481 811.010681,319.388214 811.000488,323.543854 
	C810.332764,323.211792 809.295593,322.505524 809.093323,321.610596 
	C808.274353,317.987000 807.712280,314.305298 807.093750,310.230133 
	C808.228271,310.449310 809.324341,311.083374 810.711426,311.858093 
z" />
  <path fill="#2FA5DE" d="
M810.605591,330.072510 
	C810.987915,332.037384 810.997925,334.085632 810.990479,336.572754 
	C807.739868,335.048676 808.497070,332.655121 810.605591,330.072510 
z" />
  <path fill="#2FA5DE" d="
M786.985779,318.557861 
	C786.177368,318.752594 785.300293,318.638397 784.209778,318.264130 
	C784.969971,318.085663 785.943481,318.167297 786.985779,318.557861 
z" />
  <path fill="#3F5667" d="
M779.296082,344.503174 
	C781.033691,341.916412 782.982056,341.401093 784.495789,343.937256 
	C784.967590,344.727692 784.240906,347.198883 783.413391,347.617920 
	C780.949646,348.865417 779.273804,347.823944 779.296082,344.503174 
z" />
  <path fill="#21ACE8" d="
M753.641296,297.015442 
	C762.264221,300.728119 761.283752,311.206757 767.908691,316.733765 
	C767.262878,317.364532 766.468933,317.679474 765.006714,317.993591 
	C763.562134,318.276123 762.785767,318.559479 762.009460,318.842834 
	C761.559631,318.880859 761.109802,318.918884 760.321411,318.973175 
	C756.061707,319.847748 756.029053,322.970459 756.016968,325.990662 
	C755.973877,336.800842 756.102417,347.613190 755.898254,358.419678 
	C755.863831,360.240936 754.838989,363.273254 753.687439,363.584564 
	C751.377136,364.209198 747.956421,365.530792 746.628052,361.515045 
	C745.433411,357.903687 743.345520,354.338440 743.187988,350.686584 
	C742.882446,343.604492 743.891174,336.476044 743.898010,329.366394 
	C743.902405,324.775818 743.093933,320.184479 742.387695,315.329468 
	C741.925537,313.814209 741.725403,312.562927 741.237427,311.056396 
	C745.085266,306.267212 749.220947,301.733276 753.641296,297.015442 
z" />
  <path fill="#111313" d="
M802.062561,296.266541 
	C802.253418,296.213104 802.523132,296.402344 802.882263,296.827576 
	C802.694885,296.878784 802.418213,296.694000 802.062561,296.266541 
z" />
  <path fill="#111313" d="
M800.073792,294.260468 
	C800.332886,294.097473 800.596436,294.276245 800.884094,294.782471 
	C800.701416,294.837799 800.424744,294.668579 800.073792,294.260468 
z" />
  <path fill="#111313" d="
M807.896851,302.334137 
	C808.101990,302.282684 808.424866,302.489838 808.829407,302.982910 
	C808.612244,303.043488 808.313477,302.818115 807.896851,302.334137 
z" />
  <path fill="#111313" d="
M805.947876,300.307678 
	C806.146851,300.252563 806.453613,300.449829 806.850159,300.913391 
	C806.645203,300.973114 806.350464,300.766571 805.947876,300.307678 
z" />
  <path fill="#111313" d="
M801.068115,295.262177 
	C801.329041,295.098145 801.594421,295.278503 801.882690,295.789795 
	C801.698730,295.845093 801.421143,295.673706 801.068115,295.262177 
z" />
  <path fill="#111313" d="
M804.002686,298.283569 
	C804.195740,298.229645 804.485352,298.422607 804.866455,298.866699 
	C804.671753,298.922058 804.385498,298.726257 804.002686,298.283569 
z" />
  <path fill="#2FA5DE" d="
M762.341858,318.879456 
	C762.785767,318.559479 763.562134,318.276123 764.667603,317.994324 
	C764.222656,318.302643 763.448486,318.609375 762.341858,318.879456 
z" />
  <path fill="#140E08" d="
M800.029297,289.687866 
	C799.814575,289.762787 799.527100,289.575562 799.145935,289.142090 
	C799.353699,289.072479 799.655090,289.249146 800.029297,289.687866 
z" />
  <path fill="#140E08" d="
M799.037109,288.680939 
	C798.817200,288.759308 798.528931,288.572876 798.147339,288.139648 
	C798.359009,288.067291 798.663879,288.241730 799.037109,288.680939 
z" />
  <path fill="#140E08" d="
M798.035645,287.675018 
	C797.809265,287.726318 797.514526,287.501373 797.147461,286.999268 
	C797.372498,286.947693 797.669922,287.173218 798.035645,287.675018 
z" />
  <path fill="#A4DDF1" d="
M850.950806,343.816589 
	C849.604492,350.050323 845.307800,345.610016 842.320740,347.299194 
	C842.320740,343.973999 842.320740,341.243744 842.320740,338.108978 
	C845.011108,338.108978 847.709412,338.108978 850.960022,338.108978 
	C850.960022,339.819580 850.960022,341.586395 850.950806,343.816589 
z" />
  <path fill="#CAEAF3" d="
M835.053406,346.991760 
	C833.301636,346.914185 832.011536,346.839233 830.431396,346.747406 
	C830.431396,343.802887 830.431396,341.076965 830.431396,338.028015 
	C833.177856,338.028015 835.881348,338.028015 839.409363,338.028015 
	C837.223755,341.008331 842.819946,346.254822 835.053406,346.991760 
z" />
  <path fill="#AFD5E3" d="
M842.038208,331.840820 
	C842.038147,329.730957 842.038147,328.087067 842.038147,326.115173 
	C844.999939,326.115173 847.699097,326.115173 850.662537,326.115173 
	C850.662537,328.961212 850.662537,331.572296 850.662537,334.807861 
	C847.870667,333.441254 843.795227,338.229492 842.038208,331.840820 
z" />
  <path fill="#AFD5E3" d="
M839.076904,327.082397 
	C839.116394,329.825623 839.116394,332.093140 839.116394,334.609985 
	C835.984497,334.609985 833.274841,334.609985 830.291504,334.609985 
	C830.291504,331.928467 830.291504,329.361359 830.291504,325.689728 
	C833.273926,326.002411 836.155701,326.304535 839.076904,327.082397 
z" />
  <path fill="#0A1D30" d="
M787.050232,297.305298 
	C787.041809,305.652039 782.953796,310.661041 776.148865,311.116730 
	C768.808716,311.608276 763.225952,307.252838 762.398743,300.389252 
	C761.550232,293.349060 765.870422,287.138245 772.430542,285.967255 
	C779.482727,284.708466 785.136658,288.937439 787.050232,297.305298 
M765.566956,301.750305 
	C767.612854,304.049347 769.658752,306.348389 771.704651,308.647430 
	C772.120361,308.336578 772.536072,308.025726 772.951782,307.714844 
	C772.951782,305.204865 772.951782,302.694855 772.951782,299.446808 
	C770.144592,300.019104 767.752991,300.506683 765.566956,301.750305 
M775.950562,294.569397 
	C777.299133,299.967926 781.099243,295.765839 783.522583,296.955322 
	C783.863403,296.498779 784.204224,296.042206 784.545044,295.585632 
	C782.107422,293.227783 779.669800,290.869904 777.232178,288.512054 
	C776.803955,288.811920 776.375732,289.111786 775.947510,289.411652 
	C775.947510,290.833740 775.947510,292.255798 775.950562,294.569397 
M781.102051,299.938293 
	C779.496521,299.938293 777.891052,299.938293 776.102722,299.938293 
	C776.102722,302.776245 776.102722,305.185760 776.102722,309.365997 
	C779.161011,306.419556 781.337891,304.416473 783.326965,302.241638 
	C783.501160,302.051239 782.443298,300.734039 781.102051,299.938293 
M765.770081,295.355042 
	C768.012573,296.104034 770.255005,296.853027 772.852783,297.720673 
	C772.852783,294.120667 772.852783,291.747101 772.852783,289.373505 
	C772.495544,289.111084 772.138245,288.848663 771.781006,288.586243 
	C769.861572,290.604431 767.942139,292.622589 765.770081,295.355042 
z" />
  <path fill="#AFD5E3" d="
M765.464111,301.372314 
	C767.752991,300.506683 770.144592,300.019104 772.951782,299.446808 
	C772.951782,302.694855 772.951782,305.204865 772.951782,307.714844 
	C772.536072,308.025726 772.120361,308.336578 771.704651,308.647430 
	C769.658752,306.348389 767.612854,304.049347 765.464111,301.372314 
z" />
  <path fill="#AFD5E3" d="
M775.949036,294.123657 
	C775.947510,292.255798 775.947510,290.833740 775.947510,289.411652 
	C776.375732,289.111786 776.803955,288.811920 777.232178,288.512054 
	C779.669800,290.869904 782.107422,293.227783 784.545044,295.585632 
	C784.204224,296.042206 783.863403,296.498779 783.522583,296.955322 
	C781.099243,295.765839 777.299133,299.967926 775.949036,294.123657 
z" />
  <path fill="#CAEAF3" d="
M781.529846,299.939270 
	C782.443298,300.734039 783.501160,302.051239 783.326965,302.241638 
	C781.337891,304.416473 779.161011,306.419556 776.102722,309.365997 
	C776.102722,305.185760 776.102722,302.776245 776.102722,299.938293 
	C777.891052,299.938293 779.496521,299.938293 781.529846,299.939270 
z" />
  <path fill="#AFD5E3" d="
M765.896362,294.997925 
	C767.942139,292.622589 769.861572,290.604431 771.781006,288.586243 
	C772.138245,288.848663 772.495544,289.111084 772.852783,289.373505 
	C772.852783,291.747101 772.852783,294.120667 772.852783,297.720673 
	C770.255005,296.853027 768.012573,296.104034 765.896362,294.997925 
z" />
</svg>