<svg xmlns="http://www.w3.org/2000/svg" viewBox="484.1271273 12.801702800000008 189.48021239999997 189.48021239999997">
  <path fill="#111313" d="
M576.764709,52.911358 
	C578.964417,52.769032 581.004028,52.907700 582.568420,52.112080 
	C591.163574,47.740826 599.733154,43.301369 608.127014,38.558670 
	C613.075439,35.762676 617.504272,35.421707 622.617004,38.336849 
	C631.859009,43.606319 641.322876,48.500660 650.819824,53.302967 
	C655.704834,55.773136 657.817322,59.327488 657.797485,64.822868 
	C657.676025,98.483147 657.736084,132.144058 657.723389,165.804764 
	C657.722900,167.135391 657.695862,168.479401 657.515076,169.794342 
	C656.562256,176.723328 652.057251,179.210052 645.820068,176.064590 
	C636.769592,171.500320 627.882080,166.605804 618.749451,162.217621 
	C616.912231,161.334839 613.920532,161.323090 612.092529,162.210449 
	C602.824341,166.709579 593.710388,171.538193 584.655823,176.460236 
	C580.593262,178.668625 577.031982,178.611206 572.934143,176.339798 
	C563.779663,171.265472 554.452820,166.489761 545.059326,161.870773 
	C543.473267,161.090866 540.858215,161.009399 539.306946,161.783875 
	C530.537964,166.161591 521.918274,170.843399 513.306702,175.529892 
	C505.714050,179.661911 500.082397,176.493210 500.064789,167.814194 
	C499.994720,133.320221 500.028839,98.826012 499.930786,64.332161 
	C499.917145,59.533855 501.485321,56.061611 505.910156,53.781353 
	C515.959351,48.602737 525.979065,43.356510 535.857849,37.862740 
	C540.142517,35.479939 543.915344,35.737923 548.083496,37.981800 
	C557.453857,43.026207 566.943909,47.848408 576.764709,52.911358 
M614.164062,47.833454 
	C614.164062,47.833454 613.876221,47.956417 614.063965,47.075474 
	C614.063965,45.285431 614.063965,43.495388 614.063965,41.023602 
	C611.995239,41.994797 610.359619,42.693024 608.787292,43.512527 
	C600.550354,47.805470 592.423523,52.325260 584.054443,56.341175 
	C580.909302,57.850384 579.571350,59.711872 579.385864,63.261402 
	C578.860657,63.542019 578.335388,63.822632 577.558350,63.803196 
	C577.525635,63.528854 577.403015,63.303410 577.349243,62.282196 
	C576.335693,60.489014 575.769592,57.921856 574.232910,57.033535 
	C566.636414,52.642067 558.790894,48.679810 551.015808,44.599342 
	C548.624268,43.344231 546.177856,42.193821 543.482544,40.859879 
	C543.355469,43.362309 543.263245,45.177338 542.469849,47.001350 
	C542.002319,47.000313 541.534790,46.999275 540.899048,46.181744 
	C540.793762,44.493134 540.688477,42.804527 540.589722,41.221367 
	C536.918823,42.950474 533.617859,44.386749 530.425415,46.033474 
	C523.579895,49.564568 516.945801,53.555927 509.916992,56.661358 
	C506.002136,58.390991 504.388123,60.524929 504.407257,64.725113 
	C504.499786,85.008080 504.372253,105.291939 504.388275,125.575424 
	C504.394958,134.042160 504.564240,142.508743 504.392731,151.803329 
	C504.487061,154.559906 504.581390,157.316467 504.421021,160.957214 
	C504.395813,163.120026 504.311371,165.284073 504.356964,167.445389 
	C504.475311,173.056763 506.194397,174.133255 511.000427,171.583405 
	C519.508423,167.069427 527.893127,162.306824 536.540161,158.079330 
	C539.830322,156.470795 541.306274,154.480865 541.702637,150.994476 
	C542.129517,150.995682 542.556335,150.996902 543.234741,151.051880 
	C543.234741,151.051880 543.492004,151.050903 543.366760,151.888855 
	C544.407532,153.679932 545.008057,156.230850 546.564209,157.132431 
	C553.857239,161.357834 561.409363,165.136826 568.877441,169.059067 
	C571.714294,170.548981 574.573853,171.995483 578.083008,173.801331 
	C577.682617,170.861771 577.418335,168.920883 577.499512,166.143005 
	C577.426086,163.735992 577.352661,161.328979 577.581116,158.449402 
	C577.672668,158.286438 577.764221,158.123474 578.468201,158.431900 
	C578.955078,160.617950 579.442017,162.804001 580.080627,165.674271 
	C580.156921,166.131500 580.233154,166.588745 580.151489,167.873795 
	C580.151489,169.565720 580.151489,171.257660 580.151489,173.396286 
	C590.615784,167.981033 600.354004,162.783554 610.251953,157.910553 
	C613.440735,156.340652 614.875793,154.456055 614.072998,151.128662 
	C614.072998,151.128662 614.255676,150.999466 614.541199,150.808884 
	C614.426514,150.536346 614.311829,150.263809 614.163513,149.512939 
	C614.163513,149.512939 614.199768,149.034775 614.520508,148.847885 
	C614.559265,148.730453 614.663513,148.579712 614.624023,148.502106 
	C614.521118,148.299866 614.355103,148.129684 614.187500,147.306152 
	C614.267578,146.890427 614.347656,146.474701 615.003235,146.046677 
	C615.578369,146.045380 616.153503,146.044098 616.876160,146.693710 
	C616.831665,147.133911 616.787170,147.574112 616.329956,148.415161 
	C616.459839,149.285263 616.589722,150.155365 616.964233,151.169937 
	C616.964233,151.169937 617.175903,150.980423 616.978455,151.776703 
	C616.426025,154.421341 617.395630,155.981583 619.900513,157.260010 
	C628.494507,161.645966 636.961060,166.282440 645.456238,170.860580 
	C652.032227,174.404480 653.055481,173.812500 653.060974,166.234375 
	C653.083008,135.742340 653.093140,105.250298 653.102844,74.758263 
	C653.107910,58.727333 653.103516,58.726917 638.500183,52.169464 
	C638.354980,52.104275 638.171875,52.123512 637.520203,51.599674 
	C630.839661,48.027481 624.159058,44.455292 616.646790,40.438347 
	C616.838135,43.762596 616.958984,45.861744 616.849182,48.879658 
	C616.905334,62.881611 616.961487,76.883560 616.863525,91.599693 
	C616.958374,92.066299 617.053284,92.532906 617.036438,93.464432 
	C617.036438,93.464432 617.014282,93.942062 616.228760,93.972321 
	C615.705872,94.037148 615.182922,94.101982 614.293701,93.948174 
	C614.293701,93.948174 613.868408,93.914673 614.051147,93.417885 
	C614.144226,93.267982 614.237244,93.118080 614.763977,92.391907 
	C614.642212,90.308083 614.520447,88.224258 614.224609,85.201324 
	C614.287781,73.107811 614.350891,61.014301 614.637695,48.740131 
	C614.765930,48.446548 614.698914,48.195686 614.164062,47.833454 
z" />
  <path fill="#70C1DC" d="
M577.190430,63.126865 
	C577.403015,63.303410 577.525635,63.528854 577.586914,64.405724 
	C577.446960,78.032883 577.278442,91.057510 576.865723,104.232269 
	C576.168518,105.206192 575.715454,106.029991 575.129272,107.095833 
	C570.547913,104.038719 566.263062,100.944870 561.733215,98.265381 
	C559.755737,97.095657 557.276184,96.774628 554.867432,95.767441 
	C550.982910,92.613106 547.255676,89.759491 543.449524,86.450706 
	C543.418945,73.317123 543.467224,60.638721 543.874268,47.937889 
	C546.033630,48.643856 547.872314,49.290939 549.628357,50.114288 
	C558.827271,54.427208 568.005188,58.784794 577.190430,63.126865 
z" />
  <path fill="#A4DDF1" d="
M614.199768,149.034775 
	C614.199768,149.034775 614.163513,149.512939 614.093750,150.009521 
	C614.101318,150.670563 614.178528,150.835022 614.255676,150.999466 
	C614.255676,150.999466 614.072998,151.128662 613.615601,151.078156 
	C609.579163,152.627853 605.783325,153.878357 602.481567,155.925659 
	C599.114929,158.013153 596.653870,157.466049 593.682800,155.268417 
	C590.021118,152.559982 585.998169,150.340012 581.998047,147.700363 
	C581.642883,147.220108 581.357056,147.072220 580.807861,147.033600 
	C580.608521,147.019058 580.214600,146.951752 580.132080,146.576813 
	C580.129700,145.441177 580.209961,144.680481 580.481140,143.571106 
	C580.546509,138.845856 580.421021,134.469269 580.187866,129.656784 
	C580.155334,127.136627 580.230530,125.052376 580.614868,122.874954 
	C587.047546,118.897911 593.058777,114.819893 599.331421,111.194077 
	C604.008667,108.490433 609.023804,106.371429 614.013672,104.446693 
	C614.235168,118.620544 614.331482,132.339767 614.427734,146.058990 
	C614.347656,146.474701 614.267578,146.890427 614.097839,147.896881 
	C614.072021,148.670013 614.135864,148.852386 614.199768,149.034775 
z" />
  <path fill="#68C95D" d="
M617.017700,90.885513 
	C616.961487,76.883560 616.905334,62.881611 617.328552,48.451294 
	C625.683655,51.877415 633.599487,55.652660 641.424133,59.608276 
	C649.541870,63.712101 650.520569,71.063812 643.956421,77.537918 
	C640.885681,80.566559 637.692932,83.487564 634.809998,86.686745 
	C630.408325,91.571259 625.811646,95.115425 618.977234,91.093872 
	C618.461670,90.790527 617.677185,90.944252 617.017700,90.885513 
z" />
  <path fill="#70C1DC" d="
M616.742676,148.014313 
	C616.787170,147.574112 616.831665,147.133911 616.885254,145.902451 
	C617.003479,130.734390 617.112671,116.357590 617.586670,101.960640 
	C619.879028,103.517944 623.004150,104.775131 623.526550,106.728363 
	C625.771057,115.120934 627.213684,123.726028 629.045837,132.232727 
	C629.343994,133.617264 629.860779,135.119583 630.739258,136.186371 
	C634.981750,141.338425 640.207703,141.232147 647.975952,136.490326 
	C648.002319,146.478287 648.002319,155.999664 648.002319,166.010727 
	C637.226501,160.756668 627.201172,155.868546 617.175903,150.980423 
	C617.175903,150.980423 616.964233,151.169937 616.957764,150.731812 
	C616.881775,149.533875 616.812256,148.774094 616.742676,148.014313 
z" />
  <path fill="#CAEAF3" d="
M617.077148,151.378571 
	C627.201172,155.868546 637.226501,160.756668 648.002319,166.010727 
	C648.002319,155.999664 648.002319,146.478287 648.274902,136.212723 
	C648.356873,132.310898 648.166260,129.153244 648.001343,125.527924 
	C648.012512,110.051071 647.997986,95.041885 647.996948,79.608841 
	C648.400940,76.762878 648.655518,74.309334 649.207397,71.924614 
	C650.840820,64.866425 647.730896,58.862377 641.315125,56.071686 
	C639.903870,55.457836 639.093506,53.462498 638.006470,52.103333 
	C638.171875,52.123512 638.354980,52.104275 638.500183,52.169464 
	C653.103516,58.726917 653.107910,58.727333 653.102844,74.758263 
	C653.093140,105.250298 653.083008,135.742340 653.060974,166.234375 
	C653.055481,173.812500 652.032227,174.404480 645.456238,170.860580 
	C636.961060,166.282440 628.494507,161.645966 619.900513,157.260010 
	C617.395630,155.981583 616.426025,154.421341 617.077148,151.378571 
z" />
  <path fill="#70C1DC" d="
M543.492004,151.050903 
	C543.492004,151.050903 543.234741,151.051880 543.203979,150.580994 
	C543.288269,147.394409 543.403320,144.678711 543.808350,141.849731 
	C548.181458,135.671478 552.264587,129.606506 556.733643,122.968277 
	C558.777893,126.867035 560.500916,130.246063 562.310669,133.577927 
	C564.044861,136.770569 565.104492,141.128357 567.809692,142.832214 
	C573.844727,146.633408 577.253052,151.102448 576.522644,158.344482 
	C576.505920,158.509857 577.015320,158.728287 577.279236,158.921967 
	C577.352661,161.328979 577.426086,163.735992 577.021973,166.490341 
	C567.557556,162.168182 558.601196,157.438309 549.558777,152.878998 
	C547.701477,151.942505 545.522644,151.643661 543.492004,151.050903 
z" />
  <path fill="#EBF6FA" d="
M504.659607,150.975403 
	C504.564240,142.508743 504.394958,134.042160 504.388275,125.575424 
	C504.372253,105.291939 504.499786,85.008080 504.407257,64.725113 
	C504.388123,60.524929 506.002136,58.390991 509.916992,56.661358 
	C516.945801,53.555927 523.579895,49.564568 530.425415,46.033474 
	C533.617859,44.386749 536.918823,42.950474 540.589722,41.221367 
	C540.688477,42.804527 540.793762,44.493134 540.872742,46.832718 
	C540.784241,47.650227 540.721985,47.816753 540.288086,47.970516 
	C535.638611,49.659729 531.360840,51.361702 526.721191,53.046654 
	C525.573425,53.688438 524.787659,54.347240 523.696655,55.173439 
	C522.570923,55.868240 521.802979,56.514221 520.921875,56.905098 
	C509.767639,61.853432 509.763458,61.844040 510.046783,74.285728 
	C509.990295,75.675690 509.954468,76.682159 509.839722,78.113846 
	C509.557556,80.496124 509.157257,82.455826 509.183411,84.409828 
	C509.339111,96.058342 509.593353,107.705528 509.678040,119.668198 
	C509.683014,121.984818 509.824463,123.986412 509.966492,126.457367 
	C509.923889,134.270966 509.880707,141.615189 509.521423,149.027496 
	C507.690125,149.722183 506.174896,150.348801 504.659607,150.975403 
z" />
  <path fill="#AFD5E3" d="
M577.430176,158.685699 
	C577.015320,158.728287 576.505920,158.509857 576.522644,158.344482 
	C577.253052,151.102448 573.844727,146.633408 567.809692,142.832214 
	C565.104492,141.128357 564.044861,136.770569 562.310669,133.577927 
	C560.500916,130.246063 558.777893,126.867035 556.733643,122.968277 
	C552.264587,129.606506 548.181458,135.671478 543.707520,141.426193 
	C543.482239,138.837265 543.647644,136.558594 544.083374,134.125732 
	C549.295166,125.924568 554.236633,117.877579 559.320557,109.598648 
	C555.592957,106.541267 550.942139,104.551399 552.083618,98.962280 
	C552.921387,98.894150 553.398254,98.837990 553.968018,99.016434 
	C554.283447,99.499710 554.505920,99.748398 554.803467,100.348740 
	C556.029602,102.057350 556.956787,103.737839 558.370117,104.715446 
	C564.610657,109.031906 570.991150,113.146034 577.393860,117.665596 
	C577.416809,118.890701 577.366821,119.783630 577.019287,120.647720 
	C572.186157,117.992256 567.650574,115.365631 561.869568,112.017769 
	C561.216370,115.752747 559.613403,118.968597 560.457642,121.297173 
	C562.368347,126.567261 565.003296,131.748901 568.284729,136.285889 
	C570.428528,139.249954 574.222168,141.020767 577.384277,143.757385 
	C577.613159,148.779266 577.734497,153.369888 577.855835,157.960495 
	C577.764221,158.123474 577.672668,158.286438 577.430176,158.685699 
z" />
  <path fill="#EBF6FA" d="
M579.928772,63.013088 
	C579.571350,59.711872 580.909302,57.850384 584.054443,56.341175 
	C592.423523,52.325260 600.550354,47.805470 608.787292,43.512527 
	C610.359619,42.693024 611.995239,41.994797 614.063965,41.023602 
	C614.063965,43.495388 614.063965,45.285431 613.613098,47.477676 
	C612.111328,48.260883 611.060364,48.641891 609.653076,49.049557 
	C606.773987,51.064003 603.073425,52.526859 601.916321,55.123268 
	C593.270264,74.523483 593.445862,75.040337 603.280518,93.826782 
	C603.511047,94.267143 603.737000,94.709915 603.749390,95.368286 
	C601.682068,94.392509 599.830261,93.200012 597.863892,91.754257 
	C597.493835,91.008827 597.238464,90.516663 596.986572,89.673233 
	C596.359680,88.539146 595.729248,87.756325 594.938599,86.660149 
	C589.430786,79.528557 589.857239,72.541290 593.862976,65.242409 
	C595.309204,62.607037 596.079163,59.600502 597.337036,56.291611 
	C591.116882,58.708782 585.695190,60.815681 580.169556,62.877640 
	C580.065674,62.832695 579.928772,63.013088 579.928772,63.013088 
z" />
  <path fill="#AFD5E3" d="
M637.763306,51.851501 
	C639.093506,53.462498 639.903870,55.457836 641.315125,56.071686 
	C647.730896,58.862377 650.840820,64.866425 649.207397,71.924614 
	C648.655518,74.309334 648.400940,76.762878 647.698303,79.747864 
	C643.278015,84.210228 639.169861,88.109680 634.686584,92.007919 
	C629.853394,94.909431 625.240723,96.701225 619.811401,93.742050 
	C618.796326,93.323586 617.972229,93.161552 617.148132,92.999512 
	C617.053284,92.532906 616.958374,92.066299 616.940613,91.242599 
	C617.677185,90.944252 618.461670,90.790527 618.977234,91.093872 
	C625.811646,95.115425 630.408325,91.571259 634.809998,86.686745 
	C637.692932,83.487564 640.885681,80.566559 643.956421,77.537918 
	C650.520569,71.063812 649.541870,63.712101 641.424133,59.608276 
	C633.599487,55.652660 625.683655,51.877415 617.443909,47.991905 
	C616.958984,45.861744 616.838135,43.762596 616.646790,40.438347 
	C624.159058,44.455292 630.839661,48.027481 637.763306,51.851501 
z" />
  <path fill="#EBF6FA" d="
M582.131348,147.908936 
	C585.998169,150.340012 590.021118,152.559982 593.682800,155.268417 
	C596.653870,157.466049 599.114929,158.013153 602.481567,155.925659 
	C605.783325,153.878357 609.579163,152.627853 613.528748,151.007568 
	C614.875793,154.456055 613.440735,156.340652 610.251953,157.910553 
	C600.354004,162.783554 590.615784,167.981033 580.151489,173.396286 
	C580.151489,171.257660 580.151489,169.565720 580.569946,167.413177 
	C584.995544,164.857010 589.002563,162.761475 594.103271,160.094009 
	C588.738770,156.900299 584.539978,154.400635 580.250610,151.497116 
	C580.178223,149.712753 580.196411,148.332260 580.214600,146.951752 
	C580.214600,146.951752 580.608521,147.019058 580.932373,147.247833 
	C581.488342,147.741241 581.780090,147.885361 582.131348,147.908936 
z" />
  <path fill="#EBF6FA" d="
M541.062317,150.995697 
	C541.306274,154.480865 539.830322,156.470795 536.540161,158.079330 
	C527.893127,162.306824 519.508423,167.069427 511.000427,171.583405 
	C506.194397,174.133255 504.475311,173.056763 504.356964,167.445389 
	C504.311371,165.284073 504.395813,163.120026 504.930054,160.495163 
	C506.901581,160.369247 508.364044,160.705383 509.870331,161.427521 
	C509.841003,164.480118 510.759674,165.669159 513.486450,164.246201 
	C517.464905,162.170074 521.405640,160.013840 525.448792,158.071579 
	C530.489197,155.650314 535.617371,153.411850 540.815186,151.137665 
	C540.922791,151.180878 541.062317,150.995697 541.062317,150.995697 
z" />
  <path fill="#AFD5E3" d="
M543.429382,151.469879 
	C545.522644,151.643661 547.701477,151.942505 549.558777,152.878998 
	C558.601196,157.438309 567.557556,162.168182 576.849182,166.908844 
	C577.418335,168.920883 577.682617,170.861771 578.083008,173.801331 
	C574.573853,171.995483 571.714294,170.548981 568.877441,169.059067 
	C561.409363,165.136826 553.857239,161.357834 546.564209,157.132431 
	C545.008057,156.230850 544.407532,153.679932 543.429382,151.469879 
z" />
  <path fill="#AFD5E3" d="
M577.269836,62.704529 
	C568.005188,58.784794 558.827271,54.427208 549.628357,50.114288 
	C547.872314,49.290939 546.033630,48.643856 543.852356,47.673111 
	C543.371521,47.284637 543.271301,47.138504 543.171082,46.992371 
	C543.263245,45.177338 543.355469,43.362309 543.482544,40.859879 
	C546.177856,42.193821 548.624268,43.344231 551.015808,44.599342 
	C558.790894,48.679810 566.636414,52.642067 574.232910,57.033535 
	C575.769592,57.921856 576.335693,60.489014 577.269836,62.704529 
z" />
  <path fill="#061422" d="
M580.132019,146.576813 
	C580.196411,148.332260 580.178223,149.712753 580.137451,151.952789 
	C580.052917,156.871582 579.990906,160.930817 579.928955,164.990067 
	C579.442017,162.804001 578.955078,160.617950 578.161987,158.196198 
	C577.734497,153.369888 577.613159,148.779266 577.568604,143.294525 
	C577.535889,135.159119 577.426392,127.917839 577.316833,120.676559 
	C577.366821,119.783630 577.416809,118.890701 577.557007,117.231277 
	C577.646362,114.933533 577.645569,113.402275 577.644287,111.436386 
	C577.465881,108.695213 577.287903,106.388680 577.109985,104.082146 
	C577.278442,91.057510 577.446960,78.032883 577.712769,64.555748 
	C578.335388,63.822632 578.860657,63.542019 579.657349,63.137245 
	C579.928772,63.013088 580.065674,62.832695 580.074829,63.341518 
	C580.144104,78.246284 580.204285,92.642235 580.188232,107.451004 
	C580.105225,109.537239 580.098511,111.210632 580.052734,113.340775 
	C580.179016,115.000969 580.344360,116.204422 580.339600,117.775291 
	C580.214844,119.751183 580.260254,121.359650 580.305664,122.968117 
	C580.230530,125.052376 580.155334,127.136627 580.115356,130.109650 
	C580.197083,135.305542 580.243652,139.612656 580.290222,143.919785 
	C580.209961,144.680481 580.129700,145.441177 580.132019,146.576813 
z" />
  <path fill="#2F5F90" d="
M580.509644,117.407867 
	C580.344360,116.204422 580.179016,115.000969 580.383667,113.262001 
	C591.791931,106.455887 602.830200,100.185287 613.868408,93.914673 
	C613.868408,93.914673 614.293701,93.948174 614.497620,94.427063 
	C614.454773,96.286392 614.207947,97.666832 613.614258,99.120468 
	C610.653503,100.578056 608.010681,101.910873 605.430908,103.356308 
	C597.111328,108.017860 588.814941,112.720856 580.509644,117.407867 
z" />
  <path fill="#0A1D30" d="
M613.961182,99.047287 
	C614.207947,97.666832 614.454773,96.286392 614.680786,94.536377 
	C615.182922,94.101982 615.705872,94.037148 616.654785,93.890411 
	C617.080811,93.808502 617.228271,93.833595 617.184875,94.254066 
	C617.072571,96.079094 617.003601,97.483643 616.883484,99.277428 
	C616.962158,100.438034 617.092041,101.209412 617.221863,101.980789 
	C617.112671,116.357590 617.003479,130.734390 616.811462,145.576996 
	C616.153503,146.044098 615.578369,146.045380 614.715515,146.052826 
	C614.331482,132.339767 614.235168,118.620544 614.107788,104.040085 
	C614.038147,101.801659 613.999695,100.424469 613.961182,99.047287 
z" />
  <path fill="#D9F2F9" d="
M613.959778,93.666283 
	C602.830200,100.185287 591.791931,106.455887 580.422729,112.805260 
	C580.098511,111.210632 580.105225,109.537239 580.569397,107.461975 
	C587.319946,104.345047 593.613098,101.629974 599.964539,98.889771 
	C599.068726,95.785500 598.523621,93.896507 597.978516,92.007523 
	C599.830261,93.200012 601.682068,94.392509 604.099243,95.288795 
	C607.100281,93.617958 609.535889,92.243324 612.302856,90.916832 
	C613.078735,91.004097 613.523132,91.043221 614.043213,91.393776 
	C614.189270,92.126205 614.259766,92.547195 614.330261,92.968185 
	C614.237244,93.118080 614.144226,93.267982 613.959778,93.666283 
z" />
  <path fill="#0C150C" d="
M543.813110,134.279922 
	C543.647644,136.558594 543.482239,138.837265 543.417542,141.539490 
	C543.403320,144.678711 543.288269,147.394409 543.078247,150.554108 
	C542.556335,150.996902 542.129517,150.995682 541.382446,150.995087 
	C541.062317,150.995697 540.922791,151.180878 540.917053,150.694275 
	C540.845642,147.787582 540.779968,145.367493 540.788940,142.505798 
	C540.813110,139.084595 540.762573,136.104980 540.821533,132.659119 
	C540.832214,120.088722 540.733337,107.984573 540.729614,95.537956 
	C540.601318,94.120132 540.377930,93.044777 540.512573,91.976532 
	C541.587036,91.976692 542.303345,91.969742 543.095520,92.346489 
	C543.276489,93.763336 543.381653,94.796486 543.391846,96.303955 
	C543.468872,109.278816 543.640991,121.779373 543.813110,134.279922 
z" />
  <path fill="#97E084" d="
M580.004761,165.332169 
	C579.990906,160.930817 580.052917,156.871582 580.228088,152.356659 
	C584.539978,154.400635 588.738770,156.900299 594.103271,160.094009 
	C589.002563,162.761475 584.995544,164.857010 580.648926,166.999268 
	C580.233154,166.588745 580.156921,166.131500 580.004761,165.332169 
z" />
  <path fill="#97E084" d="
M613.967651,91.082344 
	C613.523132,91.043221 613.078735,91.004097 612.317749,90.524460 
	C612.081665,87.527977 613.064819,84.533875 612.076172,82.496643 
	C608.869385,75.888504 609.416626,69.528030 611.866394,63.031853 
	C613.762329,58.004314 612.666687,53.422035 610.009460,49.022907 
	C611.060364,48.641891 612.111328,48.260883 613.519226,47.918144 
	C613.876221,47.956417 614.164062,47.833454 614.219604,48.141869 
	C614.275208,48.450287 614.414062,48.920788 614.414062,48.920788 
	C614.350891,61.014301 614.287781,73.107811 614.203735,86.067551 
	C614.111145,88.316628 614.039368,89.699486 613.967651,91.082344 
z" />
  <path fill="#061422" d="
M542.820435,46.996861 
	C543.271301,47.138504 543.371521,47.284637 543.493591,47.695541 
	C543.467224,60.638721 543.418945,73.317123 543.300659,87.059746 
	C543.131531,88.529816 543.032410,88.935669 542.423157,89.383621 
	C541.514282,87.953438 541.115540,86.481163 540.809265,84.547989 
	C540.821045,72.052490 540.740417,60.017883 540.659790,47.983280 
	C540.721985,47.816753 540.784241,47.650227 540.956848,47.240967 
	C541.534790,46.999275 542.002319,47.000313 542.820435,46.996861 
z" />
  <path fill="#D9F2F9" d="
M509.826538,161.041534 
	C508.364044,160.705383 506.901581,160.369247 505.057373,160.053070 
	C504.581390,157.316467 504.487061,154.559906 504.526184,151.389374 
	C506.174896,150.348801 507.690125,149.722183 509.573242,149.490524 
	C509.902893,153.604156 509.864716,157.322830 509.826538,161.041534 
z" />
  <path fill="#0A1D30" d="
M614.043213,91.393776 
	C614.039368,89.699486 614.111145,88.316628 614.290771,86.537109 
	C614.520447,88.224258 614.642212,90.308083 614.547119,92.680046 
	C614.259766,92.547195 614.189270,92.126205 614.043213,91.393776 
z" />
  <path fill="#0A1D30" d="
M616.536377,148.214737 
	C616.812256,148.774094 616.881775,149.533875 616.835449,150.659576 
	C616.589722,150.155365 616.459839,149.285263 616.536377,148.214737 
z" />
  <path fill="#A4DDF1" d="
M617.092285,93.231972 
	C617.972229,93.161552 618.796326,93.323586 619.692017,93.888351 
	C619.763550,94.291084 619.524902,94.583900 619.245361,94.465195 
	C618.386658,94.175522 617.807495,94.004562 617.228271,93.833603 
	C617.228271,93.833595 617.080811,93.808502 617.047546,93.875282 
	C617.014282,93.942062 617.036438,93.464432 617.092285,93.231972 
z" />
  <path fill="#0A1D30" d="
M614.525879,48.830460 
	C614.414062,48.920788 614.275208,48.450287 614.355835,48.218918 
	C614.698914,48.195686 614.765930,48.446548 614.525879,48.830460 
z" />
  <path fill="#2F5F90" d="
M614.398438,150.904175 
	C614.178528,150.835022 614.101318,150.670563 614.110596,150.248688 
	C614.311829,150.263809 614.426514,150.536346 614.398438,150.904175 
z" />
  <path fill="#2F5F90" d="
M614.360107,148.941330 
	C614.135864,148.852386 614.072021,148.670013 614.111206,148.217178 
	C614.355103,148.129684 614.521118,148.299866 614.624023,148.502106 
	C614.663513,148.579712 614.559265,148.730453 614.360107,148.941330 
z" />
  <path fill="#A4DDF1" d="
M576.865784,104.232269 
	C577.287903,106.388680 577.465881,108.695213 577.305847,111.487961 
	C571.066284,108.065018 565.226074,104.056656 559.208618,100.334869 
	C558.078064,99.635605 556.239929,100.080276 554.728333,99.997078 
	C554.505920,99.748398 554.283447,99.499710 554.106201,98.754929 
	C554.442505,97.528610 554.733582,96.798393 555.024658,96.068176 
	C557.276184,96.774628 559.755737,97.095657 561.733215,98.265381 
	C566.263062,100.944870 570.547913,104.038719 575.129272,107.095833 
	C575.715454,106.029991 576.168518,105.206192 576.865784,104.232269 
z" />
  <path fill="#93A3AB" d="
M554.867432,95.767441 
	C554.733582,96.798393 554.442505,97.528610 554.013245,98.520340 
	C553.398254,98.837990 552.921387,98.894150 551.754150,98.936150 
	C548.538147,97.891212 546.012451,96.860420 543.486816,95.829636 
	C543.381653,94.796486 543.276489,93.763336 543.169067,91.915787 
	C543.092834,90.525772 543.018799,89.950150 542.914917,89.329910 
	C542.884949,89.285294 542.933289,89.341530 542.933289,89.341530 
	C543.032410,88.935669 543.131531,88.529816 543.379517,87.514923 
	C547.255676,89.759491 550.982910,92.613106 554.867432,95.767441 
z" />
  <path fill="#D9F2F9" d="
M613.614319,99.120476 
	C613.999695,100.424469 614.038147,101.801659 613.982544,103.585449 
	C609.023804,106.371429 604.008667,108.490433 599.331421,111.194077 
	C593.058777,114.819893 587.047546,118.897911 580.614868,122.874954 
	C580.260254,121.359650 580.214844,119.751183 580.339600,117.775291 
	C588.814941,112.720856 597.111328,108.017860 605.430908,103.356308 
	C608.010681,101.910873 610.653503,100.578056 613.614319,99.120476 
z" />
  <path fill="#D9F2F9" d="
M580.481140,143.571106 
	C580.243652,139.612656 580.197083,135.305542 580.223022,130.545547 
	C580.421021,134.469269 580.546509,138.845856 580.481140,143.571106 
z" />
  <path fill="#D9F2F9" d="
M581.998047,147.700378 
	C581.780090,147.885361 581.488342,147.741241 581.131714,147.262375 
	C581.357056,147.072220 581.642883,147.220108 581.998047,147.700378 
z" />
  <path fill="#A4DDF1" d="
M617.586670,101.960640 
	C617.092041,101.209412 616.962158,100.438034 617.268799,99.248619 
	C620.015259,100.032364 623.778259,100.736206 624.389648,102.520126 
	C627.408264,111.328178 633.083008,119.543350 631.342346,129.604645 
	C630.658386,133.557739 633.181885,137.170044 636.835999,137.852417 
	C640.782715,138.589417 644.188782,136.279785 644.959473,132.344116 
	C645.772644,128.191116 643.868896,125.543533 639.723938,124.078217 
	C638.147461,123.520889 636.403015,122.098579 635.720154,120.616638 
	C633.989014,116.859642 632.347595,112.941704 631.521729,108.913628 
	C630.067200,101.819725 626.437744,96.924034 619.524902,94.583900 
	C619.524902,94.583900 619.763550,94.291084 619.882996,94.144775 
	C625.240723,96.701225 629.853394,94.909431 634.521362,92.314873 
	C630.911255,95.375931 630.310791,98.750443 632.419800,102.930183 
	C633.448425,104.968811 634.380615,107.237640 634.592468,109.474632 
	C635.403687,118.039009 640.507935,122.927490 647.975708,125.995605 
	C648.166260,129.153244 648.356873,132.310898 648.248535,135.746155 
	C640.207703,141.232147 634.981750,141.338425 630.739258,136.186371 
	C629.860779,135.119583 629.343994,133.617264 629.045837,132.232727 
	C627.213684,123.726028 625.771057,115.120934 623.526550,106.728363 
	C623.004150,104.775131 619.879028,103.517944 617.586670,101.960640 
z" />
  <path fill="#70C1DC" d="
M648.001404,125.527924 
	C640.507935,122.927490 635.403687,118.039009 634.592468,109.474632 
	C634.380615,107.237640 633.448425,104.968811 632.419800,102.930183 
	C630.310791,98.750443 630.911255,95.375931 634.896606,92.316101 
	C639.169861,88.109680 643.278015,84.210228 647.684814,80.171738 
	C647.997986,95.041885 648.012512,110.051071 648.001404,125.527924 
z" />
  <path fill="#A2DAF0" d="
M509.870361,161.427505 
	C509.864716,157.322830 509.902893,153.604156 509.889282,149.422455 
	C509.880707,141.615189 509.923889,134.270966 510.271179,126.311348 
	C514.659546,121.351189 518.743774,117.006401 523.441467,112.009041 
	C526.302612,117.653603 528.444031,122.278023 530.940552,126.702080 
	C534.045044,132.203720 537.442993,137.539810 540.714233,142.947388 
	C540.779968,145.367493 540.845642,147.787582 540.809448,150.651062 
	C535.617371,153.411850 530.489197,155.650314 525.448792,158.071579 
	C521.405640,160.013840 517.464905,162.170074 513.486450,164.246201 
	C510.759674,165.669159 509.841003,164.480118 509.870361,161.427505 
z" />
  <path fill="#A4DDF1" d="
M540.288086,47.970516 
	C540.740417,60.017883 540.821045,72.052490 540.425903,84.557999 
	C537.602661,84.338005 535.194946,83.803955 532.918945,82.927605 
	C525.276428,79.984955 517.680969,76.920235 510.067474,73.902245 
	C509.763458,61.844040 509.767639,61.853432 520.921875,56.905098 
	C521.802979,56.514221 522.570923,55.868240 524.017212,55.147797 
	C525.456360,54.324398 526.269714,53.694038 527.083069,53.063675 
	C531.360840,51.361702 535.638611,49.659729 540.288086,47.970516 
z" />
  <path fill="#87D575" d="
M509.814514,119.353165 
	C509.593353,107.705528 509.339111,96.058342 509.183411,84.409828 
	C509.157257,82.455826 509.557556,80.496124 510.207214,78.233704 
	C519.770142,81.716248 528.886597,85.504143 538.405945,89.459419 
	C537.204590,91.320709 536.655212,92.544373 535.784180,93.463120 
	C528.370361,101.282639 520.921509,109.069427 513.415649,116.800468 
	C512.407898,117.838425 511.024139,118.511253 509.814514,119.353165 
z" />
  <path fill="#D9F2F9" d="
M509.678040,119.668198 
	C511.024139,118.511253 512.407898,117.838425 513.415649,116.800468 
	C520.921509,109.069427 528.370361,101.282639 535.784180,93.463120 
	C536.655212,92.544373 537.204590,91.320709 538.405945,89.459419 
	C528.886597,85.504143 519.770142,81.716248 510.286194,77.808502 
	C509.954468,76.682159 509.990295,75.675690 510.046783,74.285728 
	C517.680969,76.920235 525.276428,79.984955 532.918945,82.927605 
	C535.194946,83.803955 537.602661,84.338005 540.333435,85.018890 
	C541.115540,86.481163 541.514282,87.953438 542.423157,89.383621 
	C542.933289,89.341530 542.884949,89.285294 542.544250,89.046906 
	C541.520569,89.862167 540.837524,90.915802 540.154480,91.969429 
	C540.377930,93.044777 540.601318,94.120132 540.383545,95.521164 
	C535.900635,99.877892 531.839783,103.890274 527.848816,107.970955 
	C527.478516,108.349579 527.236938,109.337715 527.465454,109.746864 
	C531.833496,117.566231 536.281006,125.341202 540.712036,133.125366 
	C540.762573,136.104980 540.813110,139.084595 540.788940,142.505798 
	C537.442993,137.539810 534.045044,132.203720 530.940552,126.702080 
	C528.444031,122.278023 526.302612,117.653603 523.441467,112.009041 
	C518.743774,117.006401 514.659546,121.351189 510.270569,125.841980 
	C509.824463,123.986412 509.683014,121.984818 509.678040,119.668198 
z" />
  <path fill="#D9F2F9" d="
M526.721191,53.046654 
	C526.269714,53.694038 525.456360,54.324398 524.322388,54.980404 
	C524.787659,54.347240 525.573425,53.688438 526.721191,53.046654 
z" />
  <path fill="#6EB867" d="
M543.391846,96.303955 
	C546.012451,96.860420 548.538147,97.891212 551.393250,98.948128 
	C550.942139,104.551399 555.592957,106.541267 559.320557,109.598648 
	C554.236633,117.877579 549.295166,125.924568 544.083374,134.125732 
	C543.640991,121.779373 543.468872,109.278816 543.391846,96.303955 
z" />
  <path fill="#6EB867" d="
M577.019287,120.647720 
	C577.426392,127.917839 577.535889,135.159119 577.461060,142.863251 
	C574.222168,141.020767 570.428528,139.249954 568.284729,136.285889 
	C565.003296,131.748901 562.368347,126.567261 560.457642,121.297173 
	C559.613403,118.968597 561.216370,115.752747 561.869568,112.017769 
	C567.650574,115.365631 572.186157,117.992256 577.019287,120.647720 
z" />
  <path fill="#2F5F90" d="
M554.803467,100.348740 
	C556.239929,100.080276 558.078064,99.635605 559.208618,100.334869 
	C565.226074,104.056656 571.066284,108.065018 577.306274,111.922600 
	C577.645569,113.402275 577.646362,114.933533 577.484009,116.899109 
	C570.991150,113.146034 564.610657,109.031906 558.370117,104.715446 
	C556.956787,103.737839 556.029602,102.057350 554.803467,100.348740 
z" />
  <path fill="#A4DDF1" d="
M597.863892,91.754257 
	C598.523621,93.896507 599.068726,95.785500 599.964539,98.889771 
	C593.613098,101.629974 587.319946,104.345047 580.645630,107.049149 
	C580.204285,92.642235 580.144104,78.246284 580.178711,63.386459 
	C585.695190,60.815681 591.116882,58.708782 597.337036,56.291611 
	C596.079163,59.600502 595.309204,62.607037 593.862976,65.242409 
	C589.857239,72.541290 589.430786,79.528557 594.941162,86.980873 
	C595.730225,88.418137 596.356689,89.221313 596.983093,90.024490 
	C597.238464,90.516663 597.493835,91.008827 597.863892,91.754257 
z" />
  <path fill="#87D575" d="
M609.653076,49.049561 
	C612.666687,53.422035 613.762329,58.004314 611.866394,63.031853 
	C609.416626,69.528030 608.869385,75.888504 612.076172,82.496643 
	C613.064819,84.533875 612.081665,87.527977 611.986389,90.476318 
	C609.535889,92.243324 607.100281,93.617958 604.314819,95.072083 
	C603.737000,94.709915 603.511047,94.267143 603.280518,93.826782 
	C593.445862,75.040337 593.270264,74.523483 601.916321,55.123268 
	C603.073425,52.526859 606.773987,51.064003 609.653076,49.049561 
z" />
  <path fill="#D9F2F9" d="
M596.986572,89.673225 
	C596.356689,89.221313 595.730225,88.418137 595.101318,87.294235 
	C595.729248,87.756325 596.359680,88.539146 596.986572,89.673225 
z" />
  <path fill="#2F5F90" d="
M619.245361,94.465195 
	C626.437744,96.924034 630.067200,101.819725 631.521729,108.913628 
	C632.347595,112.941704 633.989014,116.859642 635.720154,120.616638 
	C636.403015,122.098579 638.147461,123.520889 639.723938,124.078217 
	C643.868896,125.543533 645.772644,128.191116 644.959473,132.344116 
	C644.188782,136.279785 640.782715,138.589417 636.835999,137.852417 
	C633.181885,137.170044 630.658386,133.557739 631.342346,129.604645 
	C633.083008,119.543350 627.408264,111.328178 624.389648,102.520126 
	C623.778259,100.736206 620.015259,100.032364 617.319946,98.859390 
	C617.003601,97.483643 617.072571,96.079094 617.184875,94.254074 
	C617.807495,94.004562 618.386658,94.175522 619.245361,94.465195 
M636.778992,133.829758 
	C638.216064,133.075531 639.818726,132.501495 640.973938,131.440399 
	C641.263123,131.174789 640.390808,128.812561 639.550232,128.372147 
	C638.622253,127.885925 636.151855,128.249313 636.038269,128.683304 
	C635.649536,130.170059 635.999451,131.849976 636.778992,133.829758 
z" />
  <path fill="#97E084" d="
M540.821594,132.659119 
	C536.281006,125.341202 531.833496,117.566231 527.465454,109.746864 
	C527.236938,109.337715 527.478516,108.349579 527.848816,107.970955 
	C531.839783,103.890274 535.900635,99.877892 540.288452,95.863632 
	C540.733337,107.984573 540.832214,120.088722 540.821594,132.659119 
z" />
  <path fill="#061422" d="
M540.512573,91.976540 
	C540.837524,90.915802 541.520569,89.862167 542.574219,89.091522 
	C543.018799,89.950150 543.092834,90.525772 543.093262,91.532089 
	C542.303345,91.969742 541.587036,91.976692 540.512573,91.976540 
z" />
  <path fill="#80CBE6" d="
M636.423340,133.643005 
	C635.999451,131.849976 635.649536,130.170059 636.038269,128.683304 
	C636.151855,128.249313 638.622253,127.885925 639.550232,128.372147 
	C640.390808,128.812561 641.263123,131.174789 640.973938,131.440399 
	C639.818726,132.501495 638.216064,133.075531 636.423340,133.643005 
z" />
</svg>