<svg xmlns="http://www.w3.org/2000/svg" viewBox="702.4333177999999 9.2438228 193.38818639999997 193.38818639999997">
  <path fill="#0C150C" d="
M779.785522,168.223618 
	C764.189697,151.105667 750.669250,132.971512 743.610718,111.004051 
	C734.835510,83.693512 742.472839,57.820896 763.245483,41.773689 
	C782.738892,26.714724 810.769531,25.359505 831.189880,38.488663 
	C853.028137,52.529480 863.419312,78.208412 857.608398,103.564178 
	C853.932556,119.603676 846.434021,133.963623 836.579773,146.780045 
	C827.178101,159.007950 816.417358,170.218842 805.900452,181.548462 
	C801.288818,186.516327 798.156555,186.292831 793.056458,181.588455 
	C788.531921,177.414841 784.349243,172.870560 779.785522,168.223618 
M772.007324,151.607452 
	C772.163452,151.938354 772.422913,152.127396 772.830322,152.209946 
	C772.830322,152.209946 772.797913,152.256714 772.944641,152.906387 
	C780.739746,161.298157 788.555481,169.670837 796.317322,178.093231 
	C798.691528,180.669464 800.688171,180.218414 803.039734,177.945679 
	C816.229736,165.197281 828.844360,151.840103 837.997620,135.906143 
	C843.815735,125.777931 849.094788,114.948250 852.236511,103.764801 
	C857.145081,86.291565 853.968445,69.575516 841.418518,54.805958 
	C840.312500,53.567482 839.206482,52.329006 838.020264,50.382572 
	C821.721313,34.916122 802.711975,30.000977 781.468750,37.433414 
	C759.580444,45.091511 747.503235,61.414310 745.004700,84.244316 
	C742.987061,102.680687 750.825195,118.664711 759.702820,134.101685 
	C761.141724,136.603714 763.179871,138.761139 764.987427,141.019501 
	C764.987427,141.019501 764.913025,141.015549 764.825439,141.641068 
	C765.212463,142.117172 765.599426,142.593277 765.999756,143.002289 
	C765.999756,143.002289 765.931641,142.995941 766.114868,143.515091 
	C766.409180,143.705841 766.703552,143.896591 766.996704,143.995377 
	C766.996704,143.995377 766.904785,143.995636 766.933838,144.642075 
	C767.284180,145.142807 767.634583,145.643539 768.152588,146.707809 
	C768.522949,147.163544 768.893311,147.619263 769.277100,148.523605 
	C769.461792,148.776382 769.706116,148.940277 770.115173,149.526794 
	C770.406860,149.682480 770.698547,149.838165 771.205200,150.435745 
	C771.378723,150.751328 771.645142,150.920380 771.871948,150.985321 
	C771.871948,150.985321 771.879639,151.124283 772.007324,151.607452 
z" />
  <path fill="#63CD58" d="
M769.263672,148.074982 
	C768.893311,147.619263 768.522949,147.163544 768.062988,146.100250 
	C767.617249,144.993698 767.260986,144.494675 766.904785,143.995651 
	C766.904785,143.995636 766.996704,143.995377 766.878784,143.806610 
	C766.484436,143.410553 766.208008,143.203247 765.931641,142.995941 
	C765.931641,142.995941 765.999756,143.002289 765.968994,142.720505 
	C765.596436,141.964325 765.254700,141.489944 764.913025,141.015564 
	C764.913025,141.015549 764.987427,141.019501 764.992798,140.671112 
	C764.494446,138.938858 764.129395,137.483978 763.463440,136.183151 
	C760.300415,130.004852 756.380920,124.121056 753.965454,117.670082 
	C746.614075,98.036636 746.504883,78.655045 759.247803,60.966381 
	C762.436096,56.540745 767.700073,53.610374 771.867126,50.311497 
	C769.843933,52.947845 766.551331,54.728989 768.895386,59.089333 
	C774.500793,58.045986 779.343872,55.507549 783.169189,51.227707 
	C784.101257,50.184914 784.172913,48.373112 784.640259,46.914894 
	C783.088684,46.656155 781.353394,45.827965 780.023743,46.256954 
	C777.233643,47.157169 774.656677,48.718346 771.991333,49.652405 
	C772.748901,48.475216 773.397156,47.503090 774.282837,46.855740 
	C782.948364,40.521797 793.185486,38.746273 803.404968,38.192245 
	C814.577454,37.586544 824.197754,42.870998 833.341614,48.827702 
	C834.800293,49.777920 836.507935,50.345863 838.100464,51.090538 
	C839.206482,52.329006 840.312500,53.567482 841.692017,55.390320 
	C842.354065,57.398220 842.550781,58.910416 843.161011,60.231613 
	C849.549133,74.062561 849.647949,88.252914 844.664612,102.321419 
	C836.621582,125.027679 823.882751,144.743637 805.737244,160.839737 
	C799.084839,166.740723 793.293518,167.731857 785.943054,162.845627 
	C782.559814,160.596573 779.869324,157.323990 776.752258,154.646362 
	C775.600098,153.656601 774.125488,153.042267 772.797913,152.256714 
	C772.797913,152.256714 772.830322,152.209946 772.778015,151.933456 
	C772.443665,151.479416 772.161682,151.301849 771.879639,151.124283 
	C771.879639,151.124283 771.871948,150.985321 771.790039,150.784576 
	C771.498779,150.350784 771.259460,150.154129 770.990234,149.993866 
	C770.698547,149.838165 770.406860,149.682480 769.961792,149.095367 
	C769.677063,148.421219 769.495483,148.224899 769.263672,148.074982 
M775.103943,64.102333 
	C775.103943,64.102333 775.207275,64.125374 774.663391,64.271660 
	C774.495728,64.591301 774.328064,64.910942 774.142578,65.110466 
	C774.142578,65.110466 774.258240,65.147476 773.662964,65.312263 
	C773.432251,65.856880 773.201538,66.401497 772.842041,67.412117 
	C772.693176,67.720940 772.455566,67.927986 771.571777,68.333519 
	C771.419495,68.719078 771.267212,69.104630 771.112122,69.778839 
	C771.112122,69.778839 770.908142,69.983078 770.190186,70.079834 
	C769.168945,72.517342 768.147705,74.954849 767.155151,77.722443 
	C767.155151,77.722443 766.976196,78.001266 766.321228,78.336830 
	C765.332153,82.086952 763.709717,85.813293 763.567749,89.595230 
	C763.466370,92.295616 765.352844,95.070633 766.315979,97.883354 
	C766.315979,97.883354 766.251526,97.836395 766.083740,98.632462 
	C767.428345,101.079506 768.772888,103.526550 770.548340,106.243210 
	C770.730835,106.708443 770.913330,107.173676 771.204834,108.220924 
	C771.491638,108.475159 771.778442,108.729393 772.001160,108.990753 
	C772.001160,108.990753 772.035583,108.936218 772.012390,109.683556 
	C772.760010,110.380608 773.507568,111.077660 774.270813,111.871712 
	C774.270813,111.871712 774.229309,111.786293 774.080444,112.553635 
	C774.998291,114.002319 775.593811,115.901413 776.886475,116.826271 
	C785.024719,122.648994 794.204346,125.251373 804.121094,123.847763 
	C807.490540,123.370850 810.618958,121.191048 813.954041,119.832443 
	C813.954041,119.832443 813.851379,119.857704 814.649902,119.958031 
	C818.827087,119.815445 821.960876,118.296524 822.892578,113.829811 
	C822.892578,113.829811 822.807373,113.881821 823.345825,113.739319 
	C823.524292,113.428528 823.702820,113.117737 823.903870,112.902214 
	C823.903870,112.902214 823.808044,112.882034 824.346069,112.739883 
	C824.525513,112.429832 824.704956,112.119789 824.846619,111.895889 
	C824.846619,111.895889 824.787903,111.822441 825.545288,111.880119 
	C826.332031,110.545876 827.118835,109.211632 827.946594,107.982895 
	C827.946594,107.982895 827.858704,107.911545 828.581116,107.886002 
	C830.735474,103.028412 833.346497,98.313774 834.923462,93.275459 
	C836.713806,87.555580 835.054443,82.044502 831.919434,77.040779 
	C831.919434,77.040779 831.892639,77.123482 831.971375,76.350258 
	C831.223389,74.952263 830.475342,73.554268 829.884216,72.049301 
	C829.884216,72.049301 829.768921,72.200218 829.916138,71.440765 
	C829.199158,70.690117 828.482178,69.939476 827.817383,69.109100 
	C827.817383,69.109100 827.875488,69.184608 827.758057,68.655197 
	C827.474731,68.447647 827.191467,68.240089 826.981262,68.016968 
	C826.981262,68.016968 826.963562,68.089577 826.799500,67.604179 
	C826.534485,67.399567 826.269409,67.194954 826.000000,66.999405 
	C826.000000,66.999405 826.009949,66.997238 825.960510,66.369400 
	C825.542664,65.978241 825.124817,65.587082 824.811401,65.145935 
	C824.811401,65.145935 824.790039,65.259644 824.705627,64.695412 
	C824.383667,64.530655 824.061646,64.365891 823.805298,64.270241 
	C823.805298,64.270241 823.711243,64.285599 823.843384,63.522984 
	C822.520386,62.716160 821.197388,61.909340 819.991821,61.061253 
	C819.991821,61.061253 819.900391,61.145714 819.909180,60.410622 
	C818.366943,59.030037 817.048706,57.102390 815.243835,56.363266 
	C807.308899,53.113846 798.955811,52.045509 790.680481,54.434086 
	C786.931702,55.516140 781.765686,54.892811 780.061035,60.100193 
	C780.061035,60.100193 780.148010,60.081474 779.641113,60.214794 
	C779.425781,60.479626 779.210449,60.744457 778.998840,60.997475 
	C778.998840,60.997475 779.011414,60.998714 778.275818,60.997620 
	C777.578979,61.740894 776.882202,62.484169 776.113647,63.161572 
	C776.113647,63.161572 776.204346,63.125980 775.662292,63.267254 
	C775.483643,63.580116 775.304932,63.892979 775.103943,64.102333 
M810.830017,133.225143 
	C810.830017,133.225143 810.773682,133.335526 810.629395,132.681198 
	C810.021057,132.530045 809.412659,132.378891 808.877563,132.153046 
	C808.877563,132.153046 808.903992,132.254318 808.524109,131.568939 
	C806.359497,131.759674 804.194885,131.950409 802.041565,132.058563 
	C802.041565,132.058563 802.116089,132.095932 801.332764,132.025024 
	C800.180664,132.405869 799.028503,132.786713 797.255310,133.047974 
	C796.496582,132.689972 795.737793,132.331955 794.515381,131.429611 
	C793.049805,131.713821 791.584290,131.998016 790.124817,132.169678 
	C790.124817,132.169678 790.215637,132.236374 789.539490,132.142731 
	C789.017517,132.749954 788.495544,133.357162 788.000000,134.000000 
	C788.000000,134.000000 787.964233,133.973816 787.257263,134.109467 
	C786.890137,134.903549 786.523010,135.697632 786.189270,136.779755 
	C786.189270,136.779755 786.004211,137.003006 785.445862,137.389954 
	C784.221191,139.428146 782.793152,141.492599 786.073181,142.958160 
	C786.073181,142.958160 786.104004,142.871918 786.074036,143.520737 
	C786.447021,143.987808 786.820068,144.454895 787.095886,144.922485 
	C787.095886,144.922485 787.147827,144.840302 787.050232,145.612518 
	C788.129944,146.633545 789.209595,147.654587 790.236267,148.739685 
	C790.236267,148.739685 790.317566,148.757126 790.113831,149.518600 
	C790.829468,152.831879 792.887390,154.189575 796.076172,154.007492 
	C796.076172,154.007492 796.196411,153.700211 796.365662,154.341888 
	C796.970459,154.496780 797.575256,154.651672 798.075500,154.842682 
	C798.075500,154.842682 798.091919,154.733307 798.419739,155.393677 
	C805.244751,156.192139 813.959167,147.976730 813.897400,140.396820 
	C813.880615,138.333801 812.464966,136.282181 811.832886,134.147888 
	C811.832886,134.147888 811.747253,134.284698 811.691284,133.712860 
	C811.364502,133.561691 811.037659,133.410507 810.830017,133.225143 
M760.907471,67.441292 
	C762.277954,67.437119 763.832397,67.809525 764.940491,67.268188 
	C765.485535,67.001884 765.596924,64.869720 765.170166,63.907665 
	C764.839478,63.162056 763.368530,62.922215 762.404358,62.457542 
	C761.756348,63.930138 761.108337,65.402733 760.907471,67.441292 
z" />
  <path fill="#46A650" d="
M772.871277,152.581543 
	C774.125488,153.042267 775.600098,153.656601 776.752258,154.646362 
	C779.869324,157.323990 782.559814,160.596573 785.943054,162.845627 
	C793.293518,167.731857 799.084839,166.740723 805.737244,160.839737 
	C823.882751,144.743637 836.621582,125.027679 844.664612,102.321419 
	C849.647949,88.252914 849.549133,74.062561 843.161011,60.231613 
	C842.550781,58.910416 842.354065,57.398220 841.950806,55.596081 
	C853.968445,69.575516 857.145081,86.291565 852.236511,103.764801 
	C849.094788,114.948250 843.815735,125.777931 837.997620,135.906143 
	C828.844360,151.840103 816.229736,165.197281 803.039734,177.945679 
	C800.688171,180.218414 798.691528,180.669464 796.317322,178.093231 
	C788.555481,169.670837 780.739746,161.298157 772.871277,152.581543 
z" />
  <path fill="#97E084" d="
M772.010010,49.992771 
	C767.700073,53.610374 762.436096,56.540745 759.247803,60.966381 
	C746.504883,78.655045 746.614075,98.036636 753.965454,117.670082 
	C756.380920,124.121056 760.300415,130.004852 763.463440,136.183151 
	C764.129395,137.483978 764.494446,138.938858 764.969604,140.700287 
	C763.179871,138.761139 761.141724,136.603714 759.702820,134.101685 
	C750.825195,118.664711 742.987061,102.680687 745.004700,84.244316 
	C747.503235,61.414310 759.580444,45.091511 781.468750,37.433414 
	C802.711975,30.000977 821.721313,34.916122 838.060364,50.736565 
	C836.507935,50.345863 834.800293,49.777920 833.341614,48.827702 
	C824.197754,42.870998 814.577454,37.586544 803.404968,38.192245 
	C793.185486,38.746273 782.948364,40.521797 774.282837,46.855740 
	C773.397156,47.503090 772.748901,48.475216 771.995239,49.648193 
	C772.000000,49.999741 772.010010,49.992775 772.010010,49.992771 
z" />
  <path fill="#97E084" d="
M766.919312,144.318878 
	C767.260986,144.494675 767.617249,144.993698 767.979187,145.818481 
	C767.634583,145.643539 767.284180,145.142807 766.919312,144.318878 
z" />
  <path fill="#97E084" d="
M764.869263,141.328308 
	C765.254700,141.489944 765.596436,141.964325 765.962280,142.754059 
	C765.599426,142.593277 765.212463,142.117172 764.869263,141.328308 
z" />
  <path fill="#97E084" d="
M771.097717,150.214798 
	C771.259460,150.154129 771.498779,150.350784 771.856323,150.763382 
	C771.645142,150.920380 771.378723,150.751328 771.097717,150.214798 
z" />
  <path fill="#46A650" d="
M771.943481,151.365875 
	C772.161682,151.301849 772.443665,151.479416 772.755737,151.915771 
	C772.422913,152.127396 772.163452,151.938354 771.943481,151.365875 
z" />
  <path fill="#97E084" d="
M769.270386,148.299286 
	C769.495483,148.224899 769.677063,148.421219 769.909302,148.839615 
	C769.706116,148.940277 769.461792,148.776382 769.270386,148.299286 
z" />
  <path fill="#97E084" d="
M766.023254,143.255524 
	C766.208008,143.203247 766.484436,143.410553 766.879333,143.852585 
	C766.703552,143.896591 766.409180,143.705841 766.023254,143.255524 
z" />
  <path fill="#0C150C" d="
M772.129272,68.033257 
	C772.455566,67.927986 772.693176,67.720940 773.156006,67.031326 
	C773.732727,66.149521 773.995483,65.648499 774.258240,65.147476 
	C774.258240,65.147476 774.142578,65.110466 774.415894,65.089676 
	C774.861877,64.754387 775.034546,64.439880 775.207275,64.125374 
	C775.207275,64.125374 775.103943,64.102333 775.380005,64.074577 
	C775.838806,63.739868 776.021545,63.432919 776.204346,63.125973 
	C776.204346,63.125980 776.113647,63.161572 776.441650,63.104748 
	C777.516846,62.364853 778.264160,61.681782 779.011414,60.998711 
	C779.011414,60.998714 778.998840,60.997475 779.252991,60.939095 
	C779.720764,60.614300 779.934387,60.347885 780.148010,60.081474 
	C780.148010,60.081474 780.061035,60.100193 780.440430,60.055458 
	C794.076050,52.493645 807.096130,53.103310 819.900391,61.145714 
	C819.900391,61.145714 819.991821,61.061253 820.085571,61.364082 
	C821.356628,62.539810 822.533936,63.412712 823.711243,64.285606 
	C823.711243,64.285599 823.805298,64.270241 823.837646,64.503601 
	C824.176697,64.911186 824.483398,65.085419 824.790039,65.259644 
	C824.790039,65.259644 824.811401,65.145935 824.802368,65.461433 
	C825.198853,66.183693 825.604431,66.590454 826.009949,66.997231 
	C826.009949,66.997238 826.000000,66.999405 826.076904,67.243019 
	C826.423767,67.687614 826.693665,67.888596 826.963562,68.089569 
	C826.963562,68.089577 826.981262,68.016968 827.006409,68.292824 
	C827.312866,68.773994 827.594177,68.979309 827.875488,69.184616 
	C827.875488,69.184608 827.817383,69.109100 827.850220,69.454887 
	C828.511719,70.600517 829.140320,71.400360 829.768921,72.200211 
	C829.768921,72.200218 829.884216,72.049301 829.843384,72.447372 
	C830.499268,74.271461 831.195923,75.697472 831.892639,77.123482 
	C831.892639,77.123482 831.919434,77.040779 831.888672,77.461685 
	C834.989197,88.486794 833.315002,98.451012 827.858704,107.911545 
	C827.858704,107.911545 827.946594,107.982895 827.642456,108.082367 
	C826.488220,109.395370 825.638062,110.608910 824.787903,111.822441 
	C824.787903,111.822441 824.846619,111.895889 824.597351,111.925682 
	C824.168091,112.264328 823.988037,112.573181 823.808044,112.882034 
	C823.808044,112.882034 823.903870,112.902214 823.624512,112.927719 
	C823.165894,113.262749 822.986633,113.572281 822.807373,113.881813 
	C822.807373,113.881821 822.892578,113.829811 822.512695,113.852722 
	C819.372375,115.869652 816.611877,117.863670 813.851379,119.857697 
	C813.851379,119.857704 813.954041,119.832443 813.522095,119.856476 
	C807.439880,120.703957 801.791382,122.183945 796.138977,122.198753 
	C787.406372,122.221649 780.654602,117.128876 774.229309,111.786293 
	C774.229309,111.786293 774.270813,111.871712 774.182739,111.527534 
	C773.408264,110.434303 772.721924,109.685257 772.035583,108.936218 
	C772.035583,108.936218 772.001160,108.990753 771.959595,108.707977 
	C771.643921,108.163094 771.369934,107.900986 771.095825,107.638901 
	C770.913330,107.173676 770.730835,106.708443 770.258606,105.758469 
	C768.729797,102.794609 767.490662,100.315498 766.251526,97.836395 
	C766.251526,97.836395 766.315979,97.883354 766.357056,97.393982 
	C766.590881,90.603500 766.783508,84.302383 766.976196,78.001266 
	C766.976196,78.001266 767.155151,77.722443 767.386597,77.296249 
	C768.714783,74.574387 769.811462,72.278725 770.908081,69.983070 
	C770.908142,69.983078 771.112122,69.778839 771.362305,69.452492 
	C771.784729,68.761848 771.957031,68.397552 772.129272,68.033257 
M779.000000,111.002441 
	C779.000000,111.002441 778.752441,111.263084 779.033264,111.878059 
	C780.789062,113.129425 782.451294,114.545105 784.315186,115.606689 
	C802.481934,125.953438 826.351868,115.042198 829.680603,94.403221 
	C830.616638,87.240997 830.502014,80.250351 826.129700,73.235626 
	C823.103516,69.829765 820.541443,65.802948 816.966675,63.131020 
	C804.787720,54.028030 786.708313,56.517826 776.317810,68.256378 
	C766.004211,79.908058 766.143982,97.555244 776.842346,109.786125 
	C777.479248,110.279053 778.116150,110.771980 779.000000,111.002441 
z" />
  <path fill="#0C150C" d="
M786.004150,137.003006 
	C786.004211,137.003006 786.189270,136.779755 786.417175,136.433014 
	C787.084839,135.382126 787.524536,134.677979 787.964233,133.973816 
	C787.964233,133.973816 788.000000,134.000000 788.258179,133.876968 
	C789.082825,133.248077 789.649231,132.742218 790.215637,132.236359 
	C790.215637,132.236374 790.124817,132.169678 790.528198,132.215790 
	C792.280762,132.165924 793.629944,132.069931 794.979065,131.973938 
	C795.737793,132.331955 796.496582,132.689972 797.764404,133.358582 
	C799.554382,133.144775 800.835266,132.620361 802.116089,132.095947 
	C802.116089,132.095932 802.041565,132.058563 802.468140,132.085663 
	C804.897827,132.159958 806.900879,132.207138 808.903992,132.254318 
	C808.903992,132.254318 808.877563,132.153046 808.992432,132.449478 
	C809.662781,132.942444 810.218201,133.138992 810.773682,133.335526 
	C810.773682,133.335526 810.830017,133.225143 810.829956,133.506638 
	C811.135681,133.953659 811.441467,134.119186 811.747253,134.284698 
	C811.747253,134.284698 811.832886,134.147888 811.815430,134.569824 
	C812.057800,137.211273 813.229919,139.867447 812.414001,141.571915 
	C809.458496,147.745682 805.404541,153.122665 798.091919,154.733307 
	C798.091919,154.733307 798.075500,154.842682 797.969727,154.569870 
	C797.308167,154.098099 796.752258,153.899139 796.196411,153.700195 
	C796.196411,153.700211 796.076172,154.007492 795.994385,153.570892 
	C794.047607,151.675247 792.182556,150.216187 790.317566,148.757126 
	C790.317566,148.757126 790.236267,148.739685 790.171814,148.411346 
	C789.120850,147.002121 788.134338,145.921204 787.147827,144.840302 
	C787.147827,144.840302 787.095886,144.922485 787.100464,144.621292 
	C786.771423,143.837372 786.437683,143.354645 786.104004,142.871918 
	C786.104004,142.871918 786.073181,142.958160 786.089233,142.524292 
	C786.071594,140.394623 786.037903,138.698822 786.004150,137.003006 
M794.186401,134.996674 
	C788.920654,135.744644 787.151550,138.715942 789.904724,143.076492 
	C792.168030,146.661148 795.155762,149.788437 798.134644,153.508286 
	C802.321777,149.756592 805.197632,147.550110 807.606018,144.916260 
	C809.948425,142.354660 811.581787,138.916061 808.541077,136.084717 
	C805.505615,133.258347 802.431641,135.099304 799.907104,137.692368 
	C799.737488,137.866638 799.329773,137.809036 799.187927,137.833038 
	C797.711670,136.882767 796.337646,135.998306 794.186401,134.996674 
z" />
  <path fill="#97E084" d="
M771.996094,50.003952 
	C774.656677,48.718346 777.233643,47.157169 780.023743,46.256954 
	C781.353394,45.827965 783.088684,46.656155 784.640259,46.914894 
	C784.172913,48.373112 784.101257,50.184914 783.169189,51.227707 
	C779.343872,55.507549 774.500793,58.045986 768.895386,59.089333 
	C766.551331,54.728989 769.843933,52.947845 771.867126,50.311501 
	C772.010010,49.992775 772.000000,49.999741 771.996094,50.003952 
z" />
  <path fill="#6EB867" d="
M774.154907,112.169968 
	C780.654602,117.128876 787.406372,122.221649 796.138977,122.198753 
	C801.791382,122.183945 807.439880,120.703957 813.473816,119.834946 
	C810.618958,121.191048 807.490540,123.370850 804.121094,123.847763 
	C794.204346,125.251373 785.024719,122.648994 776.886475,116.826271 
	C775.593811,115.901413 774.998291,114.002319 774.154907,112.169968 
z" />
  <path fill="#6EB867" d="
M819.904785,60.778168 
	C807.096130,53.103310 794.076050,52.493645 780.467651,60.090630 
	C781.765686,54.892811 786.931702,55.516140 790.680481,54.434086 
	C798.955811,52.045509 807.308899,53.113846 815.243835,56.363266 
	C817.048706,57.102390 818.366943,59.030037 819.904785,60.778168 
z" />
  <path fill="#6EB867" d="
M828.219910,107.898773 
	C833.315002,98.451012 834.989197,88.486794 831.845337,77.464890 
	C835.054443,82.044502 836.713806,87.555580 834.923462,93.275459 
	C833.346497,98.313774 830.735474,103.028412 828.219910,107.898773 
z" />
  <path fill="#6EB867" d="
M798.255859,155.063492 
	C805.404541,153.122665 809.458496,147.745682 812.414001,141.571915 
	C813.229919,139.867447 812.057800,137.211273 811.744629,134.608551 
	C812.464966,136.282181 813.880615,138.333801 813.897400,140.396820 
	C813.959167,147.976730 805.244751,156.192139 798.255859,155.063492 
z" />
  <path fill="#6EB867" d="
M766.648682,78.169052 
	C766.783508,84.302383 766.590881,90.603500 766.375244,97.358482 
	C765.352844,95.070633 763.466370,92.295616 763.567749,89.595230 
	C763.709717,85.813293 765.332153,82.086952 766.648682,78.169052 
z" />
  <path fill="#97E084" d="
M760.683899,67.158310 
	C761.108337,65.402733 761.756348,63.930138 762.404419,62.457550 
	C763.368530,62.922215 764.839478,63.162056 765.170166,63.907665 
	C765.596924,64.869720 765.485535,67.001884 764.940491,67.268188 
	C763.832397,67.809525 762.277954,67.437119 760.683899,67.158310 
z" />
  <path fill="#6EB867" d="
M814.250610,119.907860 
	C816.611877,117.863670 819.372375,115.869652 822.473206,113.822250 
	C821.960876,118.296524 818.827087,119.815445 814.250610,119.907860 
z" />
  <path fill="#6EB867" d="
M790.215698,149.137863 
	C792.182556,150.216187 794.047607,151.675247 796.061707,153.418976 
	C792.887390,154.189575 790.829468,152.831879 790.215698,149.137863 
z" />
  <path fill="#6EB867" d="
M766.167603,98.234421 
	C767.490662,100.315498 768.729797,102.794609 770.043152,105.623657 
	C768.772888,103.526550 767.428345,101.079506 766.167603,98.234421 
z" />
  <path fill="#6EB867" d="
M770.549133,70.031448 
	C769.811462,72.278725 768.714783,74.574387 767.372314,77.131210 
	C768.147705,74.954849 769.168945,72.517342 770.549133,70.031448 
z" />
  <path fill="#6EB867" d="
M785.724976,137.196472 
	C786.037903,138.698822 786.071594,140.394623 786.133850,142.513916 
	C782.793152,141.492599 784.221191,139.428146 785.724976,137.196472 
z" />
  <path fill="#6EB867" d="
M787.098999,145.226410 
	C788.134338,145.921204 789.120850,147.002121 790.198303,148.379318 
	C789.209595,147.654587 788.129944,146.633545 787.098999,145.226410 
z" />
  <path fill="#6EB867" d="
M825.166626,111.851280 
	C825.638062,110.608910 826.488220,109.395370 827.622009,108.029610 
	C827.118835,109.211632 826.332031,110.545876 825.166626,111.851280 
z" />
  <path fill="#6EB867" d="
M823.777344,63.904297 
	C822.533936,63.412712 821.356628,62.539810 820.026855,61.384712 
	C821.197388,61.909340 822.520386,62.716160 823.777344,63.904297 
z" />
  <path fill="#6EB867" d="
M831.932007,76.736870 
	C831.195923,75.697472 830.499268,74.271461 829.764893,72.500862 
	C830.475342,73.554268 831.223389,74.952263 831.932007,76.736870 
z" />
  <path fill="#6EB867" d="
M808.714050,131.911621 
	C806.900879,132.207138 804.897827,132.159958 802.462524,132.126953 
	C804.194885,131.950409 806.359497,131.759674 808.714050,131.911621 
z" />
  <path fill="#6EB867" d="
M801.724426,132.060486 
	C800.835266,132.620361 799.554382,133.144775 798.074951,133.418365 
	C799.028503,132.786713 800.180664,132.405869 801.724426,132.060486 
z" />
  <path fill="#6EB867" d="
M778.643616,60.998165 
	C778.264160,61.681782 777.516846,62.364853 776.477539,63.137684 
	C776.882202,62.484169 777.578979,61.740894 778.643616,60.998165 
z" />
  <path fill="#6EB867" d="
M829.842529,71.820480 
	C829.140320,71.400360 828.511719,70.600517 827.824097,69.494751 
	C828.482178,69.939476 829.199158,70.690117 829.842529,71.820480 
z" />
  <path fill="#6EB867" d="
M772.023987,109.309883 
	C772.721924,109.685257 773.408264,110.434303 774.174866,111.479034 
	C773.507568,111.077660 772.760010,110.380608 772.023987,109.309883 
z" />
  <path fill="#6EB867" d="
M794.747192,131.701782 
	C793.629944,132.069931 792.280762,132.165924 790.525146,132.272064 
	C791.584290,131.998016 793.049805,131.713821 794.747192,131.701782 
z" />
  <path fill="#6EB867" d="
M789.877563,132.189545 
	C789.649231,132.742218 789.082825,133.248077 788.244995,133.859161 
	C788.495544,133.357162 789.017517,132.749954 789.877563,132.189545 
z" />
  <path fill="#6EB867" d="
M787.610718,134.041656 
	C787.524536,134.677979 787.084839,135.382126 786.400513,136.288986 
	C786.523010,135.697632 786.890137,134.903549 787.610718,134.041656 
z" />
  <path fill="#6EB867" d="
M773.960571,65.229874 
	C773.995483,65.648499 773.732727,66.149521 773.220459,66.798332 
	C773.201538,66.401497 773.432251,65.856880 773.960571,65.229874 
z" />
  <path fill="#6EB867" d="
M825.985229,66.683311 
	C825.604431,66.590454 825.198853,66.183693 824.750122,65.486435 
	C825.124817,65.587082 825.542664,65.978241 825.985229,66.683311 
z" />
  <path fill="#6EB867" d="
M810.701538,133.008362 
	C810.218201,133.138992 809.662781,132.942444 808.955811,132.486816 
	C809.412659,132.378891 810.021057,132.530045 810.701538,133.008362 
z" />
  <path fill="#6EB867" d="
M786.088989,143.196320 
	C786.437683,143.354645 786.771423,143.837372 787.149109,144.621033 
	C786.820068,144.454895 786.447021,143.987808 786.088989,143.196320 
z" />
  <path fill="#6EB867" d="
M796.281006,154.021042 
	C796.752258,153.899139 797.308167,154.098099 798.022034,154.551819 
	C797.575256,154.651672 796.970459,154.496780 796.281006,154.021042 
z" />
  <path fill="#6EB867" d="
M823.076599,113.810562 
	C822.986633,113.572281 823.165894,113.262749 823.613281,112.880081 
	C823.702820,113.117737 823.524292,113.428528 823.076599,113.810562 
z" />
  <path fill="#6EB867" d="
M824.077026,112.810959 
	C823.988037,112.573181 824.168091,112.264328 824.616211,111.882607 
	C824.704956,112.119789 824.525513,112.429832 824.077026,112.810959 
z" />
  <path fill="#6EB867" d="
M811.719238,133.998779 
	C811.441467,134.119186 811.135681,133.953659 810.770386,133.523743 
	C811.037659,133.410507 811.364502,133.561691 811.719238,133.998779 
z" />
  <path fill="#6EB867" d="
M779.894531,60.148132 
	C779.934387,60.347885 779.720764,60.614300 779.251099,60.945000 
	C779.210449,60.744457 779.425781,60.479626 779.894531,60.148132 
z" />
  <path fill="#6EB867" d="
M771.850525,68.183388 
	C771.957031,68.397552 771.784729,68.761848 771.363708,69.308167 
	C771.267212,69.104630 771.419495,68.719078 771.850525,68.183388 
z" />
  <path fill="#6EB867" d="
M826.881531,67.846878 
	C826.693665,67.888596 826.423767,67.687614 826.079102,67.238480 
	C826.269409,67.194954 826.534485,67.399567 826.881531,67.846878 
z" />
  <path fill="#6EB867" d="
M827.816772,68.919907 
	C827.594177,68.979309 827.312866,68.773994 826.969849,68.300613 
	C827.191467,68.240089 827.474731,68.447647 827.816772,68.919907 
z" />
  <path fill="#6EB867" d="
M824.747803,64.977531 
	C824.483398,65.085419 824.176697,64.911186 823.804871,64.469040 
	C824.061646,64.365891 824.383667,64.530655 824.747803,64.977531 
z" />
  <path fill="#6EB867" d="
M774.935303,64.198517 
	C775.034546,64.439880 774.861877,64.754387 774.424744,65.149734 
	C774.328064,64.910942 774.495728,64.591301 774.935303,64.198517 
z" />
  <path fill="#6EB867" d="
M775.933350,63.196609 
	C776.021545,63.432919 775.838806,63.739868 775.391113,64.126328 
	C775.304932,63.892979 775.483643,63.580116 775.933350,63.196609 
z" />
  <path fill="#6EB867" d="
M771.150391,107.929901 
	C771.369934,107.900986 771.643921,108.163094 771.991577,108.704407 
	C771.778442,108.729393 771.491638,108.475159 771.150391,107.929901 
z" />
  <path fill="#FAFBFA" d="
M776.642212,109.199768 
	C766.143982,97.555244 766.004211,79.908058 776.317810,68.256378 
	C786.708313,56.517826 804.787720,54.028030 816.966675,63.131020 
	C820.541443,65.802948 823.103516,69.829765 825.898987,73.621643 
	C825.791443,79.678741 825.914673,85.349831 825.890625,91.346634 
	C825.498108,92.288254 825.238647,92.898895 825.009888,93.520844 
	C821.259460,103.717422 809.597778,115.835983 795.680603,114.013123 
	C790.015015,113.271057 784.393799,112.189941 778.752441,111.263084 
	C778.752441,111.263084 779.000000,111.002441 778.918274,110.762177 
	C778.105103,110.081200 777.373657,109.640480 776.642212,109.199768 
M810.802429,94.843010 
	C809.599182,95.099442 808.066650,94.971474 807.245972,95.674484 
	C801.796509,100.342369 797.359314,100.411461 791.778015,95.725296 
	C790.879517,94.970909 789.791077,94.442795 788.503540,93.628677 
	C788.078552,98.339882 790.378967,100.795853 795.795410,102.228081 
	C802.474548,103.994194 808.303040,101.444809 810.802429,94.843010 
M777.652466,85.867165 
	C778.605042,85.946495 780.241638,86.377800 780.408813,86.052956 
	C783.485657,80.074150 785.943909,82.723938 788.489014,86.452080 
	C788.758606,86.846909 789.634338,86.827911 790.227905,87.000641 
	C791.556641,82.477516 790.077515,79.767021 785.915161,78.723671 
	C781.683777,77.663017 778.456604,80.104065 777.652466,85.867165 
M813.093933,78.748711 
	C807.338318,81.236671 806.371704,83.515541 809.700012,86.749878 
	C814.175659,81.669098 814.175659,81.669098 820.408325,87.591034 
	C820.652466,85.577126 821.435364,83.478844 820.869446,83.010498 
	C818.752869,81.258873 816.194702,80.040779 813.093933,78.748711 
z" />
  <path fill="#CAEAF3" d="
M778.892822,111.570572 
	C784.393799,112.189941 790.015015,113.271057 795.680603,114.013123 
	C809.597778,115.835983 821.259460,103.717422 825.009888,93.520844 
	C825.238647,92.898895 825.498108,92.288254 826.239380,91.405106 
	C827.569824,92.463234 828.404236,93.788589 829.238586,95.113945 
	C826.351868,115.042198 802.481934,125.953438 784.315186,115.606689 
	C782.451294,114.545105 780.789062,113.129425 778.892822,111.570572 
z" />
  <path fill="#D9F2F9" d="
M829.459595,94.758583 
	C828.404236,93.788589 827.569824,92.463234 826.386719,91.079391 
	C825.914673,85.349831 825.791443,79.678741 826.001953,73.964523 
	C830.502014,80.250351 830.616638,87.240997 829.459595,94.758583 
z" />
  <path fill="#CAEAF3" d="
M776.742310,109.492943 
	C777.373657,109.640480 778.105103,110.081200 778.794800,110.893417 
	C778.116150,110.771980 777.479248,110.279053 776.742310,109.492943 
z" />
  <path fill="#F5F6F5" d="
M794.575012,135.055267 
	C796.337646,135.998306 797.711670,136.882767 799.187927,137.833038 
	C799.329773,137.809036 799.737488,137.866638 799.907104,137.692368 
	C802.431641,135.099304 805.505615,133.258347 808.541077,136.084717 
	C811.581787,138.916061 809.948425,142.354660 807.606018,144.916260 
	C805.197632,147.550110 802.321777,149.756592 798.134644,153.508286 
	C795.155762,149.788437 792.168030,146.661148 789.904724,143.076492 
	C787.151550,138.715942 788.920654,135.744644 794.575012,135.055267 
z" />
  <path fill="#111313" d="
M810.937073,95.194611 
	C808.303040,101.444809 802.474548,103.994194 795.795410,102.228081 
	C790.378967,100.795853 788.078552,98.339882 788.503540,93.628677 
	C789.791077,94.442795 790.879517,94.970909 791.778015,95.725296 
	C797.359314,100.411461 801.796509,100.342369 807.245972,95.674484 
	C808.066650,94.971474 809.599182,95.099442 810.937073,95.194611 
z" />
  <path fill="#111313" d="
M777.494873,85.539574 
	C778.456604,80.104065 781.683777,77.663017 785.915161,78.723671 
	C790.077515,79.767021 791.556641,82.477516 790.227905,87.000641 
	C789.634338,86.827911 788.758606,86.846909 788.489014,86.452080 
	C785.943909,82.723938 783.485657,80.074150 780.408813,86.052956 
	C780.241638,86.377800 778.605042,85.946495 777.494873,85.539574 
z" />
  <path fill="#111313" d="
M813.448059,78.685654 
	C816.194702,80.040779 818.752869,81.258873 820.869446,83.010498 
	C821.435364,83.478844 820.652466,85.577126 820.408325,87.591034 
	C814.175659,81.669098 814.175659,81.669098 809.700012,86.749878 
	C806.371704,83.515541 807.338318,81.236671 813.448059,78.685654 
z" />
</svg>