<svg xmlns="http://www.w3.org/2000/svg" viewBox="928.2475405 192.90895549999993 198.40085400000007 198.40085400000007">
  <path fill="#140E08" d="
M975.825439,222.254425 
	C977.463257,215.960495 981.109619,213.085403 985.964966,213.909805 
	C991.100647,214.781830 993.527283,218.712769 993.239990,224.657532 
	C999.120178,228.223511 1005.212463,230.847641 1009.962463,235.005310 
	C1022.725464,246.176788 1026.113525,265.328156 1018.759399,280.212799 
	C1011.387634,295.132935 994.629639,303.736786 978.582947,300.840027 
	C961.753662,297.802002 949.142151,284.870911 947.057434,268.515717 
	C944.780945,250.656036 953.670898,235.173645 970.177612,227.800735 
	C972.455078,226.783478 976.757080,227.368820 975.825439,222.254425 
M1010.068359,241.966095 
	C1010.068359,241.966095 1010.222778,241.929428 1010.070862,241.334320 
	C1009.736694,241.152206 1009.402527,240.970078 1009.073486,240.950363 
	C1009.073486,240.950363 1009.232971,240.918991 1009.152161,240.289856 
	C1008.791809,240.118286 1008.431458,239.946732 1008.066589,239.942673 
	C1008.066589,239.942673 1008.232666,239.919998 1008.149170,239.286560 
	C1007.784180,239.126312 1007.419189,238.966064 1007.175293,238.934143 
	C1007.175293,238.934143 1007.289795,238.799835 1007.100220,238.184021 
	C1006.082153,237.413300 1005.064087,236.642563 1004.029724,235.950928 
	C1004.029724,235.950928 1004.110535,235.950531 1003.747253,235.360519 
	C988.648621,225.944138 971.825806,227.676300 960.332214,239.972656 
	C960.155151,240.248077 959.978149,240.523514 959.338379,241.000107 
	C959.175659,241.285934 959.012939,241.571762 958.384888,242.061035 
	C958.240173,242.357147 958.095520,242.653275 957.453186,243.222275 
	C957.200500,243.723801 956.947815,244.225342 956.184143,245.090683 
	C955.752808,246.025421 955.321472,246.960159 954.339478,248.372421 
	C953.413513,251.679428 952.487549,254.986435 951.689514,258.528839 
	C951.689514,258.528839 951.942444,258.440155 951.301025,259.038422 
	C951.279907,261.342346 951.258850,263.646240 951.118652,266.709503 
	C951.700500,268.854523 952.282288,270.999512 952.808838,273.044708 
	C952.808838,273.044708 952.722778,273.119659 952.716064,273.760040 
	C952.865967,274.157990 953.015930,274.555939 953.194275,275.657593 
	C956.471802,283.108093 961.242798,289.185638 969.322632,293.099030 
	C977.191040,297.318634 985.513855,297.791229 993.980408,295.667236 
	C1005.595337,292.753510 1015.427673,282.018372 1016.640442,271.691650 
	C1016.801636,270.542084 1016.962830,269.392517 1017.523743,267.541229 
	C1017.363159,264.666931 1017.202515,261.792603 1017.094116,259.038422 
	C1017.094116,259.038422 1017.214478,258.986786 1017.298462,258.154297 
	C1016.548035,255.575134 1015.797607,252.995972 1015.242310,250.216904 
	C1015.242310,250.216904 1015.093323,249.980667 1015.032410,249.370804 
	C1014.718994,248.865234 1014.405640,248.359680 1014.083740,247.956818 
	C1014.083740,247.956818 1014.185120,247.938019 1014.087769,247.335083 
	C1013.749207,246.849670 1013.410645,246.364258 1013.050049,245.957703 
	C1013.050049,245.957703 1013.132019,245.956573 1012.987122,245.391296 
	C1012.686829,245.186783 1012.386536,244.982285 1012.111633,244.965454 
	C1012.111633,244.965454 1012.293457,244.912613 1012.241455,244.285568 
	C1011.852478,243.815094 1011.463501,243.344620 1011.051636,242.954010 
	C1011.051636,242.954010 1011.134644,242.955673 1010.964539,242.411209 
	C1010.660461,242.210190 1010.356384,242.009186 1010.068359,241.966095 
M988.953613,221.055496 
	C987.420166,218.515503 985.239258,216.833740 982.499878,218.718460 
	C981.161377,219.639420 980.768860,221.935318 979.948242,223.608948 
	C981.879761,224.349442 983.755981,225.369904 985.755737,225.765076 
	C988.786255,226.363953 989.394470,224.373993 988.953613,221.055496 
z" />
  <path fill="#061422" d="
M1086.495972,257.128082 
	C1072.937988,257.079681 1062.938477,247.479141 1063.386597,235.343521 
	C1063.848389,222.844391 1074.255615,213.152771 1086.220581,214.079834 
	C1096.421875,214.870209 1105.533081,223.938843 1106.060059,233.826614 
	C1106.710205,246.024765 1099.639038,254.608414 1086.495972,257.128082 
M1087.972168,253.058319 
	C1097.725708,250.448120 1103.117554,243.094727 1102.178955,233.683060 
	C1101.338379,225.254715 1094.358765,218.357498 1086.164062,217.857178 
	C1077.304565,217.316284 1069.558472,223.133377 1067.476562,231.891159 
	C1064.728760,243.450241 1073.796875,253.260376 1087.972168,253.058319 
z" />
  <path fill="#0C150C" d="
M1085.854614,371.133362 
	C1074.057007,370.883820 1064.871948,363.214172 1063.745850,353.064087 
	C1062.435303,341.251648 1068.750977,331.722168 1079.777954,328.873810 
	C1089.942017,326.248352 1100.805420,331.860565 1104.762695,342.098114 
	C1110.114990,355.944183 1099.460693,370.765228 1085.854614,371.133362 
M1089.496216,332.538391 
	C1087.693237,332.333252 1085.887573,331.932129 1084.087769,331.957123 
	C1076.538208,332.062073 1070.172852,337.303070 1067.907104,345.125305 
	C1065.804077,352.385803 1068.857300,360.288086 1075.437378,364.614471 
	C1081.584351,368.656128 1090.275757,368.174408 1095.871704,363.481873 
	C1106.590454,354.493439 1103.697632,338.710541 1089.496216,332.538391 
z" />
  <path fill="#287BBA" d="
M1044.662598,339.488586 
	C1049.162720,342.008881 1053.369751,344.352814 1057.404175,346.963531 
	C1060.534424,348.989197 1060.763184,351.331543 1057.383057,353.496521 
	C1054.026978,355.645874 1050.723755,357.884460 1047.296143,359.912903 
	C1043.654907,362.067780 1041.989258,361.239899 1041.860352,357.136108 
	C1041.714111,352.489227 1041.710693,347.821411 1042.017090,343.187286 
	C1042.102905,341.889343 1043.499634,340.678101 1044.662598,339.488586 
z" />
  <path fill="#3877A4" d="
M1072.255371,286.906342 
	C1072.914917,290.681946 1073.457397,294.291626 1073.400391,297.891846 
	C1073.389526,298.577759 1070.827759,299.949890 1069.775024,299.685120 
	C1068.755737,299.428741 1067.723755,297.549469 1067.490112,296.241425 
	C1067.152222,294.348083 1067.555420,292.327850 1067.592896,290.360779 
	C1067.648315,287.464600 1068.843628,285.981812 1072.255371,286.906342 
z" />
  <path fill="#3877A4" d="
M1034.995728,266.500549 
	C1031.291016,268.675110 1029.541260,266.997009 1029.231812,263.769012 
	C1028.984131,261.185211 1029.272339,258.475433 1029.822754,255.929611 
	C1030.019409,255.019363 1031.833618,253.694794 1032.639160,253.861938 
	C1033.802368,254.103287 1035.519775,255.471710 1035.593872,256.464172 
	C1035.834717,259.691864 1035.436035,262.967316 1034.995728,266.500549 
z" />
  <path fill="#3877A4" d="
M1053.834473,278.367249 
	C1055.471802,277.385590 1057.307495,275.862305 1058.561401,276.245026 
	C1061.404175,277.112640 1063.960571,278.918945 1066.633301,280.343628 
	C1065.795654,281.753204 1065.284302,283.778717 1064.047119,284.434479 
	C1061.959229,285.541107 1054.936157,281.295746 1053.834473,278.367249 
z" />
  <path fill="#3877A4" d="
M1047.111572,313.344543 
	C1044.072144,313.666473 1041.381714,314.157806 1038.796143,313.827454 
	C1037.591675,313.673553 1036.054688,312.081787 1035.696045,310.843964 
	C1035.475708,310.083435 1037.050415,308.040741 1038.078735,307.827942 
	C1040.811157,307.262512 1043.836182,306.745605 1046.464600,307.376587 
	C1049.996094,308.224243 1050.242188,310.675507 1047.111572,313.344543 
z" />
  <path fill="#3877A4" d="
M1006.836304,308.035339 
	C1008.784912,309.101929 1010.310669,310.181458 1011.836426,311.260986 
	C1010.462952,312.381653 1009.243469,313.885437 1007.673218,314.516541 
	C1006.067322,315.162109 1004.006226,315.398926 1002.350342,314.986877 
	C1000.792664,314.599213 999.503601,313.131805 998.096313,312.139465 
	C999.244751,310.988983 1000.211792,309.468628 1001.592468,308.791595 
	C1002.985840,308.108276 1004.789429,308.261505 1006.836304,308.035339 
z" />
  <path fill="#3877A4" d="
M1061.704468,302.865479 
	C1063.509644,303.305145 1065.470703,303.513550 1066.238770,304.580597 
	C1066.723267,305.253540 1065.823730,307.792328 1064.839966,308.468903 
	C1062.877319,309.818726 1060.494629,310.804688 1058.153687,311.252930 
	C1056.993530,311.475098 1054.717285,310.421478 1054.435791,309.493195 
	C1054.106567,308.407501 1055.053711,306.410980 1056.073730,305.564880 
	C1057.537109,304.350861 1059.567383,303.819946 1061.704468,302.865479 
z" />
  <path fill="#3877A4" d="
M994.972656,350.002380 
	C993.117065,348.369354 991.515991,346.924591 990.265747,345.222260 
	C990.111023,345.011627 992.094482,342.484894 992.625183,342.637543 
	C996.057190,343.624695 999.414612,344.945251 1002.638916,346.486237 
	C1003.043274,346.679504 1002.946045,349.081726 1002.355957,349.988373 
	C1000.215271,353.277405 997.705505,350.604431 994.972656,350.002380 
z" />
  <path fill="#3877A4" d="
M988.148315,313.847870 
	C990.162598,313.983490 991.842590,314.299500 993.522583,314.615540 
	C993.106812,316.062286 993.012512,317.733673 992.196716,318.900970 
	C991.089539,320.485413 989.610413,322.004242 987.947083,322.940277 
	C986.755493,323.610870 984.565674,323.883301 983.630554,323.209747 
	C982.846252,322.644958 982.627258,320.104828 983.231628,319.060760 
	C984.342224,317.141968 986.242676,315.680389 988.148315,313.847870 
z" />
  <path fill="#3877A4" d="
M1047.304565,272.916046 
	C1047.995483,274.681641 1048.329712,276.273376 1048.664062,277.865082 
	C1047.162964,278.079956 1045.587769,278.683350 1044.178833,278.414764 
	C1042.272095,278.051331 1040.239990,277.341827 1038.740356,276.168884 
	C1037.584839,275.265076 1037.166870,273.418304 1036.421021,271.990784 
	C1038.113159,271.445129 1039.856201,270.348511 1041.484253,270.498596 
	C1043.358398,270.671326 1045.131226,271.946045 1047.304565,272.916046 
z" />
  <path fill="#3877A4" d="
M1040.040405,350.825165 
	C1036.606445,355.301941 1032.269531,353.606720 1028.255371,352.846191 
	C1027.752563,352.750946 1027.036255,349.431244 1027.686401,348.422729 
	C1029.592651,345.465851 1038.384766,347.047241 1040.040405,350.825165 
z" />
  <path fill="#3877A4" d="
M979.980347,332.068542 
	C980.339355,327.751648 983.792175,328.129639 984.820007,329.676453 
	C986.642639,332.419312 987.226379,336.049713 987.971558,339.388367 
	C988.115479,340.033264 986.596558,341.757782 985.893799,341.730286 
	C984.573853,341.678558 982.591431,341.040222 982.130066,340.059753 
	C981.029419,337.720581 980.653503,335.040375 979.980347,332.068542 
z" />
  <path fill="#3877A4" d="
M1041.456543,239.448059 
	C1046.285400,240.579758 1046.941040,242.156036 1044.052612,245.065216 
	C1042.654907,246.472916 1041.166382,247.961365 1039.423584,248.796936 
	C1038.207520,249.379868 1035.964722,249.492279 1035.150635,248.750397 
	C1034.404175,248.070175 1034.340942,245.437729 1035.062500,244.591187 
	C1036.734619,242.629852 1039.062988,241.228149 1041.456543,239.448059 
z" />
  <path fill="#3877A4" d="
M1009.883179,347.149597 
	C1012.932007,346.977600 1015.670593,346.577179 1018.225952,347.089966 
	C1019.552124,347.356079 1020.554138,349.237396 1021.702637,350.389038 
	C1020.546814,351.369446 1019.525635,352.846832 1018.201416,353.205627 
	C1016.510254,353.663879 1014.569763,353.283966 1012.745178,353.150574 
	C1008.736267,352.857483 1007.125000,351.167419 1009.883179,347.149597 
z" />
  <path fill="#3877A4" d="
M1016.989136,310.155396 
	C1021.098389,309.223175 1025.100952,308.655792 1029.122559,308.426422 
	C1029.317505,308.415283 1029.681641,311.374908 1029.967041,312.951111 
	C1026.637817,313.353485 1023.299744,314.069855 1019.984497,313.976501 
	C1018.920715,313.946503 1017.917297,311.777588 1016.989136,310.155396 
z" />
  <path fill="#3877A4" d="
M1053.691406,233.822418 
	C1055.963135,234.562225 1057.871216,235.365753 1059.779297,236.169281 
	C1059.304688,237.293015 1059.022461,239.226486 1058.320312,239.393326 
	C1055.919434,239.963821 1053.032959,240.744690 1050.959473,239.901352 
	C1047.998901,238.697235 1049.072021,235.992996 1053.691406,233.822418 
z" />
  <path fill="#E69440" d="
M1017.124023,268.242920 
	C1016.962830,269.392517 1016.801636,270.542084 1016.313354,271.443359 
	C1015.845032,269.616394 1015.703796,268.037659 1015.562561,266.458954 
	C1014.069031,267.588379 1013.544128,268.617371 1013.232117,269.707245 
	C1009.031555,284.380768 997.735779,293.138611 982.636108,292.895660 
	C978.086182,292.822510 973.553894,291.650848 968.955322,290.845154 
	C968.809082,290.659821 968.721069,290.611633 968.633057,290.563416 
	C968.749756,290.713318 968.866394,290.863190 968.954590,291.428345 
	C968.895325,292.119446 968.864563,292.395233 968.833801,292.670990 
	C961.242798,289.185638 956.471802,283.108093 953.383423,275.132294 
	C953.289307,274.111237 953.006042,273.615448 952.722778,273.119659 
	C952.722778,273.119659 952.808838,273.044708 952.878479,272.663269 
	C952.614685,270.184113 952.281250,268.086456 951.960876,265.591339 
	C951.991272,264.133240 952.008606,263.072601 952.393433,262.003906 
	C953.797852,261.078247 954.834717,260.160583 955.192261,259.844116 
	C956.069214,263.252655 957.062378,267.112885 958.274658,271.248077 
	C958.946045,272.591858 959.356750,273.680542 959.857117,274.726288 
	C965.389893,286.290131 976.822205,292.091370 989.945312,290.010132 
	C1000.556091,288.327301 1010.413208,278.208466 1011.652405,266.847260 
	C1013.135986,253.245331 1007.021240,243.505905 994.876343,236.878723 
	C993.907837,236.409195 993.173340,236.244705 992.343445,236.168091 
	C992.248108,236.255981 992.026917,236.120636 991.902466,235.801163 
	C991.493774,234.618942 991.209595,233.756195 991.333984,232.897552 
	C995.865173,233.917953 999.987854,234.934235 1004.110535,235.950531 
	C1004.110535,235.950531 1004.029724,235.950928 1004.044495,236.271988 
	C1005.136108,237.328644 1006.212952,238.064224 1007.289795,238.799820 
	C1007.289795,238.799835 1007.175293,238.934143 1007.230042,239.130844 
	C1007.600769,239.525024 1007.916687,239.722504 1008.232666,239.919983 
	C1008.232666,239.919998 1008.066589,239.942673 1008.175659,240.127426 
	C1008.600830,240.514435 1008.916931,240.716705 1009.232971,240.918976 
	C1009.232971,240.918991 1009.073486,240.950363 1009.177124,241.135284 
	C1009.594727,241.523270 1009.908752,241.726334 1010.222778,241.929413 
	C1010.222778,241.929428 1010.068359,241.966095 1010.170410,242.139069 
	C1010.559875,242.526581 1010.847229,242.741119 1011.134644,242.955673 
	C1011.134644,242.955673 1011.051636,242.954010 1011.088135,243.239563 
	C1011.514282,243.987610 1011.903870,244.450104 1012.293457,244.912598 
	C1012.293457,244.912613 1012.111633,244.965454 1012.195129,245.130890 
	C1012.563110,245.516418 1012.847534,245.736496 1013.132019,245.956573 
	C1013.132019,245.956573 1013.050049,245.957703 1013.081238,246.239471 
	C1013.469971,246.993500 1013.827576,247.465759 1014.185120,247.938019 
	C1014.185120,247.938019 1014.083740,247.956818 1014.103760,248.225311 
	C1014.446899,248.989410 1014.770081,249.485046 1015.093323,249.980682 
	C1015.093323,249.980667 1015.242310,250.216904 1015.167603,250.752167 
	C1015.800110,253.853882 1016.507263,256.420349 1017.214478,258.986786 
	C1017.214478,258.986786 1017.094116,259.038422 1017.106079,259.438080 
	C1017.119995,262.639465 1017.122009,265.441193 1017.124023,268.242920 
z" />
  <path fill="#F4942B" d="
M969.013550,290.982361 
	C973.553894,291.650848 978.086182,292.822510 982.636108,292.895660 
	C997.735779,293.138611 1009.031555,284.380768 1013.232117,269.707245 
	C1013.544128,268.617371 1014.069031,267.588379 1015.562561,266.458954 
	C1015.703796,268.037659 1015.845032,269.616394 1015.994934,271.603333 
	C1015.427673,282.018372 1005.595337,292.753510 993.980408,295.667236 
	C985.513855,297.791229 977.191040,297.318634 969.078247,292.885010 
	C968.864563,292.395233 968.895325,292.119446 968.963013,291.421600 
	C969.000000,290.999573 969.013550,290.982361 969.013550,290.982361 
z" />
  <path fill="#E5BE85" d="
M1003.928894,235.655518 
	C999.987854,234.934235 995.865173,233.917953 991.044556,232.888580 
	C989.958435,232.865143 989.570251,232.854782 988.951416,232.611160 
	C987.507507,232.008087 986.294128,231.638306 984.666443,231.204681 
	C976.457275,231.684402 969.728821,234.684280 963.634155,239.984589 
	C962.603027,240.119537 961.918518,240.212006 961.127136,240.171997 
	C961.020264,240.039536 960.796631,239.782944 960.796631,239.782944 
	C971.825806,227.676300 988.648621,225.944138 1003.928894,235.655518 
z" />
  <path fill="#E69440" d="
M989.050659,221.460632 
	C989.394470,224.373993 988.786255,226.363953 985.755737,225.765076 
	C983.755981,225.369904 981.879761,224.349442 979.948242,223.608932 
	C980.768860,221.935318 981.161377,219.639420 982.499878,218.718460 
	C985.239258,216.833740 987.420166,218.515503 989.050659,221.460632 
z" />
  <path fill="#E3AA4C" d="
M958.055542,270.973083 
	C957.062378,267.112885 956.069214,263.252655 955.192261,259.844116 
	C954.834717,260.160583 953.797852,261.078247 952.373657,261.557556 
	C951.971680,260.226196 951.957031,259.333160 951.942383,258.440155 
	C951.942444,258.440155 951.689514,258.528839 951.933594,258.215210 
	C952.776062,256.924530 953.374390,255.947433 954.262634,255.095825 
	C955.794617,254.882690 957.036682,254.544083 958.255737,254.618256 
	C958.173706,260.345032 958.114624,265.659058 958.055542,270.973083 
z" />
  <path fill="#E5BE85" d="
M953.972717,254.970367 
	C953.374390,255.947433 952.776062,256.924530 951.869629,258.097534 
	C952.487549,254.986435 953.413513,251.679428 954.650269,248.167419 
	C954.961121,247.962433 955.032166,248.029831 955.059937,248.426086 
	C954.716003,250.871689 954.344360,252.921021 953.972717,254.970367 
z" />
  <path fill="#E3AA4C" d="
M951.947876,265.988770 
	C952.281250,268.086456 952.614685,270.184113 952.906128,272.713165 
	C952.282288,270.999512 951.700500,268.854523 951.355896,266.336182 
	C951.593140,265.962830 951.947876,265.988770 951.947876,265.988770 
z" />
  <path fill="#E5BE85" d="
M1017.256470,258.570557 
	C1016.507263,256.420349 1015.800110,253.853882 1015.070068,250.852112 
	C1015.797607,252.995972 1016.548035,255.575134 1017.256470,258.570557 
z" />
  <path fill="#E5BE85" d="
M1017.323853,267.892090 
	C1017.122009,265.441193 1017.119995,262.639465 1017.079956,259.378021 
	C1017.202515,261.792603 1017.363159,264.666931 1017.323853,267.892090 
z" />
  <path fill="#E5BE85" d="
M951.960876,265.591339 
	C951.947876,265.988770 951.593140,265.962830 951.415405,265.956482 
	C951.258850,263.646240 951.279907,261.342346 951.621704,258.739288 
	C951.957031,259.333160 951.971680,260.226196 952.006104,261.565552 
	C952.008606,263.072601 951.991272,264.133240 951.960876,265.591339 
z" />
  <path fill="#E5BE85" d="
M1007.195007,238.491913 
	C1006.212952,238.064224 1005.136108,237.328644 1004.052612,236.232452 
	C1005.064087,236.642563 1006.082153,237.413300 1007.195007,238.491913 
z" />
  <path fill="#E5BE85" d="
M954.925659,247.928680 
	C955.321472,246.960159 955.752808,246.025421 956.534668,244.992401 
	C956.885193,244.894135 957.079590,245.056366 957.086792,245.408173 
	C956.406677,246.516602 955.719421,247.273209 955.032166,248.029816 
	C955.032166,248.029831 954.961121,247.962433 954.925659,247.928680 
z" />
  <path fill="#E5BE85" d="
M956.790161,244.810516 
	C956.947815,244.225342 957.200500,243.723801 957.725952,243.109436 
	C957.998657,242.996597 958.050171,243.039764 958.064697,243.347015 
	C957.746033,244.121643 957.412842,244.589005 957.079590,245.056366 
	C957.079590,245.056366 956.885193,244.894135 956.790161,244.810516 
z" />
  <path fill="#E5BE85" d="
M1014.136475,247.636551 
	C1013.827576,247.465759 1013.469971,246.993500 1013.092285,246.200043 
	C1013.410645,246.364258 1013.749207,246.849670 1014.136475,247.636551 
z" />
  <path fill="#E3AA4C" d="
M952.719421,273.439850 
	C953.006042,273.615448 953.289307,274.111237 953.369263,274.780457 
	C953.015930,274.555939 952.865967,274.157990 952.719421,273.439850 
z" />
  <path fill="#E5BE85" d="
M1012.267456,244.599091 
	C1011.903870,244.450104 1011.514282,243.987610 1011.099609,243.199615 
	C1011.463501,243.344620 1011.852478,243.815094 1012.267456,244.599091 
z" />
  <path fill="#E5BE85" d="
M1015.062866,249.675751 
	C1014.770081,249.485046 1014.446899,248.989410 1014.108032,248.173950 
	C1014.405640,248.359680 1014.718994,248.865234 1015.062866,249.675751 
z" />
  <path fill="#E5BE85" d="
M958.850220,241.857574 
	C959.012939,241.571762 959.175659,241.285934 959.668213,240.999298 
	C959.997986,240.998489 960.193848,241.198929 960.074463,241.417480 
	C959.669312,241.791077 959.383606,241.946106 959.036682,242.039474 
	C958.975525,241.977814 958.850220,241.857559 958.850220,241.857574 
z" />
  <path fill="#E5BE85" d="
M1009.192566,240.604416 
	C1008.916931,240.716705 1008.600830,240.514435 1008.177917,240.043671 
	C1008.431458,239.946732 1008.791809,240.118286 1009.192566,240.604416 
z" />
  <path fill="#E5BE85" d="
M959.899536,240.898712 
	C959.978149,240.523514 960.155151,240.248077 960.564453,239.877808 
	C960.796631,239.782944 961.020264,240.039536 960.994202,240.362396 
	C960.763733,240.937393 960.505676,241.108612 960.193848,241.198929 
	C960.193848,241.198929 959.997986,240.998489 959.899536,240.898712 
z" />
  <path fill="#E5BE85" d="
M1008.190918,239.603271 
	C1007.916687,239.722504 1007.600769,239.525024 1007.169495,239.066681 
	C1007.419189,238.966064 1007.784180,239.126312 1008.190918,239.603271 
z" />
  <path fill="#E5BE85" d="
M1013.059570,245.673935 
	C1012.847534,245.736496 1012.563110,245.516418 1012.182373,245.037064 
	C1012.386536,244.982285 1012.686829,245.186783 1013.059570,245.673935 
z" />
  <path fill="#E5BE85" d="
M1010.146851,241.631866 
	C1009.908752,241.726334 1009.594727,241.523270 1009.174561,241.054077 
	C1009.402527,240.970078 1009.736694,241.152206 1010.146851,241.631866 
z" />
  <path fill="#E5BE85" d="
M957.974731,242.972992 
	C958.095520,242.653275 958.240173,242.357147 958.617554,241.959290 
	C958.850220,241.857559 958.975525,241.977814 958.952148,242.280731 
	C958.635986,242.735687 958.343079,242.887741 958.050171,243.039780 
	C958.050171,243.039764 957.998657,242.996597 957.974731,242.972992 
z" />
  <path fill="#E5BE85" d="
M1011.049561,242.683441 
	C1010.847229,242.741119 1010.559875,242.526581 1010.162354,242.060120 
	C1010.356384,242.009186 1010.660461,242.210190 1011.049561,242.683441 
z" />
  <path fill="#2FA5DE" d="
M1087.541016,253.094650 
	C1073.796875,253.260376 1064.728760,243.450241 1067.476562,231.891159 
	C1069.558472,223.133377 1077.304565,217.316284 1086.164062,217.857178 
	C1094.358765,218.357498 1101.338379,225.254715 1102.178955,233.683060 
	C1103.117554,243.094727 1097.725708,250.448120 1087.541016,253.094650 
M1088.210083,228.254578 
	C1086.858276,225.412750 1084.418945,222.556320 1082.171143,226.230865 
	C1078.801636,231.738953 1076.847900,238.113007 1074.292114,244.118774 
	C1074.749512,244.538696 1075.207031,244.958603 1075.664429,245.378510 
	C1077.006348,244.409576 1078.568115,243.637802 1079.648071,242.433868 
	C1082.629150,239.110428 1087.110352,239.268066 1089.881714,242.818298 
	C1090.573242,243.704117 1091.863403,244.122543 1092.878418,244.755768 
	C1093.097290,243.464447 1093.825439,241.993317 1093.444336,240.913849 
	C1092.011475,236.855347 1090.217041,232.924515 1088.210083,228.254578 
z" />
  <path fill="#68C95D" d="
M1089.874756,332.683044 
	C1103.697632,338.710541 1106.590454,354.493439 1095.871704,363.481873 
	C1090.275757,368.174408 1081.584351,368.656128 1075.437378,364.614471 
	C1068.857300,360.288086 1065.804077,352.385803 1067.907104,345.125305 
	C1070.172852,337.303070 1076.538208,332.062073 1084.087769,331.957123 
	C1085.887573,331.932129 1087.693237,332.333252 1089.874756,332.683044 
M1086.891846,340.112762 
	C1083.666748,340.112762 1080.441528,340.112762 1077.316162,340.112762 
	C1077.316162,346.831543 1077.316162,352.752808 1077.316162,358.982483 
	C1080.196899,359.199615 1082.812134,359.433502 1085.432373,359.575256 
	C1086.415039,359.628387 1087.432617,359.581573 1088.394043,359.383972 
	C1092.476929,358.544647 1094.102783,355.545837 1092.809204,351.687775 
	C1092.373535,350.387756 1091.980957,348.846985 1092.267090,347.573181 
	C1093.182617,343.497803 1091.556519,341.223511 1086.891846,340.112762 
z" />
  <path fill="#3D1C0D" d="
M958.274658,271.248077 
	C958.114624,265.659058 958.173706,260.345032 958.226990,254.593811 
	C958.221191,254.156616 958.146606,254.150452 958.399780,253.966888 
	C958.790283,253.176453 958.927551,252.569580 959.269470,251.783493 
	C959.670776,250.923294 959.867554,250.242279 960.322266,249.372742 
	C960.732361,248.791855 960.884460,248.399490 961.015991,248.004883 
	C960.995422,248.002655 961.018921,248.036743 961.266357,247.867126 
	C961.736145,247.149338 961.958435,246.601181 962.120605,246.046997 
	C962.060486,246.040970 962.070740,246.161331 962.332886,246.075211 
	C962.758667,245.667267 962.922302,245.345444 963.050049,245.019119 
	C963.014160,245.014618 963.026123,245.085983 963.265137,244.985168 
	C963.675293,244.591721 963.846558,244.299088 964.009399,244.002930 
	C964.000916,243.999435 964.010498,244.016968 964.312988,243.869186 
	C972.338928,236.089615 981.678772,234.286850 992.026917,236.120636 
	C992.026917,236.120636 992.248108,236.255981 992.605713,236.434845 
	C993.679016,236.803711 994.394653,236.993744 995.110291,237.183777 
	C1007.021240,243.505905 1013.135986,253.245331 1011.652405,266.847260 
	C1010.413208,278.208466 1000.556091,288.327301 989.945312,290.010132 
	C976.822205,292.091370 965.389893,286.290131 959.857117,274.726288 
	C959.356750,273.680542 958.946045,272.591858 958.274658,271.248077 
M992.592957,286.626801 
	C1001.921936,282.367828 1008.301147,275.863586 1009.239502,264.182953 
	C1008.846436,250.144958 999.758240,239.207855 987.411438,238.067200 
	C976.701965,237.077820 968.627869,241.562653 963.250122,250.638458 
	C957.924927,259.625671 958.764648,270.754150 965.441345,278.596771 
	C972.432434,286.808655 981.380493,289.569855 992.592957,286.626801 
z" />
  <path fill="#E3AA4C" d="
M991.902466,235.801163 
	C981.678772,234.286850 972.338928,236.089615 964.310547,243.462463 
	C963.997375,242.116364 963.989075,241.029236 963.980713,239.942093 
	C969.728821,234.684280 976.457275,231.684402 984.654602,231.549866 
	C985.817078,235.118515 987.443237,234.243698 989.182007,232.844421 
	C989.570251,232.854782 989.958435,232.865143 990.636108,232.884476 
	C991.209595,233.756195 991.493774,234.618942 991.902466,235.801163 
z" />
  <path fill="#E3AA4C" d="
M994.876343,236.878723 
	C994.394653,236.993744 993.679016,236.803711 992.701050,236.346954 
	C993.173340,236.244705 993.907837,236.409195 994.876343,236.878723 
z" />
  <path fill="#F4942B" d="
M968.991516,291.006317 
	C968.866394,290.863190 968.749756,290.713318 968.633057,290.563416 
	C968.721069,290.611633 968.809082,290.659821 968.955322,290.845154 
	C969.013550,290.982361 969.000000,290.999573 968.991516,291.006317 
z" />
  <path fill="#E69440" d="
M963.634155,239.984589 
	C963.989075,241.029236 963.997375,242.116364 964.008057,243.610229 
	C964.010498,244.016968 964.000916,243.999435 963.783081,244.119461 
	C963.385498,244.521652 963.205811,244.803818 963.026123,245.085968 
	C963.026123,245.085983 963.014160,245.014618 962.806274,245.132370 
	C962.422546,245.553864 962.246643,245.857605 962.070740,246.161346 
	C962.070740,246.161331 962.060486,246.040970 961.836914,246.181335 
	C961.415161,246.893372 961.217041,247.465042 961.018921,248.036743 
	C961.018921,248.036743 960.995422,248.002655 960.754272,248.188644 
	C960.363525,248.770172 960.213867,249.165710 960.064209,249.561249 
	C959.867554,250.242279 959.670776,250.923294 959.006653,251.967407 
	C958.408386,252.937164 958.277527,253.543808 958.146606,254.150452 
	C958.146606,254.150452 958.221191,254.156616 958.250000,254.181046 
	C957.036682,254.544083 955.794617,254.882690 954.262634,255.095825 
	C954.344360,252.921021 954.716003,250.871689 955.059937,248.426086 
	C955.719421,247.273209 956.406677,246.516602 957.086792,245.408173 
	C957.412842,244.589005 957.746033,244.121643 958.064697,243.347046 
	C958.343079,242.887741 958.635986,242.735687 959.013306,242.342377 
	C959.383606,241.946106 959.669312,241.791077 960.074463,241.417480 
	C960.505676,241.108612 960.763733,240.937393 961.101074,240.494873 
	C961.918518,240.212006 962.603027,240.119537 963.634155,239.984589 
z" />
  <path fill="#E69440" d="
M988.951416,232.611145 
	C987.443237,234.243698 985.817078,235.118515 985.068909,231.613693 
	C986.294128,231.638306 987.507507,232.008087 988.951416,232.611145 
z" />
  <path fill="#1F4979" d="
M1088.384033,228.600220 
	C1090.217041,232.924515 1092.011475,236.855347 1093.444336,240.913849 
	C1093.825439,241.993317 1093.097290,243.464447 1092.878418,244.755783 
	C1091.863403,244.122543 1090.573242,243.704117 1089.881714,242.818298 
	C1087.110352,239.268066 1082.629150,239.110428 1079.648071,242.433868 
	C1078.568115,243.637802 1077.006348,244.409576 1075.664429,245.378510 
	C1075.207031,244.958603 1074.749512,244.538696 1074.292114,244.118774 
	C1076.847900,238.113007 1078.801636,231.738953 1082.171143,226.230865 
	C1084.418945,222.556320 1086.858276,225.412750 1088.384033,228.600220 
z" />
  <path fill="#0A1D30" d="
M1087.316284,340.138000 
	C1091.556519,341.223511 1093.182617,343.497803 1092.267090,347.573181 
	C1091.980957,348.846985 1092.373535,350.387756 1092.809204,351.687775 
	C1094.102783,355.545837 1092.476929,358.544647 1088.394043,359.383972 
	C1087.432617,359.581573 1086.415039,359.628387 1085.432373,359.575256 
	C1082.812134,359.433502 1080.196899,359.199615 1077.316162,358.982483 
	C1077.316162,352.752808 1077.316162,346.831543 1077.316162,340.112762 
	C1080.441528,340.112762 1083.666748,340.112762 1087.316284,340.138000 
M1081.001709,354.331390 
	C1083.320312,354.736847 1085.633667,355.208954 1087.969727,355.395935 
	C1088.123413,355.408203 1088.829468,352.314575 1088.638916,352.237000 
	C1087.055786,351.592407 1085.298218,350.961273 1083.643066,351.071350 
	C1082.725708,351.132355 1081.903076,352.619293 1081.001709,354.331390 
M1082.675659,348.034790 
	C1084.155884,347.977966 1085.931030,348.391449 1087.019287,347.709229 
	C1087.827759,347.202393 1087.745728,345.274597 1088.060303,343.979706 
	C1085.985474,343.832642 1083.910645,343.685577 1081.835815,343.538544 
	C1081.836304,344.981689 1081.836670,346.424866 1082.675659,348.034790 
z" />
  <path fill="#F4D6A6" d="
M991.908630,286.685059 
	C981.380493,289.569855 972.432434,286.808655 965.441345,278.596771 
	C958.764648,270.754150 957.924927,259.625671 963.250122,250.638458 
	C968.627869,241.562653 976.701965,237.077820 987.411438,238.067200 
	C999.758240,239.207855 1008.846436,250.144958 1008.885498,264.449127 
	C1007.972412,264.796204 1007.096130,264.678101 1006.901733,264.987854 
	C1003.888245,269.790192 1001.464050,275.074951 997.832764,279.335510 
	C995.596863,281.958801 991.549255,283.037964 987.841858,285.069794 
	C989.588867,285.763672 990.748718,286.224365 991.908630,286.685059 
M981.119324,255.920761 
	C974.843018,261.950348 973.295715,270.380554 969.887451,278.335175 
	C977.578186,275.016449 986.050476,273.682098 991.728577,265.837280 
	C994.595215,259.791046 997.461792,253.744781 1000.328430,247.698532 
	C999.818420,247.279694 999.308411,246.860870 998.798401,246.442047 
	C993.138184,249.581238 987.477966,252.720444 981.119324,255.920761 
z" />
  <path fill="#E5BE85" d="
M992.250793,286.655945 
	C990.748718,286.224365 989.588867,285.763672 987.841858,285.069794 
	C991.549255,283.037964 995.596863,281.958801 997.832764,279.335510 
	C1001.464050,275.074951 1003.888245,269.790192 1006.901733,264.987854 
	C1007.096130,264.678101 1007.972412,264.796204 1008.774658,264.882141 
	C1008.301147,275.863586 1001.921936,282.367828 992.250793,286.655945 
z" />
  <path fill="#E3AA4C" d="
M961.266357,247.867126 
	C961.217041,247.465042 961.415161,246.893372 961.896973,246.187347 
	C961.958435,246.601181 961.736145,247.149338 961.266357,247.867126 
z" />
  <path fill="#E3AA4C" d="
M958.399780,253.966888 
	C958.277527,253.543808 958.408386,252.937164 958.802063,252.146606 
	C958.927551,252.569580 958.790283,253.176453 958.399780,253.966888 
z" />
  <path fill="#E3AA4C" d="
M962.332886,246.075226 
	C962.246643,245.857605 962.422546,245.553864 962.842224,245.136871 
	C962.922302,245.345444 962.758667,245.667267 962.332886,246.075226 
z" />
  <path fill="#E3AA4C" d="
M963.265137,244.985168 
	C963.205811,244.803818 963.385498,244.521652 963.791504,244.122955 
	C963.846558,244.299088 963.675293,244.591721 963.265137,244.985168 
z" />
  <path fill="#E3AA4C" d="
M960.322266,249.372726 
	C960.213867,249.165710 960.363525,248.770172 960.774841,248.190887 
	C960.884460,248.399490 960.732361,248.791855 960.322266,249.372726 
z" />
  <path fill="#87D575" d="
M1081.019775,353.897461 
	C1081.903076,352.619293 1082.725708,351.132355 1083.643066,351.071350 
	C1085.298218,350.961273 1087.055786,351.592407 1088.638916,352.237000 
	C1088.829468,352.314575 1088.123413,355.408203 1087.969727,355.395935 
	C1085.633667,355.208954 1083.320312,354.736847 1081.019775,353.897461 
z" />
  <path fill="#87D575" d="
M1082.256348,347.951416 
	C1081.836670,346.424866 1081.836304,344.981689 1081.835815,343.538513 
	C1083.910645,343.685577 1085.985474,343.832642 1088.060303,343.979736 
	C1087.745728,345.274597 1087.827759,347.202393 1087.019287,347.709229 
	C1085.931030,348.391449 1084.155884,347.977966 1082.256348,347.951416 
z" />
  <path fill="#111313" d="
M991.157410,266.234253 
	C986.050476,273.682098 977.578186,275.016449 969.887451,278.335175 
	C973.295715,270.380554 974.843018,261.950348 981.765442,256.099396 
	C982.676208,256.941498 982.940918,257.604950 983.324829,258.524048 
	C984.047974,259.503174 984.651917,260.226654 985.281006,261.248657 
	C985.819702,261.771606 986.333374,261.996094 986.812866,262.185974 
	C986.778809,262.151337 986.786987,262.248169 986.819458,262.531464 
	C987.763184,263.420044 988.674500,264.025330 989.906738,264.836121 
	C990.537598,265.439148 990.847473,265.836700 991.157410,266.234253 
M974.779297,274.311981 
	C978.839355,272.205933 982.899414,270.099854 987.407104,267.761597 
	C984.769897,265.276154 982.637207,263.266205 979.651001,260.451904 
	C977.601562,265.356689 975.796875,269.675659 973.635071,274.146545 
	C973.701294,274.314636 973.767578,274.482727 973.833801,274.650818 
	C973.910278,274.451355 973.986755,274.251892 974.779297,274.311981 
z" />
  <path fill="#3D1C0D" d="
M983.205627,258.268433 
	C982.940918,257.604950 982.676208,256.941498 982.114624,256.068848 
	C987.477966,252.720444 993.138184,249.581238 998.798401,246.442047 
	C999.308411,246.860870 999.818420,247.279694 1000.328430,247.698532 
	C997.461792,253.744781 994.595215,259.791046 991.442993,266.035767 
	C990.847473,265.836700 990.537598,265.439148 989.996460,264.550049 
	C990.049072,263.329010 990.332886,262.599487 990.717407,261.791321 
	C990.818115,261.712677 990.855957,261.459930 991.092712,261.408630 
	C991.423706,260.905579 991.518005,260.453766 991.712036,259.899231 
	C991.811829,259.796509 991.845459,259.512085 992.137939,259.379822 
	C993.280518,256.830750 994.130554,254.413925 995.035156,251.931061 
	C995.089722,251.865036 995.131775,251.756012 995.131775,251.756012 
	C995.131775,251.756012 995.018372,252.034454 994.663391,252.026062 
	C992.568726,253.028458 990.828979,254.039261 988.747131,255.091614 
	C986.671875,256.178253 984.938782,257.223328 983.205627,258.268433 
z" />
  <path fill="#3A99C5" d="
M973.992188,273.994598 
	C975.796875,269.675659 977.601562,265.356689 979.651001,260.451904 
	C982.637207,263.266205 984.769897,265.276154 987.407104,267.761597 
	C982.899414,270.099854 978.839355,272.205933 974.403198,274.167725 
	C974.027039,274.023499 973.992126,273.994598 973.992188,273.994598 
z" />
  <path fill="#E7492F" d="
M983.324829,258.524048 
	C984.938782,257.223328 986.671875,256.178253 989.116455,255.097443 
	C990.500488,256.545197 991.172974,258.028625 991.845459,259.512085 
	C991.845459,259.512085 991.811829,259.796509 991.572510,260.055115 
	C991.174072,260.695770 991.015015,261.077850 990.855957,261.459930 
	C990.855957,261.459930 990.818115,261.712677 990.339478,261.834045 
	C988.836243,262.053009 987.811646,262.150604 986.786987,262.248169 
	C986.786987,262.248169 986.778809,262.151337 986.760376,261.901764 
	C986.246643,261.418182 985.751221,261.184174 985.255859,260.950165 
	C984.651917,260.226654 984.047974,259.503174 983.324829,258.524048 
z" />
  <path fill="#D75641" d="
M986.819458,262.531494 
	C987.811646,262.150604 988.836243,262.053009 990.238770,261.912720 
	C990.332886,262.599487 990.049072,263.329010 989.675537,264.344574 
	C988.674500,264.025330 987.763184,263.420044 986.819458,262.531494 
z" />
  <path fill="#D75641" d="
M985.281006,261.248657 
	C985.751221,261.184174 986.246643,261.418182 986.794495,261.936401 
	C986.333374,261.996094 985.819702,261.771606 985.281006,261.248657 
z" />
  <path fill="#3A99C5" d="
M974.045166,274.037964 
	C973.986755,274.251892 973.910278,274.451355 973.833801,274.650818 
	C973.767578,274.482727 973.701294,274.314636 973.813599,274.070557 
	C973.992126,273.994598 974.027039,274.023499 974.045166,274.037964 
z" />
  <path fill="#D75641" d="
M992.137939,259.379822 
	C991.172974,258.028625 990.500488,256.545197 989.458618,255.055908 
	C990.828979,254.039261 992.568726,253.028458 994.656677,252.013336 
	C995.004944,252.009003 994.980591,251.997101 994.980591,251.997101 
	C994.130554,254.413925 993.280518,256.830750 992.137939,259.379822 
z" />
  <path fill="#D75641" d="
M991.092712,261.408630 
	C991.015015,261.077850 991.174072,260.695770 991.472656,260.157837 
	C991.518005,260.453766 991.423706,260.905579 991.092712,261.408630 
z" />
  <path fill="#D75641" d="
M995.011658,252.021729 
	C995.018372,252.034454 995.131775,251.756012 995.131775,251.756012 
	C995.131775,251.756012 995.089722,251.865036 995.035156,251.931061 
	C994.980591,251.997101 995.004944,252.009003 995.011658,252.021729 
z" />
</svg>