<svg xmlns="http://www.w3.org/2000/svg" viewBox="929.3290902 6.750472200000001 197.18910960000002 197.18910960000002">
  <path fill="#090E13" d="
M1070.906250,173.130066 
	C1066.513428,168.837555 1061.933594,164.714020 1057.825073,160.164795 
	C1056.299805,158.475861 1055.778076,155.824509 1054.979126,153.548706 
	C1053.807617,150.211273 1052.798096,146.816895 1051.516846,142.813156 
	C1034.341797,153.426666 1017.447083,156.650513 999.173645,151.495132 
	C984.037537,147.224854 972.379395,138.308777 963.863892,125.371010 
	C946.952026,99.676437 951.388672,66.316589 974.202209,45.435337 
	C996.599060,24.935341 1030.412720,23.835648 1054.803955,43.245739 
	C1077.047607,60.946842 1087.355103,96.082855 1066.509399,127.992599 
	C1069.244263,130.795471 1070.574585,135.511688 1076.372925,133.973618 
	C1077.641724,133.637070 1079.799683,135.348846 1081.084839,136.594986 
	C1088.018311,143.318024 1094.977417,150.030243 1101.592285,157.061768 
	C1107.350952,163.183121 1108.895264,170.842270 1101.543213,179.055374 
	C1094.822876,186.562775 1085.503418,187.507156 1078.880493,181.472092 
	C1076.178833,179.010193 1073.702637,176.300903 1071.375000,173.371857 
	C1074.390747,174.037491 1077.155518,175.035446 1080.154297,176.134125 
	C1080.588135,176.504105 1080.787720,176.773315 1081.098511,177.268417 
	C1081.499634,177.647797 1081.789551,177.801285 1082.045654,177.974884 
	C1082.011841,177.994980 1082.042480,177.922546 1082.117188,178.159271 
	C1082.369873,178.696396 1082.626953,178.894028 1083.168701,179.257843 
	C1084.257568,179.689774 1085.140869,179.852722 1086.246338,180.314117 
	C1089.918823,181.673279 1093.746582,184.751053 1095.922852,178.895508 
	C1095.951538,178.942215 1095.847900,178.906265 1096.104858,178.852173 
	C1096.574463,178.531418 1096.787109,178.264740 1096.999878,177.999023 
	C1097.000000,178.000000 1096.998657,177.999512 1097.228760,177.914276 
	C1097.749146,177.642166 1097.936035,177.381317 1098.009766,177.023163 
	C1098.000000,176.999832 1098.046509,177.019775 1098.269409,176.919617 
	C1098.770630,176.617462 1098.941040,176.347321 1099.001709,176.004501 
	C1099.000000,176.000000 1099.007690,176.003403 1099.239746,175.887222 
	C1099.616089,175.466507 1099.760254,175.161957 1099.930176,174.911530 
	C1099.955933,174.965652 1099.857666,174.897156 1100.226807,174.871964 
	C1100.840576,172.905548 1101.085205,170.964325 1101.266113,168.668549 
	C1101.139648,167.839996 1101.076782,167.366028 1101.141724,166.667999 
	C1101.319580,166.279419 1101.369629,166.114899 1101.578613,165.747620 
	C1101.429565,165.052505 1101.121826,164.560150 1100.623535,164.036163 
	C1100.433105,164.004547 1100.056152,163.921051 1100.030762,163.954254 
	C1100.005493,163.987473 1100.082520,163.955200 1100.045654,163.582642 
	C1099.461426,162.103958 1099.146729,160.772110 1098.328613,159.928299 
	C1092.902954,154.331772 1087.369385,148.839844 1081.805054,143.030670 
	C1081.432007,142.529785 1081.124634,142.312103 1080.867432,142.087891 
	C1080.917358,142.081345 1080.894531,142.179581 1080.815918,141.916428 
	C1080.434326,141.467819 1080.131348,141.282364 1079.880859,141.078369 
	C1079.933472,141.059814 1079.875854,141.155396 1079.903809,140.757751 
	C1078.581421,139.588943 1077.230957,138.817764 1075.650146,138.032944 
	C1075.419800,138.019302 1075.004272,137.818390 1074.910522,137.669037 
	C1074.541748,137.613953 1074.266724,137.708206 1073.765137,137.900955 
	C1073.231445,138.135971 1072.909912,138.195908 1072.100342,138.132019 
	C1070.366089,138.046677 1069.105591,138.008560 1067.856812,137.631836 
	C1066.163086,135.401657 1064.457642,133.510056 1063.597900,132.556580 
	C1060.126953,135.291977 1057.129517,137.654175 1053.772339,140.299942 
	C1056.160889,142.369766 1058.030884,143.990173 1059.908203,145.990677 
	C1059.659058,148.258026 1059.402344,150.145279 1059.172852,152.346771 
	C1059.211914,153.081192 1059.223999,153.501404 1058.957031,154.089172 
	C1059.503662,155.133682 1060.329346,156.010590 1061.109131,156.916504 
	C1061.063110,156.945480 1061.093994,156.841217 1061.162842,157.103149 
	C1061.523926,157.558517 1061.816284,157.751968 1062.067871,157.958420 
	C1062.027100,157.971420 1062.056519,157.891159 1062.137451,158.143875 
	C1062.507568,158.584091 1062.796509,158.771606 1063.049072,158.972839 
	C1063.012451,158.986557 1063.041382,158.914078 1063.128418,159.162781 
	C1063.504761,159.594269 1063.794312,159.777039 1064.047852,159.973801 
	C1064.011841,159.987793 1064.040039,159.915833 1064.127686,160.164291 
	C1064.505005,160.595016 1064.794922,160.777283 1065.048462,160.973541 
	C1065.012207,160.987534 1065.040527,160.915192 1065.128296,161.163971 
	C1065.506714,161.594406 1065.797485,161.776077 1066.051270,161.971542 
	C1066.014526,161.985352 1066.041992,161.911728 1066.129150,162.161224 
	C1066.507202,162.592834 1066.798340,162.774963 1067.052246,162.970856 
	C1067.015259,162.984634 1067.042603,162.910522 1067.130981,163.160736 
	C1067.513184,163.590698 1067.807129,163.770432 1068.061768,163.963776 
	C1068.022461,163.977386 1068.049927,163.899033 1068.134033,164.151062 
	C1068.510010,164.586929 1068.801758,164.770767 1069.052734,164.970139 
	C1069.011963,164.985672 1069.061401,164.913620 1069.041992,165.303528 
	C1069.650391,168.172318 1070.278320,170.651199 1070.906250,173.130066 
M1057.108765,52.990105 
	C1057.108765,52.990105 1057.294556,52.911880 1057.272461,52.284809 
	C1056.847290,51.844555 1056.421997,51.404301 1055.990479,51.005005 
	C1055.990479,51.005005 1056.031738,51.003487 1055.757324,50.385685 
	C1027.515259,23.182898 980.712036,31.655949 964.085144,67.268730 
	C955.276245,86.136429 956.555725,104.703804 968.059875,123.007294 
	C971.759094,126.988022 975.458374,130.968750 979.376160,135.575531 
	C983.691223,138.373901 987.719238,141.827728 992.368225,143.863419 
	C1020.853455,156.336395 1051.797241,145.781769 1066.164062,118.198639 
	C1075.997803,99.318810 1075.891479,80.201958 1063.959351,61.156040 
	C1062.123657,58.742443 1060.287842,56.328846 1058.156982,53.329674 
	C1057.786743,53.152588 1057.416626,52.975506 1057.108765,52.990105 
z" />
  <path fill="#2FA5DE" d="
M979.157654,134.949463 
	C975.458374,130.968750 971.759094,126.988022 968.010010,122.271164 
	C965.964478,114.380005 962.784485,107.319168 962.206421,100.051369 
	C960.767883,81.965157 966.425537,66.184525 979.937622,53.395828 
	C996.556458,37.666748 1024.185303,33.909260 1044.221802,45.022930 
	C1048.077759,47.161732 1052.091064,49.017292 1056.031738,51.003490 
	C1056.031738,51.003487 1055.990479,51.005005 1056.032227,51.302994 
	C1056.480713,52.037956 1056.887573,52.474926 1057.294556,52.911888 
	C1057.294556,52.911880 1057.108765,52.990105 1057.229126,53.169941 
	C1057.717041,53.538265 1058.084595,53.726749 1058.452148,53.915241 
	C1060.287842,56.328846 1062.123657,58.742443 1063.984863,61.896187 
	C1064.646973,65.016006 1065.459717,67.364624 1065.885498,69.781441 
	C1066.997314,76.092163 1069.174438,82.524353 1068.713135,88.743889 
	C1067.430054,106.039024 1060.592896,120.725349 1046.665283,132.067444 
	C1031.298218,144.581726 1007.416992,148.031296 989.604126,139.334595 
	C986.215942,137.680405 982.644531,136.401505 979.157654,134.949463 
M1049.459839,120.920883 
	C1057.878540,110.264503 1062.259888,98.406464 1059.903198,84.684082 
	C1056.804077,66.638763 1046.521851,54.416679 1029.135864,48.847317 
	C1012.287781,43.450245 996.922546,47.260357 984.469849,59.595684 
	C971.486450,72.456680 967.535645,88.290062 973.484924,105.799164 
	C984.651978,138.664673 1025.253418,146.986237 1049.459839,120.920883 
z" />
  <path fill="#287BBA" d="
M979.266907,135.262482 
	C982.644531,136.401505 986.215942,137.680405 989.604126,139.334595 
	C1007.416992,148.031296 1031.298218,144.581726 1046.665283,132.067444 
	C1060.592896,120.725349 1067.430054,106.039024 1068.713135,88.743889 
	C1069.174438,82.524353 1066.997314,76.092163 1065.885498,69.781441 
	C1065.459717,67.364624 1064.646973,65.016006 1064.066650,62.221542 
	C1075.891479,80.201958 1075.997803,99.318810 1066.164062,118.198639 
	C1051.797241,145.781769 1020.853455,156.336395 992.368225,143.863419 
	C987.719238,141.827728 983.691223,138.373901 979.266907,135.262482 
z" />
  <path fill="#70C1DC" d="
M1055.894531,50.694588 
	C1052.091064,49.017292 1048.077759,47.161732 1044.221802,45.022930 
	C1024.185303,33.909260 996.556458,37.666748 979.937622,53.395828 
	C966.425537,66.184525 960.767883,81.965157 962.206421,100.051369 
	C962.784485,107.319168 965.964478,114.380005 967.952881,121.947342 
	C956.555725,104.703804 955.276245,86.136429 964.085144,67.268730 
	C980.712036,31.655949 1027.515259,23.182898 1055.894531,50.694588 
z" />
  <path fill="#F4942B" d="
M1059.236084,153.921600 
	C1059.223999,153.501404 1059.211914,153.081192 1059.411255,152.145172 
	C1060.708130,150.388763 1061.793701,149.148193 1063.018799,148.113068 
	C1063.355103,148.599655 1063.616455,148.793671 1063.982666,149.257263 
	C1070.937622,157.050552 1077.496826,164.866913 1084.893433,171.788361 
	C1089.716064,176.301163 1094.304321,174.888123 1099.328613,169.120850 
	C1099.969116,169.853195 1100.377075,170.444962 1100.838623,171.368103 
	C1100.547363,172.765366 1100.202515,173.831253 1099.857666,174.897156 
	C1099.857666,174.897156 1099.955933,174.965652 1099.694336,175.022156 
	C1099.291138,175.386917 1099.149414,175.695160 1099.007690,176.003403 
	C1099.007690,176.003403 1099.000000,176.000000 1098.767334,176.091003 
	C1098.233887,176.380722 1098.071045,176.659973 1098.046509,177.019775 
	C1098.046509,177.019775 1098.000000,176.999832 1097.769165,177.092987 
	C1097.358398,177.457275 1097.178467,177.728378 1096.998657,177.999496 
	C1096.998657,177.999512 1097.000000,178.000000 1096.742432,178.055023 
	C1096.272461,178.375443 1096.060181,178.640869 1095.847900,178.906281 
	C1095.847900,178.906265 1095.951538,178.942215 1095.524658,178.975281 
	C1092.073120,179.344131 1089.048584,179.679901 1086.024048,180.015686 
	C1085.140869,179.852722 1084.257568,179.689774 1083.168701,178.984497 
	C1082.656250,178.268951 1082.349365,178.095734 1082.042480,177.922531 
	C1082.042480,177.922546 1082.011841,177.994980 1081.945068,177.740173 
	C1081.581177,177.337753 1081.284302,177.190140 1080.987305,177.042526 
	C1080.787720,176.773315 1080.588135,176.504105 1080.022461,175.831039 
	C1076.124756,171.922684 1072.593018,168.418167 1069.061401,164.913635 
	C1069.061401,164.913620 1069.011963,164.985672 1068.974243,164.713776 
	C1068.640991,164.260941 1068.345459,164.080002 1068.049927,163.899048 
	C1068.049927,163.899033 1068.022461,163.977386 1067.981201,163.708267 
	C1067.640869,163.262939 1067.341797,163.086716 1067.042603,162.910522 
	C1067.042603,162.910522 1067.015259,162.984634 1066.972290,162.716156 
	C1066.633545,162.269043 1066.337769,162.090378 1066.041992,161.911713 
	C1066.041992,161.911728 1066.014526,161.985352 1065.970947,161.717499 
	C1065.631714,161.271500 1065.336182,161.093338 1065.040527,160.915192 
	C1065.040527,160.915192 1065.012207,160.987534 1064.968018,160.719910 
	C1064.629272,160.273453 1064.334717,160.094635 1064.040039,159.915833 
	C1064.040039,159.915833 1064.011841,159.987793 1063.967529,159.720459 
	C1063.629272,159.273438 1063.335327,159.093765 1063.041382,158.914078 
	C1063.041382,158.914078 1063.012451,158.986557 1062.970703,158.718140 
	C1062.638184,158.263535 1062.347290,158.077347 1062.056519,157.891174 
	C1062.056519,157.891159 1062.027100,157.971420 1061.992188,157.700974 
	C1061.669556,157.234085 1061.381836,157.037643 1061.093994,156.841217 
	C1061.093994,156.841217 1061.063110,156.945480 1061.043945,156.622589 
	C1060.428589,155.506989 1059.832275,154.714294 1059.236084,153.921600 
z" />
  <path fill="#FBE165" d="
M1100.784912,171.036743 
	C1100.377075,170.444962 1099.969116,169.853195 1099.058350,168.922775 
	C1091.884644,161.710693 1085.130859,154.915192 1078.578247,147.930954 
	C1075.295776,144.432434 1072.246704,140.978622 1066.986572,143.660172 
	C1068.055176,142.531509 1069.013550,141.700851 1070.334717,140.862122 
	C1073.396240,139.386551 1075.196167,140.622360 1077.192749,142.539032 
	C1084.730103,149.774277 1092.438232,156.831421 1100.082520,163.955200 
	C1100.082520,163.955200 1100.005493,163.987473 1100.017334,164.292603 
	C1100.357300,165.362503 1100.685547,166.127289 1101.013916,166.892059 
	C1101.076782,167.366028 1101.139648,167.839996 1101.121216,168.986969 
	C1100.954956,170.118896 1100.869873,170.577820 1100.784912,171.036743 
z" />
  <path fill="#E5BE85" d="
M1100.045654,163.582642 
	C1092.438232,156.831421 1084.730103,149.774277 1077.192749,142.539032 
	C1075.196167,140.622360 1073.396240,139.386551 1070.447021,140.570206 
	C1070.989014,139.583984 1071.781616,138.881607 1072.574097,138.179230 
	C1072.909912,138.195908 1073.231445,138.135971 1074.017822,137.949356 
	C1074.666016,137.872299 1074.835205,137.845352 1075.004272,137.818390 
	C1075.004272,137.818390 1075.419800,138.019302 1075.833496,138.295822 
	C1077.456787,139.433365 1078.666382,140.294388 1079.875854,141.155411 
	C1079.875854,141.155396 1079.933472,141.059814 1079.970459,141.333588 
	C1080.303101,141.798111 1080.598755,141.988846 1080.894531,142.179596 
	C1080.894531,142.179581 1080.917358,142.081345 1080.956787,142.356415 
	C1081.287842,142.858948 1081.579346,143.086395 1081.870850,143.313873 
	C1087.369385,148.839844 1092.902954,154.331772 1098.328613,159.928299 
	C1099.146729,160.772110 1099.461426,162.103958 1100.045654,163.582642 
z" />
  <path fill="#93A3AB" d="
M1059.900879,145.610580 
	C1058.030884,143.990173 1056.160889,142.369766 1053.772339,140.299942 
	C1057.129517,137.654175 1060.126953,135.291977 1063.597900,132.556580 
	C1064.457642,133.510056 1066.163086,135.401657 1067.583252,137.736755 
	C1066.515381,139.044250 1065.732910,139.908249 1064.692627,140.900055 
	C1064.218262,141.337921 1064.001831,141.647964 1063.514282,142.090149 
	C1062.129028,143.351730 1061.014893,144.481140 1059.900879,145.610580 
z" />
  <path fill="#221208" d="
M1059.908203,145.990662 
	C1061.014893,144.481140 1062.129028,143.351730 1063.788330,141.982574 
	C1064.539185,141.419312 1064.744751,141.095795 1064.950439,140.772247 
	C1065.732910,139.908249 1066.515381,139.044250 1067.571411,138.075348 
	C1069.105591,138.008560 1070.366089,138.046677 1072.100342,138.132019 
	C1071.781616,138.881607 1070.989014,139.583984 1070.084229,140.578278 
	C1069.013550,141.700851 1068.055176,142.531509 1067.027344,143.674759 
	C1066.957886,143.987366 1066.994141,143.908722 1066.718750,143.975800 
	C1066.264282,144.359818 1066.085205,144.676758 1065.950439,144.994781 
	C1065.994751,144.995865 1065.994751,144.907166 1065.720825,144.976715 
	C1065.267334,145.363327 1065.087769,145.680374 1064.953003,145.997467 
	C1064.997803,145.997498 1064.996338,145.907959 1064.724121,145.981201 
	C1064.271118,146.369492 1064.090454,146.684525 1063.948975,146.993164 
	C1063.988281,146.986755 1063.969971,146.909439 1063.717041,146.982849 
	C1063.269165,147.340057 1063.074219,147.623840 1062.879150,147.907623 
	C1061.793701,149.148193 1060.708130,150.388763 1059.384277,151.830948 
	C1059.402344,150.145279 1059.659058,148.258026 1059.908203,145.990662 
z" />
  <path fill="#221208" d="
M1069.041992,165.303543 
	C1072.593018,168.418167 1076.124756,171.922684 1079.788330,175.730286 
	C1077.155518,175.035446 1074.390747,174.037491 1071.242310,173.061264 
	C1070.858521,173.082993 1070.956177,173.031418 1070.931152,173.080750 
	C1070.278320,170.651199 1069.650391,168.172318 1069.041992,165.303543 
z" />
  <path fill="#221208" d="
M1086.246338,180.314117 
	C1089.048584,179.679901 1092.073120,179.344131 1095.495850,178.928589 
	C1093.746582,184.751053 1089.918823,181.673279 1086.246338,180.314117 
z" />
  <path fill="#221208" d="
M1100.838623,171.368103 
	C1100.869873,170.577820 1100.954956,170.118896 1101.184814,169.341553 
	C1101.085205,170.964325 1100.840576,172.905548 1100.226807,174.871964 
	C1100.202515,173.831253 1100.547363,172.765366 1100.838623,171.368103 
z" />
  <path fill="#221208" d="
M1079.903809,140.757782 
	C1078.666382,140.294388 1077.456787,139.433365 1076.063965,138.309464 
	C1077.230957,138.817764 1078.581421,139.588943 1079.903809,140.757782 
z" />
  <path fill="#221208" d="
M1058.957031,154.089172 
	C1059.832275,154.714294 1060.428589,155.506989 1061.089966,156.593597 
	C1060.329346,156.010590 1059.503662,155.133682 1058.957031,154.089172 
z" />
  <path fill="#E5BE85" d="
M1101.141724,166.667999 
	C1100.685547,166.127289 1100.357300,165.362503 1100.042603,164.259399 
	C1100.056152,163.921051 1100.433105,164.004547 1100.712402,164.354797 
	C1101.134277,165.120163 1101.277100,165.535263 1101.419800,165.950363 
	C1101.369629,166.114899 1101.319580,166.279419 1101.141724,166.667999 
z" />
  <path fill="#70C1DC" d="
M1057.283447,52.598354 
	C1056.887573,52.474926 1056.480713,52.037956 1056.035400,51.282516 
	C1056.421997,51.404301 1056.847290,51.844555 1057.283447,52.598354 
z" />
  <path fill="#221208" d="
M1101.578613,165.747620 
	C1101.277100,165.535263 1101.134277,165.120163 1100.902832,164.386429 
	C1101.121826,164.560150 1101.429565,165.052505 1101.578613,165.747620 
z" />
  <path fill="#221208" d="
M1074.910522,137.669037 
	C1074.835205,137.845352 1074.666016,137.872299 1074.244385,137.850861 
	C1074.266724,137.708206 1074.541748,137.613953 1074.910522,137.669037 
z" />
  <path fill="#221208" d="
M1061.162842,157.103149 
	C1061.381836,157.037643 1061.669556,157.234085 1062.032959,157.687973 
	C1061.816284,157.751968 1061.523926,157.558517 1061.162842,157.103149 
z" />
  <path fill="#221208" d="
M1080.815918,141.916443 
	C1080.598755,141.988846 1080.303101,141.798111 1079.917725,141.352142 
	C1080.131348,141.282364 1080.434326,141.467819 1080.815918,141.916443 
z" />
  <path fill="#221208" d="
M1097.228760,177.914276 
	C1097.178467,177.728378 1097.358398,177.457275 1097.779053,177.116333 
	C1097.936035,177.381317 1097.749146,177.642166 1097.228760,177.914276 
z" />
  <path fill="#221208" d="
M1082.117188,178.159241 
	C1082.349365,178.095734 1082.656250,178.268951 1082.963135,178.715515 
	C1082.626953,178.894028 1082.369873,178.696396 1082.117188,178.159241 
z" />
  <path fill="#70C1DC" d="
M1058.304565,53.622452 
	C1058.084595,53.726749 1057.717041,53.538265 1057.197998,53.074097 
	C1057.416626,52.975506 1057.786743,53.152588 1058.304565,53.622452 
z" />
  <path fill="#221208" d="
M1096.104858,178.852203 
	C1096.060181,178.640869 1096.272461,178.375443 1096.742188,178.054047 
	C1096.787109,178.264740 1096.574463,178.531418 1096.104858,178.852203 
z" />
  <path fill="#221208" d="
M1062.137451,158.143890 
	C1062.347290,158.077347 1062.638184,158.263535 1063.007324,158.704422 
	C1062.796509,158.771606 1062.507568,158.584091 1062.137451,158.143890 
z" />
  <path fill="#221208" d="
M1063.128418,159.162781 
	C1063.335327,159.093765 1063.629272,159.273438 1064.003540,159.706467 
	C1063.794312,159.777039 1063.504761,159.594269 1063.128418,159.162781 
z" />
  <path fill="#221208" d="
M1064.127686,160.164276 
	C1064.334717,160.094635 1064.629272,160.273453 1065.004395,160.705902 
	C1064.794922,160.777283 1064.505005,160.595016 1064.127686,160.164276 
z" />
  <path fill="#221208" d="
M1065.128296,161.163971 
	C1065.336182,161.093338 1065.631714,161.271500 1066.007812,161.703705 
	C1065.797485,161.776077 1065.506714,161.594406 1065.128296,161.163971 
z" />
  <path fill="#221208" d="
M1066.129150,162.161209 
	C1066.337769,162.090378 1066.633545,162.269043 1067.009277,162.702393 
	C1066.798340,162.774963 1066.507202,162.592834 1066.129150,162.161209 
z" />
  <path fill="#221208" d="
M1067.130981,163.160736 
	C1067.341797,163.086716 1067.640869,163.262939 1068.020508,163.694672 
	C1067.807129,163.770432 1067.513184,163.590698 1067.130981,163.160736 
z" />
  <path fill="#221208" d="
M1068.134033,164.151062 
	C1068.345459,164.080002 1068.640991,164.260941 1069.015137,164.698242 
	C1068.801758,164.770767 1068.510010,164.586929 1068.134033,164.151062 
z" />
  <path fill="#221208" d="
M1081.805054,143.030655 
	C1081.579346,143.086395 1081.287842,142.858948 1080.906860,142.362976 
	C1081.124634,142.312103 1081.432007,142.529785 1081.805054,143.030655 
z" />
  <path fill="#221208" d="
M1099.239746,175.887222 
	C1099.149414,175.695160 1099.291138,175.386917 1099.668701,174.968048 
	C1099.760254,175.161957 1099.616089,175.466507 1099.239746,175.887222 
z" />
  <path fill="#221208" d="
M1098.269409,176.919617 
	C1098.071045,176.659973 1098.233887,176.380722 1098.769043,176.095505 
	C1098.941040,176.347321 1098.770630,176.617462 1098.269409,176.919617 
z" />
  <path fill="#221208" d="
M1081.098511,177.268417 
	C1081.284302,177.190140 1081.581177,177.337753 1081.978760,177.720062 
	C1081.789551,177.801285 1081.499634,177.647797 1081.098511,177.268417 
z" />
  <path fill="#061422" d="
M1049.228027,121.192902 
	C1025.253418,146.986237 984.651978,138.664673 973.484924,105.799164 
	C967.535645,88.290062 971.486450,72.456680 984.469849,59.595684 
	C996.922546,47.260357 1012.287781,43.450245 1029.135864,48.847317 
	C1046.521851,54.416679 1056.804077,66.638763 1059.903198,84.684082 
	C1062.259888,98.406464 1057.878540,110.264503 1049.228027,121.192902 
M1044.955078,63.360886 
	C1029.439209,47.274879 1002.761353,46.767685 987.576721,62.270023 
	C970.720154,79.479118 971.021790,105.258720 988.536072,121.565804 
	C989.680603,122.532036 990.784912,123.551170 991.975769,124.456505 
	C1008.260437,136.836914 1032.315796,134.157303 1046.231812,118.428040 
	C1060.061035,102.796822 1059.631226,78.596405 1044.955078,63.360886 
z" />
  <path fill="#FAC805" d="
M1066.917114,143.972778 
	C1072.246704,140.978622 1075.295776,144.432434 1078.578247,147.930954 
	C1085.130859,154.915192 1091.884644,161.710693 1098.825684,168.782196 
	C1094.304321,174.888123 1089.716064,176.301163 1084.893433,171.788361 
	C1077.496826,164.866913 1070.937622,157.050552 1064.003906,148.926712 
	C1063.979736,147.796112 1063.974854,147.352783 1063.969971,146.909439 
	C1063.969971,146.909439 1063.988281,146.986755 1064.207764,146.900833 
	C1064.616943,146.512604 1064.806641,146.210297 1064.996338,145.907974 
	C1064.996338,145.907959 1064.997803,145.997498 1065.211426,145.905151 
	C1065.614868,145.510910 1065.804810,145.209030 1065.994751,144.907166 
	C1065.994751,144.907166 1065.994751,144.995865 1066.212402,144.908234 
	C1066.617920,144.516632 1066.806030,144.212677 1066.994141,143.908722 
	C1066.994141,143.908722 1066.957886,143.987366 1066.917114,143.972778 
z" />
  <path fill="#FBE165" d="
M1063.717041,146.982849 
	C1063.974854,147.352783 1063.979736,147.796112 1063.963501,148.570007 
	C1063.616455,148.793671 1063.355103,148.599655 1063.018799,148.113068 
	C1063.074219,147.623840 1063.269165,147.340057 1063.717041,146.982849 
z" />
  <path fill="#090E13" d="
M1064.692627,140.900070 
	C1064.744751,141.095795 1064.539185,141.419312 1064.059448,141.850418 
	C1064.001831,141.647964 1064.218262,141.337921 1064.692627,140.900070 
z" />
  <path fill="#FBE165" d="
M1064.724121,145.981232 
	C1064.806641,146.210297 1064.616943,146.512604 1064.168457,146.907242 
	C1064.090454,146.684525 1064.271118,146.369492 1064.724121,145.981232 
z" />
  <path fill="#FBE165" d="
M1065.720825,144.976715 
	C1065.804810,145.209030 1065.614868,145.510910 1065.166626,145.905106 
	C1065.087769,145.680374 1065.267334,145.363327 1065.720825,144.976715 
z" />
  <path fill="#FBE165" d="
M1066.718750,143.975800 
	C1066.806030,144.212677 1066.617920,144.516632 1066.167969,144.907166 
	C1066.085205,144.676758 1066.264282,144.359818 1066.718750,143.975800 
z" />
  <path fill="#A4DDF1" d="
M988.263672,120.989990 
	C971.021790,105.258720 970.720154,79.479118 987.576721,62.270023 
	C1002.761353,46.767685 1029.439209,47.274879 1044.816895,63.830399 
	C1044.786865,65.034523 1044.806519,65.795593 1045.017212,66.499550 
	C1046.663086,72.002197 1049.383789,77.408676 1049.842896,83.003212 
	C1052.218750,111.956795 1022.909851,134.588333 993.224304,121.709625 
	C991.745117,121.067879 989.925049,121.211868 988.263672,120.989990 
M1010.771912,58.038246 
	C1003.291443,58.871429 997.008789,61.849529 993.166443,68.586922 
	C992.463318,69.819885 992.430847,72.419708 993.248657,73.260834 
	C994.078308,74.114037 996.357178,73.716835 997.975159,73.573006 
	C998.704407,73.508163 999.316528,72.591225 1000.073547,72.296440 
	C1004.745300,70.477249 1009.426025,68.677719 1014.142944,66.980415 
	C1015.527283,66.482285 1017.211426,66.643646 1018.445068,65.947762 
	C1019.760803,65.205612 1021.721008,63.650208 1021.579407,62.729931 
	C1021.356323,61.279537 1019.854370,59.441559 1018.453735,58.894508 
	C1016.386353,58.087074 1013.932678,58.268715 1010.771912,58.038246 
M986.062744,78.196037 
	C984.808350,81.871140 983.107666,85.479607 982.543335,89.257820 
	C982.347900,90.566696 984.820129,93.292549 986.355957,93.527527 
	C987.644653,93.724693 989.857056,91.512451 990.722595,89.872093 
	C991.671997,88.072914 991.525757,85.703011 991.894287,83.588326 
	C992.594849,79.568848 991.220276,77.449562 986.062744,78.196037 
z" />
  <path fill="#70C1DC" d="
M988.399902,121.277893 
	C989.925049,121.211868 991.745117,121.067879 993.224304,121.709625 
	C1022.909851,134.588333 1052.218750,111.956795 1049.842896,83.003212 
	C1049.383789,77.408676 1046.663086,72.002197 1045.017212,66.499550 
	C1044.806519,65.795593 1044.786865,65.034523 1044.971802,64.141891 
	C1059.631226,78.596405 1060.061035,102.796822 1046.231812,118.428040 
	C1032.315796,134.157303 1008.260437,136.836914 991.975769,124.456505 
	C990.784912,123.551170 989.680603,122.532036 988.399902,121.277893 
z" />
  <path fill="#FAFBFA" d="
M1011.207764,58.033695 
	C1013.932678,58.268715 1016.386353,58.087074 1018.453735,58.894508 
	C1019.854370,59.441559 1021.356323,61.279537 1021.579407,62.729931 
	C1021.721008,63.650208 1019.760803,65.205612 1018.445068,65.947762 
	C1017.211426,66.643646 1015.527283,66.482285 1014.142944,66.980415 
	C1009.426025,68.677719 1004.745300,70.477249 1000.073547,72.296440 
	C999.316528,72.591225 998.704407,73.508163 997.975159,73.573006 
	C996.357178,73.716835 994.078308,74.114037 993.248657,73.260834 
	C992.430847,72.419708 992.463318,69.819885 993.166443,68.586922 
	C997.008789,61.849529 1003.291443,58.871429 1011.207764,58.033695 
z" />
  <path fill="#EBF6FA" d="
M986.461548,78.103455 
	C991.220276,77.449562 992.594849,79.568848 991.894287,83.588326 
	C991.525757,85.703011 991.671997,88.072914 990.722595,89.872093 
	C989.857056,91.512451 987.644653,93.724693 986.355957,93.527527 
	C984.820129,93.292549 982.347900,90.566696 982.543335,89.257820 
	C983.107666,85.479607 984.808350,81.871140 986.461548,78.103455 
z" />
</svg>