<svg xmlns="http://www.w3.org/2000/svg" viewBox="253.60507830000003 376.61394329999996 202.31938439999993 202.31938439999993">
  <path fill="#0A1017" d="
M295.042419,543.770020 
	C289.941040,539.501953 284.715240,535.647278 280.793060,530.748840 
	C279.634308,529.301636 281.609894,524.598755 283.118591,521.937439 
	C285.356964,517.988953 284.128723,513.328247 279.723206,511.899261 
	C276.347198,510.804138 271.441833,511.019623 271.016846,506.549866 
	C270.465027,500.746185 270.809601,494.709198 271.903748,488.989868 
	C272.220245,487.335358 276.315186,486.011566 278.889313,485.269745 
	C283.108978,484.053650 285.526001,479.268097 283.280304,475.483490 
	C281.436310,472.375916 278.076813,469.029755 280.972321,465.610077 
	C284.733124,461.168427 289.376495,457.361298 294.119720,453.947662 
	C295.235413,453.144714 298.520752,454.600311 300.378235,455.725983 
	C305.969513,459.114594 310.890717,457.227539 312.187378,450.697296 
	C313.142975,445.884735 315.858368,443.417023 320.726379,443.305176 
	C323.389008,443.243988 326.063171,443.087433 328.714600,443.253571 
	C335.071686,443.651917 336.718903,445.159241 338.075409,451.385559 
	C339.345123,457.213531 344.434753,459.100616 349.408936,455.587738 
	C354.404572,452.059692 357.222961,452.272308 361.739258,456.568085 
	C363.307678,458.059937 364.851654,459.580505 366.350616,461.141876 
	C371.148743,466.139648 371.358124,468.891357 367.445038,474.730225 
	C364.604675,478.968445 366.513214,483.798157 371.597717,485.238861 
	C379.375153,487.442627 379.927826,488.110901 380.265503,496.222198 
	C380.355408,498.381287 380.163757,500.552246 380.256165,502.711090 
	C380.472168,507.756226 378.057404,510.211304 373.129974,511.169525 
	C365.573853,512.638977 364.214691,516.509583 368.450714,522.911987 
	C370.907013,526.624451 371.072845,530.335754 367.812134,533.793884 
	C366.327728,535.368103 364.959869,537.056885 363.422852,538.576050 
	C357.305420,544.622253 355.652985,544.802490 348.386841,540.404419 
	C344.037323,537.771790 338.918243,540.266968 338.331726,545.305542 
	C337.549377,552.026428 335.400208,554.032166 328.772461,554.156311 
	C326.608215,554.196838 324.441528,554.177368 322.277161,554.129517 
	C315.227753,553.973633 313.212860,552.203918 312.080719,545.231628 
	C311.225739,539.966003 306.051636,537.729553 301.533081,540.569153 
	C299.588562,541.791138 297.460754,542.721558 295.042419,543.770020 
M370.155975,489.976959 
	C368.051849,489.357422 365.275879,489.375092 363.970093,487.998383 
	C360.117249,483.936096 359.906708,476.317474 363.354004,471.796539 
	C365.417145,469.090851 365.176025,467.053650 362.995178,464.831451 
	C361.830109,463.644287 360.623077,462.490265 359.544952,461.227356 
	C356.781799,457.990692 354.049805,457.614807 350.644196,460.542389 
	C349.143494,461.832458 346.524841,463.265442 344.975983,462.792480 
	C339.802887,461.212708 333.565308,460.293793 333.491730,452.661499 
	C333.482941,451.746002 332.807404,450.836914 332.005402,449.210449 
	C329.260864,448.821716 326.524841,448.351654 323.769836,448.062897 
	C319.401031,447.605072 317.168304,449.263580 316.555481,454.015320 
	C315.618683,461.279236 305.984222,465.329254 299.822601,461.049225 
	C295.850128,458.289856 293.153717,458.568329 290.089996,462.201416 
	C287.193848,465.635834 283.599152,468.141968 287.704712,473.458801 
	C292.328766,479.447144 287.984863,488.870148 280.449036,490.029358 
	C276.399963,490.652191 274.556213,492.549316 274.865204,496.648315 
	C275.014893,498.633789 274.552795,500.732330 275.045166,502.601196 
	C275.367310,503.824005 276.904449,504.726715 278.516083,506.243927 
	C278.981110,506.418823 279.433380,506.648132 279.913055,506.760590 
	C289.391052,508.982422 292.557800,516.756348 286.875122,524.646118 
	C283.977173,528.669556 285.459259,530.936951 289.252167,533.643982 
	C294.586212,539.168152 294.483124,538.972229 301.148438,535.465759 
	C303.030396,534.475708 305.749237,534.657349 308.009064,534.928406 
	C310.061127,535.174561 312.010986,536.273132 314.318970,537.419800 
	C314.623779,537.588623 314.928619,537.757446 315.302917,538.398132 
	C315.450531,538.693726 315.671112,538.917236 315.961121,539.806091 
	C316.347076,541.202332 316.733063,542.598511 316.998840,544.785461 
	C317.460938,546.008728 317.802460,548.222046 318.404633,548.295349 
	C322.471985,548.790710 326.651947,549.273315 330.663605,548.749695 
	C331.844940,548.595459 332.982819,545.272156 333.480835,543.239624 
	C335.113281,536.576904 344.426483,531.644531 349.484894,535.595276 
	C354.195038,539.274048 357.256561,538.515320 360.458862,534.206116 
	C361.145935,533.281555 362.030396,532.483215 362.908844,531.725220 
	C365.564056,529.434143 365.427795,527.275940 363.414154,524.413635 
	C357.934265,516.624207 361.344147,508.488983 370.678955,506.845398 
	C374.901306,506.101929 376.293091,503.422455 375.816101,499.724426 
	C375.346313,496.082062 377.649323,490.753326 370.155975,489.976959 
z" />
  <path fill="#0C150C" d="
M424.756287,470.201263 
	C423.135162,469.794098 421.850281,469.470673 420.633972,468.977997 
	C417.165222,467.572815 414.086151,469.110291 414.239410,472.862335 
	C414.483704,478.844910 410.834930,480.202942 406.180786,480.816528 
	C400.599945,481.552307 396.950134,482.203064 394.946960,475.917328 
	C393.799591,472.316986 390.913544,471.469513 388.046570,474.503204 
	C384.802948,477.935425 381.705353,477.410583 378.406921,474.745209 
	C377.244049,473.805573 376.012451,472.945801 374.774170,472.105652 
	C371.421021,469.830566 370.397064,467.022888 372.062500,463.100861 
	C374.018738,458.493896 373.166107,456.829224 368.329193,456.530975 
	C362.755310,456.187256 361.668396,452.564758 361.008606,448.173187 
	C360.319458,443.586304 359.502167,439.186432 365.396606,437.052399 
	C368.861755,435.797882 369.961395,433.281403 367.136017,430.191193 
	C363.853912,426.601471 364.096252,423.190521 367.126251,419.539429 
	C370.070679,415.991333 372.199402,411.406189 378.307831,414.329651 
	C381.981964,416.088013 384.163116,414.138245 384.121735,410.319275 
	C384.053741,404.039764 388.675568,403.273926 393.093323,402.312805 
	C397.516571,401.350433 401.244568,401.814453 403.159058,406.964142 
	C404.585846,410.801910 408.014618,411.623505 410.957123,408.698029 
	C415.138275,404.541138 418.431885,406.678192 421.804596,409.442932 
	C425.160919,412.194214 429.672546,414.285706 426.649231,420.245911 
	C424.596558,424.292572 425.860992,426.351959 430.366760,426.503510 
	C436.737335,426.717712 437.031982,431.417480 438.044128,435.760742 
	C439.064514,440.139587 439.004425,443.910675 433.935150,446.090881 
	C429.589996,447.959747 429.090942,450.309113 432.147552,453.581207 
	C435.222504,456.872894 435.301819,460.158203 432.519379,463.339722 
	C430.316589,465.858490 427.607941,467.934906 424.756287,470.201263 
M420.091248,414.362915 
	C419.730377,414.211304 419.369507,414.059692 419.062775,413.983490 
	C419.062775,413.983490 419.133545,413.923492 418.961578,413.282013 
	C417.401459,412.905365 414.844452,411.749268 414.435272,412.272552 
	C410.302063,417.558411 405.632599,414.817413 400.980865,413.072113 
	C400.652069,412.713898 400.323273,412.355652 399.910950,411.527435 
	C399.910950,411.527435 399.697876,411.100281 399.724487,410.623138 
	C399.623322,410.283508 399.399811,410.075012 398.875153,409.184143 
	C395.701111,408.683655 392.527039,408.183136 388.947327,407.618652 
	C388.947327,410.264648 389.065186,411.758270 388.924927,413.227203 
	C388.522797,417.438873 382.147827,421.487762 378.571472,419.363708 
	C375.227142,417.377411 373.535095,418.549591 371.572876,421.065704 
	C369.475372,423.755310 369.550781,425.847839 371.990173,428.435822 
	C374.921570,431.545685 373.472198,438.763000 369.955231,440.455963 
	C364.283539,443.186249 363.817017,445.725983 368.505127,451.755035 
	C377.049622,452.255554 379.337280,456.139008 376.184662,464.549469 
	C375.921875,465.250549 376.583862,466.298248 377.136566,467.785767 
	C380.429596,471.435883 383.452484,474.068756 387.919983,468.702301 
	C390.007355,466.194946 398.341217,469.014252 399.225647,472.496918 
	C400.299408,476.725159 402.949615,476.290039 405.976868,476.022949 
	C409.424652,475.718781 409.527252,473.242859 409.779755,470.654999 
	C410.232422,466.014618 416.008148,462.100861 420.256653,464.031677 
	C424.331848,465.883759 426.393005,464.488373 428.487885,460.428436 
	C428.166748,458.980072 428.084686,457.415375 427.453247,456.118042 
	C426.889618,454.960083 425.719055,454.097534 424.978638,452.294617 
	C425.706146,447.755707 425.754852,442.878448 431.904266,441.672882 
	C432.531311,441.549927 432.607635,438.617706 432.959717,436.209442 
	C432.556366,433.566284 432.404572,431.110809 428.533020,430.942657 
	C422.847290,430.695770 419.873962,425.728638 421.390015,420.086456 
	C421.736664,418.796356 421.517181,417.354095 421.197357,415.399200 
	C420.797760,415.239075 420.398193,415.078979 420.009277,415.001007 
	C420.009277,415.001007 420.091217,414.988892 420.091248,414.362915 
z" />
  <path fill="#2FA5DE" d="
M315.233459,537.926208 
	C314.928619,537.757446 314.623779,537.588623 314.142487,536.858521 
	C308.187531,527.914062 303.614288,526.847290 295.046631,531.514893 
	C293.281036,532.476807 291.021606,532.532349 288.989807,533.005676 
	C285.459259,530.936951 283.977173,528.669556 286.875122,524.646118 
	C292.557800,516.756348 289.391052,508.982422 279.913055,506.760590 
	C279.433380,506.648132 278.981110,506.418823 278.210083,505.564148 
	C278.476807,500.703308 275.513153,495.357056 283.349304,494.095428 
	C292.760437,492.580292 296.908203,481.314178 291.761505,473.216705 
	C289.507385,469.670135 290.440216,464.731476 293.819641,464.267883 
	C295.860596,463.987915 298.254242,465.183167 300.287903,466.142670 
	C307.729279,469.653534 320.119659,463.352142 320.873779,455.272980 
	C321.257874,451.158295 323.106964,449.678650 326.945496,449.880127 
	C328.773071,449.976044 330.608856,449.914856 332.440918,449.924866 
	C332.807404,450.836914 333.482941,451.746002 333.491730,452.661499 
	C333.565308,460.293793 339.802887,461.212708 344.975983,462.792480 
	C346.524841,463.265442 349.143494,461.832458 350.644196,460.542389 
	C354.049805,457.614807 356.781799,457.990692 359.544952,461.227356 
	C360.623077,462.490265 361.830109,463.644287 362.995178,464.831451 
	C365.176025,467.053650 365.417145,469.090851 363.354004,471.796539 
	C359.906708,476.317474 360.117249,483.936096 363.970093,487.998383 
	C365.275879,489.375092 368.051849,489.357422 370.562195,490.542786 
	C370.968384,494.210663 370.968384,497.312744 370.968384,500.414795 
	C370.554352,500.063293 370.140320,499.711761 369.726288,499.360229 
	C366.489929,501.419708 361.731537,502.755981 360.337158,505.690643 
	C357.517303,511.625397 354.948395,518.344238 359.167419,525.067444 
	C361.153015,528.231567 358.920685,530.354858 356.688721,531.546631 
	C355.241455,532.319458 352.205505,532.258484 351.156006,531.247681 
	C347.481262,527.708252 344.058990,527.763550 340.086456,530.417603 
	C338.886841,531.219116 337.384277,531.668884 335.955872,532.005920 
	C332.630951,532.790344 330.605499,534.318359 329.708771,538.040894 
	C328.171753,544.421082 323.637512,546.293640 317.119019,543.994751 
	C316.733063,542.598511 316.347076,541.202332 315.941711,539.193420 
	C315.798920,538.250732 315.569305,538.032593 315.233459,537.926208 
M322.850098,470.225281 
	C321.210114,470.511993 319.549347,470.712006 317.933502,471.099396 
	C307.145935,473.685730 298.198456,484.097717 297.036224,495.360413 
	C295.849701,506.858459 302.601166,519.232361 312.566864,523.824524 
	C323.756775,528.980774 337.026154,526.889954 344.973022,518.718262 
	C353.253143,510.203857 355.691284,498.313812 351.304291,487.842468 
	C346.560394,476.519287 336.575256,470.118744 322.850098,470.225281 
z" />
  <path fill="#287BBA" d="
M317.058929,544.390137 
	C323.637512,546.293640 328.171753,544.421082 329.708771,538.040894 
	C330.605499,534.318359 332.630951,532.790344 335.955872,532.005920 
	C337.384277,531.668884 338.886841,531.219116 340.086456,530.417603 
	C344.058990,527.763550 347.481262,527.708252 351.156006,531.247681 
	C352.205505,532.258484 355.241455,532.319458 356.688721,531.546631 
	C358.920685,530.354858 361.153015,528.231567 359.167419,525.067444 
	C354.948395,518.344238 357.517303,511.625397 360.337158,505.690643 
	C361.731537,502.755981 366.489929,501.419708 369.726288,499.360229 
	C370.140320,499.711761 370.554352,500.063293 370.968384,500.414795 
	C370.968384,497.312744 370.968384,494.210663 370.958496,490.663452 
	C377.649323,490.753326 375.346313,496.082062 375.816101,499.724426 
	C376.293091,503.422455 374.901306,506.101929 370.678955,506.845398 
	C361.344147,508.488983 357.934265,516.624207 363.414154,524.413635 
	C365.427795,527.275940 365.564056,529.434143 362.908844,531.725220 
	C362.030396,532.483215 361.145935,533.281555 360.458862,534.206116 
	C357.256561,538.515320 354.195038,539.274048 349.484894,535.595276 
	C344.426483,531.644531 335.113281,536.576904 333.480835,543.239624 
	C332.982819,545.272156 331.844940,548.595459 330.663605,548.749695 
	C326.651947,549.273315 322.471985,548.790710 318.404633,548.295349 
	C317.802460,548.222046 317.460938,546.008728 317.058929,544.390137 
z" />
  <path fill="#80CBE6" d="
M332.223145,449.567657 
	C330.608856,449.914856 328.773071,449.976044 326.945496,449.880127 
	C323.106964,449.678650 321.257874,451.158295 320.873779,455.272980 
	C320.119659,463.352142 307.729279,469.653534 300.287903,466.142670 
	C298.254242,465.183167 295.860596,463.987915 293.819641,464.267883 
	C290.440216,464.731476 289.507385,469.670135 291.761505,473.216705 
	C296.908203,481.314178 292.760437,492.580292 283.349304,494.095428 
	C275.513153,495.357056 278.476807,500.703308 277.900757,505.328583 
	C276.904449,504.726715 275.367310,503.824005 275.045166,502.601196 
	C274.552795,500.732330 275.014893,498.633789 274.865204,496.648315 
	C274.556213,492.549316 276.399963,490.652191 280.449036,490.029358 
	C287.984863,488.870148 292.328766,479.447144 287.704712,473.458801 
	C283.599152,468.141968 287.193848,465.635834 290.089996,462.201416 
	C293.153717,458.568329 295.850128,458.289856 299.822601,461.049225 
	C305.984222,465.329254 315.618683,461.279236 316.555481,454.015320 
	C317.168304,449.263580 319.401031,447.605072 323.769836,448.062897 
	C326.524841,448.351654 329.260864,448.821716 332.223145,449.567657 
z" />
  <path fill="#287BBA" d="
M289.120972,533.324829 
	C291.021606,532.532349 293.281036,532.476807 295.046631,531.514893 
	C303.614288,526.847290 308.187531,527.914062 313.985962,536.646545 
	C312.010986,536.273132 310.061127,535.174561 308.009064,534.928406 
	C305.749237,534.657349 303.030396,534.475708 301.148438,535.465759 
	C294.483124,538.972229 294.586212,539.168152 289.120972,533.324829 
z" />
  <path fill="#287BBA" d="
M315.268188,538.162170 
	C315.569305,538.032593 315.798920,538.250732 315.943512,538.824768 
	C315.671112,538.917236 315.450531,538.693726 315.268188,538.162170 
z" />
  <path fill="#68C95D" d="
M424.816345,453.104645 
	C425.719055,454.097534 426.889618,454.960083 427.453247,456.118042 
	C428.084686,457.415375 428.166748,458.980072 427.827637,460.711334 
	C424.656708,460.364655 422.155609,459.692200 419.630615,459.126312 
	C418.601349,458.895691 417.295502,458.456238 416.499329,458.863037 
	C411.326630,461.506012 404.881622,462.947632 404.530304,470.587616 
	C404.510376,471.021515 403.650024,471.416748 402.849518,472.121704 
	C401.895935,470.919434 401.148193,469.905731 400.327789,468.954742 
	C396.948120,465.037170 388.410889,462.342102 385.092804,463.909515 
	C382.415588,465.174194 379.580994,466.105652 376.816193,467.184906 
	C376.583862,466.298248 375.921875,465.250549 376.184662,464.549469 
	C379.337280,456.139008 377.049622,452.255554 368.238770,451.032227 
	C367.583282,446.567352 367.908325,443.554291 372.586945,442.415375 
	C374.021210,442.066254 375.694214,439.294312 375.792389,437.549377 
	C376.015808,433.580109 377.296021,429.217712 373.595001,425.790863 
	C372.957306,425.200439 373.314545,423.535522 373.150116,421.658142 
	C374.874359,422.364471 375.785217,422.630402 376.589783,423.084625 
	C381.733368,425.988617 391.362183,421.239838 392.030518,415.443542 
	C392.765381,409.070343 392.765350,409.070343 399.053986,409.997589 
	C399.399811,410.075012 399.623322,410.283508 399.608154,410.983765 
	C399.443573,411.680145 399.611145,411.897797 399.994476,411.997437 
	C400.323273,412.355652 400.652069,412.713898 401.161743,413.655212 
	C406.057983,417.748779 410.764130,420.074371 415.893463,414.795105 
	C416.563110,414.105865 418.033844,414.194916 419.133545,413.923492 
	C419.133545,413.923492 419.062775,413.983490 419.158569,414.178192 
	C419.533325,414.578217 419.812286,414.783539 420.091217,414.988892 
	C420.091217,414.988892 420.009277,415.001007 420.193756,415.223999 
	C420.771576,415.625275 421.164917,415.803589 421.558258,415.981873 
	C421.517181,417.354095 421.736664,418.796356 421.390015,420.086456 
	C419.873962,425.728638 422.847290,430.695770 428.533020,430.942657 
	C432.404572,431.110809 432.556366,433.566284 432.558777,436.598511 
	C422.928436,439.268158 421.254730,441.649445 421.925018,451.065704 
	C422.078491,453.221649 422.465973,454.378937 424.816345,453.104645 
M393.475952,456.264008 
	C394.419891,456.564392 395.346130,456.949219 396.310638,457.151611 
	C403.045288,458.564758 409.526093,455.828735 413.062134,450.120422 
	C416.462067,444.631805 416.186462,437.499512 412.374023,432.314667 
	C408.212585,426.655182 401.177979,424.155670 394.794525,426.068176 
	C388.882416,427.839508 383.682648,433.990356 383.275421,440.397369 
	C382.813873,447.658569 386.517303,452.665131 393.475952,456.264008 
z" />
  <path fill="#46A650" d="
M376.976379,467.485352 
	C379.580994,466.105652 382.415588,465.174194 385.092804,463.909515 
	C388.410889,462.342102 396.948120,465.037170 400.327789,468.954742 
	C401.148193,469.905731 401.895935,470.919434 402.849518,472.121704 
	C403.650024,471.416748 404.510376,471.021515 404.530304,470.587616 
	C404.881622,462.947632 411.326630,461.506012 416.499329,458.863037 
	C417.295502,458.456238 418.601349,458.895691 419.630615,459.126312 
	C422.155609,459.692200 424.656708,460.364655 427.585327,460.996460 
	C426.393005,464.488373 424.331848,465.883759 420.256653,464.031677 
	C416.008148,462.100861 410.232422,466.014618 409.779755,470.654999 
	C409.527252,473.242859 409.424652,475.718781 405.976868,476.022949 
	C402.949615,476.290039 400.299408,476.725159 399.225647,472.496918 
	C398.341217,469.014252 390.007355,466.194946 387.919983,468.702301 
	C383.452484,474.068756 380.429596,471.435883 376.976379,467.485352 
z" />
  <path fill="#97E084" d="
M398.964569,409.590881 
	C392.765350,409.070343 392.765381,409.070343 392.030518,415.443542 
	C391.362183,421.239838 381.733368,425.988617 376.589783,423.084625 
	C375.785217,422.630402 374.874359,422.364471 373.150116,421.658142 
	C373.314545,423.535522 372.957306,425.200439 373.595001,425.790863 
	C377.296021,429.217712 376.015808,433.580109 375.792389,437.549377 
	C375.694214,439.294312 374.021210,442.066254 372.586945,442.415375 
	C367.908325,443.554291 367.583282,446.567352 367.976959,450.755127 
	C363.817017,445.725983 364.283539,443.186249 369.955231,440.455963 
	C373.472198,438.763000 374.921570,431.545685 371.990173,428.435822 
	C369.550781,425.847839 369.475372,423.755310 371.572876,421.065704 
	C373.535095,418.549591 375.227142,417.377411 378.571472,419.363708 
	C382.147827,421.487762 388.522797,417.438873 388.924927,413.227203 
	C389.065186,411.758270 388.947327,410.264648 388.947327,407.618652 
	C392.527039,408.183136 395.701111,408.683655 398.964569,409.590881 
z" />
  <path fill="#46A650" d="
M424.897491,452.699646 
	C422.465973,454.378937 422.078491,453.221649 421.925018,451.065704 
	C421.254730,441.649445 422.928436,439.268158 432.548706,436.988342 
	C432.607635,438.617706 432.531311,441.549927 431.904266,441.672882 
	C425.754852,442.878448 425.706146,447.755707 424.897491,452.699646 
z" />
  <path fill="#97E084" d="
M419.047546,413.602753 
	C418.033844,414.194916 416.563110,414.105865 415.893463,414.795105 
	C410.764130,420.074371 406.057983,417.748779 401.187439,413.903595 
	C405.632599,414.817413 410.302063,417.558411 414.435272,412.272552 
	C414.844452,411.749268 417.401459,412.905365 419.047546,413.602753 
z" />
  <path fill="#97E084" d="
M421.377808,415.690552 
	C421.164917,415.803589 420.771576,415.625275 420.188416,415.182922 
	C420.398193,415.078979 420.797760,415.239075 421.377808,415.690552 
z" />
  <path fill="#97E084" d="
M420.091248,414.675903 
	C419.812286,414.783539 419.533325,414.578217 419.131500,414.140503 
	C419.369507,414.059692 419.730377,414.211304 420.091248,414.675903 
z" />
  <path fill="#97E084" d="
M399.952698,411.762451 
	C399.611145,411.897797 399.443573,411.680145 399.594849,411.222351 
	C399.697876,411.100281 399.910950,411.527435 399.952698,411.762451 
z" />
  <path fill="#061422" d="
M323.290710,470.196655 
	C336.575256,470.118744 346.560394,476.519287 351.304291,487.842468 
	C355.691284,498.313812 353.253143,510.203857 344.973022,518.718262 
	C337.026154,526.889954 323.756775,528.980774 312.566864,523.824524 
	C302.601166,519.232361 295.849701,506.858459 297.036224,495.360413 
	C298.198456,484.097717 307.145935,473.685730 317.933502,471.099396 
	C319.549347,470.712006 321.210114,470.511993 323.290710,470.196655 
M307.063385,515.553162 
	C307.362518,515.779968 307.661682,516.006775 308.227386,516.823547 
	C310.048676,517.993896 311.869965,519.164185 314.100891,520.747559 
	C314.648895,520.931274 315.196930,521.115051 316.369781,521.780334 
	C323.522003,524.200989 330.486725,524.259399 337.694794,520.049988 
	C338.140015,519.710144 338.585205,519.370300 339.527161,518.930786 
	C339.747589,518.685120 339.968018,518.439514 340.824249,517.963928 
	C351.752899,508.783234 353.274780,494.051575 344.118683,482.390289 
	C343.753326,482.231598 343.387970,482.072937 343.065002,481.992126 
	C343.065002,481.992126 343.139099,481.943451 343.101654,481.326447 
	C342.754181,481.171539 342.406677,481.016632 342.057159,480.954254 
	C342.057159,480.954254 342.147491,480.934143 342.126709,480.311554 
	C341.770844,480.161163 341.414978,480.010742 341.154999,479.931824 
	C341.154999,479.931824 341.216919,479.829498 341.090546,479.220856 
	C340.419617,478.764343 339.748657,478.307861 339.029388,477.924530 
	C339.029388,477.924530 339.117065,477.924927 338.758453,477.321960 
	C336.553101,476.494751 334.347717,475.667511 331.556549,474.346008 
	C327.350861,474.368622 323.145142,474.391266 318.179596,474.580444 
	C314.739227,476.676941 311.298859,478.773438 307.274719,481.162781 
	C306.475952,482.405060 305.677185,483.647339 304.885376,484.936188 
	C304.885376,484.936188 304.932281,484.940918 304.247101,485.150940 
	C299.319000,493.741028 299.234192,502.384430 303.988098,511.013519 
	C303.988098,511.013519 303.916656,511.024323 304.059601,511.586792 
	C304.366180,511.753571 304.672729,511.920319 304.974152,512.003296 
	C304.974152,512.003296 304.890900,512.014404 304.809814,512.646423 
	C305.192444,513.129333 305.575073,513.612244 305.977234,514.022217 
	C305.977234,514.022217 305.901947,514.017456 306.084351,514.538269 
	C306.386169,514.727234 306.687988,514.916199 306.996185,515.009033 
	C306.996185,515.009033 306.899933,515.005493 307.063385,515.553162 
z" />
  <path fill="#0C150C" d="
M393.124420,456.120361 
	C386.517303,452.665131 382.813873,447.658569 383.275421,440.397369 
	C383.682648,433.990356 388.882416,427.839508 394.794525,426.068176 
	C401.177979,424.155670 408.212585,426.655182 412.374023,432.314667 
	C416.186462,437.499512 416.462067,444.631805 413.062134,450.120422 
	C409.526093,455.828735 403.045288,458.564758 396.310638,457.151611 
	C395.346130,456.949219 394.419891,456.564392 393.124420,456.120361 
M411.636475,439.992126 
	C411.114197,438.599976 410.760742,437.112610 410.039246,435.832764 
	C407.458588,431.255127 403.519440,428.801575 398.201172,429.129089 
	C393.324615,429.429413 388.841339,433.302765 387.495880,438.235657 
	C386.078857,443.431091 387.626099,447.765869 391.820190,451.059845 
	C395.476868,453.931763 399.651367,454.753754 403.986176,452.950104 
	C409.308502,450.735504 411.745148,446.474792 411.636475,439.992126 
z" />
  <path fill="#68C95D" d="
M344.441833,482.945801 
	C353.274780,494.051575 351.752899,508.783234 340.446899,518.018066 
	C340.069550,518.072144 339.943420,517.957947 339.953033,517.584534 
	C339.392517,513.206482 337.225769,512.698608 333.669983,513.865295 
	C331.241058,514.662231 328.532166,514.605652 326.159790,514.626953 
	C327.488281,514.038696 328.626831,513.819275 329.718994,513.459106 
	C336.455017,511.237671 340.983582,505.034851 340.960999,498.114380 
	C340.937836,491.034058 336.450562,485.211761 329.306274,483.166138 
	C327.562134,482.666779 325.720245,482.508759 324.151733,481.884338 
	C325.152588,481.388367 326.031616,480.864441 326.680450,481.069366 
	C331.351410,482.544647 332.888214,480.249359 333.315247,476.205139 
	C335.469330,476.874512 337.293182,477.399719 339.117065,477.924927 
	C339.117065,477.924927 339.029388,477.924530 339.057526,478.242981 
	C339.796082,478.984100 340.506500,479.406799 341.216919,479.829498 
	C341.216919,479.829498 341.154999,479.931824 341.197876,480.154053 
	C341.542999,480.562256 341.845245,480.748199 342.147491,480.934143 
	C342.147491,480.934143 342.057159,480.954254 342.148529,481.165344 
	C342.539642,481.565430 342.839355,481.754456 343.139099,481.943451 
	C343.139099,481.943451 343.065002,481.992126 343.194397,482.222961 
	C343.696472,482.617798 344.069153,482.781799 344.441833,482.945801 
z" />
  <path fill="#68C95D" d="
M313.691254,520.334534 
	C311.869965,519.164185 310.048676,517.993896 307.993561,516.264038 
	C307.473145,515.471497 307.186554,515.238464 306.899933,515.005493 
	C306.899933,515.005493 306.996185,515.009033 306.881897,514.813232 
	C306.479065,514.417419 306.190521,514.217407 305.901947,514.017456 
	C305.901947,514.017456 305.977234,514.022217 305.953186,513.739746 
	C305.583069,512.976257 305.236969,512.495361 304.890900,512.014404 
	C304.890900,512.014404 304.974152,512.003296 304.873383,511.801941 
	C304.487274,511.408539 304.201965,511.216431 303.916656,511.024323 
	C303.916656,511.024323 303.988098,511.013519 303.981323,510.625916 
	C302.034851,502.355896 300.890259,494.515594 304.945923,486.866302 
	C305.210541,486.367218 304.949036,485.589203 304.932251,484.940918 
	C304.932281,484.940918 304.885376,484.936188 305.247253,485.001068 
	C306.353363,485.015533 307.097565,484.965118 308.199768,485.073212 
	C311.725159,484.838074 314.892548,484.444397 317.852173,484.319672 
	C315.956665,486.060516 313.795593,487.236786 312.660614,489.053955 
	C306.742767,498.528717 308.835052,506.214752 318.716095,513.970764 
	C313.618134,513.643555 313.875641,516.828125 313.959045,520.047607 
	C313.869171,520.142700 313.691254,520.334534 313.691254,520.334534 
z" />
  <path fill="#97E084" d="
M304.589661,485.045929 
	C304.949036,485.589203 305.210541,486.367218 304.945923,486.866302 
	C300.890259,494.515594 302.034851,502.355896 303.968140,510.659546 
	C299.234192,502.384430 299.319000,493.741028 304.589661,485.045929 
z" />
  <path fill="#68C95D" d="
M337.119324,520.133362 
	C330.486725,524.259399 323.522003,524.200989 316.130646,521.450623 
	C315.891510,521.120911 316.038055,520.942932 316.467010,520.958740 
	C323.702148,522.922852 330.331085,521.462463 336.996094,519.982849 
	C337.035828,520.034119 337.119324,520.133362 337.119324,520.133362 
z" />
  <path fill="#97E084" d="
M307.858490,480.869934 
	C311.298859,478.773438 314.739227,476.676941 318.569031,474.891724 
	C318.969910,475.465515 318.981384,475.728027 318.674896,476.132446 
	C314.926392,477.871216 311.495850,479.468109 308.013794,481.016083 
	C307.962219,480.967163 307.858490,480.869965 307.858490,480.869934 
z" />
  <path fill="#87D575" d="
M318.992859,475.990540 
	C318.981384,475.728027 318.969910,475.465515 318.948944,474.808472 
	C323.145142,474.391266 327.350861,474.368622 331.807831,474.641144 
	C332.059113,474.936279 331.976898,475.032623 331.525421,475.018341 
	C327.046906,475.332886 323.019897,475.661713 318.992859,475.990540 
z" />
  <path fill="#87D575" d="
M338.937744,477.623444 
	C337.293182,477.399719 335.469330,476.874512 333.098328,476.084839 
	C332.267059,475.625397 332.075623,475.362793 331.976898,475.032623 
	C331.976898,475.032623 332.059113,474.936279 332.100739,474.888306 
	C334.347717,475.667511 336.553101,476.494751 338.937744,477.623444 
z" />
  <path fill="#97E084" d="
M307.841766,484.914703 
	C307.097565,484.965118 306.353363,485.015533 305.243805,484.977783 
	C305.677185,483.647339 306.475952,482.405060 307.566589,481.016357 
	C307.858490,480.869965 307.962219,480.967163 308.047546,481.400421 
	C308.035828,482.860687 307.938812,483.887695 307.841766,484.914703 
z" />
  <path fill="#87D575" d="
M341.153748,479.525177 
	C340.506500,479.406799 339.796082,478.984100 339.081665,478.206390 
	C339.748657,478.307861 340.419617,478.764343 341.153748,479.525177 
z" />
  <path fill="#68C95D" d="
M339.030396,519.030457 
	C338.585205,519.370300 338.140015,519.710144 337.407043,520.091675 
	C337.119324,520.133362 337.035828,520.034119 337.173035,519.751343 
	C337.856110,519.288208 338.401917,519.107971 338.967712,518.953918 
	C338.987701,518.980164 339.030396,519.030457 339.030396,519.030457 
z" />
  <path fill="#97E084" d="
M304.850342,512.330444 
	C305.236969,512.495361 305.583069,512.976257 305.943451,513.776184 
	C305.575073,513.612244 305.192444,513.129333 304.850342,512.330444 
z" />
  <path fill="#68C95D" d="
M315.818237,521.209839 
	C315.196930,521.115051 314.648895,520.931274 313.896057,520.541016 
	C313.691254,520.334534 313.869171,520.142700 314.249451,520.081238 
	C315.099213,520.327454 315.568634,520.635193 316.038055,520.942932 
	C316.038055,520.942932 315.891510,521.120911 315.818237,521.209839 
z" />
  <path fill="#87D575" d="
M342.137085,480.622864 
	C341.845245,480.748199 341.542999,480.562256 341.149933,480.118347 
	C341.414978,480.010742 341.770844,480.161163 342.137085,480.622864 
z" />
  <path fill="#87D575" d="
M343.120361,481.634949 
	C342.839355,481.754456 342.539642,481.565430 342.149536,481.119080 
	C342.406677,481.016632 342.754181,481.171539 343.120361,481.634949 
z" />
  <path fill="#97E084" d="
M303.988129,511.305542 
	C304.201965,511.216431 304.487274,511.408539 304.875977,511.843872 
	C304.672729,511.920319 304.366180,511.753571 303.988129,511.305542 
z" />
  <path fill="#97E084" d="
M305.993164,514.277832 
	C306.190521,514.217407 306.479065,514.417419 306.878723,514.861267 
	C306.687988,514.916199 306.386169,514.727234 305.993164,514.277832 
z" />
  <path fill="#97E084" d="
M306.981659,515.279297 
	C307.186554,515.238464 307.473145,515.471497 307.860291,515.968994 
	C307.661682,516.006775 307.362518,515.779968 306.981659,515.279297 
z" />
  <path fill="#68C95D" d="
M340.128967,518.132996 
	C339.968018,518.439514 339.747589,518.685120 339.278778,518.980591 
	C339.030396,519.030457 338.987701,518.980164 339.086670,518.748291 
	C339.388855,518.263306 339.641449,518.077087 339.943420,517.957947 
	C339.943420,517.957947 340.069550,518.072144 340.128967,518.132996 
z" />
  <path fill="#87D575" d="
M344.280273,482.668030 
	C344.069153,482.781799 343.696472,482.617798 343.173187,482.184021 
	C343.387970,482.072937 343.753326,482.231598 344.280273,482.668030 
z" />
  <path fill="#F5F6F5" d="
M411.689514,440.378418 
	C411.745148,446.474792 409.308502,450.735504 403.986176,452.950104 
	C399.651367,454.753754 395.476868,453.931763 391.820190,451.059845 
	C387.626099,447.765869 386.078857,443.431091 387.495880,438.235657 
	C388.841339,433.302765 393.324615,429.429413 398.201172,429.129089 
	C403.519440,428.801575 407.458588,431.255127 410.039246,435.832764 
	C410.760742,437.112610 411.114197,438.599976 411.689514,440.378418 
z" />
  <path fill="#0C150C" d="
M319.127106,513.955383 
	C308.835052,506.214752 306.742767,498.528717 312.660614,489.053955 
	C313.795593,487.236786 315.956665,486.060516 317.835388,484.303741 
	C318.026367,484.018890 318.021851,484.062012 318.322327,484.034973 
	C319.109772,483.694977 319.596710,483.381989 320.050690,483.044434 
	C320.017761,483.019836 320.028046,483.101379 320.388458,483.090851 
	C321.362915,482.763184 321.976929,482.446014 322.785583,482.286743 
	C323.329163,482.490753 323.643524,482.407135 323.923309,482.193787 
	C325.720245,482.508759 327.562134,482.666779 329.306274,483.166138 
	C336.450562,485.211761 340.937836,491.034058 340.960999,498.114380 
	C340.983582,505.034851 336.455017,511.237671 329.718994,513.459106 
	C328.626831,513.819275 327.488281,514.038696 325.843536,514.653442 
	C324.893311,514.965088 324.470703,514.946533 323.843811,514.622314 
	C322.437958,514.263428 321.236389,514.210144 319.812195,514.087341 
	C319.589508,514.017761 319.127106,513.955383 319.127106,513.955383 
M323.119446,486.299072 
	C313.414429,489.969238 309.909363,498.806671 315.435944,505.671509 
	C319.145752,510.279602 325.379791,511.696014 330.711761,509.142242 
	C335.866577,506.673279 338.345337,501.248657 337.006561,495.366455 
	C335.765167,489.912231 330.532501,486.238861 323.119446,486.299072 
z" />
  <path fill="#60CC56" d="
M318.716095,513.970764 
	C319.127106,513.955383 319.589508,514.017761 320.007385,514.324219 
	C321.632843,514.729797 322.840485,514.828857 324.048096,514.927917 
	C324.470703,514.946533 324.893311,514.965088 325.632172,514.957153 
	C328.532166,514.605652 331.241058,514.662231 333.669983,513.865295 
	C337.225769,512.698608 339.392517,513.206482 339.953033,517.584534 
	C339.641449,518.077087 339.388855,518.263306 339.066681,518.722046 
	C338.401917,519.107971 337.856110,519.288208 337.133301,519.700073 
	C330.331085,521.462463 323.702148,522.922852 316.467010,520.958740 
	C315.568634,520.635193 315.099213,520.327454 314.339325,519.986206 
	C313.875641,516.828125 313.618134,513.643555 318.716095,513.970764 
z" />
  <path fill="#63CD58" d="
M324.151733,481.884338 
	C323.643524,482.407135 323.329163,482.490753 322.412720,482.270569 
	C321.239502,482.431488 320.633789,482.766449 320.028046,483.101379 
	C320.028046,483.101379 320.017761,483.019836 319.739014,483.041779 
	C318.980774,483.396484 318.501312,483.729248 318.021851,484.062012 
	C318.021851,484.062012 318.026367,484.018890 318.043152,484.034821 
	C314.892548,484.444397 311.725159,484.838074 308.199768,485.073212 
	C307.938812,483.887695 308.035828,482.860687 308.099121,481.449341 
	C311.495850,479.468109 314.926392,477.871216 318.674896,476.132416 
	C323.019897,475.661713 327.046906,475.332886 331.525421,475.018341 
	C332.075623,475.362793 332.267059,475.625397 332.768158,475.940704 
	C332.888214,480.249359 331.351410,482.544647 326.680450,481.069366 
	C326.031616,480.864441 325.152588,481.388367 324.151733,481.884338 
z" />
  <path fill="#FAFBFA" d="
M323.513489,486.234924 
	C330.532501,486.238861 335.765167,489.912231 337.006561,495.366455 
	C338.345337,501.248657 335.866577,506.673279 330.711761,509.142242 
	C325.379791,511.696014 319.145752,510.279602 315.435944,505.671509 
	C309.909363,498.806671 313.414429,489.969238 323.513489,486.234924 
z" />
  <path fill="#68C95D" d="
M323.843811,514.622314 
	C322.840485,514.828857 321.632843,514.729797 320.230042,514.393799 
	C321.236389,514.210144 322.437958,514.263428 323.843811,514.622314 
z" />
  <path fill="#68C95D" d="
M320.388458,483.090851 
	C320.633789,482.766449 321.239502,482.431488 322.218109,482.112701 
	C321.976929,482.446014 321.362915,482.763184 320.388458,483.090851 
z" />
  <path fill="#68C95D" d="
M318.322327,484.034973 
	C318.501312,483.729248 318.980774,483.396484 319.771912,483.066345 
	C319.596710,483.381989 319.109772,483.694977 318.322327,484.034973 
z" />
</svg>