<svg xmlns="http://www.w3.org/2000/svg" viewBox="257.05379289999996 566.3919129000001 194.51964120000005 194.51964120000005">
  <path fill="#140E08" d="
M299.836914,677.191284 
	C292.817688,670.282837 286.035156,663.643066 279.288513,656.966980 
	C275.185944,652.907349 273.263763,648.061707 275.270569,642.443542 
	C277.213104,637.005371 281.750092,634.700012 287.203796,633.929993 
	C298.407501,632.348022 309.587219,630.542175 320.830688,629.327271 
	C324.439453,628.937378 326.052795,627.287964 327.431366,624.401367 
	C332.013947,614.805664 336.717621,605.267883 341.377838,595.709351 
	C343.971252,590.390015 347.245361,585.893311 353.975220,586.001770 
	C360.691711,586.110046 364.420197,590.176575 367.086212,595.855530 
	C371.605316,605.481812 376.379547,614.988281 380.906586,624.610901 
	C382.232971,627.430359 383.938080,628.817261 387.230286,629.213074 
	C398.460266,630.562988 409.640808,632.327759 420.835236,633.968201 
	C426.394958,634.782898 431.196198,636.919128 433.265839,642.600769 
	C435.363464,648.359192 432.878815,653.082458 428.946777,657.040466 
	C421.437683,664.599243 413.891327,672.135620 406.047272,679.340393 
	C402.586517,682.519104 401.541321,685.555481 402.517761,690.241211 
	C404.789154,701.141296 406.569366,712.153931 408.220184,723.170227 
	C409.878693,734.237549 400.807800,741.410156 390.700409,736.722778 
	C379.404938,731.484436 368.527863,725.349548 357.334320,719.879883 
	C355.643463,719.053650 352.861877,718.991699 351.199127,719.815735 
	C340.929901,724.905334 330.827148,730.332092 320.688843,735.684204 
	C315.535370,738.404846 310.300842,739.605652 305.197479,735.874329 
	C300.129456,732.168945 299.465332,726.866394 300.496246,721.085571 
	C302.277496,711.097351 303.473114,700.966797 305.930023,691.150146 
	C307.597504,684.487610 304.572327,680.921875 299.836914,677.191284 
M422.707825,656.051880 
	C422.888123,655.778748 423.068420,655.505676 423.834076,654.944946 
	C425.017181,653.442078 426.200256,651.939209 427.860565,649.901550 
	C429.657593,643.794800 427.289459,640.066284 420.808685,639.071228 
	C409.330231,637.308777 397.856628,635.491272 386.341461,634.002625 
	C381.599976,633.389648 378.511383,631.420288 376.447479,626.990784 
	C371.754150,616.918030 366.943115,606.878784 361.601868,597.143127 
	C360.133759,594.467102 356.608551,591.284119 354.057129,591.309814 
	C351.631561,591.334045 349.245056,595.249573 346.325562,597.975830 
	C341.292542,608.066772 336.135468,618.098694 331.291626,628.279602 
	C329.517670,632.008057 327.050598,633.632935 322.954163,634.146179 
	C311.596283,635.569031 300.295105,637.444458 288.222595,639.017761 
	C285.511047,640.849976 281.862762,642.114807 280.323059,644.656799 
	C278.361664,647.895020 280.595551,651.318909 283.283051,653.890625 
	C284.242188,654.808472 285.213745,655.713440 286.168121,656.636169 
	C293.567261,663.790039 300.926147,670.986145 308.380188,678.082275 
	C311.156128,680.724976 312.008484,683.565857 311.315582,687.455872 
	C309.280975,698.879211 307.656158,710.375427 305.643280,722.108826 
	C305.521759,722.348389 305.554382,722.564697 305.431519,723.467407 
	C305.451691,723.978821 305.471863,724.490295 305.276184,725.720154 
	C306.297516,732.390320 310.021790,734.761597 316.100525,731.888489 
	C324.806519,727.773682 333.712372,723.816589 341.713989,718.548401 
	C350.344727,712.865967 357.678650,712.919800 366.301300,718.484497 
	C374.359619,723.685059 383.241058,727.656006 391.922333,731.831116 
	C398.906433,735.189880 403.867126,731.516968 403.188202,723.836060 
	C403.071472,722.515076 402.824188,721.203674 402.599030,719.894409 
	C400.797638,709.418884 399.052551,698.932983 397.148560,688.476074 
	C396.334259,684.003967 397.362457,680.585999 400.882812,677.400696 
	C406.906952,671.949768 412.484985,666.005920 418.712158,660.080078 
	C419.006409,659.887451 419.193207,659.619873 419.729004,659.081787 
	C420.015259,658.883484 420.199310,658.615051 420.739594,658.088379 
	C421.028076,657.890686 421.206146,657.620300 421.723877,657.067810 
	C422.002075,656.858643 422.175629,656.583435 422.707825,656.051880 
z" />
  <path fill="#FBE165" d="
M288.971497,639.141052 
	C300.295105,637.444458 311.596283,635.569031 322.954163,634.146179 
	C327.050598,633.632935 329.517670,632.008057 331.291626,628.279602 
	C336.135468,618.098694 341.292542,608.066772 346.615448,598.125488 
	C347.996155,600.860596 349.086945,603.445984 350.123779,606.424927 
	C349.665344,608.860840 349.260895,610.903198 348.556427,613.014893 
	C347.890930,613.740845 347.525421,614.397400 347.116150,615.371704 
	C347.008301,616.112000 346.944244,616.534668 346.550842,617.035339 
	C343.502777,622.747253 340.784058,628.381226 337.802917,634.204163 
	C336.021606,635.947876 334.502747,637.502563 332.610107,639.091309 
	C328.611298,640.104736 325.037140,641.395325 321.350525,641.997803 
	C313.917816,643.212463 306.382660,643.817932 298.967712,645.118896 
	C292.539062,646.246765 291.306793,645.760681 288.971497,639.141052 
z" />
  <path fill="#E69440" d="
M418.250366,660.269104 
	C412.484985,666.005920 406.906952,671.949768 400.882812,677.400696 
	C397.362457,680.585999 396.334259,684.003967 397.148560,688.476074 
	C399.052551,698.932983 400.797638,709.418884 402.599030,719.894409 
	C402.824188,721.203674 403.071472,722.515076 403.188202,723.836060 
	C403.867126,731.516968 398.906433,735.189880 391.922333,731.831116 
	C383.241058,727.656006 374.359619,723.685059 366.301300,718.484497 
	C357.678650,712.919800 350.344727,712.865967 341.713989,718.548401 
	C333.712372,723.816589 324.806519,727.773682 316.100525,731.888489 
	C310.021790,734.761597 306.297516,732.390320 305.632141,725.358887 
	C306.317169,725.032837 306.647064,725.055481 307.024292,725.419861 
	C308.389771,729.314941 310.017944,732.500000 314.635864,730.171021 
	C323.468597,725.716309 332.467194,721.526062 340.976227,716.512146 
	C349.444000,711.522583 357.194794,710.465088 366.058960,715.848145 
	C374.390686,720.907898 383.379150,724.931458 392.248169,729.045471 
	C398.267303,731.837585 401.490570,729.295105 400.996857,722.687317 
	C400.947540,722.026978 400.869781,721.366211 400.759705,720.713379 
	C398.867523,709.488586 396.915283,698.273499 395.099854,687.036316 
	C394.487762,683.247803 395.368622,679.912964 398.360352,677.091797 
	C403.437958,672.303711 408.209747,667.192139 413.266357,662.380798 
	C414.495392,661.211426 416.332611,660.681274 417.979248,659.960938 
	C418.068359,660.064758 418.250397,660.269104 418.250366,660.269104 
z" />
  <path fill="#E0BF3E" d="
M306.977844,725.065491 
	C306.647064,725.055481 306.317169,725.032837 305.740082,724.999634 
	C305.471863,724.490295 305.451691,723.978821 305.660309,722.971741 
	C305.953949,722.263062 305.947845,722.052063 305.870850,721.843140 
	C307.656158,710.375427 309.280975,698.879211 311.315582,687.455872 
	C312.008484,683.565857 311.156128,680.724976 308.380188,678.082275 
	C300.926147,670.986145 293.567261,663.790039 286.168121,656.636169 
	C285.213745,655.713440 284.242188,654.808472 283.283051,653.890625 
	C280.595551,651.318909 278.361664,647.895020 280.323059,644.656799 
	C281.862762,642.114807 285.511047,640.849976 288.597046,639.079407 
	C291.306793,645.760681 292.539062,646.246765 298.967712,645.118896 
	C306.382660,643.817932 313.917816,643.212463 321.350525,641.997803 
	C325.037140,641.395325 328.611298,640.104736 332.551025,639.439819 
	C331.022125,640.744263 329.276215,642.286255 327.318726,642.632690 
	C316.421814,644.560913 305.492767,646.345642 294.522400,647.779297 
	C292.873169,647.994873 290.639099,646.431030 289.237701,645.098938 
	C287.796356,643.728821 287.443298,640.636719 284.519165,642.996155 
	C282.242432,644.833252 280.842163,646.970032 283.234070,649.768127 
	C285.064087,651.908875 286.713715,654.231262 288.721313,656.187927 
	C295.861053,663.146179 303.282135,669.824463 310.226715,676.968445 
	C312.126678,678.922913 313.570679,682.085999 313.731293,684.783325 
	C313.962189,688.660461 312.868408,692.625427 312.264832,696.541382 
	C310.854858,705.688660 309.400024,714.829102 307.742859,724.096558 
	C307.340851,724.502319 307.159363,724.783936 306.977844,725.065491 
z" />
  <path fill="#E0BF3E" d="
M350.177765,606.031372 
	C349.086945,603.445984 347.996155,600.860596 346.873352,597.864685 
	C349.245056,595.249573 351.631561,591.334045 354.057129,591.309814 
	C356.608551,591.284119 360.133759,594.467102 361.601868,597.143127 
	C366.943115,606.878784 371.754150,616.918030 376.447479,626.990784 
	C378.511383,631.420288 381.599976,633.389648 386.341461,634.002625 
	C397.856628,635.491272 409.330231,637.308777 420.808685,639.071228 
	C427.289459,640.066284 429.657593,643.794800 427.489563,650.000793 
	C427.118591,650.100037 426.825226,649.788330 426.860016,649.411987 
	C426.641083,643.616211 424.444519,641.377930 418.610107,640.948975 
	C407.442200,639.255005 396.713715,637.380859 385.915283,636.094482 
	C380.464874,635.445251 376.773315,633.578735 374.489563,628.241333 
	C370.785156,619.583496 366.487854,611.175049 362.305450,602.728394 
	C361.001312,600.094543 359.427368,597.552307 357.670563,595.196655 
	C356.013123,592.974243 353.826050,591.985779 351.300232,594.215149 
	C349.029907,596.219116 347.944000,598.277100 350.386627,600.996643 
	C351.831329,602.605103 353.510406,604.497375 350.177765,606.031372 
z" />
  <path fill="#E69440" d="
M427.250977,650.268188 
	C426.200256,651.939209 425.017181,653.442078 423.446838,655.004028 
	C423.059631,655.063049 422.867004,654.897583 422.908783,654.546997 
	C424.242126,652.727051 425.533661,651.257690 426.825226,649.788330 
	C426.825226,649.788330 427.118591,650.100037 427.250977,650.268188 
z" />
  <path fill="#E69440" d="
M421.273773,657.277161 
	C421.206146,657.620300 421.028076,657.890686 420.413818,658.087646 
	C420.088074,658.086975 419.896729,657.895630 420.019989,657.688904 
	C420.345734,657.222839 420.598328,657.028748 420.994507,656.993896 
	C421.087952,657.087952 421.273773,657.277161 421.273773,657.277161 
z" />
  <path fill="#E69440" d="
M419.272552,659.277283 
	C419.193207,659.619873 419.006409,659.887451 418.481262,660.174561 
	C418.250397,660.269104 418.068359,660.064758 418.107513,659.763306 
	C418.349762,659.211975 418.598572,659.021973 418.988281,658.987915 
	C419.083435,659.083984 419.272552,659.277283 419.272552,659.277283 
z" />
  <path fill="#E69440" d="
M420.184601,658.181763 
	C420.199310,658.615051 420.015259,658.883484 419.500793,659.179565 
	C419.272552,659.277283 419.083435,659.083984 419.112366,658.781982 
	C419.343903,658.221619 419.595734,658.026855 419.896729,657.895630 
	C419.896729,657.895630 420.088074,658.086975 420.184601,658.181763 
z" />
  <path fill="#E69440" d="
M305.757080,721.975952 
	C305.947845,722.052063 305.953949,722.263062 305.815125,722.616943 
	C305.554382,722.564697 305.521759,722.348389 305.757080,721.975952 
z" />
  <path fill="#E69440" d="
M423.154175,655.147827 
	C423.068420,655.505676 422.888123,655.778748 422.391418,656.063354 
	C422.075012,656.074890 421.906860,655.906189 422.023560,655.700134 
	C422.335175,655.237610 422.577454,655.038757 422.867004,654.897583 
	C422.867004,654.897583 423.059631,655.063049 423.154175,655.147827 
z" />
  <path fill="#E69440" d="
M422.159760,656.158569 
	C422.175629,656.583435 422.002075,656.858643 421.498840,657.172485 
	C421.273773,657.277161 421.087952,657.087952 421.117554,656.786987 
	C421.349518,656.226013 421.602753,656.032776 421.906860,655.906189 
	C421.906860,655.906189 422.075012,656.074890 422.159760,656.158569 
z" />
  <path fill="#FAC805" d="
M350.123779,606.424927 
	C353.510406,604.497375 351.831329,602.605103 350.386627,600.996643 
	C347.944000,598.277100 349.029907,596.219116 351.300232,594.215149 
	C353.826050,591.985779 356.013123,592.974243 357.670563,595.196655 
	C359.427368,597.552307 361.001312,600.094543 362.305450,602.728394 
	C366.487854,611.175049 370.785156,619.583496 374.489563,628.241333 
	C376.773315,633.578735 380.464874,635.445251 385.915283,636.094482 
	C396.713715,637.380859 407.442200,639.255005 418.603943,641.337646 
	C415.679016,646.978760 412.934235,652.692627 408.870789,657.223999 
	C403.924133,662.740173 397.538239,666.950256 392.439850,672.352844 
	C390.140320,674.789612 388.597107,678.656921 388.250061,682.033447 
	C387.839447,686.028442 388.920837,690.225281 389.659698,694.279175 
	C390.933960,701.270386 392.639465,708.188416 393.722534,715.205261 
	C394.010590,717.071594 393.203339,719.690613 391.916443,720.994019 
	C391.163605,721.756531 388.242401,721.039246 386.684113,720.236023 
	C377.989838,715.754456 369.268097,711.290222 360.851776,706.318909 
	C355.729492,703.293274 351.153198,703.782715 346.266541,706.344299 
	C337.433563,710.974792 328.643677,715.700684 319.667633,720.038696 
	C315.991211,721.815430 311.877930,722.688293 307.963379,723.972290 
	C309.400024,714.829102 310.854858,705.688660 312.264832,696.541382 
	C312.868408,692.625427 313.962189,688.660461 313.731293,684.783325 
	C313.570679,682.085999 312.126678,678.922913 310.226715,676.968445 
	C303.282135,669.824463 295.861053,663.146179 288.721313,656.187927 
	C286.713715,654.231262 285.064087,651.908875 283.234070,649.768127 
	C280.842163,646.970032 282.242432,644.833252 284.519165,642.996155 
	C287.443298,640.636719 287.796356,643.728821 289.237701,645.098938 
	C290.639099,646.431030 292.873169,647.994873 294.522400,647.779297 
	C305.492767,646.345642 316.421814,644.560913 327.318726,642.632690 
	C329.276215,642.286255 331.022125,640.744263 332.924805,639.405762 
	C334.502747,637.502563 336.021606,635.947876 338.141449,634.143066 
	C341.455017,628.247803 344.167603,622.602539 346.880188,616.957336 
	C346.944244,616.534668 347.008301,616.112000 347.418243,615.307129 
	C348.128235,614.265137 348.492340,613.605347 348.856445,612.945496 
	C349.260895,610.903198 349.665344,608.860840 350.123779,606.424927 
M381.094910,664.842957 
	C383.068848,666.579590 384.817139,666.935791 386.761353,663.861023 
	C386.856049,661.783569 387.644775,659.413391 386.915161,657.683655 
	C384.737030,652.520142 380.344391,650.851929 374.854279,650.942505 
	C369.505463,651.030701 366.636780,653.989502 365.142548,658.522705 
	C364.554535,660.306580 364.275696,663.349060 365.263519,664.217529 
	C366.655731,665.441528 369.375793,665.562317 371.492767,665.455200 
	C374.352386,665.310486 377.178375,664.501465 380.448853,664.087769 
	C380.448853,664.087769 380.886047,664.164978 381.094910,664.842957 
M323.040588,663.962036 
	C323.040588,663.962036 323.164337,663.800537 323.145050,664.556335 
	C325.082031,664.518555 328.209534,665.209778 328.754578,664.319702 
	C331.440399,659.933411 333.248749,660.925537 336.069183,664.195251 
	C337.091858,665.380798 340.012634,665.697205 341.751740,665.231506 
	C342.946136,664.911682 344.325958,662.572449 344.352264,661.113037 
	C344.429535,656.823181 338.913635,651.315369 334.050781,650.209534 
	C330.304016,649.357544 323.878021,652.383911 322.650970,656.520874 
	C322.042847,658.571167 318.282684,661.871521 323.040588,663.962036 
M365.436279,674.034851 
	C364.273132,674.570557 362.955078,674.908081 361.973175,675.675659 
	C357.214630,679.395447 349.674377,679.162292 345.371613,674.889465 
	C342.964874,672.499512 340.172729,670.242920 337.296875,673.115479 
	C334.289215,676.119751 336.300476,679.405090 338.919861,681.772644 
	C344.888885,687.167725 356.917633,690.410767 365.191254,684.617676 
	C368.138092,682.554443 369.900177,678.684937 371.843628,675.425659 
	C372.135529,674.936157 370.611053,672.562866 369.639557,672.345642 
	C368.666931,672.128113 367.334320,673.520386 366.023499,674.037964 
	C366.023499,674.037964 366.197998,674.166931 365.436279,674.034851 
z" />
  <path fill="#E0BF3E" d="
M346.550842,617.035339 
	C344.167603,622.602539 341.455017,628.247803 338.403900,633.954102 
	C340.784058,628.381226 343.502777,622.747253 346.550842,617.035339 
z" />
  <path fill="#E0BF3E" d="
M348.556427,613.014893 
	C348.492340,613.605347 348.128235,614.265137 347.462036,614.989502 
	C347.525421,614.397400 347.890930,613.740845 348.556427,613.014893 
z" />
  <path fill="#F6A00B" d="
M307.742859,724.096558 
	C311.877930,722.688293 315.991211,721.815430 319.667633,720.038696 
	C328.643677,715.700684 337.433563,710.974792 346.266541,706.344299 
	C351.153198,703.782715 355.729492,703.293274 360.851776,706.318909 
	C369.268097,711.290222 377.989838,715.754456 386.684113,720.236023 
	C388.242401,721.039246 391.163605,721.756531 391.916443,720.994019 
	C393.203339,719.690613 394.010590,717.071594 393.722534,715.205261 
	C392.639465,708.188416 390.933960,701.270386 389.659698,694.279175 
	C388.920837,690.225281 387.839447,686.028442 388.250061,682.033447 
	C388.597107,678.656921 390.140320,674.789612 392.439850,672.352844 
	C397.538239,666.950256 403.924133,662.740173 408.870789,657.223999 
	C412.934235,652.692627 415.679016,646.978760 419.014465,641.400391 
	C424.444519,641.377930 426.641083,643.616211 426.860016,649.411987 
	C425.533661,651.257690 424.242126,652.727051 422.908783,654.546997 
	C422.577454,655.038757 422.335175,655.237610 422.023560,655.700134 
	C421.602753,656.032776 421.349518,656.226013 421.024109,656.692871 
	C420.598328,657.028748 420.345734,657.222839 420.019989,657.688904 
	C419.595734,658.026855 419.343903,658.221619 419.017212,658.685974 
	C418.598572,659.021973 418.349762,659.211975 418.018433,659.659546 
	C416.332611,660.681274 414.495392,661.211426 413.266357,662.380798 
	C408.209747,667.192139 403.437958,672.303711 398.360352,677.091797 
	C395.368622,679.912964 394.487762,683.247803 395.099854,687.036316 
	C396.915283,698.273499 398.867523,709.488586 400.759705,720.713379 
	C400.869781,721.366211 400.947540,722.026978 400.996857,722.687317 
	C401.490570,729.295105 398.267303,731.837585 392.248169,729.045471 
	C383.379150,724.931458 374.390686,720.907898 366.058960,715.848145 
	C357.194794,710.465088 349.444000,711.522583 340.976227,716.512146 
	C332.467194,721.526062 323.468597,725.716309 314.635864,730.171021 
	C310.017944,732.500000 308.389771,729.314941 307.024292,725.419861 
	C307.159363,724.783936 307.340851,724.502319 307.742859,724.096558 
z" />
  <path fill="#E0BF3E" d="
M366.159485,674.207031 
	C367.334320,673.520386 368.666931,672.128113 369.639557,672.345642 
	C370.611053,672.562866 372.135529,674.936157 371.843628,675.425659 
	C369.900177,678.684937 368.138092,682.554443 365.191254,684.617676 
	C356.917633,690.410767 344.888885,687.167725 338.919861,681.772644 
	C336.300476,679.405090 334.289215,676.119751 337.296875,673.115479 
	C340.172729,670.242920 342.964874,672.499512 345.371613,674.889465 
	C349.674377,679.162292 357.214630,679.395447 361.973175,675.675659 
	C362.955078,674.908081 364.273132,674.570557 365.708221,674.424988 
	C359.371979,682.549500 350.614044,682.827759 342.948425,675.780884 
	C341.912384,674.828491 339.940887,674.893555 338.402557,674.487488 
	C338.731171,675.959106 338.623901,677.766113 339.457397,678.849182 
	C346.120087,687.506470 362.403534,687.396851 369.013885,678.682373 
	C369.807556,677.636047 369.878479,676.041504 370.284393,674.701050 
	C368.909424,674.536377 367.534454,674.371704 366.159485,674.207031 
z" />
  <path fill="#E0BF3E" d="
M323.207245,663.845703 
	C318.282684,661.871521 322.042847,658.571167 322.650970,656.520874 
	C323.878021,652.383911 330.304016,649.357544 334.050781,650.209534 
	C338.913635,651.315369 344.429535,656.823181 344.352264,661.113037 
	C344.325958,662.572449 342.946136,664.911682 341.751740,665.231506 
	C340.012634,665.697205 337.091858,665.380798 336.069183,664.195251 
	C333.248749,660.925537 331.440399,659.933411 328.754578,664.319702 
	C328.209534,665.209778 325.082031,664.518555 323.537170,664.283081 
	C325.291565,663.039917 326.646423,662.059326 328.017944,661.102539 
	C329.654236,659.961121 331.257080,658.058411 332.964111,657.954163 
	C334.366425,657.868469 335.923431,659.900574 337.367615,661.049561 
	C338.470551,661.927063 339.504242,662.891602 340.568726,663.817444 
	C340.940063,662.238831 341.935669,660.493774 341.567413,659.112366 
	C340.391785,654.702454 335.728912,652.174866 330.982086,652.902222 
	C325.990387,653.667236 323.142578,657.675720 323.207245,663.845703 
z" />
  <path fill="#E0BF3E" d="
M380.018799,663.977478 
	C377.178375,664.501465 374.352386,665.310486 371.492767,665.455200 
	C369.375793,665.562317 366.655731,665.441528 365.263519,664.217529 
	C364.275696,663.349060 364.554535,660.306580 365.142548,658.522705 
	C366.636780,653.989502 369.505463,651.030701 374.854279,650.942505 
	C380.344391,650.851929 384.737030,652.520142 386.915161,657.683655 
	C387.644775,659.413391 386.856049,661.783569 386.299744,663.850281 
	C385.838104,663.839539 385.642242,663.644104 385.718964,663.275208 
	C385.462677,657.126343 382.375671,653.394714 377.500031,652.878296 
	C372.313232,652.328918 367.777130,655.107727 366.763123,659.675781 
	C366.506989,660.829651 366.978363,662.145020 367.115448,663.386169 
	C368.299927,663.192200 369.484375,662.998230 371.020660,662.734985 
	C376.486725,658.731323 377.166840,658.834534 380.018799,663.977478 
z" />
  <path fill="#E3AA4C" d="
M380.233826,664.032593 
	C377.166840,658.834534 376.486725,658.731323 371.096710,662.364746 
	C372.677734,660.614563 375.142914,657.613708 376.259674,658.051697 
	C378.334717,658.865295 379.623199,661.684631 381.150757,663.792847 
	C381.062347,663.916809 380.886047,664.164978 380.886047,664.164978 
	C380.886047,664.164978 380.448853,664.087769 380.233826,664.032593 
z" />
  <path fill="#E0BF3E" d="
M385.935669,663.937622 
	C384.817139,666.935791 383.068848,666.579590 380.990479,664.503967 
	C380.886047,664.164978 381.062347,663.916809 381.516144,663.877808 
	C383.194031,663.773865 384.418152,663.708984 385.642242,663.644104 
	C385.642242,663.644104 385.838104,663.839539 385.935669,663.937622 
z" />
  <path fill="#221208" d="
M366.091492,674.122498 
	C367.534454,674.371704 368.909424,674.536377 370.284393,674.701050 
	C369.878479,676.041504 369.807556,677.636047 369.013885,678.682373 
	C362.403534,687.396851 346.120087,687.506470 339.457397,678.849182 
	C338.623901,677.766113 338.731171,675.959106 338.402557,674.487488 
	C339.940887,674.893555 341.912384,674.828491 342.948425,675.780884 
	C350.614044,682.827759 359.371979,682.549500 366.089081,674.491028 
	C366.197998,674.166931 366.023499,674.037964 366.091492,674.122498 
z" />
  <path fill="#221208" d="
M323.123901,663.903870 
	C323.142578,657.675720 325.990387,653.667236 330.982086,652.902222 
	C335.728912,652.174866 340.391785,654.702454 341.567413,659.112366 
	C341.935669,660.493774 340.940063,662.238831 340.568726,663.817444 
	C339.504242,662.891602 338.470551,661.927063 337.367615,661.049561 
	C335.923431,659.900574 334.366425,657.868469 332.964111,657.954163 
	C331.257080,658.058411 329.654236,659.961121 328.017944,661.102539 
	C326.646423,662.059326 325.291565,663.039917 323.546814,663.905212 
	C323.164337,663.800537 323.040588,663.962036 323.123901,663.903870 
z" />
  <path fill="#221208" d="
M385.718964,663.275208 
	C384.418152,663.708984 383.194031,663.773865 381.604553,663.753845 
	C379.623199,661.684631 378.334717,658.865295 376.259674,658.051697 
	C375.142914,657.613708 372.677734,660.614563 370.744904,662.434021 
	C369.484375,662.998230 368.299927,663.192200 367.115448,663.386169 
	C366.978363,662.145020 366.506989,660.829651 366.763123,659.675781 
	C367.777130,655.107727 372.313232,652.328918 377.500031,652.878296 
	C382.375671,653.394714 385.462677,657.126343 385.718964,663.275208 
z" />
</svg>