<svg xmlns="http://www.w3.org/2000/svg" viewBox="705.4802311 568.3077151 188.7919188 188.7919188">
  <path fill="#0E0D0F" d="
M875.066345,643.010010 
	C874.821899,654.490051 874.538635,665.471680 874.350403,676.454956 
	C874.325745,677.895508 874.646973,679.385254 875.049500,680.782654 
	C877.213928,688.296936 873.916748,694.384094 866.271240,695.717957 
	C862.922363,696.302185 861.057739,697.357361 859.877197,700.647949 
	C859.035889,702.992798 856.968445,704.897705 855.153748,707.406067 
	C862.725708,717.474609 870.632629,727.988525 878.539490,738.502380 
	C878.283508,738.996094 878.027466,739.489807 877.771423,739.983521 
	C871.391174,739.983521 864.978821,740.328491 858.653137,739.741028 
	C857.071716,739.594238 855.511230,736.591675 854.404297,734.639038 
	C853.059692,732.267212 851.650879,731.068481 848.630554,731.081177 
	C816.321472,731.216858 784.011230,731.234741 751.702393,731.073120 
	C748.053406,731.054871 746.030090,732.319885 745.068054,735.545898 
	C743.906555,739.440735 741.332886,740.457886 737.486877,740.230042 
	C732.437195,739.930908 727.356445,740.156616 722.289062,740.156616 
	C721.930359,739.544922 721.571594,738.933228 721.212891,738.321533 
	C730.391663,726.285339 739.570435,714.249146 749.064026,701.800049 
	C739.463379,700.798706 736.989014,694.177795 735.855591,686.245972 
	C735.660645,684.881714 733.842163,683.777039 732.850098,682.493347 
	C730.829346,679.878418 727.473145,677.409851 727.089111,674.555237 
	C723.901123,650.858337 723.533020,627.097900 727.936890,603.482788 
	C729.721252,593.914429 735.892578,588.044922 745.521606,587.042603 
	C755.108459,586.044739 764.782837,585.643372 774.426941,585.490540 
	C797.060242,585.131897 819.698181,585.025452 842.334717,584.959106 
	C845.634399,584.949463 848.989319,585.475525 852.227356,586.176086 
	C862.413269,588.380005 869.612671,594.057495 871.058960,604.829834 
	C872.739014,617.343994 873.753662,629.947510 875.066345,643.010010 
M861.736877,595.722961 
	C861.736877,595.722961 861.361938,595.575684 860.996399,594.999451 
	C857.246277,593.386169 853.580627,590.659912 849.730225,590.367676 
	C838.061768,589.482117 826.320007,589.297791 814.610657,589.380981 
	C811.241821,589.404907 807.886047,591.259338 803.849976,591.919189 
	C803.510925,591.546997 803.171936,591.174866 803.134399,590.277588 
	C803.388428,589.971008 803.642456,589.664429 803.896484,589.357910 
	C803.427917,589.252930 802.955933,589.043213 802.491211,589.058105 
	C785.248962,589.611328 768.009399,590.263489 750.764587,590.718079 
	C743.814026,590.901245 738.260559,593.511719 733.267334,599.144714 
	C732.903503,601.170959 732.539673,603.197144 732.110107,605.122986 
	C732.110107,605.122986 732.227478,605.147766 731.593933,605.241760 
	C731.424500,606.173767 731.255066,607.105835 731.136475,608.781982 
	C731.021301,609.516541 730.906189,610.251099 730.491760,611.161743 
	C730.437317,611.263245 730.312317,611.397827 730.341492,611.460083 
	C730.433228,611.655945 730.583008,611.824524 730.868469,612.513611 
	C730.929077,612.680908 730.989624,612.848267 730.791687,613.734619 
	C730.599487,614.468628 730.407288,615.202637 729.619873,616.353088 
	C729.434692,623.581299 729.249512,630.809509 729.172791,638.948303 
	C729.271118,642.071472 729.369446,645.194641 729.390503,649.137573 
	C729.658020,652.905029 729.925537,656.672485 730.001160,660.723938 
	C730.001160,660.723938 729.781311,660.986755 729.373291,661.400513 
	C729.513123,662.267639 729.652954,663.134705 729.995361,664.565186 
	C730.106934,664.730713 730.218506,664.896179 730.267090,665.772888 
	C730.248840,666.485840 730.230652,667.198853 729.635742,668.327271 
	C730.350403,670.950195 731.065125,673.573181 731.992798,676.791138 
	C732.476746,677.130554 732.960693,677.469971 733.730164,677.807861 
	C733.730164,677.807861 733.978271,677.949341 734.371094,678.498779 
	C735.017090,678.609436 735.663086,678.720093 736.877014,678.831299 
	C737.244080,678.920471 737.611145,679.009644 738.437134,679.600403 
	C739.325745,679.717041 740.214355,679.833679 741.550049,679.968262 
	C741.550049,679.968262 741.972900,680.114502 742.350159,680.719666 
	C745.899170,681.567505 748.854919,685.385437 753.717163,682.872070 
	C754.134460,682.956177 754.551697,683.040283 755.350464,683.729858 
	C762.873108,685.759460 770.392456,687.801392 777.930847,689.770691 
	C778.213257,689.844482 778.680054,689.212158 779.707764,688.916504 
	C780.130005,689.000610 780.552307,689.084778 781.359131,689.584656 
	C781.725952,689.639709 782.092773,689.694763 783.101135,689.726196 
	C783.727478,689.857727 784.353882,689.989258 785.417847,690.608887 
	C786.057251,690.676575 786.696655,690.744202 788.111084,690.797363 
	C789.380432,691.000671 790.649841,691.203979 792.164307,692.030640 
	C793.759277,691.968689 795.354187,691.906677 797.057800,691.436340 
	C797.057800,691.436340 797.224548,691.048096 797.880127,691.038696 
	C798.539307,691.028198 799.198547,691.017700 800.334412,691.581909 
	C802.830627,692.408386 805.270691,693.644653 807.832092,693.995972 
	C827.007751,696.626099 846.048828,694.631531 864.971252,691.555847 
	C867.189148,691.195374 868.927795,687.886597 871.192505,685.193359 
	C871.857056,678.857971 867.400330,682.333496 865.092773,681.262573 
	C866.396667,680.500916 867.700562,679.739258 869.260498,678.816467 
	C869.260498,678.816467 869.562683,678.830200 870.253174,678.666687 
	C870.471497,677.094421 870.689880,675.522095 870.813171,673.058655 
	C870.921570,670.372009 871.029907,667.685425 871.667358,664.384094 
	C871.512878,660.590820 871.358337,656.797485 871.069458,652.093628 
	C870.931519,648.435669 870.793518,644.777649 871.354736,640.599792 
	C871.558411,637.517151 871.995789,634.424561 871.864319,631.356262 
	C871.801025,629.880676 870.663940,628.450989 869.870422,626.177429 
	C869.230896,621.329773 868.859253,616.426697 867.872620,611.650757 
	C866.977356,607.316772 865.412354,603.121033 864.020203,598.244751 
	C863.338013,597.512817 862.655823,596.780823 861.736877,595.722961 
M847.186707,707.888184 
	C845.644470,707.971985 844.102234,708.055786 842.083313,708.165466 
	C847.032104,716.018860 851.837585,723.250000 856.205933,730.736267 
	C858.546570,734.747498 861.260681,737.062927 866.859436,735.965576 
	C868.205383,735.873169 869.551270,735.780823 871.690369,735.633972 
	C864.512268,726.312439 857.910095,717.660706 851.169128,709.118469 
	C850.565796,708.353943 849.062744,708.299500 847.186707,707.888184 
M734.766785,735.940308 
	C738.979736,736.798157 741.119873,734.787048 743.279114,731.191650 
	C750.871460,718.549072 758.958191,706.203613 766.831360,693.729126 
	C767.470642,692.716309 767.913818,691.579712 768.971680,689.443054 
	C766.552368,690.095398 764.251038,690.204773 764.096924,690.837219 
	C762.676514,696.667664 757.958923,699.513489 753.248535,703.251770 
	C745.027222,713.912842 736.805847,724.573853 727.907654,736.112549 
	C730.742798,735.965088 732.335083,735.882263 734.766785,735.940308 
M849.554138,727.921082 
	C847.630127,724.444092 847.348816,719.106018 842.002930,719.073914 
	C813.946472,718.905334 785.888245,718.966980 757.831299,719.090942 
	C756.510010,719.096741 754.885132,720.186890 753.944763,721.251709 
	C752.262817,723.156189 750.994995,725.426453 749.489380,727.638977 
	C750.414001,727.826416 751.221008,727.990051 752.659058,728.679932 
	C753.474792,728.783875 754.290405,728.978088 755.106201,728.978638 
	C785.131592,728.999023 815.156982,729.010986 845.182312,728.973694 
	C846.441956,728.972168 847.700928,728.489685 849.554138,727.921082 
M836.901489,709.993530 
	C813.112000,710.020813 789.321411,710.169312 765.533875,709.968262 
	C761.034607,709.930298 759.080688,711.847778 757.765808,715.627441 
	C786.038391,715.627441 813.971191,715.627441 843.043030,715.627441 
	C840.801636,713.228516 839.289490,711.610046 836.901489,709.993530 
M821.479126,701.935791 
	C815.154419,701.925354 808.822449,702.092834 802.507812,701.835999 
	C798.883301,701.688599 796.919495,703.018066 796.250244,706.626709 
	C809.509277,706.626709 822.654358,706.626709 836.029785,706.626709 
	C835.229309,702.950500 833.373047,701.536621 829.953064,701.869202 
	C827.479065,702.109863 824.964355,701.930664 821.479126,701.935791 
M785.048950,694.530518 
	C784.556274,695.194885 784.168701,695.986938 783.549133,696.497253 
	C782.233154,697.581238 780.796509,698.518738 779.409302,699.516296 
	C778.376343,698.072327 777.255066,696.681458 776.342896,695.164856 
	C775.779541,694.228271 775.534485,693.100281 775.146484,692.058228 
	C774.635803,692.215088 774.125061,692.372009 773.614380,692.528870 
	C774.236206,695.000305 774.598999,697.576599 775.545959,699.916443 
	C776.706055,702.783203 777.888977,706.318054 782.234314,704.669312 
	C785.044861,703.602905 786.984558,697.280701 785.048950,694.530518 
M748.917664,689.293823 
	C741.269226,696.453369 743.440369,685.795898 739.933838,684.132080 
	C740.070862,689.252747 741.091797,693.470154 745.111328,696.234436 
	C745.985413,696.835510 748.605408,696.592285 748.978821,695.927612 
	C750.432739,693.339294 751.306396,690.425110 752.395874,687.632141 
	C751.852112,687.404907 751.308350,687.177673 750.764587,686.950378 
	C750.260620,687.510193 749.756653,688.070007 748.917664,689.293823 
M837.626465,698.656494 
	C839.537964,700.379700 841.228149,702.838867 843.456238,703.508911 
	C844.536072,703.833618 846.624634,700.803711 848.256470,699.292542 
	C847.993958,698.966553 847.731384,698.640625 847.468872,698.314636 
	C844.378418,698.314636 841.288025,698.314636 837.626465,698.656494 
M765.344299,706.757812 
	C768.064880,706.757812 770.785461,706.757812 774.187012,706.757812 
	C773.119202,705.159302 772.622375,703.511658 771.690735,703.210938 
	C769.808228,702.603271 767.624756,702.384827 765.706482,702.749207 
	C765.101929,702.864136 764.947571,705.348999 765.344299,706.757812 
M794.203125,700.531982 
	C793.944153,699.077759 793.685120,697.623535 793.426147,696.169250 
	C792.246094,697.155151 790.752808,697.941406 789.965515,699.177429 
	C788.983154,700.719666 788.582397,702.632202 787.930542,704.384888 
	C788.428345,704.792603 788.926208,705.200317 789.424011,705.608093 
	C790.911926,704.150146 792.399841,702.692200 794.203125,700.531982 
M754.326416,692.574219 
	C754.014343,693.883850 753.702332,695.193420 753.390320,696.503052 
	C753.866272,696.770020 754.342224,697.036926 754.818237,697.303894 
	C756.665588,694.834229 758.513000,692.364502 760.429565,689.802307 
	C755.974976,686.617065 755.109009,688.909119 754.326416,692.574219 
M851.624146,698.182434 
	C851.411987,699.663513 851.199829,701.144592 850.987610,702.625671 
	C851.485229,702.919312 851.982910,703.212952 852.480530,703.506592 
	C854.127014,701.821228 855.773560,700.135864 857.420044,698.450500 
	C857.164307,697.992676 856.908569,697.534851 856.652771,697.077026 
	C855.153442,697.248352 853.654053,697.419617 851.624146,698.182434 
z" />
  <path fill="#E69440" d="
M752.027954,728.153687 
	C751.221008,727.990051 750.414001,727.826416 749.489380,727.638977 
	C750.994995,725.426453 752.262817,723.156189 753.944763,721.251709 
	C754.885132,720.186890 756.510010,719.096741 757.831299,719.090942 
	C785.888245,718.966980 813.946472,718.905334 842.002930,719.073914 
	C847.348816,719.106018 847.630127,724.444092 848.801270,727.980469 
	C816.041565,728.077881 784.034790,728.115784 752.027954,728.153687 
z" />
  <path fill="#2FA1D9" d="
M730.791016,610.985657 
	C730.906189,610.251099 731.021301,609.516541 731.325439,608.177185 
	C731.752136,606.764160 731.989807,605.955933 732.227417,605.147766 
	C732.227478,605.147766 732.110107,605.122986 732.595459,605.198730 
	C751.695984,605.230652 770.314148,605.354126 788.924500,605.030090 
	C793.820374,604.944885 795.274292,606.540344 795.056641,611.214111 
	C794.864746,615.333923 795.572144,619.488953 795.751953,623.634094 
	C796.232483,634.708313 796.642883,645.785522 796.749084,656.881348 
	C793.743713,656.223572 791.070312,655.545898 788.319275,654.414734 
	C788.221130,652.799988 788.183105,651.638672 788.182800,650.477417 
	C788.180298,640.190125 788.349121,629.899231 788.127075,619.616760 
	C787.986023,613.087036 786.072754,611.437927 779.603882,611.287354 
	C775.457397,611.190857 771.272888,610.929565 767.171692,611.365601 
	C764.717163,611.626465 762.390442,613.089844 759.635010,614.072510 
	C757.649597,614.792236 756.035461,615.452148 754.208374,615.856628 
	C749.860107,611.424011 739.405273,611.125610 733.785034,614.996338 
	C732.660950,614.311340 731.855591,613.663452 731.050171,613.015564 
	C730.989624,612.848267 730.929077,612.680908 730.896118,612.010925 
	C730.879456,611.334045 730.835266,611.159851 730.791016,610.985657 
z" />
  <path fill="#46B1DD" d="
M734.041382,599.009766 
	C738.260559,593.511719 743.814026,590.901245 750.764587,590.718079 
	C768.009399,590.263489 785.248962,589.611328 802.491211,589.058105 
	C802.955933,589.043213 803.427917,589.252930 803.896484,589.357910 
	C803.642456,589.664429 803.388428,589.971008 802.662109,590.650024 
	C800.182190,593.578979 797.556152,595.874207 796.335388,598.763306 
	C795.033691,601.843689 793.680603,602.975586 790.261047,602.933533 
	C772.827759,602.719299 755.390747,602.812134 737.955078,602.777649 
	C736.400452,602.774597 734.846069,602.628845 733.073242,602.538208 
	C733.521545,600.904480 733.781494,599.957092 734.041382,599.009766 
z" />
  <path fill="#F5F6F5" d="
M837.339355,709.992554 
	C839.289490,711.610046 840.801636,713.228516 843.043030,715.627441 
	C813.971191,715.627441 786.038391,715.627441 757.765808,715.627441 
	C759.080688,711.847778 761.034607,709.930298 765.533875,709.968262 
	C789.321411,710.169312 813.112000,710.020813 837.339355,709.992554 
z" />
  <path fill="#AFD5E3" d="
M864.962524,681.941284 
	C867.400330,682.333496 871.857056,678.857971 870.646851,685.561890 
	C856.902466,690.645447 843.023376,690.269592 829.372131,690.758301 
	C819.669128,691.105591 809.899475,689.592346 800.069397,688.505371 
	C799.578125,683.777710 802.311890,683.838257 805.452881,683.927002 
	C818.428223,684.294006 831.414246,684.871338 844.383118,684.638428 
	C851.256897,684.515015 858.103577,682.888977 864.962524,681.941284 
z" />
  <path fill="#3A99C5" d="
M871.138245,664.998779 
	C871.029907,667.685425 870.921570,670.372009 870.664551,673.806152 
	C870.198181,675.979187 869.880432,677.404663 869.562744,678.830200 
	C869.562683,678.830200 869.260498,678.816467 868.698242,678.867188 
	C866.486389,679.115906 864.827637,679.256958 863.188538,679.520630 
	C843.849670,682.631287 824.461426,683.172546 805.350159,680.459473 
	C813.601257,680.161316 821.513733,680.023376 829.425232,680.067749 
	C831.970947,680.081970 833.264160,679.502502 832.698120,676.749146 
	C837.079285,676.497925 841.023010,676.225708 844.949585,676.327637 
	C843.632507,679.485962 844.923584,680.280640 847.505493,679.988953 
	C853.524048,679.309082 859.599792,678.892761 865.510742,677.679565 
	C866.941711,677.385925 868.721985,674.435547 868.760376,672.672424 
	C868.828918,669.522644 866.415588,670.166809 864.079346,670.668518 
	C862.587280,670.988953 860.839539,670.118896 859.581177,669.776123 
	C862.462280,668.241516 865.859558,667.277466 867.267883,665.053894 
	C869.419800,661.656067 867.780396,658.032043 865.228882,655.191956 
	C868.388489,655.389771 869.879333,653.612793 869.323303,651.405579 
	C868.745117,649.109985 870.892334,644.914917 865.954590,644.465942 
	C867.629150,632.349365 866.854919,620.795837 864.096924,609.241821 
	C864.880859,607.563354 865.716614,606.005981 865.589417,604.531738 
	C865.430725,602.693481 864.478210,600.923767 863.937012,599.059509 
	C864.005554,598.994507 864.142639,598.864380 864.142639,598.864380 
	C865.412354,603.121033 866.977356,607.316772 867.872620,611.650757 
	C868.859253,616.426697 869.230896,621.329773 869.870728,627.047363 
	C870.132629,632.318115 870.394104,636.718872 870.655518,641.119690 
	C870.793518,644.777649 870.931519,648.435669 871.040161,653.000916 
	C871.053284,657.605042 871.095764,661.301941 871.138245,664.998779 
z" />
  <path fill="#0A1D30" d="
M733.654358,599.077271 
	C733.781494,599.957092 733.521545,600.904480 733.073242,602.538208 
	C734.846069,602.628845 736.400452,602.774597 737.955078,602.777649 
	C755.390747,602.812134 772.827759,602.719299 790.261047,602.933533 
	C793.680603,602.975586 795.033691,601.843689 796.335388,598.763306 
	C797.556152,595.874207 800.182190,593.578979 802.511353,590.912598 
	C803.171936,591.174866 803.510925,591.546997 803.975098,592.373901 
	C798.787292,596.730896 796.872986,602.159607 797.229492,608.510132 
	C797.461792,612.648682 797.918640,616.774536 798.203857,621.343262 
	C798.763733,634.185852 799.394653,646.591370 799.748047,658.878540 
	C798.933594,658.484802 798.396729,658.209351 797.670654,657.661865 
	C797.347900,657.213806 797.214478,657.037720 797.081055,656.861572 
	C796.642883,645.785522 796.232483,634.708313 795.751953,623.634094 
	C795.572144,619.488953 794.864746,615.333923 795.056641,611.214111 
	C795.274292,606.540344 793.820374,604.944885 788.924500,605.030090 
	C770.314148,605.354126 751.695984,605.230652 732.628296,605.248901 
	C732.539673,603.197144 732.903503,601.170959 733.654358,599.077271 
z" />
  <path fill="#80CBE6" d="
M798.274841,620.906128 
	C797.918640,616.774536 797.461792,612.648682 797.229492,608.510132 
	C796.872986,602.159607 798.787292,596.730896 804.312317,592.551636 
	C807.886047,591.259338 811.241821,589.404907 814.610657,589.380981 
	C826.320007,589.297791 838.061768,589.482117 849.730225,590.367676 
	C853.580627,590.659912 857.246277,593.386169 861.091431,595.393066 
	C861.186523,595.786682 861.006592,595.991211 860.623291,595.986694 
	C858.257263,595.213623 856.316467,593.981384 854.280884,593.797302 
	C851.882874,593.580383 849.402771,594.271484 846.602295,594.360596 
	C838.218506,594.059509 830.190613,593.966797 822.052612,593.494385 
	C811.165588,590.391235 800.452637,595.437561 800.056274,608.529724 
	C800.001099,610.353394 799.964600,612.177673 799.664490,614.267822 
	C799.031311,616.658020 798.653076,618.782104 798.274841,620.906128 
z" />
  <path fill="#3877A4" d="
M797.224548,691.048096 
	C797.224548,691.048096 797.057800,691.436340 796.639526,691.622803 
	C794.787231,691.675354 793.353210,691.541321 791.919189,691.407349 
	C790.649841,691.203979 789.380432,691.000671 787.479858,690.590515 
	C786.225891,690.296021 785.603027,690.208435 784.980225,690.120789 
	C784.353882,689.989258 783.727478,689.857727 782.580261,689.537109 
	C781.697754,689.288330 781.336182,689.228577 780.974548,689.168823 
	C780.552307,689.084778 780.130005,689.000610 779.096191,688.676636 
	C770.646118,686.665955 762.807556,684.895142 754.968994,683.124390 
	C754.551697,683.040283 754.134460,682.956177 753.113281,682.627930 
	C748.997192,681.627319 745.485046,680.870911 741.972900,680.114502 
	C741.972900,680.114502 741.550049,679.968262 741.079651,679.728516 
	C739.732239,679.358704 738.855225,679.228760 737.978210,679.098755 
	C737.611145,679.009644 737.244080,678.920471 736.356812,678.606934 
	C735.217224,678.238098 734.597717,678.093689 733.978271,677.949341 
	C733.978271,677.949341 733.730164,677.807861 733.474060,677.544739 
	C733.091248,676.924744 732.964539,676.567932 733.261658,676.147278 
	C734.994263,676.193665 736.344360,676.134827 737.604736,676.442932 
	C743.336792,677.843994 749.028503,679.411377 754.765991,680.788330 
	C757.557129,681.458130 760.188843,681.458557 760.660522,677.670837 
	C769.438721,681.483337 778.035461,684.234253 787.846069,682.058960 
	C791.314270,682.566650 794.347656,682.941589 797.292358,683.734497 
	C797.210754,686.450989 797.217651,688.749573 797.224548,691.048096 
z" />
  <path fill="#93A3AB" d="
M800.159668,688.909485 
	C809.899475,689.592346 819.669128,691.105591 829.372131,690.758301 
	C843.023376,690.269592 856.902466,690.645447 870.494934,685.937500 
	C868.927795,687.886597 867.189148,691.195374 864.971252,691.555847 
	C846.048828,694.631531 827.007751,696.626099 807.832092,693.995972 
	C805.270691,693.644653 802.830627,692.408386 800.118896,690.939697 
	C799.988770,689.834839 800.074219,689.372131 800.159668,688.909485 
z" />
  <path fill="#0A1D30" d="
M800.069458,688.505371 
	C800.074219,689.372131 799.988770,689.834839 799.880554,690.652344 
	C799.198547,691.017700 798.539307,691.028198 797.552368,691.043396 
	C797.217651,688.749573 797.210754,686.450989 797.574951,683.403198 
	C797.834106,679.146301 797.722107,675.638611 797.715149,671.849121 
	C797.901611,671.383972 797.983032,671.200745 798.357788,671.014038 
	C799.236450,670.979797 799.821777,670.949036 800.534485,671.356873 
	C801.179199,674.604370 801.696594,677.413208 802.461182,680.378418 
	C803.475952,680.586609 804.243591,680.638489 805.011169,680.690430 
	C824.461426,683.172546 843.849670,682.631287 863.188538,679.520630 
	C864.827637,679.256958 866.486389,679.115906 868.570251,678.947693 
	C867.700562,679.739258 866.396667,680.500916 865.027649,681.601929 
	C858.103577,682.888977 851.256897,684.515015 844.383118,684.638428 
	C831.414246,684.871338 818.428223,684.294006 805.452881,683.927002 
	C802.311890,683.838257 799.578125,683.777710 800.069458,688.505371 
z" />
  <path fill="#21ACE8" d="
M730.212402,667.911804 
	C730.230652,667.198853 730.248840,666.485840 730.531372,665.185303 
	C731.174133,663.332336 731.552551,662.066956 732.334717,660.757812 
	C733.797546,660.902222 734.856689,661.090332 735.970581,661.562134 
	C736.705200,661.811829 737.385193,661.777771 738.427612,661.736877 
	C739.492676,661.892517 740.195251,662.055054 740.950439,662.504211 
	C741.692505,662.778259 742.382019,662.765625 743.460815,662.751648 
	C744.867310,662.931763 745.884399,663.113281 746.964539,663.575562 
	C747.707581,663.800537 748.387573,663.744812 749.477173,663.689331 
	C752.908081,664.092773 755.929321,664.495972 758.989929,665.285339 
	C759.036926,666.444763 759.044617,667.218079 758.802734,668.174683 
	C758.735718,669.232361 758.918274,670.106689 759.152954,671.378235 
	C759.282104,672.839966 759.359192,673.904541 758.964233,674.991150 
	C749.642151,673.065369 740.792053,671.117554 731.829407,668.913086 
	C731.407593,668.470032 731.098389,668.283752 730.658203,668.009949 
	C730.527283,667.922424 730.212402,667.911804 730.212402,667.911804 
z" />
  <path fill="#93A3AB" d="
M753.803101,702.894470 
	C757.958923,699.513489 762.676514,696.667664 764.096924,690.837219 
	C764.251038,690.204773 766.552368,690.095398 768.971680,689.443054 
	C767.913818,691.579712 767.470642,692.716309 766.831360,693.729126 
	C758.958191,706.203613 750.871460,718.549072 743.279114,731.191650 
	C741.119873,734.787048 738.979736,736.798157 734.405884,735.536560 
	C740.614868,725.911194 747.261841,716.742065 753.630493,707.383606 
	C754.239990,706.487976 758.287964,704.466736 753.803101,702.894470 
z" />
  <path fill="#E3AA4C" d="
M746.901550,663.294800 
	C745.884399,663.113281 744.867310,662.931763 743.275269,662.497620 
	C742.099548,662.235840 741.498657,662.226685 740.897827,662.217529 
	C740.195251,662.055054 739.492676,661.892517 738.235352,661.497437 
	C737.092346,661.269287 736.504089,661.273804 735.915894,661.278381 
	C734.856689,661.090332 733.797546,660.902222 732.061523,660.638184 
	C730.987427,660.521484 730.590271,660.480713 730.193054,660.439941 
	C729.925537,656.672485 729.658020,652.905029 729.812378,648.702515 
	C736.844604,649.095764 743.455078,649.924011 750.427002,650.901917 
	C751.826538,651.075867 752.864563,651.100159 754.171631,651.388367 
	C755.949219,651.787903 757.457825,651.923523 759.030823,652.514587 
	C759.046997,656.946411 758.998779,660.922791 758.950623,664.899170 
	C755.929321,664.495972 752.908081,664.092773 749.273804,663.462280 
	C748.074402,663.254944 747.487976,663.274841 746.901550,663.294800 
M756.401306,654.960083 
	C749.243713,653.962585 742.098389,652.851868 734.916565,652.079346 
	C733.723267,651.950989 732.371399,653.297119 731.092773,653.961914 
	C732.149353,655.278870 733.015869,657.490479 734.294495,657.762085 
	C740.740906,659.131531 747.272827,660.174377 753.818359,660.975647 
	C758.416199,661.538513 759.000000,659.158569 756.401306,654.960083 
z" />
  <path fill="#E69440" d="
M821.973450,701.937256 
	C824.964355,701.930664 827.479065,702.109863 829.953064,701.869202 
	C833.373047,701.536621 835.229309,702.950500 836.029785,706.626709 
	C822.654358,706.626709 809.509277,706.626709 796.250244,706.626709 
	C796.919495,703.018066 798.883301,701.688599 802.507812,701.835999 
	C808.822449,702.092834 815.154419,701.925354 821.973450,701.937256 
z" />
  <path fill="#93A3AB" d="
M866.067688,735.855286 
	C861.260681,737.062927 858.546570,734.747498 856.205933,730.736267 
	C851.837585,723.250000 847.032104,716.018860 842.083313,708.165466 
	C844.102234,708.055786 845.644470,707.971985 847.612549,708.264526 
	C851.571472,714.155762 855.054077,719.703918 858.655518,725.173828 
	C861.038025,728.792358 863.591003,732.298706 866.067688,735.855286 
z" />
  <path fill="#3A99C5" d="
M750.065491,650.752258 
	C743.455078,649.924011 736.844604,649.095764 729.850952,648.292664 
	C729.369446,645.194641 729.271118,642.071472 729.300293,638.127380 
	C729.690247,630.183167 729.952637,623.059875 730.215088,615.936584 
	C730.407288,615.202637 730.599487,614.468628 730.920898,613.375122 
	C731.855591,613.663452 732.660950,614.311340 733.827515,615.460571 
	C734.097778,623.643677 734.006897,631.325439 733.522827,639.020081 
	C732.428345,640.422913 731.307312,641.777588 731.186340,643.216370 
	C731.116089,644.052795 732.491150,645.518677 733.492920,645.841675 
	C736.463745,646.799438 739.607300,647.207275 742.615784,648.066589 
	C745.148132,648.789917 747.585876,649.844360 750.065491,650.752258 
z" />
  <path fill="#AFD5E3" d="
M753.525818,703.073120 
	C758.287964,704.466736 754.239990,706.487976 753.630493,707.383606 
	C747.261841,716.742065 740.614868,725.911194 733.986206,735.466125 
	C732.335083,735.882263 730.742798,735.965088 727.907654,736.112549 
	C736.805847,724.573853 745.027222,713.912842 753.525818,703.073120 
z" />
  <path fill="#AFD5E3" d="
M866.463562,735.910400 
	C863.591003,732.298706 861.038025,728.792358 858.655518,725.173828 
	C855.054077,719.703918 851.571472,714.155762 848.007935,708.278076 
	C849.062744,708.299500 850.565796,708.353943 851.169128,709.118469 
	C857.910095,717.660706 864.512268,726.312439 871.690369,735.633972 
	C869.551270,735.780823 868.205383,735.873169 866.463562,735.910400 
z" />
  <path fill="#3D1C0D" d="
M752.343506,728.416870 
	C784.034790,728.115784 816.041565,728.077881 848.504272,728.135620 
	C847.700928,728.489685 846.441956,728.972168 845.182312,728.973694 
	C815.156982,729.010986 785.131592,728.999023 755.106201,728.978638 
	C754.290405,728.978088 753.474792,728.783875 752.343506,728.416870 
z" />
  <path fill="#3F5667" d="
M785.372437,694.404541 
	C786.984558,697.280701 785.044861,703.602905 782.234314,704.669312 
	C777.888977,706.318054 776.706055,702.783203 775.545959,699.916443 
	C774.598999,697.576599 774.236206,695.000305 773.614380,692.528870 
	C774.125061,692.372009 774.635803,692.215088 775.146484,692.058228 
	C775.534485,693.100281 775.779541,694.228271 776.342896,695.164856 
	C777.255066,696.681458 778.376343,698.072327 779.409302,699.516296 
	C780.796509,698.518738 782.233154,697.581238 783.549133,696.497253 
	C784.168701,695.986938 784.556274,695.194885 785.372437,694.404541 
z" />
  <path fill="#3F5667" d="
M749.085205,688.961792 
	C749.756653,688.070007 750.260620,687.510193 750.764587,686.950378 
	C751.308350,687.177673 751.852112,687.404907 752.395874,687.632141 
	C751.306396,690.425110 750.432739,693.339294 748.978821,695.927612 
	C748.605408,696.592285 745.985413,696.835510 745.111328,696.234436 
	C741.091797,693.470154 740.070862,689.252747 739.933838,684.132080 
	C743.440369,685.795898 741.269226,696.453369 749.085205,688.961792 
z" />
  <path fill="#3F5667" d="
M837.911987,698.485596 
	C841.288025,698.314636 844.378418,698.314636 847.468872,698.314636 
	C847.731384,698.640625 847.993958,698.966553 848.256470,699.292542 
	C846.624634,700.803711 844.536072,703.833618 843.456238,703.508911 
	C841.228149,702.838867 839.537964,700.379700 837.911987,698.485596 
z" />
  <path fill="#E69440" d="
M764.965698,706.753540 
	C764.947571,705.348999 765.101929,702.864136 765.706482,702.749207 
	C767.624756,702.384827 769.808228,702.603271 771.690735,703.210938 
	C772.622375,703.511658 773.119202,705.159302 774.187012,706.757812 
	C770.785461,706.757812 768.064880,706.757812 764.965698,706.753540 
z" />
  <path fill="#0A1D30" d="
M755.159729,683.427124 
	C762.807556,684.895142 770.646118,686.665955 778.772827,688.672852 
	C778.680054,689.212158 778.213257,689.844482 777.930847,689.770691 
	C770.392456,687.801392 762.873108,685.759460 755.159729,683.427124 
z" />
  <path fill="#3F5667" d="
M794.045410,700.883179 
	C792.399841,702.692200 790.911926,704.150146 789.424011,705.608093 
	C788.926208,705.200317 788.428345,704.792603 787.930542,704.384888 
	C788.582397,702.632202 788.983154,700.719666 789.965515,699.177429 
	C790.752808,697.941406 792.246094,697.155151 793.426147,696.169312 
	C793.685120,697.623535 793.944153,699.077759 794.045410,700.883179 
z" />
  <path fill="#3F5667" d="
M754.463745,692.220215 
	C755.109009,688.909119 755.974976,686.617065 760.429565,689.802307 
	C758.513000,692.364502 756.665588,694.834229 754.818237,697.303894 
	C754.342224,697.036926 753.866272,696.770020 753.390320,696.503052 
	C753.702332,695.193420 754.014343,693.883850 754.463745,692.220215 
z" />
  <path fill="#3F5667" d="
M851.889404,697.886658 
	C853.654053,697.419617 855.153442,697.248352 856.652771,697.077026 
	C856.908569,697.534851 857.164307,697.992676 857.420044,698.450500 
	C855.773560,700.135864 854.127014,701.821228 852.480530,703.506592 
	C851.982910,703.212952 851.485229,702.919312 850.987610,702.625671 
	C851.199829,701.144592 851.411987,699.663513 851.889404,697.886658 
z" />
  <path fill="#0A1D30" d="
M871.005127,640.859741 
	C870.394104,636.718872 870.132629,632.318115 869.942078,627.458923 
	C870.663940,628.450989 871.801025,629.880676 871.864319,631.356262 
	C871.995789,634.424561 871.558411,637.517151 871.005127,640.859741 
z" />
  <path fill="#0A1D30" d="
M729.917480,616.144836 
	C729.952637,623.059875 729.690247,630.183167 729.246094,637.672119 
	C729.249512,630.809509 729.434692,623.581299 729.917480,616.144836 
z" />
  <path fill="#0A1D30" d="
M742.161499,680.417114 
	C745.485046,680.870911 748.997192,681.627319 752.793335,682.623047 
	C748.854919,685.385437 745.899170,681.567505 742.161499,680.417114 
z" />
  <path fill="#0A1D30" d="
M871.402832,664.691406 
	C871.095764,661.301941 871.053284,657.605042 871.107300,653.456177 
	C871.358337,656.797485 871.512878,660.590820 871.402832,664.691406 
z" />
  <path fill="#0A1D30" d="
M729.924072,668.119507 
	C730.212402,667.911804 730.527283,667.922424 730.628845,668.408447 
	C731.116882,670.647644 731.503357,672.400757 731.910767,674.381348 
	C731.931702,674.608704 732.107117,675.030334 732.062988,675.273193 
	C732.018921,675.516052 731.989319,676.008850 731.937805,676.056641 
	C731.886292,676.104492 731.779785,676.196106 731.779785,676.196106 
	C731.065125,673.573181 730.350403,670.950195 729.924072,668.119507 
z" />
  <path fill="#0A1D30" d="
M792.041748,691.718994 
	C793.353210,691.541321 794.787231,691.675354 796.585205,691.827026 
	C795.354187,691.906677 793.759277,691.968689 792.041748,691.718994 
z" />
  <path fill="#0A1D30" d="
M869.907959,678.748413 
	C869.880432,677.404663 870.198181,675.979187 870.712097,674.251709 
	C870.689880,675.522095 870.471497,677.094421 869.907959,678.748413 
z" />
  <path fill="#3877A4" d="
M730.097107,660.581970 
	C730.590271,660.480713 730.987427,660.521484 731.657837,660.681885 
	C731.552551,662.066956 731.174133,663.332336 730.562866,664.829712 
	C730.218506,664.896179 730.106934,664.730713 729.974731,663.910278 
	C729.896484,662.499207 729.838867,661.742981 729.781311,660.986755 
	C729.781311,660.986755 730.001160,660.723938 730.097107,660.581970 
z" />
  <path fill="#0A1D30" d="
M731.910645,605.194763 
	C731.989807,605.955933 731.752136,606.764160 731.300049,607.805115 
	C731.255066,607.105835 731.424500,606.173767 731.910645,605.194763 
z" />
  <path fill="#3A99C5" d="
M861.973633,596.048889 
	C862.655823,596.780823 863.338013,597.512817 864.081421,598.554565 
	C864.142639,598.864380 864.005554,598.994507 863.641663,598.965454 
	C862.844177,598.300415 862.410583,597.664490 861.964417,596.783630 
	C861.951843,596.538757 861.973633,596.048889 861.973633,596.048889 
z" />
  <path fill="#0A1D30" d="
M729.577271,661.193604 
	C729.838867,661.742981 729.896484,662.499207 729.873413,663.628662 
	C729.652954,663.134705 729.513123,662.267639 729.577271,661.193604 
z" />
  <path fill="#0A1D30" d="
M738.207642,679.349609 
	C738.855225,679.228760 739.732239,679.358704 740.856079,679.719543 
	C740.214355,679.833679 739.325745,679.717041 738.207642,679.349609 
z" />
  <path fill="#0A1D30" d="
M732.837830,676.211060 
	C732.964539,676.567932 733.091248,676.924744 733.331299,677.545532 
	C732.960693,677.469971 732.476746,677.130554 731.886292,676.493652 
	C731.779785,676.196106 731.886292,676.104492 732.160461,676.119263 
	C732.434631,676.134033 732.895996,676.165344 732.878418,676.171631 
	C732.860901,676.177856 732.837830,676.211060 732.837830,676.211060 
z" />
  <path fill="#0A1D30" d="
M734.174683,678.224060 
	C734.597717,678.093689 735.217224,678.238098 736.072876,678.606567 
	C735.663086,678.720093 735.017090,678.609436 734.174683,678.224060 
z" />
  <path fill="#0A1D30" d="
M785.199036,690.364868 
	C785.603027,690.208435 786.225891,690.296021 787.092407,690.597778 
	C786.696655,690.744202 786.057251,690.676575 785.199036,690.364868 
z" />
  <path fill="#0A1D30" d="
M781.166870,689.376709 
	C781.336182,689.228577 781.697754,689.288330 782.259521,689.548950 
	C782.092773,689.694763 781.725952,689.639709 781.166870,689.376709 
z" />
  <path fill="#0A1D30" d="
M730.641357,611.073730 
	C730.835266,611.159851 730.879456,611.334045 730.817017,611.755981 
	C730.583008,611.824524 730.433228,611.655945 730.341492,611.460083 
	C730.312317,611.397827 730.437317,611.263245 730.641357,611.073730 
z" />
  <path fill="#80CBE6" d="
M861.855225,595.885925 
	C861.973633,596.048889 861.951843,596.538757 861.747925,596.666870 
	C861.265869,596.593262 861.086731,596.325378 861.006592,595.991211 
	C861.006592,595.991211 861.186523,595.786682 861.274231,595.681152 
	C861.361938,595.575684 861.736877,595.722961 861.855225,595.885925 
z" />
  <path fill="#111313" d="
M758.989929,665.285339 
	C758.998779,660.922791 759.046997,656.946411 759.080383,652.158325 
	C758.991882,650.877686 758.918213,650.408752 758.929321,649.614075 
	C758.958374,648.845825 758.902588,648.403442 758.959717,647.507446 
	C759.093811,637.697998 759.114990,628.342041 759.215027,618.632507 
	C759.531372,616.856812 759.768860,615.434814 760.006287,614.012756 
	C762.390442,613.089844 764.717163,611.626465 767.171692,611.365601 
	C771.272888,610.929565 775.457397,611.190857 779.603882,611.287354 
	C786.072754,611.437927 787.986023,613.087036 788.127075,619.616760 
	C788.349121,629.899231 788.180298,640.190125 788.182800,650.477417 
	C788.183105,651.638672 788.221130,652.799988 788.238586,654.892578 
	C788.309692,661.020081 788.383850,666.216248 788.353149,671.815796 
	C787.969299,675.454834 787.690247,678.690552 787.411255,681.926208 
	C778.035461,684.234253 769.438721,681.483337 760.630737,677.401672 
	C760.001709,676.288391 759.718994,675.628784 759.436279,674.969116 
	C759.359192,673.904541 759.282104,672.839966 759.255249,671.010376 
	C759.221069,669.494019 759.136658,668.742676 759.052307,667.991333 
	C759.044617,667.218079 759.036926,666.444763 758.989929,665.285339 
M785.735596,664.392822 
	C785.678711,663.866333 785.621826,663.339783 785.780884,661.939087 
	C785.656372,657.712219 785.531921,653.485352 785.631042,648.418335 
	C785.543396,647.272278 785.455750,646.126282 785.603821,644.076538 
	C785.552673,635.828735 785.664001,627.574036 785.316101,619.338745 
	C785.244690,617.649231 783.701538,614.900940 782.405457,614.618225 
	C779.738037,614.036438 776.779297,614.790405 773.292786,615.001526 
	C772.861084,615.003174 772.429321,615.004761 771.405396,614.454529 
	C769.587952,614.361511 767.771545,614.228088 765.952881,614.184814 
	C763.042480,614.115601 761.737122,615.581177 761.788635,618.485718 
	C761.944702,627.291321 762.038391,636.098083 761.948975,645.842041 
	C761.900574,652.962158 762.181519,660.104431 761.702332,667.195496 
	C761.300476,673.142822 762.440491,677.509033 769.636597,678.881287 
	C770.355713,678.540710 771.074829,678.200134 772.521057,677.930115 
	C773.008118,677.945740 773.495117,677.961365 774.219238,678.347595 
	C774.390564,678.637451 774.640686,678.747253 775.701050,679.068237 
	C778.477051,679.467651 781.253052,679.867126 784.654114,680.173157 
	C784.816528,679.803711 784.978882,679.434326 785.517395,678.335938 
	C785.508179,674.169067 785.498962,670.002136 785.645691,665.501221 
	C785.645691,665.501221 785.506592,665.159790 785.735596,664.392822 
z" />
  <path fill="#0A1D30" d="
M733.916016,639.007202 
	C734.006897,631.325439 734.097778,623.643677 734.146240,615.497681 
	C739.405273,611.125610 749.860107,611.424011 754.245239,616.317993 
	C754.458557,624.450439 754.422180,631.866089 754.239258,639.545654 
	C753.260437,640.972595 752.673523,642.541199 751.549194,643.221008 
	C748.416565,645.115356 736.543884,642.109375 733.916016,639.007202 
M747.161743,615.319336 
	C746.128479,615.330627 745.095215,615.341980 743.218750,615.143738 
	C738.280640,614.280334 735.881958,616.143616 736.355713,621.348877 
	C736.620056,624.253113 736.640259,627.179565 736.546753,630.909851 
	C736.354553,639.828857 736.354553,639.828857 745.686462,640.851807 
	C752.051453,641.021362 752.064636,641.021240 752.006531,634.827393 
	C751.975647,631.535583 751.889648,628.244324 751.971558,624.078003 
	C751.737610,621.769348 751.503723,619.460632 751.109253,616.591370 
	C750.045776,616.227295 748.982300,615.863220 747.161743,615.319336 
z" />
  <path fill="#93A3AB" d="
M788.458008,671.412476 
	C788.383850,666.216248 788.309692,661.020081 788.316223,655.346069 
	C791.070312,655.545898 793.743713,656.223572 796.749084,656.881348 
	C797.214478,657.037720 797.347900,657.213806 797.620483,658.094971 
	C797.734436,661.332825 797.709351,663.865540 797.517578,666.123779 
	C796.775024,663.763123 796.756165,661.148315 795.441589,659.763184 
	C794.447388,658.715576 790.384338,658.611328 790.135620,659.172485 
	C789.156982,661.380493 788.765320,664.048035 788.958679,666.481079 
	C789.039673,667.500061 791.000000,668.815735 792.328674,669.176880 
	C794.004944,669.632446 795.908875,669.250183 797.783691,669.525391 
	C797.923340,670.220154 797.993896,670.618835 798.064514,671.017517 
	C797.983032,671.200745 797.901611,671.383972 797.335938,671.804932 
	C794.053772,671.832581 791.255920,671.622498 788.458008,671.412476 
z" />
  <path fill="#46B1DD" d="
M754.385742,639.281738 
	C754.422180,631.866089 754.458557,624.450439 754.458130,616.573425 
	C756.035461,615.452148 757.649597,614.792236 759.635010,614.072510 
	C759.768860,615.434814 759.531372,616.856812 758.900024,618.913574 
	C758.334045,625.358215 758.161804,631.168091 757.725769,636.752136 
	C757.170715,635.319214 756.879517,634.112183 756.660339,633.203491 
	C755.918152,635.186707 755.151978,637.234192 754.385742,639.281738 
M756.979675,628.069885 
	C756.891968,627.362061 756.804260,626.654175 756.716614,625.946350 
	C756.449097,626.026123 756.181641,626.105896 755.914185,626.185669 
	C756.244324,627.006653 756.574524,627.827698 756.979675,628.069885 
z" />
  <path fill="#0A1D30" d="
M863.721313,609.399902 
	C866.854919,620.795837 867.629150,632.349365 865.968079,644.486328 
	C865.899902,644.911743 865.921204,644.872681 865.675354,644.974976 
	C865.271118,645.385742 865.112671,645.694336 864.720276,646.128296 
	C863.949097,646.710632 863.411865,647.167480 862.470337,647.689819 
	C858.799377,648.318909 855.542236,649.295898 852.264221,649.372131 
	C840.171631,649.653259 828.066956,649.872314 815.977600,649.614319 
	C811.191650,649.512268 806.494812,647.695435 805.907104,641.879639 
	C805.023743,633.137817 804.322876,624.361206 804.022644,615.583008 
	C803.840576,610.259094 806.542297,607.775635 811.908325,607.272766 
	C816.032166,606.886292 820.173279,606.685120 824.748962,606.419678 
	C832.066711,606.376038 838.942261,606.314209 846.233398,606.302917 
	C849.110779,606.485596 851.572632,606.617859 854.452515,606.856750 
	C856.604065,607.083069 858.337585,607.202759 860.164551,607.356689 
	C860.257996,607.390808 860.413940,607.267334 860.637878,607.516724 
	C861.488464,607.968750 862.115173,608.171326 862.798828,608.251831 
	C862.855774,608.129761 862.690247,608.342407 862.780029,608.580322 
	C863.161560,608.975037 863.453308,609.131836 863.738403,609.316345 
	C863.731812,609.343994 863.721313,609.399902 863.721313,609.399902 
M846.277039,609.307068 
	C844.825684,609.355347 843.374390,609.403564 841.021790,609.298828 
	C836.341064,609.487854 831.660278,609.676880 826.073120,609.618530 
	C821.450562,609.758118 816.768494,609.513855 812.233093,610.216187 
	C810.271912,610.519897 807.011475,612.854126 807.072510,614.136108 
	C807.531555,623.786255 808.671387,633.404053 809.912598,643.736328 
	C812.418701,644.738892 814.893616,646.504211 817.436462,646.608215 
	C826.938416,646.996704 836.462708,646.841187 846.833252,647.040649 
	C850.629272,646.578613 854.418762,646.050293 858.223022,645.671326 
	C863.013733,645.194031 864.790771,642.579712 864.365295,637.899536 
	C863.792664,631.601807 863.488403,625.280090 863.030579,618.971436 
	C862.414429,610.481995 861.538330,609.708374 852.312988,609.735107 
	C850.574036,609.696045 848.835083,609.656982 846.277039,609.307068 
z" />
  <path fill="#21ACE8" d="
M862.874634,647.624268 
	C863.411865,647.167480 863.949097,646.710632 864.965210,646.022827 
	C865.603088,645.485413 865.762146,645.179016 865.921143,644.872681 
	C865.921204,644.872681 865.899902,644.911743 865.886414,644.891357 
	C870.892334,644.914917 868.745117,649.109985 869.323303,651.405579 
	C869.879333,653.612793 868.388489,655.389771 865.236694,655.175415 
	C864.854675,655.245605 864.886963,655.235901 864.744873,654.902771 
	C861.909912,652.500427 859.373596,652.369202 857.068115,655.127014 
	C857.061584,655.076233 857.145630,655.134766 856.812256,655.109985 
	C856.116089,655.533997 855.753296,655.982910 855.278809,656.311035 
	C855.167053,656.190308 855.431763,656.385803 855.096375,656.400146 
	C854.582031,657.006409 854.403015,657.598389 854.158875,658.097839 
	C854.093750,658.005371 854.256897,658.162048 853.892578,658.258179 
	C852.026001,660.733826 850.376648,662.410095 847.058838,662.297058 
	C842.503479,662.142029 837.843933,663.354736 833.376709,662.797607 
	C829.192078,662.275757 824.168152,663.297363 820.984985,658.682495 
	C820.676208,658.222717 820.442627,658.014465 820.106750,657.571899 
	C819.704468,656.849121 819.361938,656.408569 819.016113,655.548950 
	C819.927185,654.091553 820.707458,652.369141 821.784180,652.157776 
	C824.006653,651.721680 826.441711,651.783325 828.693604,652.181458 
	C839.825623,654.149536 850.599915,651.520264 861.437927,649.785950 
	C862.017273,649.693176 862.400208,648.373047 862.874634,647.624268 
z" />
  <path fill="#21ACE8" d="
M805.350159,680.459473 
	C804.243591,680.638489 803.475952,680.586609 802.414917,679.899719 
	C802.120605,675.494385 802.119751,671.724060 802.370178,667.702576 
	C802.456116,665.652161 802.290710,663.852905 802.103455,661.672852 
	C802.114685,660.530945 802.147827,659.769897 802.565063,659.006958 
	C803.982483,659.009338 805.015625,659.013550 806.030640,659.387329 
	C805.960876,660.495483 805.909424,661.234131 805.637085,662.177124 
	C805.576477,663.247009 805.736694,664.112488 805.924805,665.364197 
	C805.908813,669.967834 808.784241,672.216309 812.190857,672.658752 
	C814.299561,672.932617 816.707336,670.902954 819.086182,669.702393 
	C819.392395,669.249023 819.648376,669.088196 820.338379,669.021790 
	C822.473389,669.690735 824.229248,670.352783 825.992554,671.007446 
	C826.000000,671.000000 825.983948,671.012695 825.991211,671.325195 
	C826.396301,672.058105 826.794128,672.478638 827.145325,672.908081 
	C827.098755,672.917053 827.120667,672.824829 827.175415,673.093201 
	C827.527771,673.549927 827.825378,673.738220 828.079163,673.945801 
	C828.035278,673.965027 828.073975,673.877380 828.150146,674.136963 
	C828.528931,674.570068 828.831604,674.743591 829.089355,674.934937 
	C829.044434,674.952820 829.080688,674.863220 829.166931,675.128418 
	C829.582886,675.526123 829.912537,675.658752 830.187805,675.808105 
	C830.133362,675.824829 830.167786,675.716248 830.267090,676.035034 
	C830.976318,676.493225 831.586243,676.632568 832.213623,676.763245 
	C832.231140,676.754578 832.260681,676.728210 832.260681,676.728210 
	C833.264160,679.502502 831.970947,680.081970 829.425232,680.067749 
	C821.513733,680.023376 813.601257,680.161316 805.350159,680.459473 
z" />
  <path fill="#0A1017" d="
M844.966675,675.953491 
	C841.023010,676.225708 837.079285,676.497925 832.698120,676.749146 
	C832.260681,676.728210 832.231140,676.754578 832.045654,676.513428 
	C831.296082,676.086853 830.731934,675.901550 830.167786,675.716248 
	C830.167786,675.716248 830.133362,675.824829 830.079224,675.565308 
	C829.710327,675.158264 829.395508,675.010742 829.080688,674.863220 
	C829.080688,674.863220 829.044434,674.952820 829.009644,674.678467 
	C828.674561,674.228577 828.374268,674.052979 828.073975,673.877380 
	C828.073975,673.877380 828.035278,673.965027 828.006592,673.687988 
	C827.692139,673.215637 827.406433,673.020203 827.120667,672.824829 
	C827.120667,672.824829 827.098755,672.917053 827.101379,672.616272 
	C826.730652,671.881226 826.357300,671.446960 825.983948,671.012695 
	C825.983948,671.012695 826.000000,671.000000 825.960205,670.613525 
	C825.400146,667.561401 822.969543,664.063110 828.585999,664.057129 
	C835.743164,664.049438 842.900391,664.055298 850.676086,664.055298 
	C850.413025,666.169861 850.118835,668.534180 849.891968,670.938843 
	C849.959229,670.979126 849.853821,670.862976 849.598755,671.018433 
	C849.125000,671.717834 848.906250,672.261719 848.744019,672.824829 
	C848.800537,672.844177 848.760986,672.731445 848.513062,672.828125 
	C848.109558,673.234070 847.954041,673.543335 847.859192,673.886963 
	C847.919922,673.921265 847.847412,673.801941 847.589233,673.876221 
	C847.147095,674.244873 846.963135,674.539246 846.830994,674.846191 
	C846.882812,674.858826 846.851501,674.756836 846.559082,674.803101 
	C845.828796,675.221375 845.390991,675.593384 844.963928,675.976318 
	C844.974670,675.987244 844.966675,675.953491 844.966675,675.953491 
M838.436523,675.146057 
	C840.111694,674.536072 841.786865,673.926147 843.889160,673.160645 
	C838.661499,668.410828 834.165588,667.786743 827.935791,671.495850 
	C831.830017,672.968994 834.714783,674.060364 838.436523,675.146057 
z" />
  <path fill="#2FA5DE" d="
M854.034485,606.750122 
	C851.572632,606.617859 849.110779,606.485596 846.250732,605.831665 
	C845.750610,604.693237 845.648621,604.076416 845.734741,603.176270 
	C848.689697,600.419434 850.237732,597.794373 846.958252,594.568848 
	C849.402771,594.271484 851.882874,593.580383 854.280884,593.797302 
	C856.316467,593.981384 858.257263,595.213623 860.623291,595.986694 
	C861.086731,596.325378 861.265869,596.593262 861.760498,596.911743 
	C862.410583,597.664490 862.844177,598.300415 863.573120,599.030457 
	C864.478210,600.923767 865.430725,602.693481 865.589417,604.531738 
	C865.716614,606.005981 864.880859,607.563354 864.096924,609.241821 
	C863.721313,609.399902 863.731812,609.343994 863.704468,609.032959 
	C863.348145,608.595459 863.019165,608.468933 862.690247,608.342407 
	C862.690247,608.342407 862.855774,608.129761 862.689697,607.891724 
	C861.820374,607.524902 861.117188,607.396118 860.413940,607.267334 
	C860.413940,607.267334 860.257996,607.390808 859.957886,607.030579 
	C857.783325,606.696899 855.908936,606.723511 854.034485,606.750122 
z" />
  <path fill="#21ACE8" d="
M859.206421,669.782593 
	C860.839539,670.118896 862.587280,670.988953 864.079346,670.668518 
	C866.415588,670.166809 868.828918,669.522644 868.760376,672.672424 
	C868.721985,674.435547 866.941711,677.385925 865.510742,677.679565 
	C859.599792,678.892761 853.524048,679.309082 847.505493,679.988953 
	C844.923584,680.280640 843.632507,679.485962 844.949585,676.327637 
	C844.966675,675.953491 844.974670,675.987244 845.284302,675.982605 
	C846.013123,675.570923 846.432312,675.163879 846.851501,674.756836 
	C846.851501,674.756836 846.882812,674.858826 847.108398,674.799927 
	C847.505188,674.427979 847.676331,674.114990 847.847412,673.801941 
	C847.847412,673.801941 847.919922,673.921265 848.136047,673.823608 
	C848.488403,673.394409 848.624695,673.062927 848.760986,672.731445 
	C848.760986,672.731445 848.800537,672.844177 849.065796,672.744995 
	C849.505371,672.051575 849.679626,671.457275 849.853882,670.862976 
	C849.853821,670.862976 849.959229,670.979126 850.224182,670.846069 
	C851.149231,669.644287 851.809326,668.575684 851.789673,668.607544 
	C855.214661,669.172058 857.187439,669.497253 859.173950,669.815552 
	C859.187683,669.808594 859.206421,669.782532 859.206421,669.782593 
z" />
  <path fill="#061422" d="
M864.846863,655.262207 
	C867.780396,658.032043 869.419800,661.656067 867.267883,665.053894 
	C865.859558,667.277466 862.462280,668.241516 859.581177,669.776123 
	C859.206421,669.782532 859.187683,669.808594 858.953003,669.548157 
	C853.534546,667.061462 853.778870,662.658630 854.256897,658.162048 
	C854.256897,658.162048 854.093750,658.005371 854.398071,657.947510 
	C854.945557,657.388367 855.188660,656.887085 855.431763,656.385803 
	C855.431763,656.385803 855.167053,656.190308 855.552856,656.239014 
	C856.340942,655.903320 856.743286,655.519043 857.145630,655.134766 
	C857.145630,655.134766 857.061584,655.076233 857.504028,655.092957 
	C860.259949,655.151733 862.573486,655.193787 864.886963,655.235901 
	C864.886963,655.235901 864.854675,655.245605 864.846863,655.262207 
M858.353821,666.515381 
	C860.249512,666.358521 862.145264,666.201660 864.689087,665.711792 
	C866.581970,662.830566 866.781982,659.779236 863.556641,658.153809 
	C861.974304,657.356445 858.794800,657.745361 857.449280,658.896362 
	C855.052795,660.946411 855.215637,663.807556 858.353821,666.515381 
z" />
  <path fill="#70C1DC" d="
M802.118896,667.953735 
	C802.119751,671.724060 802.120605,675.494385 802.167725,679.743408 
	C801.696594,677.413208 801.179199,674.604370 800.629517,670.939026 
	C800.406677,666.387329 800.216125,662.692078 800.025574,658.996826 
	C799.394653,646.591370 798.763733,634.185852 798.203857,621.343262 
	C798.653076,618.782104 799.031311,616.658020 799.700439,614.728882 
	C800.721191,629.618774 801.451050,644.313782 802.180908,659.008789 
	C802.147827,659.769897 802.114685,660.530945 802.061646,662.091492 
	C802.067444,664.578552 802.093140,666.266113 802.118896,667.953735 
z" />
  <path fill="#140E08" d="
M799.748047,658.878540 
	C800.216125,662.692078 800.406677,666.387329 800.502197,670.500427 
	C799.821777,670.949036 799.236450,670.979797 798.357788,671.014038 
	C797.993896,670.618835 797.923340,670.220154 797.840088,669.055176 
	C797.779785,667.658691 797.731995,667.028503 797.684265,666.398254 
	C797.709351,663.865540 797.734436,661.332825 797.809753,658.367004 
	C798.396729,658.209351 798.933594,658.484802 799.748047,658.878540 
z" />
  <path fill="#2FA5DE" d="
M802.565063,659.006958 
	C801.451050,644.313782 800.721191,629.618774 799.955383,614.462708 
	C799.964600,612.177673 800.001099,610.353394 800.056274,608.529724 
	C800.452637,595.437561 811.165588,590.391235 821.880737,593.869385 
	C819.992371,598.343811 820.373840,601.504822 824.131226,604.241882 
	C824.181763,605.250732 824.244263,605.826111 824.306763,606.401611 
	C820.173279,606.685120 816.032166,606.886292 811.908325,607.272766 
	C806.542297,607.775635 803.840576,610.259094 804.022644,615.583008 
	C804.322876,624.361206 805.023743,633.137817 805.907104,641.879639 
	C806.494812,647.695435 811.191650,649.512268 815.977600,649.614319 
	C828.066956,649.872314 840.171631,649.653259 852.264221,649.372131 
	C855.542236,649.295898 858.799377,648.318909 862.470337,647.689819 
	C862.400208,648.373047 862.017273,649.693176 861.437927,649.785950 
	C850.599915,651.520264 839.825623,654.149536 828.693604,652.181458 
	C826.441711,651.783325 824.006653,651.721680 821.784180,652.157776 
	C820.707458,652.369141 819.927185,654.091553 818.718872,655.608765 
	C818.231628,656.145630 818.038147,656.203491 817.850220,656.239624 
	C817.855835,656.217896 817.892456,656.230835 817.753967,655.907227 
	C815.235657,653.604797 813.027222,653.539551 810.865540,656.380005 
	C809.864441,657.095215 809.057922,657.600952 807.974854,658.190430 
	C807.553406,658.612244 807.408508,658.950439 807.298157,659.293152 
	C807.332642,659.297729 807.336487,659.367188 807.021484,659.250671 
	C806.487244,659.095337 806.268005,659.056519 806.048828,659.017761 
	C805.015625,659.013550 803.982483,659.009338 802.565063,659.006958 
z" />
  <path fill="#111313" d="
M824.143188,603.808472 
	C820.373840,601.504822 819.992371,598.343811 821.990967,594.249023 
	C830.190613,593.966797 838.218506,594.059509 846.602295,594.360596 
	C850.237732,597.794373 848.689697,600.419434 845.305176,603.230469 
	C837.839417,603.648071 830.991272,603.728271 824.143188,603.808472 
M834.525330,601.105652 
	C837.348999,601.092834 840.203857,601.316284 842.980713,600.949280 
	C844.070679,600.805054 844.985962,599.338806 845.980835,598.474670 
	C844.986938,597.605957 844.022705,596.029480 842.994202,595.986389 
	C837.359558,595.750122 831.705383,595.788208 826.067871,595.999573 
	C825.117126,596.035217 824.215210,597.375793 823.290771,598.113403 
	C824.223083,599.099365 825.036011,600.742249 826.112000,600.937744 
	C828.525391,601.376282 831.069519,601.095703 834.525330,601.105652 
z" />
  <path fill="#287BBA" d="
M758.964233,674.991150 
	C759.718994,675.628784 760.001709,676.288391 760.314209,677.217224 
	C760.188843,681.458557 757.557129,681.458130 754.765991,680.788330 
	C749.028503,679.411377 743.336792,677.843994 737.604736,676.442932 
	C736.344360,676.134827 734.994263,676.193665 733.261658,676.147278 
	C732.837830,676.211060 732.860901,676.177856 732.834106,675.929016 
	C732.665161,675.365295 732.431702,675.148682 732.107117,675.030334 
	C732.107117,675.030334 731.931702,674.608704 731.943848,673.961365 
	C731.951355,671.932617 731.946655,670.551147 731.942017,669.169800 
	C740.792053,671.117554 749.642151,673.065369 758.964233,674.991150 
z" />
  <path fill="#2FA1D9" d="
M788.353149,671.815796 
	C791.255920,671.622498 794.053772,671.832581 797.230957,672.086792 
	C797.722107,675.638611 797.834106,679.146301 797.663574,682.985229 
	C794.347656,682.941589 791.314270,682.566650 787.846069,682.058960 
	C787.690247,678.690552 787.969299,675.454834 788.353149,671.815796 
z" />
  <path fill="#3877A4" d="
M731.829407,668.913025 
	C731.946655,670.551147 731.951355,671.932617 731.922974,673.734009 
	C731.503357,672.400757 731.116882,670.647644 730.759766,668.495972 
	C731.098389,668.283752 731.407593,668.470032 731.829407,668.913025 
z" />
  <path fill="#3877A4" d="
M740.950439,662.504211 
	C741.498657,662.226685 742.099548,662.235840 742.885986,662.499023 
	C742.382019,662.765625 741.692505,662.778259 740.950439,662.504211 
z" />
  <path fill="#3877A4" d="
M735.970581,661.562134 
	C736.504089,661.273804 737.092346,661.269287 737.872803,661.504272 
	C737.385193,661.777771 736.705200,661.811829 735.970581,661.562134 
z" />
  <path fill="#3877A4" d="
M746.964539,663.575562 
	C747.487976,663.274841 748.074402,663.254944 748.864258,663.462036 
	C748.387573,663.744812 747.707581,663.800537 746.964539,663.575562 
z" />
  <path fill="#3877A4" d="
M758.802734,668.174683 
	C759.136658,668.742676 759.221069,669.494019 759.203125,670.613220 
	C758.918274,670.106689 758.735718,669.232361 758.802734,668.174683 
z" />
  <path fill="#2FA5DE" d="
M754.239197,639.545654 
	C755.151978,637.234192 755.918152,635.186707 756.660339,633.203491 
	C756.879517,634.112183 757.170715,635.319214 757.730591,637.206299 
	C758.281738,641.244629 758.564209,644.602783 758.846741,647.960999 
	C758.902588,648.403442 758.958374,648.845825 758.544922,649.620483 
	C756.684631,650.343262 755.293640,650.733826 753.902588,651.124390 
	C752.864563,651.100159 751.826538,651.075867 750.427002,650.901917 
	C747.585876,649.844360 745.148132,648.789917 742.615784,648.066589 
	C739.607300,647.207275 736.463745,646.799438 733.492920,645.841675 
	C732.491150,645.518677 731.116089,644.052795 731.186340,643.216370 
	C731.307312,641.777588 732.428345,640.422913 733.522827,639.020081 
	C736.543884,642.109375 748.416565,645.115356 751.549194,643.221008 
	C752.673523,642.541199 753.260437,640.972595 754.239197,639.545654 
z" />
  <path fill="#F4942B" d="
M756.699707,655.254883 
	C759.000000,659.158569 758.416199,661.538513 753.818359,660.975647 
	C747.272827,660.174377 740.740906,659.131531 734.294495,657.762085 
	C733.015869,657.490479 732.149353,655.278870 731.092773,653.961914 
	C732.371399,653.297119 733.723267,651.950989 734.916565,652.079346 
	C742.098389,652.851868 749.243713,653.962585 756.699707,655.254883 
z" />
  <path fill="#3A99C5" d="
M754.171631,651.388428 
	C755.293640,650.733826 756.684631,650.343262 758.460083,649.946289 
	C758.918213,650.408752 758.991882,650.877686 759.015991,651.702881 
	C757.457825,651.923523 755.949219,651.787903 754.171631,651.388428 
z" />
  <path fill="#3877A4" d="
M732.062988,675.273193 
	C732.431702,675.148682 732.665161,675.365295 732.851685,675.922729 
	C732.895996,676.165344 732.434631,676.134033 732.211975,676.071411 
	C731.989319,676.008850 732.018921,675.516052 732.062988,675.273193 
z" />
  <path fill="#EA9081" d="
M773.940430,614.994690 
	C776.779297,614.790405 779.738037,614.036438 782.405457,614.618225 
	C783.701538,614.900940 785.244690,617.649231 785.316101,619.338745 
	C785.664001,627.574036 785.552673,635.828735 785.169128,644.531616 
	C784.101746,644.941467 783.469055,644.896301 782.958130,644.459229 
	C783.315369,636.306580 783.701477,628.544312 783.625366,620.786499 
	C783.613831,619.608521 781.558289,617.672302 780.263794,617.503967 
	C778.967285,617.335266 776.203369,618.943604 776.204590,619.769836 
	C776.217041,628.161804 776.663940,636.553040 776.665833,644.953247 
	C775.911804,644.978210 775.480957,644.994385 774.911377,644.978516 
	C774.772583,644.946411 774.491455,644.992432 774.431885,644.529297 
	C774.228333,634.375610 774.084412,624.685181 773.940430,614.994690 
z" />
  <path fill="#EA9081" d="
M771.794006,677.859619 
	C771.074829,678.200134 770.355713,678.540710 769.331116,678.507202 
	C769.020691,677.731812 769.015747,677.330444 769.324097,676.903809 
	C770.054138,676.248352 770.470886,675.618164 770.927002,674.521606 
	C770.974548,667.318726 771.110535,660.578918 770.937500,653.847168 
	C770.850586,650.464905 770.201721,647.097107 769.880310,643.278137 
	C769.983948,635.533386 770.147827,628.229248 769.923828,620.936951 
	C769.882629,619.595947 768.268616,618.303223 767.380615,616.988281 
	C766.018188,618.136841 763.499390,619.266357 763.480103,620.437073 
	C763.349731,628.347412 763.748291,636.266357 763.806091,644.378418 
	C763.143127,644.684326 762.649780,644.794373 762.156433,644.904358 
	C762.038391,636.098083 761.944702,627.291321 761.788635,618.485718 
	C761.737122,615.581177 763.042480,614.115601 765.952881,614.184814 
	C767.771545,614.228088 769.587952,614.361511 771.646545,615.195862 
	C771.856445,636.578003 771.825195,657.218811 771.794006,677.859619 
z" />
  <path fill="#3D1C0D" d="
M772.157532,677.894897 
	C771.825195,657.218811 771.856445,636.578003 771.942627,615.471802 
	C772.429321,615.004761 772.861084,615.003174 773.616638,614.998108 
	C774.084412,624.685181 774.228333,634.375610 774.299377,644.974792 
	C774.307312,651.880127 774.388184,657.876709 774.414185,664.308105 
	C774.394958,666.200867 774.430664,667.658813 774.348877,669.539307 
	C774.148315,672.633606 774.065247,675.305298 773.982178,677.977051 
	C773.495117,677.961365 773.008118,677.945740 772.157532,677.894897 
z" />
  <path fill="#E69440" d="
M769.807007,643.722778 
	C770.201721,647.097107 770.850586,650.464905 770.937500,653.847168 
	C771.110535,660.578918 770.974548,667.318726 770.655823,674.214111 
	C769.899963,666.136047 769.562378,657.890259 768.895386,649.671143 
	C768.792725,648.406006 767.175171,647.263672 766.258179,646.064575 
	C765.503113,647.262573 764.138306,648.439026 764.095215,649.662048 
	C763.873657,655.958862 764.238770,662.280823 763.903931,668.567566 
	C763.678955,672.791260 764.972290,675.564209 769.010803,676.929077 
	C769.015747,677.330444 769.020691,677.731812 769.026855,678.434204 
	C762.440491,677.509033 761.300476,673.142822 761.702332,667.195496 
	C762.181519,660.104431 761.900574,652.962158 762.052734,645.373169 
	C762.649780,644.794373 763.143127,644.684326 764.140869,644.472046 
	C766.365845,644.154175 768.086426,643.938477 769.807007,643.722778 
z" />
  <path fill="#E3AA4C" d="
M774.466370,669.116760 
	C774.430664,667.658813 774.394958,666.200867 774.600281,663.964172 
	C774.910889,657.127136 774.980530,651.068909 775.050171,645.010620 
	C775.480957,644.994385 775.911804,644.978210 776.997559,645.044250 
	C779.380432,645.034668 781.108398,644.942810 782.836365,644.851074 
	C783.469055,644.896301 784.101746,644.941467 785.051270,644.983459 
	C785.455750,646.126282 785.543396,647.272278 785.386719,649.192505 
	C785.283264,654.248901 785.424072,658.531067 785.564941,662.813293 
	C785.621826,663.339783 785.678711,663.866333 785.551758,664.848755 
	C785.274475,665.504639 785.315125,665.681519 785.489746,665.835266 
	C785.498962,670.002136 785.508179,674.169067 785.038147,678.676147 
	C784.364563,679.003174 784.170288,678.990112 783.980835,678.510742 
	C783.985535,667.806702 783.985535,657.568848 783.985535,646.960938 
	C780.834473,647.110474 778.608093,647.216125 776.009644,647.339478 
	C776.009644,655.707336 776.015015,663.508667 776.008057,671.309937 
	C776.001404,678.774536 776.139587,678.912903 783.993774,679.298645 
	C784.016785,679.836243 784.022888,680.051453 784.029053,680.266602 
	C781.253052,679.867126 778.477051,679.467651 775.356140,678.456848 
	C774.829590,674.935913 774.648010,672.026306 774.466370,669.116760 
z" />
  <path fill="#3A99C5" d="
M758.959717,647.507446 
	C758.564209,644.602783 758.281738,641.244629 757.994385,637.432251 
	C758.161804,631.168091 758.334045,625.358215 758.821167,619.267212 
	C759.114990,628.342041 759.093811,637.697998 758.959717,647.507446 
z" />
  <path fill="#EA9081" d="
M785.672852,662.376221 
	C785.424072,658.531067 785.283264,654.248901 785.274902,649.612549 
	C785.531921,653.485352 785.656372,657.712219 785.672852,662.376221 
z" />
  <path fill="#D75641" d="
M774.348877,669.539307 
	C774.648010,672.026306 774.829590,674.935913 774.990479,678.261230 
	C774.640686,678.747253 774.390564,678.637451 774.100708,678.162292 
	C774.065247,675.305298 774.148315,672.633606 774.348877,669.539307 
z" />
  <path fill="#EA9081" d="
M785.567749,665.668213 
	C785.315125,665.681519 785.274475,665.504639 785.437256,665.232178 
	C785.506592,665.159790 785.645691,665.501221 785.567749,665.668213 
z" />
  <path fill="#EA9081" d="
M783.976074,678.976990 
	C784.170288,678.990112 784.364563,679.003174 784.850098,679.040588 
	C784.978882,679.434326 784.816528,679.803711 784.341553,680.219849 
	C784.022888,680.051453 784.016785,679.836243 784.005310,679.310547 
	C784.000000,679.000000 783.976074,678.976990 783.976074,678.976990 
z" />
  <path fill="#D9F2F9" d="
M744.062012,615.353271 
	C745.095215,615.341980 746.128479,615.330627 747.553589,615.779968 
	C746.900574,618.725647 746.088806,621.343994 744.760498,623.666870 
	C742.282166,628.001038 737.626831,631.305664 738.079712,636.959351 
	C738.575989,637.230896 739.072205,637.502441 739.568481,637.773926 
	C743.468933,630.899963 747.369324,624.025940 751.269775,617.151978 
	C751.503723,619.460632 751.737610,621.769348 751.567200,624.595703 
	C749.164429,628.496338 747.535767,632.189270 745.045532,635.159912 
	C743.195312,637.367188 743.624634,638.763733 744.970032,640.592957 
	C736.354553,639.828857 736.354553,639.828857 736.940918,630.371460 
	C739.577393,625.006531 741.819702,620.179932 744.062012,615.353271 
z" />
  <path fill="#AFD5E3" d="
M745.328247,640.722412 
	C743.624634,638.763733 743.195312,637.367188 745.045532,635.159912 
	C747.535767,632.189270 749.164429,628.496338 751.495667,625.033081 
	C751.889648,628.244324 751.975647,631.535583 752.006531,634.827393 
	C752.064636,641.021240 752.051453,641.021362 745.328247,640.722412 
z" />
  <path fill="#AFD5E3" d="
M743.640381,615.248535 
	C741.819702,620.179932 739.577393,625.006531 737.052795,629.964600 
	C736.640259,627.179565 736.620056,624.253113 736.355713,621.348877 
	C735.881958,616.143616 738.280640,614.280334 743.640381,615.248535 
z" />
  <path fill="#AFD5E3" d="
M751.189514,616.871704 
	C747.369324,624.025940 743.468933,630.899963 739.568481,637.773926 
	C739.072205,637.502441 738.575989,637.230896 738.079712,636.959351 
	C737.626831,631.305664 742.282166,628.001038 744.760498,623.666870 
	C746.088806,621.343994 746.900574,618.725647 747.932129,615.869873 
	C748.982300,615.863220 750.045776,616.227295 751.189514,616.871704 
z" />
  <path fill="#E69440" d="
M797.517578,666.123779 
	C797.731995,667.028503 797.779785,667.658691 797.771057,668.759155 
	C795.908875,669.250183 794.004944,669.632446 792.328674,669.176880 
	C791.000000,668.815735 789.039673,667.500061 788.958679,666.481079 
	C788.765320,664.048035 789.156982,661.380493 790.135620,659.172485 
	C790.384338,658.611328 794.447388,658.715576 795.441589,659.763184 
	C796.756165,661.148315 796.775024,663.763123 797.517578,666.123779 
z" />
  <path fill="#2FA5DE" d="
M756.942139,628.359253 
	C756.574524,627.827698 756.244324,627.006653 755.914185,626.185669 
	C756.181641,626.105896 756.449097,626.026123 756.716614,625.946350 
	C756.804260,626.654175 756.891968,627.362061 756.942139,628.359253 
z" />
  <path fill="#D9F2F9" d="
M826.979553,609.865967 
	C831.660278,609.676880 836.341064,609.487854 841.411133,609.713623 
	C838.243103,618.074707 834.685608,626.021118 830.806824,633.819214 
	C827.985962,632.113770 826.956787,632.903015 827.788391,635.620178 
	C828.147034,636.791992 829.337585,637.709229 829.974304,639.056824 
	C828.656067,641.393677 827.513733,643.415894 826.274902,645.608887 
	C831.838928,646.975159 833.489868,644.752747 833.514648,640.313110 
	C835.929749,640.320862 837.917847,640.301514 839.914551,640.706055 
	C839.673157,642.510559 839.423035,643.891174 839.164917,645.316101 
	C841.672974,645.895325 843.825745,646.392517 845.978577,646.889709 
	C836.462708,646.841187 826.938416,646.996704 817.436462,646.608215 
	C814.893616,646.504211 812.418701,644.738892 810.167847,643.378601 
	C811.862854,642.372375 814.152649,642.075073 814.591370,641.013062 
	C816.262512,636.967834 817.336426,632.675842 818.718994,628.142456 
	C820.937866,620.224792 825.197815,627.655090 828.297974,627.097229 
	C828.348389,621.504883 824.718750,620.890503 821.223877,619.993469 
	C825.677124,617.791443 827.113525,614.276306 826.979553,609.865967 
z" />
  <path fill="#A4DDF1" d="
M846.405884,646.965210 
	C843.825745,646.392517 841.672974,645.895325 839.164917,645.316101 
	C839.423035,643.891174 839.673157,642.510559 840.181152,640.548706 
	C843.169739,638.195679 846.813660,636.978882 844.990784,632.124512 
	C845.315796,630.345276 845.656982,628.891541 846.310486,627.221436 
	C849.740784,620.688293 852.471924,625.528381 855.353149,627.890503 
	C857.189514,622.920898 854.490112,621.166321 851.021240,619.448608 
	C851.688721,616.019775 852.361755,612.992920 853.034729,609.966064 
	C861.538330,609.708374 862.414429,610.481995 863.030579,618.971436 
	C863.488403,625.280090 863.792664,631.601807 864.365295,637.899536 
	C864.790771,642.579712 863.013733,645.194031 858.223022,645.671326 
	C854.418762,646.050293 850.629272,646.578613 846.405884,646.965210 
z" />
  <path fill="#A4DDF1" d="
M826.526367,609.742249 
	C827.113525,614.276306 825.677124,617.791443 820.979614,620.218262 
	C815.240173,624.131470 814.701599,626.274597 818.633545,628.476074 
	C817.336426,632.675842 816.262512,636.967834 814.591370,641.013062 
	C814.152649,642.075073 811.862854,642.372375 810.010742,643.026367 
	C808.671387,633.404053 807.531555,623.786255 807.072510,614.136108 
	C807.011475,612.854126 810.271912,610.519897 812.233093,610.216187 
	C816.768494,609.513855 821.450562,609.758118 826.526367,609.742249 
z" />
  <path fill="#D9F2F9" d="
M852.673828,609.850586 
	C852.361755,612.992920 851.688721,616.019775 850.643799,619.508301 
	C844.551636,621.511719 843.009399,624.206482 845.998108,627.437866 
	C845.656982,628.891541 845.315796,630.345276 844.621033,632.162048 
	C841.853943,633.930847 839.440552,635.336609 837.036072,636.369873 
	C839.825439,629.057983 842.635925,622.130249 845.365906,615.170959 
	C846.072083,613.370728 846.526184,611.471619 847.096130,609.617920 
	C848.835083,609.656982 850.574036,609.696045 852.673828,609.850586 
z" />
  <path fill="#AFD5E3" d="
M846.686584,609.462524 
	C846.526184,611.471619 846.072083,613.370728 845.365906,615.170959 
	C842.635925,622.130249 839.825439,629.057983 836.692505,636.469482 
	C834.602722,635.950195 832.865417,634.958862 831.128113,633.967468 
	C834.685608,626.021118 838.243103,618.074707 841.861816,609.790039 
	C843.374390,609.403564 844.825684,609.355347 846.686584,609.462524 
z" />
  <path fill="#3877A4" d="
M824.131226,604.241882 
	C830.991272,603.728271 837.839417,603.648071 845.117065,603.513794 
	C845.648621,604.076416 845.750610,604.693237 845.835205,605.781250 
	C838.942261,606.314209 832.066711,606.376038 824.748901,606.419678 
	C824.244263,605.826111 824.181763,605.250732 824.131226,604.241882 
z" />
  <path fill="#3A99C5" d="
M854.452515,606.856689 
	C855.908936,606.723511 857.783325,606.696899 859.864441,606.996460 
	C858.337585,607.202759 856.604065,607.083069 854.452515,606.856689 
z" />
  <path fill="#3A99C5" d="
M860.637878,607.516724 
	C861.117188,607.396118 861.820374,607.524902 862.632690,608.013794 
	C862.115173,608.171326 861.488464,607.968750 860.637878,607.516724 
z" />
  <path fill="#3A99C5" d="
M862.780029,608.580322 
	C863.019165,608.468933 863.348145,608.595459 863.711060,609.005371 
	C863.453308,609.131836 863.161560,608.975037 862.780029,608.580322 
z" />
  <path fill="#3A99C5" d="
M865.675293,644.974915 
	C865.762146,645.179016 865.603088,645.485413 865.199219,645.897339 
	C865.112671,645.694336 865.271118,645.385742 865.675293,644.974915 
z" />
  <path fill="#3A99C5" d="
M853.892578,658.258179 
	C853.778870,662.658630 853.534546,667.061462 858.939209,669.555054 
	C857.187439,669.497253 855.214661,669.172058 851.789673,668.607544 
	C851.809326,668.575684 851.149231,669.644287 850.156860,670.805786 
	C850.118835,668.534180 850.413025,666.169861 850.676086,664.055298 
	C842.900391,664.055298 835.743164,664.049438 828.585999,664.057129 
	C822.969543,664.063110 825.400146,667.561401 825.952759,670.620972 
	C824.229248,670.352783 822.473389,669.690735 820.454285,668.675659 
	C820.381104,665.283386 820.571045,662.244080 820.847839,659.126587 
	C820.934692,659.048401 821.102905,658.886292 821.102905,658.886292 
	C824.168152,663.297363 829.192078,662.275757 833.376709,662.797607 
	C837.843933,663.354736 842.503479,662.142029 847.058838,662.297058 
	C850.376648,662.410095 852.026001,660.733826 853.892578,658.258179 
z" />
  <path fill="#3A99C5" d="
M864.744873,654.902771 
	C862.573486,655.193787 860.259949,655.151733 857.510620,655.143738 
	C859.373596,652.369202 861.909912,652.500427 864.744873,654.902771 
z" />
  <path fill="#3A99C5" d="
M817.844666,656.261353 
	C818.038147,656.203491 818.231628,656.145630 818.722290,656.027832 
	C819.361938,656.408569 819.704468,656.849121 820.043823,657.627441 
	C820.040649,657.965210 819.916748,658.078491 819.666687,657.952026 
	C818.892639,657.304199 818.368652,656.782776 817.844666,656.261353 
z" />
  <path fill="#3A99C5" d="
M855.096375,656.400146 
	C855.188660,656.887085 854.945557,657.388367 854.463257,658.039978 
	C854.403015,657.598389 854.582031,657.006409 855.096375,656.400146 
z" />
  <path fill="#3A99C5" d="
M856.812256,655.109985 
	C856.743286,655.519043 856.340942,655.903320 855.664551,656.359741 
	C855.753296,655.982910 856.116089,655.533997 856.812256,655.109985 
z" />
  <path fill="#3A99C5" d="
M820.103577,657.909668 
	C820.442627,658.014465 820.676208,658.222717 820.984985,658.682495 
	C821.102905,658.886292 820.934692,659.048401 820.640747,658.995850 
	C820.105469,658.703796 819.962097,658.415527 819.916748,658.078491 
	C819.916748,658.078491 820.040649,657.965210 820.103577,657.909668 
z" />
  <path fill="#061422" d="
M819.666687,657.952026 
	C819.962097,658.415527 820.105469,658.703796 820.553955,659.074097 
	C820.571045,662.244080 820.381104,665.283386 820.075195,668.668762 
	C819.648376,669.088196 819.392395,669.249023 818.698181,669.785889 
	C812.114807,672.122314 809.997498,671.185242 806.718384,664.606995 
	C806.706421,663.505127 806.656921,662.770142 806.757935,661.719604 
	C807.051086,660.725037 807.193787,660.046143 807.336487,659.367188 
	C807.336487,659.367188 807.332642,659.297729 807.546509,659.181274 
	C807.924133,658.745483 808.087769,658.426147 808.251404,658.106750 
	C809.057922,657.600952 809.864441,657.095215 811.294434,656.369141 
	C813.909363,656.176208 815.900940,656.203552 817.892456,656.230835 
	C817.892456,656.230835 817.855835,656.217896 817.850220,656.239624 
	C818.368652,656.782776 818.892639,657.304199 819.666687,657.952026 
M810.804749,667.097717 
	C813.650818,669.918884 816.148865,669.777466 818.805481,665.658691 
	C818.076477,663.346252 817.772156,660.712158 816.393494,658.891663 
	C815.895325,658.233948 812.821533,659.526917 810.317383,660.245422 
	C810.360840,662.325867 810.404236,664.406311 810.804749,667.097717 
z" />
  <path fill="#3A99C5" d="
M806.680847,664.973938 
	C809.997498,671.185242 812.114807,672.122314 818.592896,669.990845 
	C816.707336,670.902954 814.299561,672.932617 812.190857,672.658752 
	C808.784241,672.216309 805.908813,669.967834 806.121216,665.358643 
	C806.289795,664.966797 806.680847,664.973938 806.680847,664.973938 
z" />
  <path fill="#2FA5DE" d="
M806.718384,664.606995 
	C806.680847,664.973938 806.289795,664.966797 806.093384,664.972412 
	C805.736694,664.112488 805.576477,663.247009 805.824280,662.203613 
	C806.232361,662.025757 806.607422,662.035217 806.607422,662.035217 
	C806.656921,662.770142 806.706421,663.505127 806.718384,664.606995 
z" />
  <path fill="#2FA5DE" d="
M802.370178,667.702576 
	C802.093140,666.266113 802.067444,664.578552 802.083496,662.472290 
	C802.290710,663.852905 802.456116,665.652161 802.370178,667.702576 
z" />
  <path fill="#3A99C5" d="
M806.757935,661.719604 
	C806.607422,662.035217 806.232361,662.025757 806.045166,661.999268 
	C805.909424,661.234131 805.960876,660.495483 806.030640,659.387329 
	C806.268005,659.056519 806.487244,659.095337 807.021484,659.250671 
	C807.193787,660.046143 807.051086,660.725037 806.757935,661.719604 
z" />
  <path fill="#3A99C5" d="
M830.267090,676.035034 
	C830.731934,675.901550 831.296082,676.086853 832.028198,676.522095 
	C831.586243,676.632568 830.976318,676.493225 830.267090,676.035034 
z" />
  <path fill="#3A99C5" d="
M825.991211,671.325195 
	C826.357300,671.446960 826.730652,671.881226 827.147949,672.607300 
	C826.794128,672.478638 826.396301,672.058105 825.991211,671.325195 
z" />
  <path fill="#3A99C5" d="
M829.166931,675.128418 
	C829.395508,675.010742 829.710327,675.158264 830.133667,675.548584 
	C829.912537,675.658752 829.582886,675.526123 829.166931,675.128418 
z" />
  <path fill="#3A99C5" d="
M828.150146,674.136963 
	C828.374268,674.052979 828.674561,674.228577 829.054565,674.660645 
	C828.831604,674.743591 828.528931,674.570068 828.150146,674.136963 
z" />
  <path fill="#3A99C5" d="
M827.175415,673.093201 
	C827.406433,673.020203 827.692139,673.215637 828.050476,673.668823 
	C827.825378,673.738220 827.527771,673.549927 827.175415,673.093201 
z" />
  <path fill="#D75641" d="
M838.018066,675.148865 
	C834.714783,674.060364 831.830017,672.968994 827.935791,671.495850 
	C834.165588,667.786743 838.661499,668.410828 843.889160,673.160645 
	C841.786865,673.926147 840.111694,674.536072 838.018066,675.148865 
z" />
  <path fill="#3A99C5" d="
M849.598755,671.018433 
	C849.679626,671.457275 849.505371,672.051575 849.009338,672.725708 
	C848.906250,672.261719 849.125000,671.717834 849.598755,671.018433 
z" />
  <path fill="#3A99C5" d="
M846.559082,674.803101 
	C846.432312,675.163879 846.013123,675.570923 845.273560,675.971680 
	C845.390991,675.593384 845.828796,675.221375 846.559082,674.803101 
z" />
  <path fill="#3A99C5" d="
M847.589233,673.876221 
	C847.676331,674.114990 847.505188,674.427979 847.056641,674.787292 
	C846.963135,674.539246 847.147095,674.244873 847.589233,673.876221 
z" />
  <path fill="#3A99C5" d="
M848.513000,672.828125 
	C848.624695,673.062927 848.488403,673.394409 848.075317,673.789307 
	C847.954041,673.543335 848.109558,673.234070 848.513000,672.828125 
z" />
  <path fill="#E3AA4C" d="
M858.050293,665.945984 
	C855.215637,663.807556 855.052795,660.946411 857.449280,658.896362 
	C858.794800,657.745361 861.974304,657.356445 863.556641,658.153809 
	C866.781982,659.779236 866.581970,662.830566 864.318909,665.830688 
	C863.948730,665.949585 863.855530,665.855469 863.904480,665.447388 
	C863.970032,664.217407 864.308167,663.187256 863.938110,662.615540 
	C863.095825,661.314392 861.905884,660.238403 860.857239,659.070923 
	C859.904846,660.334900 858.754639,661.503174 858.078186,662.900696 
	C857.704468,663.672729 858.125000,664.829102 858.153381,665.845825 
	C858.119202,665.879456 858.050293,665.945984 858.050293,665.945984 
z" />
  <path fill="#E3AA4C" d="
M863.994873,665.997192 
	C862.145264,666.201660 860.249512,666.358521 858.202026,666.230713 
	C858.050293,665.945984 858.119202,665.879456 858.552307,665.908020 
	C860.608765,665.909546 862.232178,665.882507 863.855530,665.855469 
	C863.855530,665.855469 863.948730,665.949585 863.994873,665.997192 
z" />
  <path fill="#3A99C5" d="
M817.753967,655.907227 
	C815.900940,656.203552 813.909363,656.176208 811.489014,656.159729 
	C813.027222,653.539551 815.235657,653.604797 817.753967,655.907227 
z" />
  <path fill="#3A99C5" d="
M807.974854,658.190430 
	C808.087769,658.426147 807.924133,658.745483 807.512085,659.176697 
	C807.408508,658.950439 807.553406,658.612244 807.974854,658.190430 
z" />
  <path fill="#E69440" d="
M834.042847,601.106812 
	C831.069519,601.095703 828.525391,601.376282 826.112000,600.937744 
	C825.036011,600.742249 824.223083,599.099365 823.290771,598.113403 
	C824.215210,597.375793 825.117126,596.035217 826.067871,595.999573 
	C831.705383,595.788208 837.359558,595.750122 842.994202,595.986389 
	C844.022705,596.029480 844.986938,597.605957 845.980835,598.474670 
	C844.985962,599.338806 844.070679,600.805054 842.980713,600.949280 
	C840.203857,601.316284 837.348999,601.092834 834.042847,601.106812 
z" />
  <path fill="#3D1C0D" d="
M782.958130,644.459229 
	C781.108398,644.942810 779.380432,645.034668 777.320801,645.035522 
	C776.663940,636.553040 776.217041,628.161804 776.204590,619.769836 
	C776.203369,618.943604 778.967285,617.335266 780.263794,617.503967 
	C781.558289,617.672302 783.613831,619.608521 783.625366,620.786499 
	C783.701477,628.544312 783.315369,636.306580 782.958130,644.459229 
M778.428467,640.360107 
	C778.851990,641.345642 779.275574,642.331238 779.699097,643.316772 
	C779.928833,643.196289 780.158508,643.075745 780.388184,642.955261 
	C780.388184,635.348328 780.388184,627.741333 780.388184,620.134399 
	C779.750244,620.121582 779.112305,620.108704 778.474365,620.095825 
	C778.474365,626.523071 778.474365,632.950256 778.428467,640.360107 
z" />
  <path fill="#D75641" d="
M774.911377,644.978516 
	C774.980530,651.068909 774.910889,657.127136 774.655212,663.529419 
	C774.388184,657.876709 774.307312,651.880127 774.358948,645.437988 
	C774.491455,644.992432 774.772583,644.946411 774.911377,644.978516 
z" />
  <path fill="#F4942B" d="
M769.324097,676.903809 
	C764.972290,675.564209 763.678955,672.791260 763.903931,668.567566 
	C764.238770,662.280823 763.873657,655.958862 764.095215,649.662048 
	C764.138306,648.439026 765.503113,647.262573 766.258179,646.064575 
	C767.175171,647.263672 768.792725,648.406006 768.895386,649.671143 
	C769.562378,657.890259 769.899963,666.136047 770.616577,674.680542 
	C770.470886,675.618164 770.054138,676.248352 769.324097,676.903809 
z" />
  <path fill="#3D1C0D" d="
M769.880310,643.278137 
	C768.086426,643.938477 766.365845,644.154175 764.310486,644.276245 
	C763.748291,636.266357 763.349731,628.347412 763.480103,620.437073 
	C763.499390,619.266357 766.018188,618.136841 767.380615,616.988281 
	C768.268616,618.303223 769.882629,619.595947 769.923828,620.936951 
	C770.147827,628.229248 769.983948,635.533386 769.880310,643.278137 
M765.855103,634.424072 
	C765.855103,636.931274 765.855103,639.438477 765.855103,641.945679 
	C766.348938,641.937378 766.842773,641.929138 767.336609,641.920837 
	C767.336609,634.569336 767.336609,627.217834 767.336609,619.866333 
	C766.841797,619.838379 766.346985,619.810425 765.852173,619.782410 
	C765.852173,624.338562 765.852173,628.894653 765.855103,634.424072 
z" />
  <path fill="#F4942B" d="
M783.988464,678.988098 
	C776.139587,678.912903 776.001404,678.774536 776.008057,671.309937 
	C776.015015,663.508667 776.009644,655.707336 776.009644,647.339478 
	C778.608093,647.216125 780.834473,647.110474 783.985535,646.960938 
	C783.985535,657.568848 783.985535,667.806702 783.980835,678.510742 
	C783.976074,678.976990 784.000000,679.000000 783.988464,678.988098 
z" />
  <path fill="#0A1017" d="
M830.806824,633.819214 
	C832.865417,634.958862 834.602722,635.950195 836.683594,636.841919 
	C839.440552,635.336609 841.853943,633.930847 844.637146,632.487549 
	C846.813660,636.978882 843.169739,638.195679 840.172485,640.124756 
	C837.917847,640.301514 835.929749,640.320862 833.293945,640.142456 
	C831.814209,639.543884 830.982178,639.143005 830.150208,638.742188 
	C829.337585,637.709229 828.147034,636.791992 827.788391,635.620178 
	C826.956787,632.903015 827.985962,632.113770 830.806824,633.819214 
z" />
  <path fill="#061422" d="
M818.718994,628.142456 
	C814.701599,626.274597 815.240173,624.131470 820.817749,620.532471 
	C824.718750,620.890503 828.348389,621.504883 828.297974,627.097229 
	C825.197815,627.655090 820.937866,620.224792 818.718994,628.142456 
z" />
  <path fill="#AFD5E3" d="
M829.974304,639.056824 
	C830.982178,639.143005 831.814209,639.543884 832.866821,640.115417 
	C833.489868,644.752747 831.838928,646.975159 826.274902,645.608887 
	C827.513733,643.415894 828.656067,641.393677 829.974304,639.056824 
z" />
  <path fill="#061422" d="
M846.310486,627.221436 
	C843.009399,624.206482 844.551636,621.511719 850.649353,619.910278 
	C854.490112,621.166321 857.189514,622.920898 855.353149,627.890503 
	C852.471924,625.528381 849.740784,620.688293 846.310486,627.221436 
z" />
  <path fill="#E3AA4C" d="
M810.923096,659.929749 
	C812.821533,659.526917 815.895325,658.233948 816.393494,658.891663 
	C817.772156,660.712158 818.076477,663.346252 818.447571,665.870117 
	C818.089661,666.081543 817.934631,665.938171 817.957397,665.549316 
	C818.081970,660.242615 814.998718,659.663940 811.086670,660.087463 
	C811.032471,660.034546 810.923096,659.929749 810.923096,659.929749 
z" />
  <path fill="#E3AA4C" d="
M818.167847,666.152527 
	C816.148865,669.777466 813.650818,669.918884 810.772400,666.670837 
	C810.740051,666.243958 811.018982,665.985901 811.349121,666.137939 
	C813.764343,666.172729 815.849487,666.055420 817.934631,665.938171 
	C817.934631,665.938171 818.089661,666.081543 818.167847,666.152527 
z" />
  <path fill="#E3AA4C" d="
M810.593872,666.365356 
	C810.404236,664.406311 810.360840,662.325867 810.620239,660.087585 
	C810.923096,659.929749 811.032471,660.034546 811.040161,660.499207 
	C811.038269,662.637878 811.028625,664.311890 811.019043,665.985901 
	C811.018982,665.985901 810.740051,666.243958 810.593872,666.365356 
z" />
  <path fill="#E0BF3E" d="
M863.904480,665.447388 
	C862.232178,665.882507 860.608765,665.909546 858.586487,665.874390 
	C858.125000,664.829102 857.704468,663.672729 858.078186,662.900696 
	C858.754639,661.503174 859.904846,660.334900 860.857239,659.070923 
	C861.905884,660.238403 863.095825,661.314392 863.938110,662.615540 
	C864.308167,663.187256 863.970032,664.217407 863.904480,665.447388 
z" />
  <path fill="#F5F6F5" d="
M778.451416,639.868774 
	C778.474365,632.950256 778.474365,626.523071 778.474365,620.095825 
	C779.112305,620.108704 779.750244,620.121582 780.388184,620.134399 
	C780.388184,627.741333 780.388184,635.348328 780.388184,642.955261 
	C780.158508,643.075745 779.928833,643.196289 779.699097,643.316772 
	C779.275574,642.331238 778.851990,641.345642 778.451416,639.868774 
z" />
  <path fill="#F5F6F5" d="
M765.853638,633.937439 
	C765.852173,628.894653 765.852173,624.338562 765.852173,619.782410 
	C766.346985,619.810425 766.841797,619.838379 767.336609,619.866333 
	C767.336609,627.217834 767.336609,634.569336 767.336609,641.920837 
	C766.842773,641.929138 766.348938,641.937378 765.855103,641.945679 
	C765.855103,639.438477 765.855103,636.931274 765.853638,633.937439 
z" />
  <path fill="#E0BF3E" d="
M811.349121,666.137939 
	C811.028625,664.311890 811.038269,662.637878 811.094421,660.552124 
	C814.998718,659.663940 818.081970,660.242615 817.957397,665.549316 
	C815.849487,666.055420 813.764343,666.172729 811.349121,666.137939 
z" />
</svg>