<svg xmlns="http://www.w3.org/2000/svg" viewBox="480.434778 373.458139 202.592724 202.592724">
  <path fill="#090E13" d="
M568.478027,555.587524 
	C531.225586,549.854675 502.843414,520.069031 500.124115,484.235565 
	C497.317505,447.250793 520.230591,413.800140 555.958862,402.722961 
	C591.839294,391.598602 630.538452,407.928955 648.842163,441.918091 
	C666.144775,474.048187 657.584534,514.975830 628.618042,538.369141 
	C611.153809,552.473206 591.143250,557.910400 568.478027,555.587524 
M632.034607,427.374451 
	C631.719299,427.163940 631.403992,426.953400 631.093079,426.892365 
	C631.093079,426.892365 631.234802,426.844543 630.956604,426.226837 
	C621.693176,416.680573 610.426575,410.554688 597.729675,406.966431 
	C570.150085,399.172363 537.765259,410.073425 520.472839,432.896790 
	C501.833862,457.497406 499.891327,490.289642 515.780151,515.747131 
	C518.586426,520.243408 522.183350,524.246338 525.470459,528.549561 
	C526.386414,527.676331 526.564331,527.588867 526.595032,527.464905 
	C526.953552,526.016724 527.289978,524.562988 527.869019,523.096313 
	C527.869019,523.096313 528.095886,523.026855 528.718506,523.098328 
	C529.507812,523.743835 530.297180,524.389282 531.085876,525.776245 
	C531.040710,526.515869 530.995544,527.255493 530.248413,528.157776 
	C527.372192,531.550232 529.860596,533.651001 532.282959,535.362183 
	C534.980957,537.268127 538.063293,538.618896 540.876282,540.374695 
	C565.365540,555.660278 598.812988,554.279846 621.539673,537.005554 
	C628.246948,531.907410 628.463745,530.983215 624.890015,522.236938 
	C623.966187,519.950317 623.602356,517.120728 622.011902,515.480652 
	C617.551208,510.880829 612.584473,506.771820 607.999878,501.605072 
	C608.552124,500.971344 609.104309,500.337616 610.308105,499.846924 
	C619.661255,504.155090 625.441528,511.640167 629.063904,521.750793 
	C629.643188,523.873840 630.222473,525.996887 630.886963,528.432312 
	C656.767090,505.827789 659.640076,459.955322 637.163269,433.278107 
	C635.862915,431.831909 634.562622,430.385742 633.034729,428.394287 
	C632.708496,428.188416 632.382202,427.982544 632.053650,427.947845 
	C632.053650,427.947845 632.223572,427.926849 632.034607,427.374451 
z" />
  <path fill="#A2DAF0" d="
M629.115234,520.998291 
	C625.441528,511.640167 619.661255,504.155090 609.719971,499.513000 
	C605.575928,497.786285 601.992493,496.459290 598.471008,494.984283 
	C593.963501,493.096344 593.544006,490.982452 597.225525,487.777222 
	C607.133789,479.150696 610.317444,468.026642 609.115479,455.442047 
	C607.020203,433.505646 583.483459,421.149200 564.047058,431.629639 
	C544.977905,441.912018 542.184448,471.435425 558.845276,486.606506 
	C564.800598,492.029297 564.658997,492.800385 556.866577,495.641968 
	C545.503967,499.785461 535.355286,505.421539 529.703613,517.176636 
	C529.411560,517.678955 529.324890,518.015259 529.246216,518.262390 
	C529.254211,518.173157 529.406006,518.268311 529.198303,518.254150 
	C528.864258,518.286438 528.737915,518.333008 528.611572,518.379517 
	C528.747925,518.589905 528.884277,518.800293 529.018799,519.359985 
	C528.710022,520.815125 528.402954,521.921021 528.095886,523.026855 
	C528.095886,523.026855 527.869019,523.096313 527.352661,523.072266 
	C525.656006,521.993347 524.113220,521.150818 523.351318,519.850708 
	C515.401489,506.285797 509.884644,491.956116 512.087891,475.888519 
	C513.664246,464.392456 516.001648,452.888275 523.188354,443.350311 
	C535.578735,426.906219 551.033142,415.353210 572.145996,411.982300 
	C590.425781,409.063721 606.404846,414.144592 621.805603,423.133453 
	C624.688538,424.816132 628.078735,425.629852 631.234802,426.844543 
	C631.234802,426.844543 631.093079,426.892365 631.186890,427.093323 
	C631.595032,427.505127 631.909302,427.715973 632.223572,427.926849 
	C632.223572,427.926849 632.053650,427.947845 632.174194,428.131165 
	C632.617249,428.522797 632.939758,428.731171 633.262268,428.939545 
	C634.562622,430.385742 635.862915,431.831909 636.963379,433.744141 
	C636.698608,434.810486 636.390015,435.521484 636.604980,435.994568 
	C640.499023,444.561951 643.752075,453.292938 644.500793,462.803009 
	C644.691040,465.220093 645.472229,467.590698 645.824402,470.366821 
	C643.768555,480.499573 641.870239,490.248169 639.697327,500.198151 
	C635.986877,507.265808 632.551025,514.132019 629.115234,520.998291 
z" />
  <path fill="#2F5F90" d="
M530.950378,527.995117 
	C530.995544,527.255493 531.040710,526.515869 531.312683,525.139893 
	C534.573425,515.094421 539.717834,507.419067 549.107361,503.288147 
	C553.065002,501.546936 557.064575,499.900452 561.052673,498.229126 
	C568.002441,495.316498 569.192444,490.129944 563.545715,485.335022 
	C553.614746,476.902039 551.051514,466.161194 552.805359,453.879822 
	C554.698547,440.622192 566.165649,431.451874 580.015137,432.018402 
	C593.886475,432.585815 604.418213,442.731934 605.219910,456.220459 
	C605.907349,467.786621 603.192200,477.893127 593.875366,485.721680 
	C588.774170,490.007996 589.931274,495.688354 596.089844,498.227905 
	C599.929138,499.811096 603.903564,501.066620 607.817322,502.469177 
	C612.584473,506.771820 617.551208,510.880829 622.011902,515.480652 
	C623.602356,517.120728 623.966187,519.950317 624.539795,522.669312 
	C620.278381,526.083435 616.603149,529.456177 612.416626,531.981262 
	C590.693787,545.083191 568.141785,547.038940 544.960388,536.062256 
	C540.105591,533.763428 535.610962,530.704041 530.950378,527.995117 
z" />
  <path fill="#CAEAF3" d="
M631.095703,426.535706 
	C628.078735,425.629852 624.688538,424.816132 621.805603,423.133453 
	C606.404846,414.144592 590.425781,409.063721 572.145996,411.982300 
	C551.033142,415.353210 535.578735,426.906219 523.188354,443.350311 
	C516.001648,452.888275 513.664246,464.392456 512.087891,475.888519 
	C509.884644,491.956116 515.401489,506.285797 523.351318,519.850708 
	C524.113220,521.150818 525.656006,521.993347 527.234253,523.079529 
	C527.289978,524.562988 526.953552,526.016724 526.595032,527.464905 
	C526.564331,527.588867 526.386414,527.676331 525.470459,528.549561 
	C522.183350,524.246338 518.586426,520.243408 515.780151,515.747131 
	C499.891327,490.289642 501.833862,457.497406 520.472839,432.896790 
	C537.765259,410.073425 570.150085,399.172363 597.729675,406.966431 
	C610.426575,410.554688 621.693176,416.680573 631.095703,426.535706 
z" />
  <path fill="#0A1017" d="
M607.908569,502.037109 
	C603.903564,501.066620 599.929138,499.811096 596.089844,498.227905 
	C589.931274,495.688354 588.774170,490.007996 593.875366,485.721680 
	C603.192200,477.893127 605.907349,467.786621 605.219910,456.220459 
	C604.418213,442.731934 593.886475,432.585815 580.015137,432.018402 
	C566.165649,431.451874 554.698547,440.622192 552.805359,453.879822 
	C551.051514,466.161194 553.614746,476.902039 563.545715,485.335022 
	C569.192444,490.129944 568.002441,495.316498 561.052673,498.229126 
	C557.064575,499.900452 553.065002,501.546936 549.107361,503.288147 
	C539.717834,507.419067 534.573425,515.094421 531.312988,524.769165 
	C530.297180,524.389282 529.507812,523.743835 528.407227,523.062622 
	C528.402954,521.921021 528.710022,520.815125 529.182983,519.209595 
	C529.348938,518.709839 529.406006,518.268311 529.406006,518.268311 
	C529.406006,518.268311 529.254211,518.173157 529.478027,518.117676 
	C529.770935,517.711731 529.839966,517.361267 529.908997,517.010742 
	C535.355286,505.421539 545.503967,499.785461 556.866577,495.641968 
	C564.658997,492.800385 564.800598,492.029297 558.845276,486.606506 
	C542.184448,471.435425 544.977905,441.912018 564.047058,431.629639 
	C583.483459,421.149200 607.020203,433.505646 609.115479,455.442047 
	C610.317444,468.026642 607.133789,479.150696 597.225525,487.777222 
	C593.544006,490.982452 593.963501,493.096344 598.471008,494.984283 
	C601.992493,496.459290 605.575928,497.786285 609.394165,499.441467 
	C609.104309,500.337616 608.552124,500.971344 607.908569,502.037109 
z" />
  <path fill="#1F4979" d="
M530.599365,528.076416 
	C535.610962,530.704041 540.105591,533.763428 544.960388,536.062256 
	C568.141785,547.038940 590.693787,545.083191 612.416626,531.981262 
	C616.603149,529.456177 620.278381,526.083435 624.509766,523.039917 
	C628.463745,530.983215 628.246948,531.907410 621.539673,537.005554 
	C598.812988,554.279846 565.365540,555.660278 540.876282,540.374695 
	C538.063293,538.618896 534.980957,537.268127 532.282959,535.362183 
	C529.860596,533.651001 527.372192,531.550232 530.599365,528.076416 
z" />
  <path fill="#80CBE6" d="
M645.981934,469.982666 
	C645.472229,467.590698 644.691040,465.220093 644.500793,462.803009 
	C643.752075,453.292938 640.499023,444.561951 636.604980,435.994568 
	C636.390015,435.521484 636.698608,434.810486 637.075684,434.058777 
	C659.640076,459.955322 656.767090,505.827789 630.886963,528.432312 
	C630.222473,525.996887 629.643188,523.873840 629.089600,521.374512 
	C632.551025,514.132019 635.986877,507.265808 640.088745,500.197571 
	C646.176941,501.844452 648.673950,499.021454 648.887695,494.172150 
	C649.197815,487.136810 648.990479,480.068665 648.695740,473.027405 
	C648.651672,471.976471 646.928345,470.995850 645.981934,469.982666 
z" />
  <path fill="#CAEAF3" d="
M633.148499,428.666931 
	C632.939758,428.731171 632.617249,428.522797 632.175354,428.045563 
	C632.382202,427.982544 632.708496,428.188416 633.148499,428.666931 
z" />
  <path fill="#CAEAF3" d="
M632.129089,427.650635 
	C631.909302,427.715973 631.595032,427.505127 631.184692,427.018555 
	C631.403992,426.953400 631.719299,427.163940 632.129089,427.650635 
z" />
  <path fill="#70C1DC" d="
M645.824341,470.366821 
	C646.928345,470.995850 648.651672,471.976471 648.695740,473.027405 
	C648.990479,480.068665 649.197815,487.136810 648.887695,494.172150 
	C648.673950,499.021454 646.176941,501.844452 640.363342,499.996155 
	C641.870239,490.248169 643.768555,480.499573 645.824341,470.366821 
z" />
  <path fill="#CAEAF3" d="
M529.703613,517.176636 
	C529.839966,517.361267 529.770935,517.711731 529.470093,518.206909 
	C529.324890,518.015259 529.411560,517.678955 529.703613,517.176636 
z" />
  <path fill="#CAEAF3" d="
M529.198303,518.254150 
	C529.406006,518.268311 529.348938,518.709839 529.184753,518.860229 
	C528.884277,518.800293 528.747925,518.589905 528.611572,518.379517 
	C528.737915,518.333008 528.864258,518.286438 529.198303,518.254150 
z" />
</svg>