<svg xmlns="http://www.w3.org/2000/svg" viewBox="483.4196869 565.2498714000001 190.63483919999993 190.63483919999993">
  <path fill="#0C140E" d="
M567.458313,618.562500 
	C559.939148,606.777161 561.276062,594.984497 570.917542,588.048767 
	C580.526978,581.136108 593.896667,583.935913 600.008789,594.140991 
	C606.589478,605.128296 602.653076,617.460632 590.500854,623.431458 
	C594.786682,630.674500 598.765381,638.112000 603.503479,645.029236 
	C605.221497,647.537415 608.662720,648.962646 611.489563,650.582092 
	C613.635132,651.811096 616.134033,652.410278 618.331543,653.564392 
	C622.347717,655.673523 624.161560,660.511047 622.703369,664.665771 
	C621.199341,668.951233 616.373962,671.841187 611.906250,670.465637 
	C605.762207,668.573853 599.786743,666.134277 593.622192,663.886780 
	C591.360229,669.483215 591.581299,674.554199 596.675049,679.208496 
	C602.418762,684.456665 606.541626,690.866211 607.011658,699.315918 
	C613.515503,699.315918 619.512939,698.947388 625.428040,699.484863 
	C628.046204,699.722656 631.295349,701.155090 632.889343,703.142822 
	C640.489685,712.620667 647.686523,722.427002 654.842285,732.250977 
	C655.869324,733.661011 656.833313,736.439697 656.149414,737.451965 
	C655.209656,738.842834 652.671936,739.821838 650.815308,739.827515 
	C602.824707,739.975769 554.833618,739.998474 506.842896,739.911499 
	C504.914398,739.908020 502.028290,739.123657 501.331970,737.791565 
	C500.640900,736.469727 501.657013,733.631958 502.783539,732.084473 
	C510.033691,722.125061 517.403870,712.245911 525.039673,702.581299 
	C526.349854,700.923035 529.059204,699.719849 531.231628,699.524719 
	C536.190430,699.079163 541.273926,698.919128 546.200928,699.516174 
	C551.714722,700.184265 555.079346,697.526672 556.744202,693.165466 
	C558.797913,687.785278 559.859070,682.013184 561.135559,676.362122 
	C561.350281,675.411255 560.484863,674.216370 559.939575,672.605591 
	C558.880066,673.910950 558.190186,674.907043 557.356262,675.762695 
	C554.040466,679.164551 547.677917,680.104065 544.752991,676.507812 
	C541.240479,672.189087 536.870605,668.837646 533.342224,664.719666 
	C528.970459,659.617249 530.692566,649.114258 535.694580,641.762146 
	C537.013062,639.824219 537.815552,637.129517 537.827942,634.776917 
	C537.890015,623.027710 548.681335,615.319946 561.500427,618.171753 
	C562.952271,618.494690 564.342834,619.093079 566.446533,619.836304 
	C567.240173,619.593323 567.349243,619.077942 567.458313,618.562500 
M578.515686,654.134888 
	C578.314575,654.419922 578.113525,654.704956 577.983948,654.991394 
	C577.983948,654.991394 577.965210,654.922363 577.339111,655.189087 
	C572.938904,657.807312 568.538696,660.425537 563.771729,663.879211 
	C562.852661,670.515198 565.229309,675.649841 570.228760,680.116394 
	C576.633850,685.838745 582.601685,692.050598 588.868896,698.662231 
	C589.194031,699.161987 589.519226,699.661682 589.874756,700.066162 
	C589.874756,700.066162 589.775513,700.078735 589.781616,700.841248 
	C590.472778,702.735962 591.164001,704.630615 591.770203,706.781372 
	C591.770203,706.781372 591.935303,706.994629 591.969849,707.747192 
	C592.949402,710.202454 593.928894,712.657776 594.939453,715.034485 
	C594.939453,715.034485 594.855042,715.036560 594.871460,715.709412 
	C595.228516,716.499634 595.585571,717.289856 595.987061,718.004517 
	C595.987061,718.004517 595.912109,718.050049 595.962891,718.669067 
	C596.501465,719.219482 597.040100,719.769958 597.683044,720.357727 
	C597.683044,720.357727 597.793945,720.355164 598.130127,720.983704 
	C603.497192,722.658691 607.847961,720.587158 606.793274,716.119812 
	C604.534790,706.554321 601.067871,697.274170 598.052490,687.987549 
	C598.052490,687.987549 598.139771,687.907227 597.969177,687.270691 
	C596.689819,685.797546 595.410461,684.324402 594.043335,682.916138 
	C594.043335,682.916138 594.152466,682.917175 593.977478,682.402649 
	C593.676819,682.218079 593.376160,682.033508 593.061157,681.936279 
	C593.061157,681.936279 593.148743,681.923096 592.967102,681.412781 
	C592.668518,681.226013 592.369934,681.039246 592.059998,680.940857 
	C592.059998,680.940857 592.147827,680.925964 591.966003,680.415588 
	C591.666748,680.228821 591.367432,680.042053 591.057983,679.944153 
	C591.057983,679.944153 591.146118,679.929321 590.969482,679.416382 
	C590.677551,679.221191 590.385681,679.025940 590.081055,678.923462 
	C590.081055,678.923462 590.172119,678.901733 589.987427,678.391724 
	C589.673279,678.222778 589.359192,678.053772 589.048828,677.966736 
	C589.048828,677.966736 589.121460,677.928589 589.007751,677.296326 
	C588.352661,676.509399 587.697571,675.722473 586.996704,674.977173 
	C586.996704,674.977173 587.057495,674.988342 587.011780,674.166199 
	C588.205994,666.009094 589.760376,657.883057 590.468506,649.683960 
	C590.944214,644.174805 590.222046,638.562317 589.998108,632.271851 
	C588.403625,627.041992 585.047913,624.222107 578.785706,624.470215 
	C584.476746,630.620544 585.148560,637.656250 583.770569,645.314026 
	C583.770569,645.314026 583.946167,645.419250 583.364197,645.869446 
	C583.192200,646.576050 583.020203,647.282654 582.970215,647.981445 
	C582.970215,647.981445 582.951721,647.860596 582.449463,648.012451 
	C582.326904,648.331787 582.204285,648.651062 581.861572,649.161987 
	C581.861572,649.161987 581.934265,649.444580 581.396301,649.883850 
	C580.864258,650.874695 580.332153,651.865601 579.867310,652.957397 
	C579.867310,652.957397 579.964783,652.885254 579.414246,653.007080 
	C579.243713,653.333374 579.073242,653.659668 578.988647,653.992004 
	C578.988647,653.992004 578.990540,653.905884 578.515686,654.134888 
M543.777832,632.748108 
	C543.777832,632.748108 543.769531,632.687805 544.498901,633.078308 
	C543.815491,635.529419 543.853027,638.655396 542.310974,640.302673 
	C538.007996,644.899048 535.562256,650.084106 535.132324,656.246582 
	C534.806641,660.915344 537.110229,663.934204 541.608276,665.740784 
	C542.047974,663.297852 542.610413,661.211914 542.772400,659.095398 
	C543.525330,649.256470 547.115112,640.973999 554.758118,634.346985 
	C558.035522,631.505188 560.348389,627.550903 563.085144,624.083801 
	C563.085144,624.083801 563.103821,624.086731 563.531372,623.924072 
	C563.369751,623.619324 563.208069,623.314575 562.326904,622.579956 
	C560.529541,622.335632 558.737183,621.929810 556.933960,621.874268 
	C547.905212,621.595764 544.166748,624.630920 542.539978,633.130432 
	C542.541260,633.536560 542.542542,633.942749 542.543884,634.348877 
	C542.941833,633.830505 543.339722,633.312195 543.777832,632.748108 
M596.058105,596.982483 
	C596.058105,596.982483 596.130249,596.948914 595.993408,596.266113 
	C592.230835,589.783691 586.218140,588.250061 579.424377,589.223755 
	C573.527466,590.068848 568.925171,595.087708 567.434692,601.440002 
	C567.416382,601.608276 567.398010,601.776611 567.051270,602.641357 
	C567.003906,604.120728 566.807739,605.612915 566.934631,607.077209 
	C567.519958,613.831238 573.900452,619.985596 581.120972,620.863220 
	C587.616394,621.652832 594.869202,617.131042 597.156189,610.659790 
	C597.156189,610.659790 597.201294,610.290283 597.667725,609.853149 
	C597.734558,609.233826 597.801331,608.614502 598.053101,607.187195 
	C598.011414,606.096069 597.969727,605.005005 598.035278,603.159363 
	C597.368958,601.074890 596.702698,598.990417 596.058105,596.982483 
M617.910583,659.176758 
	C615.233215,657.560852 612.740540,655.332458 609.839783,654.457886 
	C604.000244,652.697449 599.920105,649.332581 597.378662,643.877991 
	C596.910767,642.873840 596.105713,642.026794 594.866821,640.272705 
	C594.681763,643.156250 594.557312,645.094727 594.157166,647.902466 
	C594.438721,651.437317 593.456299,657.038940 595.234436,658.126526 
	C600.979004,661.639771 607.601379,664.027588 614.176392,665.717407 
	C616.734985,666.374878 619.767761,663.816650 617.910583,659.176758 
M571.006958,630.414917 
	C568.423340,630.747742 565.255005,630.234680 563.351135,631.550842 
	C551.064209,640.044617 545.773132,652.300964 545.808167,666.959412 
	C545.812988,668.961731 547.240967,670.960571 548.374817,673.517212 
	C549.235779,673.634399 550.096802,673.751526 551.714111,674.034790 
	C553.027771,672.753113 555.124329,671.669861 555.508911,670.152649 
	C556.683777,665.517822 557.199890,660.716003 558.288635,655.335510 
	C559.635254,648.441223 565.590454,645.913818 570.008667,641.929993 
	C570.425964,642.228027 570.843201,642.526123 571.260437,642.824158 
	C570.060120,644.770569 568.859802,646.716980 567.121094,649.041016 
	C567.168762,649.400696 567.216431,649.760437 567.264099,650.120117 
	C567.637695,649.944885 568.011292,649.769653 569.079529,649.410339 
	C575.356934,643.244812 576.323975,635.875549 571.006958,630.414917 
M590.072937,716.188721 
	C589.181946,713.372498 588.317749,710.547424 587.393860,707.742004 
	C585.916016,703.254700 578.425171,701.534912 575.126465,705.073364 
	C571.869263,708.567200 568.892029,712.322083 565.173218,716.193665 
	C564.186951,717.294312 563.218506,718.411438 562.211609,719.492859 
	C555.967590,726.198853 550.640137,726.358093 543.952087,719.248108 
	C540.713562,713.008240 544.626587,708.342773 547.767029,704.202332 
	C533.811707,699.731262 525.027100,705.794739 518.735962,717.366455 
	C517.002991,720.554016 514.504578,723.329651 512.319580,726.266174 
	C510.108826,729.237244 507.851227,732.173462 505.270050,735.578979 
	C554.632568,735.578979 603.068237,735.578979 652.101868,735.578979 
	C644.383118,725.144775 637.109253,715.226624 629.694397,705.414978 
	C628.916809,704.386108 627.328430,703.437195 626.079773,703.388733 
	C620.482910,703.171875 614.872925,703.294312 609.647888,703.294312 
	C610.134827,709.248535 610.574524,714.624817 610.521118,720.476929 
	C605.898865,726.294189 599.648621,727.775574 594.723816,723.697083 
	C592.718445,722.036316 591.653198,719.240234 590.072937,716.188721 
M558.338074,698.753174 
	C554.958740,702.852844 551.446228,706.851990 548.247864,711.088196 
	C546.193115,713.809753 546.077881,717.373535 549.213257,718.848450 
	C551.353516,719.855225 555.245850,719.520386 557.152405,718.132996 
	C560.854675,715.438965 564.080261,711.854431 566.821777,708.136292 
	C570.125610,703.655640 572.873474,698.733887 575.500610,693.810303 
	C576.063049,692.756226 575.585510,690.396545 574.708801,689.463684 
	C571.897522,686.472351 568.674438,683.868042 565.809692,681.293518 
	C563.420593,687.031372 561.100098,692.604370 558.338074,698.753174 
M577.127136,634.947693 
	C578.158508,644.450439 574.217651,650.983337 565.485779,654.824280 
	C564.351746,655.323242 563.618042,656.732056 562.010986,658.458435 
	C579.083069,656.899780 584.777039,640.026733 578.819824,628.961609 
	C576.434692,624.531311 573.097961,623.427124 569.944763,624.715393 
	C572.187256,627.669434 574.624634,630.880249 577.127136,634.947693 
z" />
  <path fill="#F5F6F5" d="
M611.014282,720.001099 
	C610.574524,714.624817 610.134827,709.248535 609.647888,703.294312 
	C614.872925,703.294312 620.482910,703.171875 626.079773,703.388733 
	C627.328430,703.437195 628.916809,704.386108 629.694397,705.414978 
	C637.109253,715.226624 644.383118,725.144775 652.101868,735.578979 
	C603.068237,735.578979 554.632568,735.578979 505.270050,735.578979 
	C507.851227,732.173462 510.108826,729.237244 512.319580,726.266174 
	C514.504578,723.329651 517.002991,720.554016 518.735962,717.366455 
	C525.027100,705.794739 533.811707,699.731262 547.767029,704.202332 
	C544.626587,708.342773 540.713562,713.008240 543.650879,719.650757 
	C542.855103,720.105164 542.294739,720.024109 541.877258,720.231201 
	C539.927124,721.198669 538.016357,722.245605 536.091492,723.264099 
	C538.145447,724.583923 540.065918,726.712463 542.277466,727.077515 
	C550.089172,728.367065 557.991089,729.706726 565.876221,729.820068 
	C578.967834,730.008301 592.090027,729.549316 605.164001,728.769470 
	C610.548035,728.448425 616.250305,727.711365 620.727661,722.140198 
	C617.489868,721.427185 614.252075,720.714172 611.014282,720.001099 
z" />
  <path fill="#63CD58" d="
M588.757874,698.051575 
	C582.601685,692.050598 576.633850,685.838745 570.228760,680.116394 
	C565.229309,675.649841 562.852661,670.515198 564.272705,663.462036 
	C565.702942,663.873596 566.632202,664.702332 567.437134,665.420105 
	C570.174194,663.471985 572.919006,661.859070 575.211975,659.753906 
	C576.512329,658.560181 577.072021,656.559631 577.965210,654.922363 
	C577.965210,654.922363 577.983948,654.991394 578.183838,654.871582 
	C578.585999,654.469788 578.788269,654.187866 578.990540,653.905884 
	C578.990540,653.905884 578.988647,653.992004 579.193176,653.882690 
	C579.586731,653.477295 579.775757,653.181274 579.964783,652.885254 
	C579.964783,652.885254 579.867310,652.957397 580.151245,652.970215 
	C580.649841,652.995422 580.864441,653.007812 581.480103,653.024292 
	C585.356628,653.229065 584.795898,655.819763 585.033203,658.109375 
	C585.617432,663.745117 586.371643,669.363159 587.057495,674.988342 
	C587.057495,674.988342 586.996704,674.977173 587.010864,675.322388 
	C587.723877,676.421265 588.422668,677.174927 589.121460,677.928589 
	C589.121460,677.928589 589.048828,677.966736 589.147583,678.178711 
	C589.554932,678.560974 589.863525,678.731384 590.172119,678.901733 
	C590.172119,678.901733 590.081055,678.923462 590.163940,679.141235 
	C590.546631,679.549133 590.846375,679.739258 591.146118,679.929321 
	C591.146118,679.929321 591.057983,679.944153 591.149902,680.158997 
	C591.543823,680.557861 591.845825,680.741943 592.147827,680.925964 
	C592.147827,680.925964 592.059998,680.940857 592.151245,681.156372 
	C592.544617,681.555603 592.846680,681.739319 593.148743,681.923096 
	C593.148743,681.923096 593.061157,681.936279 593.151855,682.153564 
	C593.545837,682.552917 593.849182,682.735046 594.152466,682.917175 
	C594.152466,682.917175 594.043335,682.916138 594.042358,683.263062 
	C595.407532,685.042419 596.773621,686.474854 598.139771,687.907227 
	C598.139771,687.907227 598.052490,687.987549 598.043579,688.326538 
	C600.121155,695.924683 602.391541,703.137268 604.243164,710.455811 
	C606.134644,717.932556 605.222961,719.093872 597.793945,720.355164 
	C597.793945,720.355164 597.683044,720.357727 597.740234,719.991821 
	C597.168945,719.100586 596.540527,718.575317 595.912109,718.050049 
	C595.912109,718.050049 595.987061,718.004517 595.984680,717.688904 
	C595.606567,716.594360 595.230774,715.815491 594.855042,715.036560 
	C594.855042,715.036560 594.939453,715.034485 594.957886,714.673279 
	C593.962585,711.872925 592.948975,709.433777 591.935303,706.994629 
	C591.935303,706.994629 591.770203,706.781372 591.850647,706.228088 
	C591.212524,703.809448 590.494019,701.944092 589.775513,700.078735 
	C589.775513,700.078735 589.874756,700.066162 589.888550,699.779541 
	C589.520874,699.012451 589.139343,698.531982 588.757874,698.051575 
z" />
  <path fill="#AFD5E3" d="
M610.767700,720.239014 
	C614.252075,720.714172 617.489868,721.427185 620.727661,722.140198 
	C616.250305,727.711365 610.548035,728.448425 605.164001,728.769470 
	C592.090027,729.549316 578.967834,730.008301 565.876221,729.820068 
	C557.991089,729.706726 550.089172,728.367065 542.277466,727.077515 
	C540.065918,726.712463 538.145447,724.583923 536.091492,723.264099 
	C538.016357,722.245605 539.927124,721.198669 541.877258,720.231201 
	C542.294739,720.024109 542.855103,720.105164 543.753601,720.049072 
	C550.640137,726.358093 555.967590,726.198853 562.211609,719.492859 
	C563.218506,718.411438 564.186951,717.294312 565.945435,716.107788 
	C574.531921,716.334900 582.346069,716.647766 590.160278,716.960632 
	C591.653198,719.240234 592.718445,722.036316 594.723816,723.697083 
	C599.648621,727.775574 605.898865,726.294189 610.767700,720.239014 
z" />
  <path fill="#63CD58" d="
M567.379578,601.944946 
	C567.398010,601.776611 567.416382,601.608276 568.002686,601.238403 
	C570.063965,600.132385 572.054138,599.570557 572.957642,598.259705 
	C575.701111,594.279358 579.447937,593.362000 583.976013,592.759521 
	C589.029785,592.087158 592.200989,595.262878 596.130249,596.948914 
	C596.130249,596.948914 596.058105,596.982483 596.055176,597.335083 
	C596.677551,599.763123 597.302734,601.838501 597.927979,603.913879 
	C597.969727,605.005005 598.011414,606.096069 597.724609,607.807129 
	C597.331116,609.048157 597.266235,609.669250 597.201294,610.290283 
	C597.201294,610.290283 597.156189,610.659790 596.707520,610.859009 
	C594.553284,612.028870 592.904053,613.119568 591.132874,613.950195 
	C581.022583,618.691772 571.593750,614.296448 568.855103,603.682373 
	C568.684326,603.020447 567.885986,602.520325 567.379578,601.944946 
z" />
  <path fill="#46A650" d="
M558.558838,698.465271 
	C561.100098,692.604370 563.420593,687.031372 565.809692,681.293518 
	C568.674438,683.868042 571.897522,686.472351 574.708801,689.463684 
	C575.585510,690.396545 576.063049,692.756226 575.500610,693.810303 
	C572.873474,698.733887 570.125610,703.655640 566.821777,708.136292 
	C564.080261,711.854431 560.854675,715.438965 557.152405,718.132996 
	C555.245850,719.520386 551.353516,719.855225 549.213257,718.848450 
	C546.077881,717.373535 546.193115,713.809753 548.247864,711.088196 
	C551.446228,706.851990 554.958740,702.852844 558.558838,698.465271 
z" />
  <path fill="#68C95D" d="
M550.957764,673.868774 
	C550.096802,673.751526 549.235779,673.634399 548.173828,672.831909 
	C546.583252,659.446899 549.735107,648.381897 559.568054,639.675476 
	C561.302734,638.139526 562.700134,636.178589 564.559509,634.838867 
	C566.695251,633.300110 569.171814,632.234192 571.500366,630.962891 
	C576.323975,635.875549 575.356934,643.244812 568.568665,649.255737 
	C567.924988,648.955200 567.792236,648.809265 567.659546,648.663391 
	C568.859802,646.716980 570.060120,644.770569 571.260437,642.824158 
	C570.843201,642.526123 570.425964,642.228027 570.008667,641.929993 
	C565.590454,645.913818 559.635254,648.441223 557.770874,655.699097 
	C552.121338,660.925659 552.070923,667.585083 550.957764,673.868774 
z" />
  <path fill="#2F5F90" d="
M563.099548,624.102112 
	C560.348389,627.550903 558.035522,631.505188 554.758118,634.346985 
	C547.115112,640.973999 543.525330,649.256470 542.772400,659.095398 
	C542.610413,661.211914 542.047974,663.297852 541.608276,665.740784 
	C537.110229,663.934204 534.806641,660.915344 535.132324,656.246582 
	C535.562256,650.084106 538.007996,644.899048 542.310974,640.302673 
	C543.853027,638.655396 543.815491,635.529419 544.164917,632.540405 
	C547.850464,623.507507 555.920227,624.890625 563.099548,624.102112 
z" />
  <path fill="#FAFBFA" d="
M590.116577,716.574707 
	C582.346069,716.647766 574.531921,716.334900 566.254822,715.992188 
	C568.892029,712.322083 571.869263,708.567200 575.126465,705.073364 
	C578.425171,701.534912 585.916016,703.254700 587.393860,707.742004 
	C588.317749,710.547424 589.181946,713.372498 590.116577,716.574707 
z" />
  <path fill="#68C95D" d="
M587.034668,674.577271 
	C586.371643,669.363159 585.617432,663.745117 585.033203,658.109375 
	C584.795898,655.819763 585.356628,653.229065 581.603516,652.674866 
	C581.528625,651.362488 581.731445,650.403503 581.934265,649.444580 
	C581.934265,649.444580 581.861572,649.161987 582.180664,648.939453 
	C582.739868,648.478699 582.890503,648.193237 582.951721,647.860596 
	C582.951721,647.860596 582.970215,647.981445 583.219177,647.775940 
	C583.627502,646.853394 583.786865,646.136292 583.946167,645.419250 
	C583.946167,645.419250 583.770569,645.314026 584.113586,644.961975 
	C585.202454,640.610107 585.948303,636.610352 586.724915,632.445679 
	C587.804810,632.625183 588.920288,632.810608 590.035828,632.996033 
	C590.222046,638.562317 590.944214,644.174805 590.468506,649.683960 
	C589.760376,657.883057 588.205994,666.009094 587.034668,674.577271 
z" />
  <path fill="#3F5667" d="
M577.094604,634.519409 
	C574.624634,630.880249 572.187256,627.669434 569.944763,624.715393 
	C573.097961,623.427124 576.434692,624.531311 578.819824,628.961609 
	C584.777039,640.026733 579.083069,656.899780 562.010986,658.458435 
	C563.618042,656.732056 564.351746,655.323242 565.485779,654.824280 
	C574.217651,650.983337 578.158508,644.450439 577.094604,634.519409 
z" />
  <path fill="#46A650" d="
M618.187012,659.815674 
	C619.767761,663.816650 616.734985,666.374878 614.176392,665.717407 
	C607.601379,664.027588 600.979004,661.639771 595.234436,658.126526 
	C593.456299,657.038940 594.438721,651.437317 594.549805,647.647705 
	C595.939697,648.880554 596.999817,650.330322 597.923096,651.862427 
	C601.525391,657.840027 612.736450,662.262329 618.187012,659.815674 
z" />
  <path fill="#46A650" d="
M567.215454,602.293152 
	C567.885986,602.520325 568.684326,603.020447 568.855103,603.682373 
	C571.593750,614.296448 581.022583,618.691772 591.132874,613.950195 
	C592.904053,613.119568 594.553284,612.028870 596.614502,611.020264 
	C594.869202,617.131042 587.616394,621.652832 581.120972,620.863220 
	C573.900452,619.985596 567.519958,613.831238 566.934631,607.077209 
	C566.807739,605.612915 567.003906,604.120728 567.215454,602.293152 
z" />
  <path fill="#97E084" d="
M571.253662,630.688843 
	C569.171814,632.234192 566.695251,633.300110 564.559509,634.838867 
	C562.700134,636.178589 561.302734,638.139526 559.568054,639.675476 
	C549.735107,648.381897 546.583252,659.446899 547.991455,672.553833 
	C547.240967,670.960571 545.812988,668.961731 545.808167,666.959412 
	C545.773132,652.300964 551.064209,640.044617 563.351135,631.550842 
	C565.255005,630.234680 568.423340,630.747742 571.253662,630.688843 
z" />
  <path fill="#68C95D" d="
M618.048828,659.496216 
	C612.736450,662.262329 601.525391,657.840027 597.923096,651.862427 
	C596.999817,650.330322 595.939697,648.880554 594.687622,647.213074 
	C594.557312,645.094727 594.681763,643.156250 594.866821,640.272705 
	C596.105713,642.026794 596.910767,642.873840 597.378662,643.877991 
	C599.920105,649.332581 604.000244,652.697449 609.839783,654.457886 
	C612.740540,655.332458 615.233215,657.560852 618.048828,659.496216 
z" />
  <path fill="#97E084" d="
M596.061829,596.607544 
	C592.200989,595.262878 589.029785,592.087158 583.976013,592.759521 
	C579.447937,593.362000 575.701111,594.279358 572.957642,598.259705 
	C572.054138,599.570557 570.063965,600.132385 568.182922,601.059448 
	C568.925171,595.087708 573.527466,590.068848 579.424377,589.223755 
	C586.218140,588.250061 592.230835,589.783691 596.061829,596.607544 
z" />
  <path fill="#87D575" d="
M590.016968,632.633911 
	C588.920288,632.810608 587.804810,632.625183 586.724915,632.445679 
	C585.948303,636.610352 585.202454,640.610107 584.145020,644.864563 
	C585.148560,637.656250 584.476746,630.620544 578.785706,624.470215 
	C585.047913,624.222107 588.403625,627.041992 590.016968,632.633911 
z" />
  <path fill="#6EB867" d="
M597.962036,720.669434 
	C605.222961,719.093872 606.134644,717.932556 604.243164,710.455811 
	C602.391541,703.137268 600.121155,695.924683 598.065247,688.271362 
	C601.067871,697.274170 604.534790,706.554321 606.793274,716.119812 
	C607.847961,720.587158 603.497192,722.658691 597.962036,720.669434 
z" />
  <path fill="#46A650" d="
M551.335938,673.951782 
	C552.070923,667.585083 552.121338,660.925659 557.612671,656.020935 
	C557.199890,660.716003 556.683777,665.517822 555.508911,670.152649 
	C555.124329,671.669861 553.027771,672.753113 551.335938,673.951782 
z" />
  <path fill="#93A3AB" d="
M563.092346,624.092957 
	C555.920227,624.890625 547.850464,623.507507 543.800171,632.345154 
	C543.769531,632.687805 543.777832,632.748108 543.575806,632.780151 
	C543.373718,632.812256 543.058228,632.995850 543.058228,632.995850 
	C544.166748,624.630920 547.905212,621.595764 556.933960,621.874268 
	C558.737183,621.929810 560.529541,622.335632 562.669800,623.065674 
	C563.043091,623.729797 563.073486,623.908264 563.103821,624.086731 
	C563.103821,624.086731 563.085144,624.083801 563.092346,624.092957 
z" />
  <path fill="#87D575" d="
M577.652161,655.055725 
	C577.072021,656.559631 576.512329,658.560181 575.211975,659.753906 
	C572.919006,661.859070 570.174194,663.471985 567.437134,665.420105 
	C566.632202,664.702332 565.702942,663.873596 564.456055,663.044312 
	C568.538696,660.425537 572.938904,657.807312 577.652161,655.055725 
z" />
  <path fill="#6EB867" d="
M591.952576,707.370911 
	C592.948975,709.433777 593.962585,711.872925 594.942383,714.712524 
	C593.928894,712.657776 592.949402,710.202454 591.952576,707.370911 
z" />
  <path fill="#6EB867" d="
M598.054443,687.588989 
	C596.773621,686.474854 595.407532,685.042419 594.086304,683.230591 
	C595.410461,684.324402 596.689819,685.797546 598.054443,687.588989 
z" />
  <path fill="#97E084" d="
M597.981628,603.536621 
	C597.302734,601.838501 596.677551,599.763123 596.044373,597.296875 
	C596.702698,598.990417 597.368958,601.074890 597.981628,603.536621 
z" />
  <path fill="#6EB867" d="
M589.778564,700.459961 
	C590.494019,701.944092 591.212524,703.809448 591.893188,706.100098 
	C591.164001,704.630615 590.472778,702.735962 589.778564,700.459961 
z" />
  <path fill="#6EB867" d="
M589.064575,677.612427 
	C588.422668,677.174927 587.723877,676.421265 587.033813,675.301636 
	C587.697571,675.722473 588.352661,676.509399 589.064575,677.612427 
z" />
  <path fill="#87D575" d="
M581.665283,649.664185 
	C581.731445,650.403503 581.528625,651.362488 581.202393,652.670837 
	C580.864441,653.007812 580.649841,652.995422 580.117676,652.919800 
	C580.332153,651.865601 580.864258,650.874695 581.665283,649.664185 
z" />
  <path fill="#6EB867" d="
M595.937500,718.359558 
	C596.540527,718.575317 597.168945,719.100586 597.687988,719.973145 
	C597.040100,719.769958 596.501465,719.219482 595.937500,718.359558 
z" />
  <path fill="#2F5F90" d="
M542.799072,633.063110 
	C543.058228,632.995850 543.373718,632.812256 543.555664,632.803040 
	C543.339722,633.312195 542.941833,633.830505 542.543884,634.348877 
	C542.542542,633.942749 542.541260,633.536560 542.799072,633.063110 
z" />
  <path fill="#6EB867" d="
M594.863281,715.372986 
	C595.230774,715.815491 595.606567,716.594360 595.962463,717.726685 
	C595.585571,717.289856 595.228516,716.499634 594.863281,715.372986 
z" />
  <path fill="#6EB867" d="
M588.813354,698.356934 
	C589.139343,698.531982 589.520874,699.012451 589.873352,699.827148 
	C589.519226,699.661682 589.194031,699.161987 588.813354,698.356934 
z" />
  <path fill="#46A650" d="
M597.434509,610.071716 
	C597.266235,609.669250 597.331116,609.048157 597.632080,608.211182 
	C597.801331,608.614502 597.734558,609.233826 597.434509,610.071716 
z" />
  <path fill="#87D575" d="
M583.655151,645.644348 
	C583.786865,646.136292 583.627502,646.853394 583.158203,647.779846 
	C583.020203,647.282654 583.192200,646.576050 583.655151,645.644348 
z" />
  <path fill="#6EB867" d="
M590.079773,678.646729 
	C589.863525,678.731384 589.554932,678.560974 589.145691,678.137695 
	C589.359192,678.053772 589.673279,678.222778 590.079773,678.646729 
z" />
  <path fill="#6EB867" d="
M591.057800,679.672852 
	C590.846375,679.739258 590.546631,679.549133 590.170288,679.094910 
	C590.385681,679.025940 590.677551,679.221191 591.057800,679.672852 
z" />
  <path fill="#6EB867" d="
M592.056885,680.670776 
	C591.845825,680.741943 591.543823,680.557861 591.154968,680.114563 
	C591.367432,680.042053 591.666748,680.228821 592.056885,680.670776 
z" />
  <path fill="#6EB867" d="
M593.057922,681.667969 
	C592.846680,681.739319 592.544617,681.555603 592.156982,681.112183 
	C592.369934,681.039246 592.668518,681.226013 593.057922,681.667969 
z" />
  <path fill="#6EB867" d="
M594.064941,682.659912 
	C593.849182,682.735046 593.545837,682.552917 593.159058,682.109863 
	C593.376160,682.033508 593.676819,682.218079 594.064941,682.659912 
z" />
  <path fill="#87D575" d="
M582.700562,647.936523 
	C582.890503,648.193237 582.739868,648.478699 582.290771,648.843628 
	C582.204285,648.651062 582.326904,648.331787 582.700562,647.936523 
z" />
  <path fill="#68C95D" d="
M568.221313,649.347778 
	C568.011292,649.769653 567.637695,649.944885 567.264099,650.120117 
	C567.216431,649.760437 567.168762,649.400696 567.390320,648.852173 
	C567.792236,648.809265 567.924988,648.955200 568.221313,649.347778 
z" />
  <path fill="#87D575" d="
M579.689514,652.946167 
	C579.775757,653.181274 579.586731,653.477295 579.150208,653.879639 
	C579.073242,653.659668 579.243713,653.333374 579.689514,652.946167 
z" />
  <path fill="#87D575" d="
M578.753113,654.020386 
	C578.788269,654.187866 578.585999,654.469788 578.148071,654.870850 
	C578.113525,654.704956 578.314575,654.419922 578.753113,654.020386 
z" />
  <path fill="#FEFEFE" d="
M567.212036,618.845398 
	C567.349243,619.077942 567.240173,619.593323 566.822632,619.918030 
	C566.664673,619.527649 566.815247,619.327942 567.212036,618.845398 
z" />
  <path fill="#2F5F90" d="
M563.317627,624.005371 
	C563.073486,623.908264 563.043091,623.729797 563.029541,623.280579 
	C563.208069,623.314575 563.369751,623.619324 563.317627,624.005371 
z" />
</svg>