<svg xmlns="http://www.w3.org/2000/svg" viewBox="700.0568668999999 379.14672590000004 196.2468012 196.2468012">
  <path fill="#140E08" d="
M796.767822,406.810394 
	C807.025208,405.491913 813.200745,410.682037 817.803162,418.578827 
	C827.177734,434.663483 836.562866,450.742065 845.889221,466.854706 
	C855.716492,483.832764 865.595215,500.783234 875.176941,517.899414 
	C877.150574,521.425049 878.754761,525.562134 879.071289,529.533508 
	C879.949768,540.555237 872.080017,548.911865 861.039795,548.936707 
	C820.242310,549.028564 779.443970,549.048340 738.646912,548.875854 
	C725.271667,548.819275 716.410767,535.131348 722.248535,523.087036 
	C727.382935,512.493652 733.645081,502.440430 739.531311,492.218994 
	C753.630981,467.734985 767.820862,443.302948 781.931519,418.825256 
	C785.279297,413.017822 789.289062,408.114349 796.767822,406.810394 
M739.795349,503.006531 
	C739.795349,503.006531 739.728760,502.754852 739.199707,503.097504 
	C738.755005,504.034119 738.310303,504.970764 737.983887,505.971832 
	C737.983887,505.971832 737.891846,505.873474 737.372498,506.183411 
	C737.158264,506.740814 736.944031,507.298248 736.853149,507.895142 
	C736.853149,507.895142 736.781494,507.787231 736.214966,508.165985 
	C735.192932,509.834991 733.990417,511.421509 733.182251,513.188354 
	C730.641968,518.741638 728.250000,524.362671 725.595703,530.666077 
	C725.703125,531.139221 725.810608,531.612305 725.815491,532.825684 
	C728.173950,540.576416 732.502319,544.004211 740.249939,544.005188 
	C779.574463,544.009888 818.902893,543.649170 858.221497,544.121094 
	C872.845154,544.296570 877.309204,531.741333 871.827515,522.084473 
	C860.163391,501.536133 848.148010,481.187195 836.109863,460.079132 
	C829.006592,447.846100 821.982239,435.566162 814.745239,423.412720 
	C812.910278,420.331024 810.398621,417.652222 807.862976,414.284790 
	C806.797119,413.766083 805.731262,413.247406 804.083008,412.209076 
	C795.376404,410.526276 791.479736,412.352020 787.944763,419.972900 
	C787.944763,419.972900 787.823792,419.812073 787.249329,420.178284 
	C785.420105,423.420471 783.590942,426.662659 781.341736,430.169373 
	C781.177246,430.630157 781.012695,431.090912 780.291260,431.975281 
	C779.465515,433.605713 778.639771,435.236145 777.954407,436.966644 
	C777.954407,436.966644 777.846741,436.832001 777.274292,437.210938 
	C774.761169,441.726776 772.248047,446.242584 769.915527,450.845093 
	C769.915527,450.845093 769.741150,450.770752 769.175293,451.147827 
	C766.685974,455.679871 764.196716,460.211914 761.866699,464.994232 
	C761.866699,464.994232 761.741089,464.725555 761.275940,464.989349 
	C761.176025,465.324188 761.076172,465.659058 761.003357,465.997437 
	C761.003357,465.997437 760.986206,465.975342 760.433533,466.376190 
	C755.578735,474.885132 750.723938,483.394043 745.991760,491.980377 
	C745.991760,491.980377 745.889832,491.877136 745.351379,492.239929 
	C744.799500,493.403900 744.247681,494.567871 743.861023,495.835480 
	C743.861023,495.835480 743.704651,495.742706 743.192627,496.095886 
	C742.629761,497.181854 742.066956,498.267822 741.405334,499.508820 
	C741.405334,499.508820 741.337219,499.679565 740.914062,500.088196 
	C740.512390,500.977753 740.110657,501.867310 739.795349,503.006531 
z" />
  <path fill="#FBE165" d="
M804.665405,412.728729 
	C805.731262,413.247406 806.797119,413.766083 807.887451,414.794434 
	C807.623779,415.564270 807.335510,415.824432 806.695312,416.019806 
	C802.522095,415.211548 796.670105,418.419647 793.961365,423.074890 
	C779.282593,448.302277 764.768066,473.625763 749.990540,498.794983 
	C743.800659,509.337555 737.086792,519.572021 730.666199,529.980530 
	C730.173889,530.778809 730.120239,531.847656 729.646484,532.803406 
	C729.430176,532.816040 728.998718,532.776428 728.750610,532.563416 
	C727.640991,532.262085 726.779541,532.173767 725.918091,532.085449 
	C725.810608,531.612305 725.703125,531.139221 726.002319,530.136658 
	C729.219177,524.618347 732.169373,519.701050 734.771606,514.605957 
	C735.830872,512.531860 736.134216,510.071716 736.781494,507.787231 
	C736.781494,507.787231 736.853149,507.895142 737.099976,507.770752 
	C737.528503,507.055389 737.710144,506.464447 737.891846,505.873474 
	C737.891846,505.873474 737.983887,505.971832 738.295898,505.912170 
	C738.981506,504.819946 739.355103,503.787384 739.728760,502.754852 
	C739.728760,502.754852 739.795349,503.006531 740.144287,502.903564 
	C740.774536,501.760254 741.055847,500.719910 741.337158,499.679565 
	C741.337219,499.679565 741.405334,499.508820 741.836548,499.575043 
	C742.746765,498.341736 743.225708,497.042236 743.704651,495.742706 
	C743.704651,495.742706 743.861023,495.835480 744.163086,495.809509 
	C744.940002,494.481415 745.414917,493.179291 745.889832,491.877136 
	C745.889832,491.877136 745.991760,491.980377 746.287476,491.936676 
	C750.333984,486.279785 754.297974,480.793243 757.741089,474.997314 
	C759.343811,472.299469 759.935974,469.001373 760.986206,465.975342 
	C760.986206,465.975342 761.003357,465.997437 761.227051,465.863098 
	C761.547607,465.394379 761.644348,465.059967 761.741089,464.725555 
	C761.741089,464.725555 761.866699,464.994232 762.148071,464.904419 
	C765.778320,460.607971 769.695984,456.697418 769.741150,450.770752 
	C769.741150,450.770752 769.915527,450.845093 770.192078,450.844116 
	C776.239807,447.916718 777.090637,442.399292 777.846741,436.832001 
	C777.846741,436.832001 777.954407,436.966644 778.262085,436.903656 
	C779.329224,435.077667 780.088745,433.314697 780.848267,431.551697 
	C781.012695,431.090912 781.177246,430.630157 781.909607,430.023621 
	C785.532654,427.198761 788.358398,424.397827 787.823792,419.812073 
	C787.823792,419.812073 787.944763,419.972900 788.256958,419.921051 
	C790.912659,418.859619 793.265869,417.871887 795.597290,416.835052 
	C798.629089,415.486694 801.643494,414.099335 804.665405,412.728729 
z" />
  <path fill="#E69440" d="
M725.866821,532.455566 
	C726.779541,532.173767 727.640991,532.262085 728.520325,532.800659 
	C730.319153,538.878906 734.742859,541.988403 741.094604,541.989929 
	C780.215881,541.999329 819.337158,542.004395 858.458435,541.988892 
	C870.161438,541.984314 875.666931,533.496399 870.040771,523.288025 
	C860.998657,506.881592 851.331482,490.820770 842.100403,474.516602 
	C839.684143,470.248932 837.902161,465.622131 835.940308,461.058777 
	C836.051697,460.957306 836.276550,460.756561 836.276550,460.756561 
	C848.148010,481.187195 860.163391,501.536133 871.827515,522.084473 
	C877.309204,531.741333 872.845154,544.296570 858.221497,544.121094 
	C818.902893,543.649170 779.574463,544.009888 740.249939,544.005188 
	C732.502319,544.004211 728.173950,540.576416 725.866821,532.455566 
z" />
  <path fill="#E69440" d="
M807.047241,416.084595 
	C807.335510,415.824432 807.623779,415.564270 808.054932,415.046204 
	C810.398621,417.652222 812.910278,420.331024 814.745239,423.412720 
	C821.982239,435.566162 829.006592,447.846100 836.193237,460.417847 
	C836.276550,460.756561 836.051697,460.957306 835.622070,460.957336 
	C834.331055,459.972168 833.290649,459.092712 832.636230,457.985199 
	C827.072815,448.569397 821.768127,438.994293 815.975891,429.723053 
	C813.539612,425.823486 810.117554,422.539734 807.124634,418.613892 
	C807.086121,417.529358 807.066711,416.806946 807.047241,416.084595 
z" />
  <path fill="#E5BE85" d="
M760.709839,466.175781 
	C759.935974,469.001373 759.343811,472.299469 757.741089,474.997314 
	C754.297974,480.793243 750.333984,486.279785 746.226135,491.897949 
	C750.723938,483.394043 755.578735,474.885132 760.709839,466.175781 
z" />
  <path fill="#E5BE85" d="
M804.374207,412.468903 
	C801.643494,414.099335 798.629089,415.486694 795.597290,416.835052 
	C793.265869,417.871887 790.912659,418.859619 788.180420,419.855713 
	C791.479736,412.352020 795.376404,410.526276 804.374207,412.468903 
z" />
  <path fill="#E5BE85" d="
M736.498230,507.976624 
	C736.134216,510.071716 735.830872,512.531860 734.771606,514.605957 
	C732.169373,519.701050 729.219177,524.618347 726.104858,529.782349 
	C728.250000,524.362671 730.641968,518.741638 733.182251,513.188354 
	C733.990417,511.421509 735.192932,509.834991 736.498230,507.976624 
z" />
  <path fill="#E5BE85" d="
M777.560547,437.021484 
	C777.090637,442.399292 776.239807,447.916718 770.101807,450.800781 
	C772.248047,446.242584 774.761169,441.726776 777.560547,437.021484 
z" />
  <path fill="#E5BE85" d="
M769.458252,450.959290 
	C769.695984,456.697418 765.778320,460.607971 762.068481,464.779297 
	C764.196716,460.211914 766.685974,455.679871 769.458252,450.959290 
z" />
  <path fill="#E5BE85" d="
M787.536560,419.995178 
	C788.358398,424.397827 785.532654,427.198761 782.119629,429.891357 
	C783.590942,426.662659 785.420105,423.420471 787.536560,419.995178 
z" />
  <path fill="#E5BE85" d="
M780.569763,431.763489 
	C780.088745,433.314697 779.329224,435.077667 778.191895,436.853638 
	C778.639771,435.236145 779.465515,433.605713 780.569763,431.763489 
z" />
  <path fill="#E5BE85" d="
M743.448608,495.919312 
	C743.225708,497.042236 742.746765,498.341736 741.885986,499.497559 
	C742.066956,498.267822 742.629761,497.181854 743.448608,495.919312 
z" />
  <path fill="#E5BE85" d="
M745.620605,492.058533 
	C745.414917,493.179291 744.940002,494.481415 744.080444,495.757690 
	C744.247681,494.567871 744.799500,493.403900 745.620605,492.058533 
z" />
  <path fill="#E5BE85" d="
M739.464233,502.926178 
	C739.355103,503.787384 738.981506,504.819946 738.236694,505.879944 
	C738.310303,504.970764 738.755005,504.034119 739.464233,502.926178 
z" />
  <path fill="#E5BE85" d="
M741.125610,499.883881 
	C741.055847,500.719910 740.774536,501.760254 740.101074,502.778748 
	C740.110657,501.867310 740.512390,500.977753 741.125610,499.883881 
z" />
  <path fill="#E5BE85" d="
M737.632202,506.028442 
	C737.710144,506.464447 737.528503,507.055389 737.038330,507.751038 
	C736.944031,507.298248 737.158264,506.740814 737.632202,506.028442 
z" />
  <path fill="#E5BE85" d="
M761.508545,464.857452 
	C761.644348,465.059967 761.547607,465.394379 761.213501,465.861328 
	C761.076172,465.659058 761.176025,465.324188 761.508545,464.857452 
z" />
  <path fill="#FAC805" d="
M806.695312,416.019775 
	C807.066711,416.806946 807.086121,417.529358 806.807251,418.749756 
	C806.354675,420.347229 805.690186,421.730988 806.121094,422.504547 
	C816.871399,441.804108 827.720886,461.048615 838.588013,480.282959 
	C847.167419,495.468231 855.890991,510.573029 864.350525,525.824585 
	C867.675781,531.819641 865.071350,535.983154 858.353027,535.986511 
	C818.368103,536.006592 778.382812,536.066467 738.398865,535.865723 
	C735.548401,535.851440 732.707886,533.861877 729.862732,532.790771 
	C730.120239,531.847656 730.173889,530.778809 730.666199,529.980530 
	C737.086792,519.572021 743.800659,509.337555 749.990540,498.794983 
	C764.768066,473.625763 779.282593,448.302277 793.961365,423.074890 
	C796.670105,418.419647 802.522095,415.211548 806.695312,416.019775 
M808.578857,524.934937 
	C808.819702,524.720093 809.018250,524.471497 809.576843,523.924622 
	C809.813904,523.703369 810.005798,523.448120 810.870300,522.928223 
	C811.582703,519.836060 813.583130,516.312195 812.723267,513.747009 
	C811.213989,509.244080 807.952942,505.328278 805.296814,500.954346 
	C806.322571,499.595795 809.267029,497.451721 809.605957,494.954041 
	C811.426453,481.539490 812.895020,468.058289 813.868225,454.555664 
	C814.347656,447.903168 808.719421,442.473083 802.258606,441.987549 
	C792.662109,441.266327 786.784790,444.642975 786.177734,452.575653 
	C785.644104,459.548737 785.961304,466.773376 787.205750,473.651154 
	C788.953369,483.310089 786.231384,494.280640 795.261597,501.976318 
	C793.022156,503.952850 791.004333,505.412018 789.382874,507.225525 
	C784.577942,512.599243 784.851990,519.699097 790.098877,523.575195 
	C790.291504,523.840271 790.535461,524.043884 791.100708,524.581543 
	C791.297546,524.844910 791.547424,525.040588 792.122742,525.552490 
	C792.331543,525.794373 792.580566,525.983215 793.090637,526.835144 
	C798.813904,530.213501 803.706360,529.979492 807.558350,525.895813 
	C807.804077,525.695862 808.008484,525.460083 808.578857,524.934937 
z" />
  <path fill="#F6A00B" d="
M729.646484,532.803406 
	C732.707886,533.861877 735.548401,535.851440 738.398865,535.865723 
	C778.382812,536.066467 818.368103,536.006592 858.353027,535.986511 
	C865.071350,535.983154 867.675781,531.819641 864.350525,525.824585 
	C855.890991,510.573029 847.167419,495.468231 838.588013,480.282959 
	C827.720886,461.048615 816.871399,441.804108 806.121094,422.504547 
	C805.690186,421.730988 806.354675,420.347229 806.826294,419.111908 
	C810.117554,422.539734 813.539612,425.823486 815.975891,429.723053 
	C821.768127,438.994293 827.072815,448.569397 832.636230,457.985199 
	C833.290649,459.092712 834.331055,459.972168 835.510681,461.058807 
	C837.902161,465.622131 839.684143,470.248932 842.100403,474.516602 
	C851.331482,490.820770 860.998657,506.881592 870.040771,523.288025 
	C875.666931,533.496399 870.161438,541.984314 858.458435,541.988892 
	C819.337158,542.004395 780.215881,541.999329 741.094604,541.989929 
	C734.742859,541.988403 730.319153,538.878906 728.768433,533.013672 
	C728.998718,532.776428 729.430176,532.816040 729.646484,532.803406 
z" />
  <path fill="#E0BF3E" d="
M789.831909,523.177429 
	C784.851990,519.699097 784.577942,512.599243 789.382874,507.225525 
	C791.004333,505.412018 793.022156,503.952850 795.261597,501.976318 
	C786.231384,494.280640 788.953369,483.310089 787.205750,473.651154 
	C785.961304,466.773376 785.644104,459.548737 786.177734,452.575653 
	C786.784790,444.642975 792.662109,441.266327 802.258606,441.987549 
	C808.719421,442.473083 814.347656,447.903168 813.868225,454.555664 
	C812.895020,468.058289 811.426453,481.539490 809.605957,494.954041 
	C809.267029,497.451721 806.322571,499.595795 805.296814,500.954346 
	C807.952942,505.328278 811.213989,509.244080 812.723267,513.747009 
	C813.583130,516.312195 811.582703,519.836060 810.398682,522.936096 
	C809.927124,522.943970 809.697693,522.733521 809.814331,522.383179 
	C812.879944,516.905579 812.144531,512.127991 808.251770,507.901093 
	C804.879456,504.239227 800.584351,503.462921 795.956909,505.056946 
	C789.042664,507.438782 786.689392,514.926331 790.167969,522.853271 
	C790.054688,522.960022 789.831909,523.177429 789.831909,523.177429 
M798.094482,443.660553 
	C790.462158,445.566101 786.906311,450.063538 787.601807,457.548126 
	C788.630920,468.621948 789.805969,479.684998 791.125000,490.727997 
	C791.851624,496.810883 794.921509,499.785614 799.806213,499.811768 
	C804.647156,499.837646 807.812134,496.956635 808.579285,490.858337 
	C809.966980,479.826019 811.237610,468.765717 812.066406,457.680420 
	C812.753601,448.490295 808.221985,443.974274 798.094482,443.660553 
z" />
  <path fill="#E0BF3E" d="
M807.171936,526.161743 
	C803.706360,529.979492 798.813904,530.213501 793.082275,526.371582 
	C793.073914,525.908020 793.273071,525.692505 793.622681,525.806885 
	C798.270813,528.528198 802.512451,527.888977 806.837097,525.814819 
	C806.947266,525.931885 807.171936,526.161743 807.171936,526.161743 
z" />
  <path fill="#E0BF3E" d="
M790.830872,524.185913 
	C790.535461,524.043884 790.291504,523.840271 789.965393,523.376343 
	C789.831909,523.177429 790.054688,522.960022 790.386719,522.966187 
	C790.973389,523.202515 791.125793,523.487366 791.089111,523.916016 
	C791.002197,524.005188 790.830872,524.185913 790.830872,524.185913 
z" />
  <path fill="#E0BF3E" d="
M810.039795,523.051392 
	C810.005798,523.448120 809.813904,523.703369 809.286560,523.963135 
	C808.996277,524.001587 808.816162,523.816040 808.891418,523.583313 
	C809.122192,523.040405 809.365845,522.834717 809.697693,522.733521 
	C809.697693,522.733521 809.927124,522.943970 810.039795,523.051392 
z" />
  <path fill="#E0BF3E" d="
M791.850281,525.168579 
	C791.547424,525.040588 791.297546,524.844910 790.965820,524.383728 
	C790.830872,524.185913 791.002197,524.005188 791.321960,524.003174 
	C791.942078,524.185852 792.129272,524.450623 792.114258,524.888062 
	C792.025330,524.980713 791.850281,525.168579 791.850281,525.168579 
z" />
  <path fill="#E0BF3E" d="
M809.085327,524.095337 
	C809.018250,524.471497 808.819702,524.720093 808.286255,524.967163 
	C807.993652,524.999329 807.813599,524.812134 807.907410,524.581665 
	C808.199646,524.061340 808.471252,523.882935 808.816162,523.816040 
	C808.816162,523.816040 808.996277,524.001587 809.085327,524.095337 
z" />
  <path fill="#E0BF3E" d="
M792.971924,526.013550 
	C792.580566,525.983215 792.331543,525.794373 791.986511,525.360535 
	C791.850281,525.168579 792.025330,524.980713 792.347290,524.964233 
	C792.976990,525.109680 793.178284,525.357910 793.273071,525.692505 
	C793.273071,525.692505 793.073914,525.908020 792.971924,526.013550 
z" />
  <path fill="#E0BF3E" d="
M808.082642,525.093933 
	C808.008484,525.460083 807.804077,525.695862 807.365112,526.028809 
	C807.171936,526.161743 806.947266,525.931885 806.951477,525.597168 
	C807.188782,525.011536 807.474731,524.861450 807.813599,524.812134 
	C807.813599,524.812134 807.993652,524.999329 808.082642,525.093933 
z" />
  <path fill="#14100D" d="
M798.472412,443.593842 
	C808.221985,443.974274 812.753601,448.490295 812.066406,457.680420 
	C811.237610,468.765717 809.966980,479.826019 808.579285,490.858337 
	C807.812134,496.956635 804.647156,499.837646 799.806213,499.811768 
	C794.921509,499.785614 791.851624,496.810883 791.125000,490.727997 
	C789.805969,479.684998 788.630920,468.621948 787.601807,457.548126 
	C786.906311,450.063538 790.462158,445.566101 798.472412,443.593842 
M807.213928,466.723602 
	C807.549866,462.919891 808.248657,459.105774 808.140198,455.314758 
	C807.958130,448.949402 801.578552,445.487457 795.914062,448.358185 
	C791.209656,450.742371 790.770142,454.839081 791.318298,459.411377 
	C792.544312,469.637054 793.777466,479.862457 794.893372,490.100433 
	C795.237915,493.261353 796.245483,495.825195 799.829712,495.713257 
	C803.280334,495.605469 804.456665,493.087921 804.769287,489.937164 
	C805.507507,482.498352 806.346436,475.069580 807.213928,466.723602 
z" />
  <path fill="#221208" d="
M807.907410,524.581665 
	C807.474731,524.861450 807.188782,525.011536 806.841309,525.480103 
	C802.512451,527.888977 798.270813,528.528198 793.622681,525.806885 
	C793.178284,525.357910 792.976990,525.109680 792.436218,524.871582 
	C792.129272,524.450623 791.942078,524.185852 791.408875,523.914062 
	C791.125793,523.487366 790.973389,523.202515 790.500000,522.859375 
	C786.689392,514.926331 789.042664,507.438782 795.956909,505.056946 
	C800.584351,503.462921 804.879456,504.239227 808.251770,507.901093 
	C812.144531,512.127991 812.879944,516.905579 809.814331,522.383179 
	C809.365845,522.834717 809.122192,523.040405 808.891418,523.583313 
	C808.471252,523.882935 808.199646,524.061340 807.907410,524.581665 
M798.155884,523.393127 
	C804.555603,523.829895 809.041992,519.368774 807.409729,514.028259 
	C806.303345,510.408295 803.977783,507.955750 799.877563,507.999512 
	C795.816223,508.042938 793.284363,510.420288 792.412415,514.099243 
	C791.398193,518.378052 793.306763,521.495239 798.155884,523.393127 
z" />
  <path fill="#F5F6F5" d="
M807.179260,467.180176 
	C806.346436,475.069580 805.507507,482.498352 804.769287,489.937164 
	C804.456665,493.087921 803.280334,495.605469 799.829712,495.713257 
	C796.245483,495.825195 795.237915,493.261353 794.893372,490.100433 
	C793.777466,479.862457 792.544312,469.637054 791.318298,459.411377 
	C790.770142,454.839081 791.209656,450.742371 795.914062,448.358185 
	C801.578552,445.487457 807.958130,448.949402 808.140198,455.314758 
	C808.248657,459.105774 807.549866,462.919891 807.179260,467.180176 
z" />
  <path fill="#F5F6F5" d="
M797.799316,523.269531 
	C793.306763,521.495239 791.398193,518.378052 792.412415,514.099243 
	C793.284363,510.420288 795.816223,508.042938 799.877563,507.999512 
	C803.977783,507.955750 806.303345,510.408295 807.409729,514.028259 
	C809.041992,519.368774 804.555603,523.829895 797.799316,523.269531 
z" />
</svg>